<?xml version="1.0" encoding="UTF-8"?>
<!DOCTYPE svg PUBLIC "-//W3C//DTD SVG 1.1//EN" "http://www.w3.org/Graphics/SVG/1.1/DTD/svg11.dtd">
<svg xmlns="http://www.w3.org/2000/svg" version="1.1" width="105px" height="161px" style="shape-rendering:geometricPrecision; text-rendering:geometricPrecision; image-rendering:optimizeQuality; fill-rule:evenodd; clip-rule:evenodd" xmlns:xlink="http://www.w3.org/1999/xlink">
<g><path style="opacity:0.007" fill="#906d4f" d="M 33.5,-0.5 C 57.1667,-0.5 80.8333,-0.5 104.5,-0.5C 104.5,19.8333 104.5,40.1667 104.5,60.5C 103.07,60.5792 101.736,60.2458 100.5,59.5C 100.167,60.3333 99.8333,61.1667 99.5,62C 100.832,66.3312 102.165,70.6645 103.5,75C 102.66,81.4299 102.326,87.9299 102.5,94.5C 102.747,95.7133 103.414,96.38 104.5,96.5C 104.5,97.1667 104.5,97.8333 104.5,98.5C 103.173,99.8001 101.84,101.133 100.5,102.5C 98.9273,107.804 95.594,111.637 90.5,114C 85.313,120.014 79.313,125.18 72.5,129.5C 71.1638,134.712 69.9971,139.712 69,144.5C 65.4454,147.302 62.1121,150.302 59,153.5C 58.5899,154.901 58.0899,156.234 57.5,157.5C 57.2089,158.649 56.3756,159.316 55,159.5C 54.1667,159.167 53.3333,158.833 52.5,158.5C 56.2105,153.169 60.5438,148.503 65.5,144.5C 67.3505,139.769 67.6839,135.103 66.5,130.5C 66.5,129.833 66.5,129.167 66.5,128.5C 70.5106,128.038 74.1772,126.538 77.5,124C 81.6472,119.522 86.1472,115.355 91,111.5C 100.629,96.9498 103.129,81.1165 98.5,64C 96.5407,62.7005 95.374,60.8671 95,58.5C 94.3292,57.7476 93.4959,57.4142 92.5,57.5C 89.5828,51.958 85.9161,46.958 81.5,42.5C 85.7927,39.2425 86.4594,35.4091 83.5,31C 79.0826,29.4315 77.0826,30.9315 77.5,35.5C 78.5,35.5 79.5,35.5 80.5,35.5C 80.5,34.5 80.5,33.5 80.5,32.5C 81.5,32.5 82.5,32.5 83.5,32.5C 84.1686,38.0001 81.8353,40.1667 76.5,39C 74.3555,36.0211 72.0222,33.1878 69.5,30.5C 74.5933,28.9168 76.4267,25.5835 75,20.5C 71.5033,15.4269 68.3366,15.4269 65.5,20.5C 65.859,23.2817 67.1923,23.9483 69.5,22.5C 68.7542,21.2638 68.4208,19.9305 68.5,18.5C 73.5628,19.9217 74.5628,22.755 71.5,27C 67.9075,27.3044 64.5742,26.4711 61.5,24.5C 63.25,20.5818 62.5834,17.2485 59.5,14.5C 58.4324,13.5655 57.099,13.2322 55.5,13.5C 55.7271,11.0672 54.7271,9.40058 52.5,8.5C 52.573,6.97306 51.9063,5.97306 50.5,5.5C 49.2946,4.31434 47.9613,4.31434 46.5,5.5C 46.5654,5.06178 46.3988,4.72845 46,4.5C 44.8129,6.04442 44.4795,7.71109 45,9.5C 45.2784,8.5842 45.7784,7.91753 46.5,7.5C 46.8426,12.0411 46.8426,16.3744 46.5,20.5C 45.3882,17.0536 43.0548,15.0536 39.5,14.5C 39.3398,16.1992 39.5065,17.8659 40,19.5C 41.6667,20.7332 43.1667,22.0665 44.5,23.5C 44.5,23.8333 44.5,24.1667 44.5,24.5C 38.9363,24.2825 33.603,25.2825 28.5,27.5C 27.5581,27.3918 26.7247,27.0585 26,26.5C 24.5233,22.0022 26.0233,19.8355 30.5,20C 29.6634,21.0113 29.33,22.1779 29.5,23.5C 30.8221,23.67 31.9887,23.3366 33,22.5C 33.6004,19.9047 33.1004,17.5713 31.5,15.5C 33.5,16.8333 35.5,18.1667 37.5,19.5C 37.3253,17.3792 37.6586,15.3792 38.5,13.5C 37.5041,13.4142 36.6708,13.7476 36,14.5C 35.2613,13.4258 34.2613,12.7591 33,12.5C 30.5,13.3333 28,14.1667 25.5,15C 24.7476,15.6708 24.4142,16.5041 24.5,17.5C 22.0882,17.6941 21.0882,19.0274 21.5,21.5C 20.2437,23.7257 20.2437,26.059 21.5,28.5C 19.2181,27.6103 16.8848,27.4436 14.5,28C 13.244,28.4169 12.5774,29.2502 12.5,30.5C 11.8333,30.5 11.5,30.8333 11.5,31.5C 7.9303,33.8966 7.59696,36.8966 10.5,40.5C 10.9569,41.2975 11.6236,41.6309 12.5,41.5C 11.2702,39.7028 10.6036,37.7028 10.5,35.5C 12.3652,37.513 14.0319,39.8464 15.5,42.5C 7.02464,50.9364 1.6913,60.9364 -0.5,72.5C -0.5,69.8333 -0.5,67.1667 -0.5,64.5C 1.07394,62.8984 1.74061,60.8984 1.5,58.5C 0.833333,58.8333 0.166667,59.1667 -0.5,59.5C -0.5,43.1667 -0.5,26.8333 -0.5,10.5C 10.8333,10.5 22.1667,10.5 33.5,10.5C 33.5,6.83333 33.5,3.16667 33.5,-0.5 Z M 46.5,5.5 C 46.5,6.16667 46.5,6.83333 46.5,7.5C 45.7784,7.91753 45.2784,8.5842 45,9.5C 44.4795,7.71109 44.8129,6.04442 46,4.5C 46.3988,4.72845 46.5654,5.06178 46.5,5.5 Z M 38.5,13.5 C 37.6586,15.3792 37.3253,17.3792 37.5,19.5C 35.5,18.1667 33.5,16.8333 31.5,15.5C 30.5,15.5 29.5,15.5 28.5,15.5C 27.1667,16.1667 25.8333,16.8333 24.5,17.5C 24.4142,16.5041 24.7476,15.6708 25.5,15C 28,14.1667 30.5,13.3333 33,12.5C 34.2613,12.7591 35.2613,13.4258 36,14.5C 36.6708,13.7476 37.5041,13.4142 38.5,13.5 Z M 89.5,31.5 C 86.3,30.1604 82.6333,28.9937 78.5,28C 79.1667,27.3333 79.8333,26.6667 80.5,26C 78.5322,22.0401 75.8655,18.7068 72.5,16C 70.5273,15.5045 68.5273,15.3379 66.5,15.5C 71.1988,12.4272 76.1988,12.0938 81.5,14.5C 84.1806,18.3572 86.6806,22.3572 89,26.5C 89.4935,28.1341 89.6602,29.8008 89.5,31.5 Z M 24.5,17.5 C 24.2014,19.4553 23.2014,20.7886 21.5,21.5C 21.0882,19.0274 22.0882,17.6941 24.5,17.5 Z M 21.5,21.5 C 21.6741,23.861 22.0074,26.1944 22.5,28.5C 22.1667,28.5 21.8333,28.5 21.5,28.5C 20.2437,26.059 20.2437,23.7257 21.5,21.5 Z M 21.5,28.5 C 21.1583,29.3382 20.4916,29.6716 19.5,29.5C 17.0504,29.298 14.717,29.6314 12.5,30.5C 12.5774,29.2502 13.244,28.4169 14.5,28C 16.8848,27.4436 19.2181,27.6103 21.5,28.5 Z M 11.5,31.5 C 11.1667,32.8333 10.8333,34.1667 10.5,35.5C 10.6036,37.7028 11.2702,39.7028 12.5,41.5C 11.6236,41.6309 10.9569,41.2975 10.5,40.5C 7.59696,36.8966 7.9303,33.8966 11.5,31.5 Z M 89.5,31.5 C 92.3903,31.278 95.057,31.9447 97.5,33.5C 98.8104,38.8799 99.1437,44.2133 98.5,49.5C 96.1305,49.8511 93.7972,50.0178 91.5,50C 90.7433,48.4878 89.7433,47.1545 88.5,46C 89.9125,42.2958 90.9125,38.4624 91.5,34.5C 90.8075,33.4822 90.1408,32.4822 89.5,31.5 Z M 12.5,43.5 C 12.1667,44.5 11.5,45.1667 10.5,45.5C 10.5,44.1667 11.1667,43.5 12.5,43.5 Z M 4.5,53.5 C 4.46141,52.2438 4.96141,51.2438 6,50.5C 6.5847,51.9976 6.0847,52.9976 4.5,53.5 Z M 4.5,53.5 C 4.25027,55.674 3.25027,57.3406 1.5,58.5C 1.2729,56.0672 2.2729,54.4006 4.5,53.5 Z"/></g>
<g><path style="opacity:0.996" fill="#62100e" d="M 50.5,5.5 C 51.9063,5.97306 52.573,6.97306 52.5,8.5C 52.9693,12.9104 51.9693,16.9104 49.5,20.5C 47.7191,15.972 47.2191,11.3053 48,6.5C 48.6708,5.74756 49.5041,5.41423 50.5,5.5 Z"/></g>
<g><path style="opacity:1" fill="#651c16" d="M 46.5,20.5 C 46.4142,21.4959 46.7476,22.3292 47.5,23C 46.552,23.4828 45.552,23.6495 44.5,23.5C 43.1667,22.0665 41.6667,20.7332 40,19.5C 39.5065,17.8659 39.3398,16.1992 39.5,14.5C 43.0548,15.0536 45.3882,17.0536 46.5,20.5 Z"/></g>
<g><path style="opacity:0.44" fill="#79513b" d="M 50.5,5.5 C 49.5041,5.41423 48.6708,5.74756 48,6.5C 47.2191,11.3053 47.7191,15.972 49.5,20.5C 51.9693,16.9104 52.9693,12.9104 52.5,8.5C 54.7271,9.40058 55.7271,11.0672 55.5,13.5C 57.099,13.2322 58.4324,13.5655 59.5,14.5C 62.5834,17.2485 63.25,20.5818 61.5,24.5C 56.5763,23.9621 52.5763,25.6288 49.5,29.5C 47.4788,28.1455 45.8121,26.4788 44.5,24.5C 44.5,24.1667 44.5,23.8333 44.5,23.5C 45.552,23.6495 46.552,23.4828 47.5,23C 46.7476,22.3292 46.4142,21.4959 46.5,20.5C 46.8426,16.3744 46.8426,12.0411 46.5,7.5C 46.5,6.83333 46.5,6.16667 46.5,5.5C 47.9613,4.31434 49.2946,4.31434 50.5,5.5 Z"/></g>
<g><path style="opacity:1" fill="#651914" d="M 59.5,14.5 C 59.3542,18.619 57.3542,21.619 53.5,23.5C 53.1667,22.8333 52.8333,22.1667 52.5,21.5C 53.5314,19.6178 54.3647,17.6178 55,15.5C 56.3561,14.6198 57.8561,14.2865 59.5,14.5 Z"/></g>
<g><path style="opacity:0.047" fill="#876146" d="M 28.5,15.5 C 27.7934,17.1344 26.6268,18.4677 25,19.5C 22.134,25.0765 23.634,28.7431 29.5,30.5C 27.8103,32.5193 26.1436,34.5193 24.5,36.5C 23.0267,37.072 21.6934,37.9054 20.5,39C 17.1379,40.2928 15.1379,39.2928 14.5,36C 16.1008,31.2104 17.1008,31.3771 17.5,36.5C 18.5,36.5 19.5,36.5 20.5,36.5C 20.702,34.0504 20.3686,31.717 19.5,29.5C 20.4916,29.6716 21.1583,29.3382 21.5,28.5C 21.8333,28.5 22.1667,28.5 22.5,28.5C 22.0074,26.1944 21.6741,23.861 21.5,21.5C 23.2014,20.7886 24.2014,19.4553 24.5,17.5C 25.8333,16.8333 27.1667,16.1667 28.5,15.5 Z"/></g>
<g><path style="opacity:0.839" fill="#6c2c22" d="M 28.5,15.5 C 29.5,15.5 30.5,15.5 31.5,15.5C 33.1004,17.5713 33.6004,19.9047 33,22.5C 31.9887,23.3366 30.8221,23.67 29.5,23.5C 29.33,22.1779 29.6634,21.0113 30.5,20C 26.0233,19.8355 24.5233,22.0022 26,26.5C 26.7247,27.0585 27.5581,27.3918 28.5,27.5C 33.603,25.2825 38.9363,24.2825 44.5,24.5C 45.8121,26.4788 47.4788,28.1455 49.5,29.5C 52.5763,25.6288 56.5763,23.9621 61.5,24.5C 64.5742,26.4711 67.9075,27.3044 71.5,27C 74.5628,22.755 73.5628,19.9217 68.5,18.5C 68.4208,19.9305 68.7542,21.2638 69.5,22.5C 67.1923,23.9483 65.859,23.2817 65.5,20.5C 68.3366,15.4269 71.5033,15.4269 75,20.5C 76.4267,25.5835 74.5933,28.9168 69.5,30.5C 72.0222,33.1878 74.3555,36.0211 76.5,39C 81.8353,40.1667 84.1686,38.0001 83.5,32.5C 82.5,32.5 81.5,32.5 80.5,32.5C 80.5,33.5 80.5,34.5 80.5,35.5C 79.5,35.5 78.5,35.5 77.5,35.5C 77.0826,30.9315 79.0826,29.4315 83.5,31C 86.4594,35.4091 85.7927,39.2425 81.5,42.5C 85.9161,46.958 89.5828,51.958 92.5,57.5C 93.2051,60.3542 94.2051,63.0209 95.5,65.5C 100.576,91.8497 91.2425,111.35 67.5,124C 52.9108,129.107 38.5775,128.607 24.5,122.5C 21.5,119.833 18.5,117.167 15.5,114.5C 16.4916,114.672 17.1583,114.338 17.5,113.5C 21.4869,117.497 26.1536,120.497 31.5,122.5C 33.0418,123.301 34.7085,123.634 36.5,123.5C 37.5676,124.434 38.901,124.768 40.5,124.5C 45.8333,125.833 51.1667,125.833 56.5,124.5C 58.7354,124.795 60.7354,124.461 62.5,123.5C 63.1667,123.5 63.5,123.167 63.5,122.5C 64.9587,122.567 66.2921,122.234 67.5,121.5C 71.898,120.893 72.2313,119.893 68.5,118.5C 70.1353,117.319 71.802,117.319 73.5,118.5C 74.8518,117.476 76.1851,116.476 77.5,115.5C 79.1667,114.5 80.5,113.167 81.5,111.5C 85.2271,107.727 88.2271,103.394 90.5,98.5C 93.1045,92.9147 94.4379,86.9147 94.5,80.5C 95.5606,70.7282 93.2272,62.0615 87.5,54.5C 86.8645,52.2054 85.5311,50.5387 83.5,49.5C 83.6716,48.5084 83.3382,47.8417 82.5,47.5C 81.7377,45.7376 80.4044,44.7376 78.5,44.5C 77.7101,43.2058 76.7101,42.0391 75.5,41C 71.372,39.1021 67.372,36.9354 63.5,34.5C 60.5514,33.6978 57.5514,33.3645 54.5,33.5C 49.6446,32.3093 44.6446,32.3093 39.5,33.5C 38.5084,33.3284 37.8417,33.6618 37.5,34.5C 36.5,34.5 35.5,34.5 34.5,34.5C 35.8502,33.3501 35.6836,32.6834 34,32.5C 30.7345,33.7504 27.5678,35.0837 24.5,36.5C 26.1436,34.5193 27.8103,32.5193 29.5,30.5C 23.634,28.7431 22.134,25.0765 25,19.5C 26.6268,18.4677 27.7934,17.1344 28.5,15.5 Z"/></g>
<g><path style="opacity:0.22" fill="#825f45" d="M 55.5,26.5 C 60.0218,25.6203 63.3552,27.1203 65.5,31C 65.1667,31.5 64.8333,32 64.5,32.5C 60.717,30.9763 56.717,29.9763 52.5,29.5C 53.7701,28.7124 54.7701,27.7124 55.5,26.5 Z"/></g>
<g><path style="opacity:0.206" fill="#7d5a41" d="M 37.5,26.5 C 41.0798,25.9228 44.0798,26.9228 46.5,29.5C 42.8261,30.2325 39.1594,30.8992 35.5,31.5C 34.4173,30.635 34.2506,29.635 35,28.5C 35.9947,27.9341 36.828,27.2674 37.5,26.5 Z"/></g>
<g><path style="opacity:1" fill="#f3f1e9" d="M 54.5,33.5 C 57.5514,33.3645 60.5514,33.6978 63.5,34.5C 67.372,36.9354 71.372,39.1021 75.5,41C 76.7101,42.0391 77.7101,43.2058 78.5,44.5C 78.5,45.1667 78.5,45.8333 78.5,46.5C 75.763,47.8752 73.0963,48.2085 70.5,47.5C 70.6775,46.3052 71.0109,45.1385 71.5,44C 71.3865,42.7202 70.7199,41.8869 69.5,41.5C 68.4912,43.5177 67.4912,45.5177 66.5,47.5C 65.7321,46.7375 65.2321,45.7375 65,44.5C 63.6439,45.3802 62.1439,45.7135 60.5,45.5C 60.5,44.1667 60.5,42.8333 60.5,41.5C 60.5,40.5 60.5,39.5 60.5,38.5C 59.5,38.5 58.5,38.5 57.5,38.5C 57.634,40.2915 57.3007,41.9582 56.5,43.5C 54.4684,41.462 52.8018,39.1286 51.5,36.5C 51.8684,34.8247 52.8684,33.8247 54.5,33.5 Z"/></g>
<g><path style="opacity:1" fill="#8e887c" d="M 34.5,34.5 C 35.5,34.5 36.5,34.5 37.5,34.5C 37.0472,35.4584 36.3805,36.2917 35.5,37C 27.9226,36.8179 26.4226,39.3179 31,44.5C 31.4955,46.4727 31.6621,48.4727 31.5,50.5C 30.7516,48.067 29.585,45.7337 28,43.5C 27.1925,47.0267 27.3592,50.3601 28.5,53.5C 28.5,53.8333 28.5,54.1667 28.5,54.5C 28.3605,56.337 27.6939,56.6704 26.5,55.5C 25.3896,52.0595 23.5562,49.0595 21,46.5C 19.415,48.7337 18.2484,51.067 17.5,53.5C 17.1156,51.0706 16.449,48.7373 15.5,46.5C 20.7808,40.8959 27.1141,36.8959 34.5,34.5 Z"/></g>
<g><path style="opacity:1" fill="#dcdbcb" d="M 54.5,33.5 C 52.8684,33.8247 51.8684,34.8247 51.5,36.5C 52.8018,39.1286 54.4684,41.462 56.5,43.5C 56.5,44.5 56.5,45.5 56.5,46.5C 55.8386,47.7175 55.1719,49.0508 54.5,50.5C 51.4089,46.3161 49.4089,41.6494 48.5,36.5C 46.0217,37.7224 45.0217,39.7224 45.5,42.5C 45.8134,45.2469 45.48,47.9135 44.5,50.5C 42.295,47.4234 40.6284,44.0901 39.5,40.5C 39.5,38.1667 39.5,35.8333 39.5,33.5C 44.6446,32.3093 49.6446,32.3093 54.5,33.5 Z"/></g>
<g><path style="opacity:1" fill="#b4b09e" d="M 39.5,33.5 C 39.5,35.8333 39.5,38.1667 39.5,40.5C 38.8485,39.9094 38.1818,39.2427 37.5,38.5C 36.914,38.7093 36.414,39.0426 36,39.5C 35.829,44.5329 35.329,49.5329 34.5,54.5C 33.4756,53.1482 32.4756,51.8149 31.5,50.5C 31.6621,48.4727 31.4955,46.4727 31,44.5C 26.4226,39.3179 27.9226,36.8179 35.5,37C 36.3805,36.2917 37.0472,35.4584 37.5,34.5C 37.8417,33.6618 38.5084,33.3284 39.5,33.5 Z"/></g>
<g><path style="opacity:0.965" fill="#69211a" d="M 19.5,29.5 C 20.3686,31.717 20.702,34.0504 20.5,36.5C 19.5,36.5 18.5,36.5 17.5,36.5C 17.1008,31.3771 16.1008,31.2104 14.5,36C 15.1379,39.2928 17.1379,40.2928 20.5,39C 21.6934,37.9054 23.0267,37.072 24.5,36.5C 27.5678,35.0837 30.7345,33.7504 34,32.5C 35.6836,32.6834 35.8502,33.3501 34.5,34.5C 27.1141,36.8959 20.7808,40.8959 15.5,46.5C 10.0558,51.711 6.38913,58.0444 4.5,65.5C 1.04103,78.0242 2.37437,90.0242 8.5,101.5C 9.58044,103.996 10.9138,106.33 12.5,108.5C 14.3603,109.939 16.027,111.605 17.5,113.5C 17.1583,114.338 16.4916,114.672 15.5,114.5C 11.8428,110.836 8.50945,106.836 5.5,102.5C 3.63443,96.6572 1.63443,90.9906 -0.5,85.5C -0.5,81.1667 -0.5,76.8333 -0.5,72.5C 1.6913,60.9364 7.02464,50.9364 15.5,42.5C 14.0319,39.8464 12.3652,37.513 10.5,35.5C 10.8333,34.1667 11.1667,32.8333 11.5,31.5C 12.1667,31.5 12.5,31.1667 12.5,30.5C 14.717,29.6314 17.0504,29.298 19.5,29.5 Z"/></g>
<g><path style="opacity:1" fill="#847763" d="M 39.5,40.5 C 40.6284,44.0901 42.295,47.4234 44.5,50.5C 45.48,47.9135 45.8134,45.2469 45.5,42.5C 46.2679,41.7375 46.7679,40.7375 47,39.5C 48.4051,42.6188 48.9051,45.9521 48.5,49.5C 47.8826,49.3893 47.3826,49.056 47,48.5C 46.902,53.2177 44.7353,54.551 40.5,52.5C 39.8064,49.9124 38.6398,47.579 37,45.5C 36.8281,48.8255 36.9947,52.1589 37.5,55.5C 33.3086,55.4762 30.4752,53.4762 29,49.5C 28.51,50.7932 28.3433,52.1266 28.5,53.5C 27.3592,50.3601 27.1925,47.0267 28,43.5C 29.585,45.7337 30.7516,48.067 31.5,50.5C 32.4756,51.8149 33.4756,53.1482 34.5,54.5C 35.329,49.5329 35.829,44.5329 36,39.5C 36.414,39.0426 36.914,38.7093 37.5,38.5C 38.1818,39.2427 38.8485,39.9094 39.5,40.5 Z"/></g>
<g><path style="opacity:1" fill="#a8a090" d="M 56.5,46.5 C 57.1325,52.2098 54.7992,54.2098 49.5,52.5C 48.8728,51.5832 48.5394,50.5832 48.5,49.5C 48.9051,45.9521 48.4051,42.6188 47,39.5C 46.7679,40.7375 46.2679,41.7375 45.5,42.5C 45.0217,39.7224 46.0217,37.7224 48.5,36.5C 49.4089,41.6494 51.4089,46.3161 54.5,50.5C 55.1719,49.0508 55.8386,47.7175 56.5,46.5 Z"/></g>
<g><path style="opacity:1" fill="#6a6458" d="M 28.5,54.5 C 29.4345,55.5676 29.7678,56.901 29.5,58.5C 25.7849,58.7868 23.4515,57.1201 22.5,53.5C 22.3146,51.8042 21.4813,50.4709 20,49.5C 19.8078,51.5767 19.3078,53.5767 18.5,55.5C 17.7025,55.0431 17.3691,54.3764 17.5,53.5C 18.2484,51.067 19.415,48.7337 21,46.5C 23.5562,49.0595 25.3896,52.0595 26.5,55.5C 27.6939,56.6704 28.3605,56.337 28.5,54.5 Z"/></g>
<g><path style="opacity:1" fill="#eae6d5" d="M 82.5,47.5 C 83.3382,47.8417 83.6716,48.5084 83.5,49.5C 83.1068,53.7339 80.9401,56.7339 77,58.5C 77.3586,54.7319 78.1919,51.0652 79.5,47.5C 80.5,47.5 81.5,47.5 82.5,47.5 Z"/></g>
<g><path style="opacity:1" fill="#c5beac" d="M 78.5,46.5 C 77.242,48.6869 76.242,51.0202 75.5,53.5C 74.1634,54.3149 73.1634,55.4815 72.5,57C 70.8876,57.7203 69.3876,57.5536 68,56.5C 66.9302,52.8579 67.7636,49.8579 70.5,47.5C 73.0963,48.2085 75.763,47.8752 78.5,46.5 Z"/></g>
<g><path style="opacity:1" fill="#372618" d="M 73.5,61.5 C 74.1667,61.5 74.5,61.8333 74.5,62.5C 75.8103,65.4732 77.8103,67.8065 80.5,69.5C 80.7214,70.7348 81.3881,71.7348 82.5,72.5C 81.9953,73.9185 80.9953,74.5852 79.5,74.5C 77.6885,72.6146 76.5218,70.2813 76,67.5C 72.4063,64.0545 68.5729,61.0545 64.5,58.5C 54.4868,53.6738 44.4868,53.8405 34.5,59C 33.8903,60.9472 33.0569,62.7806 32,64.5C 31.3716,61.0465 30.2049,60.7131 28.5,63.5C 27.5,63.8333 26.8333,64.5 26.5,65.5C 25.8333,65.5 25.5,65.8333 25.5,66.5C 24.325,66.719 23.325,66.3857 22.5,65.5C 23.4147,64.6721 24.0814,63.6721 24.5,62.5C 23.0491,59.7629 21.7158,56.9296 20.5,54C 20.6834,52.3164 21.3501,52.1498 22.5,53.5C 23.4515,57.1201 25.7849,58.7868 29.5,58.5C 29.7678,56.901 29.4345,55.5676 28.5,54.5C 28.5,54.1667 28.5,53.8333 28.5,53.5C 28.3433,52.1266 28.51,50.7932 29,49.5C 30.4752,53.4762 33.3086,55.4762 37.5,55.5C 36.9947,52.1589 36.8281,48.8255 37,45.5C 38.6398,47.579 39.8064,49.9124 40.5,52.5C 44.7353,54.551 46.902,53.2177 47,48.5C 47.3826,49.056 47.8826,49.3893 48.5,49.5C 48.5394,50.5832 48.8728,51.5832 49.5,52.5C 54.7992,54.2098 57.1325,52.2098 56.5,46.5C 57.2216,46.0825 57.7216,45.4158 58,44.5C 58.2069,48.0894 58.7069,51.5894 59.5,55C 63.9485,55.9956 68.2819,57.1622 72.5,58.5C 72.2627,59.791 72.596,60.791 73.5,61.5 Z"/></g>
<g><path style="opacity:1" fill="#876d4d" d="M 60.5,41.5 C 58.9735,45.5811 59.3069,49.5811 61.5,53.5C 62.5,54.8333 63.5,54.8333 64.5,53.5C 65.1717,51.4705 65.8384,49.4705 66.5,47.5C 67.4912,45.5177 68.4912,43.5177 69.5,41.5C 70.7199,41.8869 71.3865,42.7202 71.5,44C 71.0109,45.1385 70.6775,46.3052 70.5,47.5C 67.7636,49.8579 66.9302,52.8579 68,56.5C 69.3876,57.5536 70.8876,57.7203 72.5,57C 73.1634,55.4815 74.1634,54.3149 75.5,53.5C 76.0431,53.56 76.3764,53.8933 76.5,54.5C 74.9802,56.6621 73.9802,58.9954 73.5,61.5C 72.596,60.791 72.2627,59.791 72.5,58.5C 68.2819,57.1622 63.9485,55.9956 59.5,55C 58.7069,51.5894 58.2069,48.0894 58,44.5C 57.7216,45.4158 57.2216,46.0825 56.5,46.5C 56.5,45.5 56.5,44.5 56.5,43.5C 57.3007,41.9582 57.634,40.2915 57.5,38.5C 58.5,38.5 59.5,38.5 60.5,38.5C 60.5,39.5 60.5,40.5 60.5,41.5 Z"/></g>
<g><path style="opacity:1" fill="#c6c2b2" d="M 60.5,41.5 C 60.5,42.8333 60.5,44.1667 60.5,45.5C 62.1439,45.7135 63.6439,45.3802 65,44.5C 65.2321,45.7375 65.7321,46.7375 66.5,47.5C 65.8384,49.4705 65.1717,51.4705 64.5,53.5C 63.5,54.8333 62.5,54.8333 61.5,53.5C 59.3069,49.5811 58.9735,45.5811 60.5,41.5 Z"/></g>
<g><path style="opacity:1" fill="#76736d" d="M 15.5,46.5 C 16.449,48.7373 17.1156,51.0706 17.5,53.5C 15.5864,56.6843 14.9197,60.351 15.5,64.5C 11.6099,62.9461 7.94321,63.2794 4.5,65.5C 6.38913,58.0444 10.0558,51.711 15.5,46.5 Z"/></g>
<g><path style="opacity:1" fill="#9e8564" d="M 64.5,58.5 C 61.8753,59.4577 61.8753,60.6243 64.5,62C 63.944,62.3826 63.6107,62.8826 63.5,63.5C 63.1667,63.5 62.8333,63.5 62.5,63.5C 60.8749,60.149 58.3749,59.4823 55,61.5C 52.7182,60.7102 50.5516,59.7102 48.5,58.5C 45.5847,58.2587 42.5847,58.592 39.5,59.5C 38.596,60.209 38.2627,61.209 38.5,62.5C 37.1667,62.5 35.8333,62.5 34.5,62.5C 34.5,63.5 34.5,64.5 34.5,65.5C 37.0593,65.1984 39.3926,65.5318 41.5,66.5C 37.6404,67.6441 33.6404,68.3107 29.5,68.5C 29.3713,66.7839 29.038,65.1172 28.5,63.5C 30.2049,60.7131 31.3716,61.0465 32,64.5C 33.0569,62.7806 33.8903,60.9472 34.5,59C 44.4868,53.8405 54.4868,53.6738 64.5,58.5 Z"/></g>
<g><path style="opacity:1" fill="#301b13" d="M 39.5,59.5 C 40.8845,60.8009 42.3845,60.8009 44,59.5C 48.4511,61.319 48.2844,62.9857 43.5,64.5C 41.8333,63.8333 40.1667,63.1667 38.5,62.5C 38.2627,61.209 38.596,60.209 39.5,59.5 Z"/></g>
<g><path style="opacity:1" fill="#b29872" d="M 64.5,58.5 C 68.5729,61.0545 72.4063,64.0545 76,67.5C 76.5218,70.2813 77.6885,72.6146 79.5,74.5C 79.5,74.8333 79.5,75.1667 79.5,75.5C 78.8333,75.5 78.5,75.8333 78.5,76.5C 77.065,78.4011 75.3983,78.7345 73.5,77.5C 72.9196,73.8581 72.4196,70.1914 72,66.5C 71.2917,65.6195 70.4584,64.9528 69.5,64.5C 67.6208,63.6586 65.6208,63.3253 63.5,63.5C 63.6107,62.8826 63.944,62.3826 64.5,62C 61.8753,60.6243 61.8753,59.4577 64.5,58.5 Z"/></g>
<g><path style="opacity:1" fill="#ad9e88" d="M 78.5,44.5 C 80.4044,44.7376 81.7377,45.7376 82.5,47.5C 81.5,47.5 80.5,47.5 79.5,47.5C 78.1919,51.0652 77.3586,54.7319 77,58.5C 80.9401,56.7339 83.1068,53.7339 83.5,49.5C 85.5311,50.5387 86.8645,52.2054 87.5,54.5C 88.8326,61.015 86.9992,66.3483 82,70.5C 81.6012,70.2716 81.4346,69.9382 81.5,69.5C 82.2371,67.6954 83.2371,66.0287 84.5,64.5C 84.1667,64.1667 83.8333,63.8333 83.5,63.5C 82.1667,64.5 80.8333,65.5 79.5,66.5C 79.246,64.087 79.246,61.7537 79.5,59.5C 78.3049,61.297 76.6382,62.297 74.5,62.5C 74.5,61.8333 74.1667,61.5 73.5,61.5C 73.9802,58.9954 74.9802,56.6621 76.5,54.5C 76.3764,53.8933 76.0431,53.56 75.5,53.5C 76.242,51.0202 77.242,48.6869 78.5,46.5C 78.5,45.8333 78.5,45.1667 78.5,44.5 Z"/></g>
<g><path style="opacity:1" fill="#e7dec6" d="M 83.5,54.5 C 84.5,54.5 85.5,54.5 86.5,54.5C 87.332,58.4969 85.832,61.1636 82,62.5C 81.6736,59.6677 82.1736,57.001 83.5,54.5 Z"/></g>
<g><path style="opacity:1" fill="#52483a" d="M 22.5,53.5 C 21.3501,52.1498 20.6834,52.3164 20.5,54C 21.7158,56.9296 23.0491,59.7629 24.5,62.5C 24.0814,63.6721 23.4147,64.6721 22.5,65.5C 23.325,66.3857 24.325,66.719 25.5,66.5C 20.9959,72.2093 17.6626,71.5426 15.5,64.5C 14.9197,60.351 15.5864,56.6843 17.5,53.5C 17.3691,54.3764 17.7025,55.0431 18.5,55.5C 19.3078,53.5767 19.8078,51.5767 20,49.5C 21.4813,50.4709 22.3146,51.8042 22.5,53.5 Z"/></g>
<g><path style="opacity:1" fill="#644635" d="M 48.5,58.5 C 48.7329,60.0618 49.3995,61.3951 50.5,62.5C 49.5655,63.5676 49.2322,64.901 49.5,66.5C 48.5,67.8333 47.5,67.8333 46.5,66.5C 45.5,65.8333 44.5,65.1667 43.5,64.5C 48.2844,62.9857 48.4511,61.319 44,59.5C 42.3845,60.8009 40.8845,60.8009 39.5,59.5C 42.5847,58.592 45.5847,58.2587 48.5,58.5 Z"/></g>
<g><path style="opacity:1" fill="#391f15" d="M 48.5,58.5 C 50.5516,59.7102 52.7182,60.7102 55,61.5C 58.3749,59.4823 60.8749,60.149 62.5,63.5C 59.8187,63.4621 57.3187,64.1287 55,65.5C 53.6136,64.2714 52.1136,63.2714 50.5,62.5C 49.3995,61.3951 48.7329,60.0618 48.5,58.5 Z"/></g>
<g><path style="opacity:1" fill="#ddc8b8" d="M 38.5,62.5 C 40.1667,63.1667 41.8333,63.8333 43.5,64.5C 44.5,65.1667 45.5,65.8333 46.5,66.5C 46.7373,67.791 46.404,68.791 45.5,69.5C 44.5637,68.0256 43.2303,67.0256 41.5,66.5C 39.3926,65.5318 37.0593,65.1984 34.5,65.5C 34.5,64.5 34.5,63.5 34.5,62.5C 35.8333,62.5 37.1667,62.5 38.5,62.5 Z"/></g>
<g><path style="opacity:1" fill="#f3d4bf" d="M 62.5,63.5 C 62.8333,63.5 63.1667,63.5 63.5,63.5C 65.6208,63.3253 67.6208,63.6586 69.5,64.5C 69.7989,66.604 69.4656,68.604 68.5,70.5C 67.3777,69.3698 66.0443,68.7031 64.5,68.5C 63.609,67.8902 62.609,67.5569 61.5,67.5C 60.1736,65.8049 60.5069,64.4716 62.5,63.5 Z"/></g>
<g><path style="opacity:1" fill="#655038" d="M 81.5,69.5 C 81.1667,69.5 80.8333,69.5 80.5,69.5C 77.8103,67.8065 75.8103,65.4732 74.5,62.5C 76.6382,62.297 78.3049,61.297 79.5,59.5C 79.246,61.7537 79.246,64.087 79.5,66.5C 80.8333,65.5 82.1667,64.5 83.5,63.5C 83.8333,63.8333 84.1667,64.1667 84.5,64.5C 83.2371,66.0287 82.2371,67.6954 81.5,69.5 Z"/></g>
<g><path style="opacity:1" fill="#888277" d="M 87.5,54.5 C 93.2272,62.0615 95.5606,70.7282 94.5,80.5C 91.5178,80.1044 88.8511,80.7711 86.5,82.5C 85.7348,81.3881 84.7348,80.7214 83.5,80.5C 83.6308,77.6333 82.2974,75.9666 79.5,75.5C 79.5,75.1667 79.5,74.8333 79.5,74.5C 80.9953,74.5852 81.9953,73.9185 82.5,72.5C 81.3881,71.7348 80.7214,70.7348 80.5,69.5C 80.8333,69.5 81.1667,69.5 81.5,69.5C 81.4346,69.9382 81.6012,70.2716 82,70.5C 86.9992,66.3483 88.8326,61.015 87.5,54.5 Z"/></g>
<g><path style="opacity:1" fill="#554643" d="M 61.5,67.5 C 62.609,67.5569 63.609,67.8902 64.5,68.5C 65.1408,69.4822 65.8075,70.4822 66.5,71.5C 66.1667,71.8333 65.8333,72.1667 65.5,72.5C 64.8333,71.8333 64.1667,71.1667 63.5,70.5C 62.7348,71.6119 61.7348,72.2786 60.5,72.5C 57.9162,71.9517 56.9162,70.285 57.5,67.5C 58.8333,67.5 60.1667,67.5 61.5,67.5 Z"/></g>
<g><path style="opacity:1" fill="#513d31" d="M 28.5,63.5 C 29.038,65.1172 29.3713,66.7839 29.5,68.5C 33.6404,68.3107 37.6404,67.6441 41.5,66.5C 43.2303,67.0256 44.5637,68.0256 45.5,69.5C 45.5,70.1667 45.1667,70.5 44.5,70.5C 43.5416,70.0472 42.7083,69.3805 42,68.5C 41.5172,69.448 41.3505,70.448 41.5,71.5C 38.5,71.5 35.5,71.5 32.5,71.5C 29.234,71.4326 27.734,73.0992 28,76.5C 25.9385,78.4063 23.7718,80.073 21.5,81.5C 21.8897,78.5342 21.223,75.8676 19.5,73.5C 21.9371,72.1966 24.1038,70.5299 26,68.5C 26.6667,69.1667 27.3333,69.8333 28,70.5C 28.2027,68.6092 27.7027,66.9425 26.5,65.5C 26.8333,64.5 27.5,63.8333 28.5,63.5 Z"/></g>
<g><path style="opacity:1" fill="#a88471" d="M 46.5,66.5 C 47.5,67.8333 48.5,67.8333 49.5,66.5C 49.5,68.5 49.5,70.5 49.5,72.5C 50.791,72.2627 51.791,72.596 52.5,73.5C 49.1667,73.5 45.8333,73.5 42.5,73.5C 43.2625,72.7321 44.2625,72.2321 45.5,72C 44.944,71.6174 44.6107,71.1174 44.5,70.5C 45.1667,70.5 45.5,70.1667 45.5,69.5C 46.404,68.791 46.7373,67.791 46.5,66.5 Z"/></g>
<g><path style="opacity:1" fill="#dab7a4" d="M 50.5,62.5 C 52.1136,63.2714 53.6136,64.2714 55,65.5C 57.3187,64.1287 59.8187,63.4621 62.5,63.5C 60.5069,64.4716 60.1736,65.8049 61.5,67.5C 60.1667,67.5 58.8333,67.5 57.5,67.5C 56.9162,70.285 57.9162,71.9517 60.5,72.5C 60.5,72.8333 60.5,73.1667 60.5,73.5C 59.4937,73.9377 59.4937,74.6043 60.5,75.5C 58.5648,74.8505 56.5648,74.5172 54.5,74.5C 53.8333,74.1667 53.1667,73.8333 52.5,73.5C 51.791,72.596 50.791,72.2627 49.5,72.5C 49.5,70.5 49.5,68.5 49.5,66.5C 49.2322,64.901 49.5655,63.5676 50.5,62.5 Z"/></g>
<g><path style="opacity:1" fill="#a07a63" d="M 69.5,64.5 C 70.4584,64.9528 71.2917,65.6195 72,66.5C 72.4196,70.1914 72.9196,73.8581 73.5,77.5C 72.2719,76.6935 71.2719,75.6935 70.5,74.5C 67.272,73.5863 63.9387,73.2529 60.5,73.5C 60.5,73.1667 60.5,72.8333 60.5,72.5C 61.7348,72.2786 62.7348,71.6119 63.5,70.5C 64.1667,71.1667 64.8333,71.8333 65.5,72.5C 65.8333,72.1667 66.1667,71.8333 66.5,71.5C 65.8075,70.4822 65.1408,69.4822 64.5,68.5C 66.0443,68.7031 67.3777,69.3698 68.5,70.5C 69.4656,68.604 69.7989,66.604 69.5,64.5 Z"/></g>
<g><path style="opacity:1" fill="#e2bda9" d="M 44.5,70.5 C 44.6107,71.1174 44.944,71.6174 45.5,72C 44.2625,72.2321 43.2625,72.7321 42.5,73.5C 40.629,73.8588 39.129,74.8588 38,76.5C 37.2051,82.1142 34.0385,84.4476 28.5,83.5C 27.828,80.0921 28.828,77.4255 31.5,75.5C 32.4287,74.3112 32.762,72.9778 32.5,71.5C 35.5,71.5 38.5,71.5 41.5,71.5C 41.3505,70.448 41.5172,69.448 42,68.5C 42.7083,69.3805 43.5416,70.0472 44.5,70.5 Z"/></g>
<g><path style="opacity:1" fill="#523225" d="M 42.5,73.5 C 45.8333,73.5 49.1667,73.5 52.5,73.5C 53.1667,73.8333 53.8333,74.1667 54.5,74.5C 56.0311,75.9245 55.6977,76.5912 53.5,76.5C 50.5,76.5 47.5,76.5 44.5,76.5C 42.9519,76.1788 42.2852,75.1788 42.5,73.5 Z"/></g>
<g><path style="opacity:1" fill="#a59c8f" d="M 15.5,64.5 C 17.6626,71.5426 20.9959,72.2093 25.5,66.5C 25.5,65.8333 25.8333,65.5 26.5,65.5C 27.7027,66.9425 28.2027,68.6092 28,70.5C 27.3333,69.8333 26.6667,69.1667 26,68.5C 24.1038,70.5299 21.9371,72.1966 19.5,73.5C 21.223,75.8676 21.8897,78.5342 21.5,81.5C 22.2751,83.3881 22.2751,85.3881 21.5,87.5C 20.791,88.404 19.791,88.7373 18.5,88.5C 18.1575,86.7748 17.1575,86.2748 15.5,87C 14.3128,88.0195 13.3128,89.1861 12.5,90.5C 12.9569,91.2975 13.6236,91.6309 14.5,91.5C 14.762,92.9778 14.4287,94.3112 13.5,95.5C 10.7978,94.2022 10.1311,94.8688 11.5,97.5C 9.08824,97.6941 8.08824,99.0274 8.5,101.5C 2.37437,90.0242 1.04103,78.0242 4.5,65.5C 7.94321,63.2794 11.6099,62.9461 15.5,64.5 Z"/></g>
<g><path style="opacity:1" fill="#f3d8c9" d="M 60.5,73.5 C 63.9387,73.2529 67.272,73.5863 70.5,74.5C 70.6309,75.3764 70.2975,76.0431 69.5,76.5C 64.7137,75.0909 64.3804,75.7576 68.5,78.5C 69.4287,79.6888 69.762,81.0222 69.5,82.5C 67.1274,81.797 65.1274,80.4637 63.5,78.5C 62.1667,77.8333 61.1667,76.8333 60.5,75.5C 59.4937,74.6043 59.4937,73.9377 60.5,73.5 Z"/></g>
<g><path style="opacity:1" fill="#825943" d="M 78.5,76.5 C 80.7565,77.5618 81.9232,79.2285 82,81.5C 80.5557,79.8446 78.7224,79.178 76.5,79.5C 76.7373,80.791 76.404,81.791 75.5,82.5C 74.0687,81.2196 73.4021,79.5529 73.5,77.5C 75.3983,78.7345 77.065,78.4011 78.5,76.5 Z"/></g>
<g><path style="opacity:1" fill="#d8afa0" d="M 44.5,76.5 C 47.5,76.5 50.5,76.5 53.5,76.5C 55.0133,77.3093 56.6799,77.4759 58.5,77C 62.9211,83.7102 62.2544,89.8768 56.5,95.5C 49.9195,99.0382 44.5861,97.7049 40.5,91.5C 40.3433,90.1266 40.51,88.7932 41,87.5C 41.2784,88.4158 41.7784,89.0825 42.5,89.5C 42.8588,91.371 43.8588,92.871 45.5,94C 49.7831,95.1868 53.4497,94.3535 56.5,91.5C 59.2129,87.3295 58.5462,83.6628 54.5,80.5C 54.1667,80.5 53.8333,80.5 53.5,80.5C 50.6038,79.2248 47.6038,79.2248 44.5,80.5C 43.1667,80.5 41.8333,80.5 40.5,80.5C 40.762,81.9778 40.4287,83.3112 39.5,84.5C 38.3861,83.277 38.2195,81.9437 39,80.5C 40.4615,78.5318 42.2948,77.1984 44.5,76.5 Z"/></g>
<g><path style="opacity:1" fill="#9d988c" d="M 83.5,80.5 C 84.7348,80.7214 85.7348,81.3881 86.5,82.5C 88.8511,80.7711 91.5178,80.1044 94.5,80.5C 94.4379,86.9147 93.1045,92.9147 90.5,98.5C 88.4319,95.5842 86.0986,92.7509 83.5,90C 82.552,89.5172 81.552,89.3505 80.5,89.5C 81.9697,86.6819 82.9697,83.6819 83.5,80.5 Z"/></g>
<g><path style="opacity:1" fill="#4c2523" d="M 53.5,80.5 C 48.9494,79.6583 45.2827,80.9917 42.5,84.5C 42.7329,82.9382 43.3995,81.6049 44.5,80.5C 47.6038,79.2248 50.6038,79.2248 53.5,80.5 Z"/></g>
<g><path style="opacity:1" fill="#160e10" d="M 53.5,80.5 C 53.8333,80.5 54.1667,80.5 54.5,80.5C 56.22,83.8892 56.8866,87.5559 56.5,91.5C 53.4497,94.3535 49.7831,95.1868 45.5,94C 43.8588,92.871 42.8588,91.371 42.5,89.5C 42.5,87.8333 42.5,86.1667 42.5,84.5C 45.2827,80.9917 48.9494,79.6583 53.5,80.5 Z"/></g>
<g><path style="opacity:1" fill="#8a6e60" d="M 32.5,71.5 C 32.762,72.9778 32.4287,74.3112 31.5,75.5C 28.828,77.4255 27.828,80.0921 28.5,83.5C 29.6555,87.4936 31.4889,91.1603 34,94.5C 35.0195,95.6872 36.1861,96.6872 37.5,97.5C 38.3857,96.675 38.719,95.675 38.5,94.5C 39.7879,96.0348 39.7879,97.7015 38.5,99.5C 35.4385,97.4106 32.4385,95.4106 29.5,93.5C 27.0461,91.2983 25.0461,88.6317 23.5,85.5C 22.8182,86.2427 22.1515,86.9094 21.5,87.5C 22.2751,85.3881 22.2751,83.3881 21.5,81.5C 23.7718,80.073 25.9385,78.4063 28,76.5C 27.734,73.0992 29.234,71.4326 32.5,71.5 Z"/></g>
<g><path style="opacity:1" fill="#b7866f" d="M 42.5,73.5 C 42.2852,75.1788 42.9519,76.1788 44.5,76.5C 42.2948,77.1984 40.4615,78.5318 39,80.5C 38.2195,81.9437 38.3861,83.277 39.5,84.5C 40.4287,83.3112 40.762,81.9778 40.5,80.5C 41.8333,80.5 43.1667,80.5 44.5,80.5C 43.3995,81.6049 42.7329,82.9382 42.5,84.5C 42.5,86.1667 42.5,87.8333 42.5,89.5C 41.7784,89.0825 41.2784,88.4158 41,87.5C 40.51,88.7932 40.3433,90.1266 40.5,91.5C 38.9519,91.8212 38.2852,92.8212 38.5,94.5C 38.719,95.675 38.3857,96.675 37.5,97.5C 36.1861,96.6872 35.0195,95.6872 34,94.5C 31.4889,91.1603 29.6555,87.4936 28.5,83.5C 34.0385,84.4476 37.2051,82.1142 38,76.5C 39.129,74.8588 40.629,73.8588 42.5,73.5 Z"/></g>
<g><path style="opacity:1" fill="#5a3837" d="M 54.5,80.5 C 58.5462,83.6628 59.2129,87.3295 56.5,91.5C 56.8866,87.5559 56.22,83.8892 54.5,80.5 Z"/></g>
<g><path style="opacity:1" fill="#ceab9a" d="M 70.5,74.5 C 71.2719,75.6935 72.2719,76.6935 73.5,77.5C 73.4021,79.5529 74.0687,81.2196 75.5,82.5C 75.6816,84.5914 75.3482,86.5914 74.5,88.5C 72.8068,89.2283 71.3068,90.2283 70,91.5C 67.2713,88.0239 65.1046,84.3573 63.5,80.5C 63.5,79.8333 63.5,79.1667 63.5,78.5C 65.1274,80.4637 67.1274,81.797 69.5,82.5C 69.762,81.0222 69.4287,79.6888 68.5,78.5C 64.3804,75.7576 64.7137,75.0909 69.5,76.5C 70.2975,76.0431 70.6309,75.3764 70.5,74.5 Z"/></g>
<g><path style="opacity:0.514" fill="#7f6146" d="M 92.5,57.5 C 93.4959,57.4142 94.3292,57.7476 95,58.5C 95.374,60.8671 96.5407,62.7005 98.5,64C 103.129,81.1165 100.629,96.9498 91,111.5C 86.1472,115.355 81.6472,119.522 77.5,124C 74.1772,126.538 70.5106,128.038 66.5,128.5C 66.1667,128.5 65.8333,128.5 65.5,128.5C 65.4142,127.504 65.7476,126.671 66.5,126C 69.8333,124.667 73.1667,123.333 76.5,122C 80.5,118.667 84.5,115.333 88.5,112C 90.8732,107.419 93.3732,102.919 96,98.5C 98.4063,88.9776 99.073,79.3109 98,69.5C 97.0656,68.1416 96.2323,66.8083 95.5,65.5C 94.2051,63.0209 93.2051,60.3542 92.5,57.5 Z"/></g>
<g><path style="opacity:1" fill="#3d362a" d="M 18.5,88.5 C 21.8413,89.4796 23.508,91.8129 23.5,95.5C 21.0799,95.2924 18.7466,95.6258 16.5,96.5C 15.2655,94.6017 15.5989,92.935 17.5,91.5C 16.5754,90.4376 15.5754,90.4376 14.5,91.5C 13.6236,91.6309 12.9569,91.2975 12.5,90.5C 13.3128,89.1861 14.3128,88.0195 15.5,87C 17.1575,86.2748 18.1575,86.7748 18.5,88.5 Z"/></g>
<g><path style="opacity:1" fill="#b69382" d="M 78.5,76.5 C 78.5,75.8333 78.8333,75.5 79.5,75.5C 82.2974,75.9666 83.6308,77.6333 83.5,80.5C 82.9697,83.6819 81.9697,86.6819 80.5,89.5C 80.7373,90.791 80.404,91.791 79.5,92.5C 77.313,90.3178 75.6464,90.4844 74.5,93C 71.4569,94.0549 68.4569,94.2216 65.5,93.5C 64.6358,89.1843 63.9691,84.851 63.5,80.5C 65.1046,84.3573 67.2713,88.0239 70,91.5C 71.3068,90.2283 72.8068,89.2283 74.5,88.5C 75.3482,86.5914 75.6816,84.5914 75.5,82.5C 76.404,81.791 76.7373,80.791 76.5,79.5C 78.7224,79.178 80.5557,79.8446 82,81.5C 81.9232,79.2285 80.7565,77.5618 78.5,76.5 Z"/></g>
<g><path style="opacity:1" fill="#9b7963" d="M 54.5,74.5 C 56.5648,74.5172 58.5648,74.8505 60.5,75.5C 61.1667,76.8333 62.1667,77.8333 63.5,78.5C 63.5,79.1667 63.5,79.8333 63.5,80.5C 63.9691,84.851 64.6358,89.1843 65.5,93.5C 68.4569,94.2216 71.4569,94.0549 74.5,93C 75.6464,90.4844 77.313,90.3178 79.5,92.5C 78.0256,93.4363 77.0256,94.7697 76.5,96.5C 77.1268,100.46 79.4601,102.794 83.5,103.5C 82.7689,105.749 81.7689,107.916 80.5,110C 80.5699,110.765 80.9033,111.265 81.5,111.5C 80.5,113.167 79.1667,114.5 77.5,115.5C 76.1938,114.533 75.5271,113.199 75.5,111.5C 76.791,111.737 77.791,111.404 78.5,110.5C 79.4124,109.262 79.5791,107.928 79,106.5C 77.2309,104.383 75.3976,102.383 73.5,100.5C 75.0481,100.179 75.7148,99.1788 75.5,97.5C 73.8561,97.7135 72.3561,97.3802 71,96.5C 67.6461,97.8112 64.1461,98.6445 60.5,99C 58.6358,102.698 55.6358,104.532 51.5,104.5C 57.1448,102.147 56.8114,101.147 50.5,101.5C 53.5957,101.095 55.9291,99.4281 57.5,96.5C 57.3764,95.8933 57.0431,95.56 56.5,95.5C 62.2544,89.8768 62.9211,83.7102 58.5,77C 56.6799,77.4759 55.0133,77.3093 53.5,76.5C 55.6977,76.5912 56.0311,75.9245 54.5,74.5 Z"/></g>
<g><path style="opacity:1" fill="#ae9e83" d="M 79.5,92.5 C 79.5106,94.0174 80.1772,95.1841 81.5,96C 83.2205,96.7393 84.8872,97.5726 86.5,98.5C 85.8333,98.8333 85.1667,99.1667 84.5,99.5C 81.6264,98.8779 78.9597,97.8779 76.5,96.5C 77.0256,94.7697 78.0256,93.4363 79.5,92.5 Z"/></g>
<g><path style="opacity:0.009" fill="#916e50" d="M -0.5,85.5 C 1.63443,90.9906 3.63443,96.6572 5.5,102.5C 8.50945,106.836 11.8428,110.836 15.5,114.5C 18.5,117.167 21.5,119.833 24.5,122.5C 26.1634,124.49 28.1634,126.157 30.5,127.5C 31.1687,129.631 31.8354,131.631 32.5,133.5C 34.0493,135.829 34.8827,138.496 35,141.5C 36.0113,142.337 37.1779,142.67 38.5,142.5C 38.238,143.978 38.5713,145.311 39.5,146.5C 41.5879,147.179 43.5879,147.512 45.5,147.5C 45.0133,148.446 44.6799,149.446 44.5,150.5C 45.5186,152.511 46.5186,154.511 47.5,156.5C 47.8039,157.15 48.1373,157.817 48.5,158.5C 32.1803,159.499 15.8469,159.833 -0.5,159.5C -0.5,138.167 -0.5,116.833 -0.5,95.5C 0.833333,95.1667 0.833333,94.8333 -0.5,94.5C -0.5,91.5 -0.5,88.5 -0.5,85.5 Z M 32.5,145.5 C 33.1174,145.611 33.6174,145.944 34,146.5C 34.6667,148.833 34.6667,151.167 34,153.5C 33.7674,151.22 32.934,149.22 31.5,147.5C 31.8627,146.817 32.1961,146.15 32.5,145.5 Z"/></g>
<g><path style="opacity:1" fill="#594e3f" d="M 29.5,93.5 C 28.5,93.5 27.5,93.5 26.5,93.5C 26.5,94.5 26.5,95.5 26.5,96.5C 22.3774,97.2784 19.3774,99.6118 17.5,103.5C 15.7751,101.908 14.7751,102.242 14.5,104.5C 13.4265,103.749 13.2599,102.749 14,101.5C 15.4866,100.845 16.6533,99.8448 17.5,98.5C 15.5575,98.5353 13.5575,98.2019 11.5,97.5C 10.1311,94.8688 10.7978,94.2022 13.5,95.5C 14.4287,94.3112 14.762,92.9778 14.5,91.5C 15.5754,90.4376 16.5754,90.4376 17.5,91.5C 15.5989,92.935 15.2655,94.6017 16.5,96.5C 18.7466,95.6258 21.0799,95.2924 23.5,95.5C 23.508,91.8129 21.8413,89.4796 18.5,88.5C 19.791,88.7373 20.791,88.404 21.5,87.5C 22.1515,86.9094 22.8182,86.2427 23.5,85.5C 25.0461,88.6317 27.0461,91.2983 29.5,93.5 Z"/></g>
<g><path style="opacity:1" fill="#d2c9b7" d="M 80.5,89.5 C 81.552,89.3505 82.552,89.5172 83.5,90C 86.0986,92.7509 88.4319,95.5842 90.5,98.5C 88.2271,103.394 85.2271,107.727 81.5,111.5C 80.9033,111.265 80.5699,110.765 80.5,110C 81.7689,107.916 82.7689,105.749 83.5,103.5C 79.4601,102.794 77.1268,100.46 76.5,96.5C 78.9597,97.8779 81.6264,98.8779 84.5,99.5C 85.1667,99.1667 85.8333,98.8333 86.5,98.5C 84.8872,97.5726 83.2205,96.7393 81.5,96C 80.1772,95.1841 79.5106,94.0174 79.5,92.5C 80.404,91.791 80.7373,90.791 80.5,89.5 Z"/></g>
<g><path style="opacity:1" fill="#cbbea2" d="M 11.5,97.5 C 13.5575,98.2019 15.5575,98.5353 17.5,98.5C 16.6533,99.8448 15.4866,100.845 14,101.5C 13.2599,102.749 13.4265,103.749 14.5,104.5C 14.8432,106.483 14.1765,107.817 12.5,108.5C 10.9138,106.33 9.58044,103.996 8.5,101.5C 8.08824,99.0274 9.08824,97.6941 11.5,97.5 Z"/></g>
<g><path style="opacity:1" fill="#2c241a" d="M 26.5,96.5 C 26.7118,98.3841 27.7118,99.7174 29.5,100.5C 35.8932,104.243 42.7265,106.91 50,108.5C 57.4227,107.066 64.256,105.066 70.5,102.5C 69.925,104.411 68.925,106.078 67.5,107.5C 62.9511,108.045 58.6178,109.045 54.5,110.5C 52.9505,111.441 51.2838,112.107 49.5,112.5C 44.3299,109.777 38.9966,107.444 33.5,105.5C 33.6347,107.554 32.968,109.221 31.5,110.5C 31.1667,110.5 30.8333,110.5 30.5,110.5C 27.7837,108.914 25.4503,109.247 23.5,111.5C 22.8485,112.091 22.1818,112.757 21.5,113.5C 21.1667,113 20.8333,112.5 20.5,112C 22.3167,108.85 24.4834,106.017 27,103.5C 27.6172,102.551 27.4506,101.718 26.5,101C 25.1667,100.333 23.8333,100.333 22.5,101C 20.2911,102.873 18.4578,105.04 17,107.5C 16.1482,106.429 15.3149,105.429 14.5,104.5C 14.7751,102.242 15.7751,101.908 17.5,103.5C 19.3774,99.6118 22.3774,97.2784 26.5,96.5 Z"/></g>
<g><path style="opacity:1" fill="#d5cdba" d="M 73.5,100.5 C 75.3976,102.383 77.2309,104.383 79,106.5C 79.5791,107.928 79.4124,109.262 78.5,110.5C 74.7748,109.105 72.4415,106.438 71.5,102.5C 71.5,101.167 72.1667,100.5 73.5,100.5 Z"/></g>
<g><path style="opacity:1" fill="#604432" d="M 40.5,91.5 C 44.5861,97.7049 49.9195,99.0382 56.5,95.5C 57.0431,95.56 57.3764,95.8933 57.5,96.5C 55.9291,99.4281 53.5957,101.095 50.5,101.5C 48.5,101.5 46.5,101.5 44.5,101.5C 44.5,102.5 44.5,103.5 44.5,104.5C 46.8333,104.5 49.1667,104.5 51.5,104.5C 55.6358,104.532 58.6358,102.698 60.5,99C 64.1461,98.6445 67.6461,97.8112 71,96.5C 72.3561,97.3802 73.8561,97.7135 75.5,97.5C 75.7148,99.1788 75.0481,100.179 73.5,100.5C 72.1667,100.5 71.5,101.167 71.5,102.5C 71.1667,102.5 70.8333,102.5 70.5,102.5C 64.256,105.066 57.4227,107.066 50,108.5C 42.7265,106.91 35.8932,104.243 29.5,100.5C 27.7118,99.7174 26.7118,98.3841 26.5,96.5C 26.5,95.5 26.5,94.5 26.5,93.5C 27.5,93.5 28.5,93.5 29.5,93.5C 32.4385,95.4106 35.4385,97.4106 38.5,99.5C 39.7879,97.7015 39.7879,96.0348 38.5,94.5C 38.2852,92.8212 38.9519,91.8212 40.5,91.5 Z"/></g>
<g><path style="opacity:1" fill="#c5aa9b" d="M 50.5,101.5 C 56.8114,101.147 57.1448,102.147 51.5,104.5C 49.1667,104.5 46.8333,104.5 44.5,104.5C 44.5,103.5 44.5,102.5 44.5,101.5C 46.5,101.5 48.5,101.5 50.5,101.5 Z"/></g>
<g><path style="opacity:1" fill="#ab977b" d="M 70.5,102.5 C 70.8333,102.5 71.1667,102.5 71.5,102.5C 72.4415,106.438 74.7748,109.105 78.5,110.5C 77.791,111.404 76.791,111.737 75.5,111.5C 75.5271,113.199 76.1938,114.533 77.5,115.5C 76.1851,116.476 74.8518,117.476 73.5,118.5C 71.802,117.319 70.1353,117.319 68.5,118.5C 72.2313,119.893 71.898,120.893 67.5,121.5C 66.3758,116.853 66.3758,112.187 67.5,107.5C 68.925,106.078 69.925,104.411 70.5,102.5 Z"/></g>
<g><path style="opacity:1" fill="#b9cdc9" d="M 63.5,122.5 C 63.5,123.167 63.1667,123.5 62.5,123.5C 60.2033,122.261 59.87,120.428 61.5,118C 60.2011,116.674 58.8678,115.34 57.5,114C 54.6308,113.991 51.9641,113.824 49.5,113.5C 49.5,113.167 49.5,112.833 49.5,112.5C 51.2838,112.107 52.9505,111.441 54.5,110.5C 57.8411,109.995 61.1745,109.828 64.5,110C 63.5363,114.066 63.203,118.233 63.5,122.5 Z"/></g>
<g><path style="opacity:1" fill="#3c403a" d="M 49.5,112.5 C 49.5,112.833 49.5,113.167 49.5,113.5C 47.8784,114.122 46.5451,115.122 45.5,116.5C 43.1667,116.5 40.8333,116.5 38.5,116.5C 38.7373,115.209 38.404,114.209 37.5,113.5C 35.9731,113.573 34.9731,112.906 34.5,111.5C 33.791,110.596 32.791,110.263 31.5,110.5C 32.968,109.221 33.6347,107.554 33.5,105.5C 38.9966,107.444 44.3299,109.777 49.5,112.5 Z"/></g>
<g><path style="opacity:1" fill="#5d503c" d="M 23.5,111.5 C 24.0898,115.92 26.0898,116.586 29.5,113.5C 30.3857,112.675 30.719,111.675 30.5,110.5C 30.8333,110.5 31.1667,110.5 31.5,110.5C 32.791,110.263 33.791,110.596 34.5,111.5C 33.0689,111.881 32.2355,112.881 32,114.5C 31.5026,117.146 31.3359,119.813 31.5,122.5C 26.1536,120.497 21.4869,117.497 17.5,113.5C 16.027,111.605 14.3603,109.939 12.5,108.5C 14.1765,107.817 14.8432,106.483 14.5,104.5C 15.3149,105.429 16.1482,106.429 17,107.5C 18.4578,105.04 20.2911,102.873 22.5,101C 23.8333,100.333 25.1667,100.333 26.5,101C 27.4506,101.718 27.6172,102.551 27,103.5C 24.4834,106.017 22.3167,108.85 20.5,112C 20.8333,112.5 21.1667,113 21.5,113.5C 22.1818,112.757 22.8485,112.091 23.5,111.5 Z"/></g>
<g><path style="opacity:1" fill="#c4bcab" d="M 30.5,110.5 C 30.719,111.675 30.3857,112.675 29.5,113.5C 26.0898,116.586 24.0898,115.92 23.5,111.5C 25.4503,109.247 27.7837,108.914 30.5,110.5 Z"/></g>
<g><path style="opacity:0.004" fill="#926f50" d="M 104.5,113.5 C 104.5,128.833 104.5,144.167 104.5,159.5C 92.6547,159.828 80.988,159.495 69.5,158.5C 70.4511,157.081 70.7845,155.415 70.5,153.5C 71.8333,153.5 73.1667,153.5 74.5,153.5C 74.2837,151.319 75.117,149.653 77,148.5C 76.5335,142.36 78.3668,137.194 82.5,133C 84.1667,132.667 85.8333,132.333 87.5,132C 90.378,127.144 94.378,123.644 99.5,121.5C 100.31,119.202 101.144,116.868 102,114.5C 102.671,113.748 103.504,113.414 104.5,113.5 Z"/></g>
<g><path style="opacity:1" fill="#dbdacc" d="M 69.5,107.5 C 73.7503,108.558 75.0837,111.058 73.5,115C 72.365,115.749 71.365,115.583 70.5,114.5C 69.6258,112.253 69.2924,109.92 69.5,107.5 Z"/></g>
<g><path style="opacity:1" fill="#5d6659" d="M 49.5,113.5 C 51.9641,113.824 54.6308,113.991 57.5,114C 58.8678,115.34 60.2011,116.674 61.5,118C 59.87,120.428 60.2033,122.261 62.5,123.5C 60.7354,124.461 58.7354,124.795 56.5,124.5C 57.1465,122.844 57.8131,121.177 58.5,119.5C 58.3918,118.558 58.0585,117.725 57.5,117C 53.4616,117.444 49.4616,117.277 45.5,116.5C 46.5451,115.122 47.8784,114.122 49.5,113.5 Z"/></g>
<g><path style="opacity:1" fill="#91a594" d="M 67.5,107.5 C 66.3758,112.187 66.3758,116.853 67.5,121.5C 66.2921,122.234 64.9587,122.567 63.5,122.5C 63.203,118.233 63.5363,114.066 64.5,110C 61.1745,109.828 57.8411,109.995 54.5,110.5C 58.6178,109.045 62.9511,108.045 67.5,107.5 Z"/></g>
<g><path style="opacity:1" fill="#688270" d="M 37.5,113.5 C 38.404,114.209 38.7373,115.209 38.5,116.5C 39.1667,119.167 39.8333,121.833 40.5,124.5C 38.901,124.768 37.5676,124.434 36.5,123.5C 36.2567,120.344 36.59,117.01 37.5,113.5 Z"/></g>
<g><path style="opacity:1" fill="#9e9e9b" d="M 38.5,116.5 C 40.8333,116.5 43.1667,116.5 45.5,116.5C 49.4616,117.277 53.4616,117.444 57.5,117C 58.0585,117.725 58.3918,118.558 58.5,119.5C 57.8131,121.177 57.1465,122.844 56.5,124.5C 51.1667,125.833 45.8333,125.833 40.5,124.5C 39.8333,121.833 39.1667,119.167 38.5,116.5 Z"/></g>
<g><path style="opacity:1" fill="#a2b5ac" d="M 34.5,111.5 C 34.9731,112.906 35.9731,113.573 37.5,113.5C 36.59,117.01 36.2567,120.344 36.5,123.5C 34.7085,123.634 33.0418,123.301 31.5,122.5C 31.3359,119.813 31.5026,117.146 32,114.5C 32.2355,112.881 33.0689,111.881 34.5,111.5 Z"/></g>
<g><path style="opacity:0.608" fill="#71503a" d="M 95.5,65.5 C 96.2323,66.8083 97.0656,68.1416 98,69.5C 99.073,79.3109 98.4063,88.9776 96,98.5C 93.3732,102.919 90.8732,107.419 88.5,112C 84.5,115.333 80.5,118.667 76.5,122C 73.1667,123.333 69.8333,124.667 66.5,126C 65.7476,126.671 65.4142,127.504 65.5,128.5C 64.2223,128.782 63.2223,129.449 62.5,130.5C 59.0855,130.739 55.9188,130.072 53,128.5C 50.3333,129.833 47.6667,129.833 45,128.5C 43.124,128.525 41.624,129.191 40.5,130.5C 37.5918,130.738 35.2585,129.738 33.5,127.5C 32.5344,129.396 32.2011,131.396 32.5,133.5C 31.8354,131.631 31.1687,129.631 30.5,127.5C 28.1634,126.157 26.1634,124.49 24.5,122.5C 38.5775,128.607 52.9108,129.107 67.5,124C 91.2425,111.35 100.576,91.8497 95.5,65.5 Z"/></g>
<g><path style="opacity:0.999" fill="#631612" d="M 40.5,130.5 C 41.4916,130.328 42.1583,130.662 42.5,131.5C 41.3709,133.628 41.2042,135.961 42,138.5C 43.9773,141.312 46.144,143.978 48.5,146.5C 51.3243,143.542 54.1576,140.542 57,137.5C 57.7796,135.613 57.6129,133.946 56.5,132.5C 58.5,131.833 60.5,131.167 62.5,130.5C 63.2223,129.449 64.2223,128.782 65.5,128.5C 65.8333,128.5 66.1667,128.5 66.5,128.5C 66.5,129.167 66.5,129.833 66.5,130.5C 66.7709,132.38 66.1042,133.713 64.5,134.5C 63.5318,136.607 63.1984,138.941 63.5,141.5C 61.0509,140.943 58.7175,140.943 56.5,141.5C 58.1045,143.179 58.7711,145.179 58.5,147.5C 56.7376,147.643 55.0709,147.309 53.5,146.5C 52.9478,148.003 52.9478,149.669 53.5,151.5C 51.7726,153.567 49.7726,155.233 47.5,156.5C 46.5186,154.511 45.5186,152.511 44.5,150.5C 44.6799,149.446 45.0133,148.446 45.5,147.5C 43.5879,147.512 41.5879,147.179 39.5,146.5C 38.5713,145.311 38.238,143.978 38.5,142.5C 37.1779,142.67 36.0113,142.337 35,141.5C 34.8827,138.496 34.0493,135.829 32.5,133.5C 32.2011,131.396 32.5344,129.396 33.5,127.5C 35.2585,129.738 37.5918,130.738 40.5,130.5 Z"/></g>
<g><path style="opacity:0.99" fill="#6c3024" d="M 62.5,130.5 C 60.5,131.167 58.5,131.833 56.5,132.5C 55.3478,131.375 54.3478,131.375 53.5,132.5C 50.8333,132.5 48.1667,132.5 45.5,132.5C 46.0764,130.217 45.0764,129.883 42.5,131.5C 42.1583,130.662 41.4916,130.328 40.5,130.5C 41.624,129.191 43.124,128.525 45,128.5C 47.6667,129.833 50.3333,129.833 53,128.5C 55.9188,130.072 59.0855,130.739 62.5,130.5 Z"/></g>
<g><path style="opacity:0.784" fill="#734f39" d="M 45.5,132.5 C 43.7274,133.314 43.2274,134.648 44,136.5C 45.314,138.812 46.9806,140.812 49,142.5C 52.7883,139.966 54.2883,136.633 53.5,132.5C 54.3478,131.375 55.3478,131.375 56.5,132.5C 57.6129,133.946 57.7796,135.613 57,137.5C 54.1576,140.542 51.3243,143.542 48.5,146.5C 46.144,143.978 43.9773,141.312 42,138.5C 41.2042,135.961 41.3709,133.628 42.5,131.5C 45.0764,129.883 46.0764,130.217 45.5,132.5 Z"/></g>
<g><path style="opacity:1" fill="#621310" d="M 45.5,132.5 C 48.1667,132.5 50.8333,132.5 53.5,132.5C 54.2883,136.633 52.7883,139.966 49,142.5C 46.9806,140.812 45.314,138.812 44,136.5C 43.2274,134.648 43.7274,133.314 45.5,132.5 Z"/></g>
<g><path style="opacity:0.4" fill="#6f4936" d="M 64.5,134.5 C 64.5,137.5 64.5,140.5 64.5,143.5C 63.1667,143.5 61.8333,143.5 60.5,143.5C 60.6602,145.199 60.4935,146.866 60,148.5C 57.6252,149.129 55.4586,150.129 53.5,151.5C 52.9478,149.669 52.9478,148.003 53.5,146.5C 55.0709,147.309 56.7376,147.643 58.5,147.5C 58.7711,145.179 58.1045,143.179 56.5,141.5C 58.7175,140.943 61.0509,140.943 63.5,141.5C 63.1984,138.941 63.5318,136.607 64.5,134.5 Z"/></g>
<g><path style="opacity:0.038" fill="#7f6349" d="M 66.5,130.5 C 67.6839,135.103 67.3505,139.769 65.5,144.5C 60.5438,148.503 56.2105,153.169 52.5,158.5C 53.3333,158.833 54.1667,159.167 55,159.5C 56.3756,159.316 57.2089,158.649 57.5,157.5C 61.3998,158.43 65.3998,158.763 69.5,158.5C 80.988,159.495 92.6547,159.828 104.5,159.5C 104.5,159.833 104.5,160.167 104.5,160.5C 69.5,160.5 34.5,160.5 -0.5,160.5C -0.5,160.167 -0.5,159.833 -0.5,159.5C 15.8469,159.833 32.1803,159.499 48.5,158.5C 48.1373,157.817 47.8039,157.15 47.5,156.5C 49.7726,155.233 51.7726,153.567 53.5,151.5C 55.4586,150.129 57.6252,149.129 60,148.5C 60.4935,146.866 60.6602,145.199 60.5,143.5C 61.8333,143.5 63.1667,143.5 64.5,143.5C 64.5,140.5 64.5,137.5 64.5,134.5C 66.1042,133.713 66.7709,132.38 66.5,130.5 Z"/></g>
</svg>
