<?xml version="1.0" encoding="UTF-8"?>
<!DOCTYPE svg PUBLIC "-//W3C//DTD SVG 1.1//EN" "http://www.w3.org/Graphics/SVG/1.1/DTD/svg11.dtd">
<svg xmlns="http://www.w3.org/2000/svg" version="1.1" width="105px" height="161px" style="shape-rendering:geometricPrecision; text-rendering:geometricPrecision; image-rendering:optimizeQuality; fill-rule:evenodd; clip-rule:evenodd" xmlns:xlink="http://www.w3.org/1999/xlink">
<g><path style="opacity:0.007" fill="#926f50" d="M 33.5,-0.5 C 57.1667,-0.5 80.8333,-0.5 104.5,-0.5C 104.5,19.8333 104.5,40.1667 104.5,60.5C 103.07,60.5792 101.736,60.2458 100.5,59.5C 100.167,60.3333 99.8333,61.1667 99.5,62C 100.832,66.3312 102.165,70.6645 103.5,75C 102.66,81.4299 102.326,87.9299 102.5,94.5C 102.747,95.7133 103.414,96.38 104.5,96.5C 104.5,97.1667 104.5,97.8333 104.5,98.5C 101.113,100.915 98.9466,104.248 98,108.5C 94.9556,111.051 91.7889,113.384 88.5,115.5C 88.5,114.833 88.5,114.167 88.5,113.5C 90.5497,111.763 92.383,109.763 94,107.5C 100.102,95.5853 102.102,82.9186 100,69.5C 99.1807,65.4032 97.6807,61.7365 95.5,58.5C 94.5711,55.5881 93.2378,52.9214 91.5,50.5C 93.8056,50.0074 96.139,49.6741 98.5,49.5C 99.1437,44.2133 98.8104,38.8799 97.5,33.5C 95.057,31.9447 92.3903,31.278 89.5,31.5C 89.6602,29.8008 89.4935,28.1341 89,26.5C 86.6806,22.3572 84.1806,18.3572 81.5,14.5C 76.1988,12.0938 71.1988,12.4272 66.5,15.5C 65.8333,15.5 65.5,15.8333 65.5,16.5C 65.5,17.1667 65.5,17.8333 65.5,18.5C 65.5,19.8333 65.5,21.1667 65.5,22.5C 65.5,22.8333 65.5,23.1667 65.5,23.5C 64.8333,23.5 64.5,23.8333 64.5,24.5C 63.8333,24.5 63.1667,24.5 62.5,24.5C 62.1667,24.5 61.8333,24.5 61.5,24.5C 63.25,20.5818 62.5834,17.2485 59.5,14.5C 58.4324,13.5655 57.099,13.2322 55.5,13.5C 55.7271,11.0672 54.7271,9.40058 52.5,8.5C 52.573,6.97306 51.9063,5.97306 50.5,5.5C 49.2946,4.31434 47.9613,4.31434 46.5,5.5C 46.5654,5.06178 46.3988,4.72845 46,4.5C 44.8129,6.04442 44.4795,7.71109 45,9.5C 45.2784,8.5842 45.7784,7.91753 46.5,7.5C 46.8426,12.0411 46.8426,16.3744 46.5,20.5C 45.5849,18.2459 44.2516,16.2459 42.5,14.5C 42.1667,13.8333 41.8333,13.1667 41.5,12.5C 41.7151,11.266 41.0484,11.266 39.5,12.5C 38.8333,12.5 38.5,12.8333 38.5,13.5C 37.5041,13.4142 36.6708,13.7476 36,14.5C 35.2613,13.4258 34.2613,12.7591 33,12.5C 30.5,13.3333 28,14.1667 25.5,15C 24.7476,15.6708 24.4142,16.5041 24.5,17.5C 22.0882,17.6941 21.0882,19.0274 21.5,21.5C 20.2437,23.7257 20.2437,26.059 21.5,28.5C 19.2181,27.6103 16.8848,27.4436 14.5,28C 13.244,28.4169 12.5774,29.2502 12.5,30.5C 11.8333,30.5 11.5,30.8333 11.5,31.5C 7.9303,33.8966 7.59696,36.8966 10.5,40.5C 10.9569,41.2975 11.6236,41.6309 12.5,41.5C 11.2702,39.7028 10.6036,37.7028 10.5,35.5C 12.1638,37.4079 13.8305,39.4079 15.5,41.5C 12.8581,45.1484 10.1914,48.8151 7.5,52.5C 7.16667,52.5 6.83333,52.5 6.5,52.5C 5.69871,50.2071 5.03204,50.5404 4.5,53.5C 2.2729,54.4006 1.2729,56.0672 1.5,58.5C 0.833333,58.8333 0.166667,59.1667 -0.5,59.5C -0.5,43.1667 -0.5,26.8333 -0.5,10.5C 10.8333,10.5 22.1667,10.5 33.5,10.5C 33.5,6.83333 33.5,3.16667 33.5,-0.5 Z M 46.5,5.5 C 46.5,6.16667 46.5,6.83333 46.5,7.5C 45.7784,7.91753 45.2784,8.5842 45,9.5C 44.4795,7.71109 44.8129,6.04442 46,4.5C 46.3988,4.72845 46.5654,5.06178 46.5,5.5 Z M 38.5,13.5 C 37.6586,15.3792 37.3253,17.3792 37.5,19.5C 35.5,18.1667 33.5,16.8333 31.5,15.5C 30.5,15.5 29.5,15.5 28.5,15.5C 27.1667,16.1667 25.8333,16.8333 24.5,17.5C 24.4142,16.5041 24.7476,15.6708 25.5,15C 28,14.1667 30.5,13.3333 33,12.5C 34.2613,12.7591 35.2613,13.4258 36,14.5C 36.6708,13.7476 37.5041,13.4142 38.5,13.5 Z M 89.5,31.5 C 86.3,30.1604 82.6333,28.9937 78.5,28C 79.1667,27.3333 79.8333,26.6667 80.5,26C 78.5322,22.0401 75.8655,18.7068 72.5,16C 70.5273,15.5045 68.5273,15.3379 66.5,15.5C 71.1988,12.4272 76.1988,12.0938 81.5,14.5C 84.1806,18.3572 86.6806,22.3572 89,26.5C 89.4935,28.1341 89.6602,29.8008 89.5,31.5 Z M 24.5,17.5 C 24.2014,19.4553 23.2014,20.7886 21.5,21.5C 21.0882,19.0274 22.0882,17.6941 24.5,17.5 Z M 21.5,21.5 C 21.6741,23.861 22.0074,26.1944 22.5,28.5C 22.1667,28.5 21.8333,28.5 21.5,28.5C 20.2437,26.059 20.2437,23.7257 21.5,21.5 Z M 21.5,28.5 C 21.1583,29.3382 20.4916,29.6716 19.5,29.5C 18.1667,29.5 16.8333,29.5 15.5,29.5C 14.391,29.5569 13.391,29.8902 12.5,30.5C 12.5774,29.2502 13.244,28.4169 14.5,28C 16.8848,27.4436 19.2181,27.6103 21.5,28.5 Z M 11.5,31.5 C 11.5,32.1667 11.5,32.8333 11.5,33.5C 10.6618,33.8417 10.3284,34.5084 10.5,35.5C 10.6036,37.7028 11.2702,39.7028 12.5,41.5C 11.6236,41.6309 10.9569,41.2975 10.5,40.5C 7.59696,36.8966 7.9303,33.8966 11.5,31.5 Z M 89.5,31.5 C 92.3903,31.278 95.057,31.9447 97.5,33.5C 98.8104,38.8799 99.1437,44.2133 98.5,49.5C 96.139,49.6741 93.8056,50.0074 91.5,50.5C 90.8825,48.7708 89.8825,47.2708 88.5,46C 89.9125,42.2958 90.9125,38.4624 91.5,34.5C 90.8075,33.4822 90.1408,32.4822 89.5,31.5 Z M 12.5,43.5 C 12.1667,44.5 11.5,45.1667 10.5,45.5C 10.5,44.1667 11.1667,43.5 12.5,43.5 Z M 6.5,52.5 C 5.83333,52.8333 5.16667,53.1667 4.5,53.5C 5.03204,50.5404 5.69871,50.2071 6.5,52.5 Z M 4.5,53.5 C 4.25027,55.674 3.25027,57.3406 1.5,58.5C 1.2729,56.0672 2.2729,54.4006 4.5,53.5 Z"/></g>
<g><path style="opacity:0.996" fill="#62100e" d="M 50.5,5.5 C 51.9063,5.97306 52.573,6.97306 52.5,8.5C 52.5,10.8333 52.5,13.1667 52.5,15.5C 51.6963,17.1887 50.6963,18.8554 49.5,20.5C 47.7191,15.972 47.2191,11.3053 48,6.5C 48.6708,5.74756 49.5041,5.41423 50.5,5.5 Z"/></g>
<g><path style="opacity:0.761" fill="#73533d" d="M 52.5,8.5 C 54.7271,9.40058 55.7271,11.0672 55.5,13.5C 57.099,13.2322 58.4324,13.5655 59.5,14.5C 57.302,14.1201 55.6354,14.7868 54.5,16.5C 53.0755,18.0311 52.4088,17.6977 52.5,15.5C 52.5,13.1667 52.5,10.8333 52.5,8.5 Z"/></g>
<g><path style="opacity:1" fill="#651c16" d="M 42.5,14.5 C 44.2516,16.2459 45.5849,18.2459 46.5,20.5C 46.4142,21.4959 46.7476,22.3292 47.5,23C 46.552,23.4828 45.552,23.6495 44.5,23.5C 43.1667,22.0665 41.6667,20.7332 40,19.5C 39.5065,17.8659 39.3398,16.1992 39.5,14.5C 40.5,14.5 41.5,14.5 42.5,14.5 Z"/></g>
<g><path style="opacity:0.169" fill="#7e5a41" d="M 67.5,27.5 C 65.7392,26.6873 64.0725,25.6873 62.5,24.5C 63.1667,24.5 63.8333,24.5 64.5,24.5C 65.1667,24.5 65.5,24.1667 65.5,23.5C 65.5,23.1667 65.5,22.8333 65.5,22.5C 66.8583,23.6256 68.1916,23.6256 69.5,22.5C 68.7542,21.2638 68.4208,19.9305 68.5,18.5C 73.5628,19.9217 74.5628,22.755 71.5,27C 70.2068,27.49 68.8734,27.6567 67.5,27.5 Z"/></g>
<g><path style="opacity:0.035" fill="#876147" d="M 39.5,12.5 C 40.1667,12.5 40.8333,12.5 41.5,12.5C 41.8333,13.1667 42.1667,13.8333 42.5,14.5C 41.5,14.5 40.5,14.5 39.5,14.5C 39.3398,16.1992 39.5065,17.8659 40,19.5C 41.6667,20.7332 43.1667,22.0665 44.5,23.5C 44.5,23.8333 44.5,24.1667 44.5,24.5C 40.3005,24.1901 36.3005,24.8568 32.5,26.5C 26.989,28.9358 24.8223,27.2691 26,21.5C 29.8273,18.4799 30.994,19.1466 29.5,23.5C 30.8221,23.67 31.9887,23.3366 33,22.5C 33.6004,19.9047 33.1004,17.5713 31.5,15.5C 33.5,16.8333 35.5,18.1667 37.5,19.5C 37.3253,17.3792 37.6586,15.3792 38.5,13.5C 39.1667,13.5 39.5,13.1667 39.5,12.5 Z"/></g>
<g><path style="opacity:0.44" fill="#79513b" d="M 50.5,5.5 C 49.5041,5.41423 48.6708,5.74756 48,6.5C 47.2191,11.3053 47.7191,15.972 49.5,20.5C 50.6963,18.8554 51.6963,17.1887 52.5,15.5C 52.4088,17.6977 53.0755,18.0311 54.5,16.5C 51.4062,24.0102 52.7395,25.0102 58.5,19.5C 59.4519,17.9547 59.7852,16.288 59.5,14.5C 62.5834,17.2485 63.25,20.5818 61.5,24.5C 56.5763,23.9621 52.5763,25.6288 49.5,29.5C 47.4788,28.1455 45.8121,26.4788 44.5,24.5C 44.5,24.1667 44.5,23.8333 44.5,23.5C 45.552,23.6495 46.552,23.4828 47.5,23C 46.7476,22.3292 46.4142,21.4959 46.5,20.5C 46.8426,16.3744 46.8426,12.0411 46.5,7.5C 46.5,6.83333 46.5,6.16667 46.5,5.5C 47.9613,4.31434 49.2946,4.31434 50.5,5.5 Z"/></g>
<g><path style="opacity:1" fill="#651914" d="M 59.5,14.5 C 59.7852,16.288 59.4519,17.9547 58.5,19.5C 52.7395,25.0102 51.4062,24.0102 54.5,16.5C 55.6354,14.7868 57.302,14.1201 59.5,14.5 Z"/></g>
<g><path style="opacity:0.848" fill="#6b251c" d="M 44.5,24.5 C 45.8121,26.4788 47.4788,28.1455 49.5,29.5C 52.5763,25.6288 56.5763,23.9621 61.5,24.5C 61.8333,24.5 62.1667,24.5 62.5,24.5C 64.0725,25.6873 65.7392,26.6873 67.5,27.5C 67.7148,29.1788 67.0481,30.1788 65.5,30.5C 63.098,26.9215 59.7647,25.7549 55.5,27C 53.9371,27.7589 52.9371,28.9256 52.5,30.5C 52.5,30.8333 52.5,31.1667 52.5,31.5C 50.1667,31.5 47.8333,31.5 45.5,31.5C 43.901,31.7678 42.5676,31.4345 41.5,30.5C 43.288,30.7852 44.9547,30.4519 46.5,29.5C 42.4197,25.5222 38.4197,25.5222 34.5,29.5C 31.6008,30.4944 30.9341,29.4944 32.5,26.5C 36.3005,24.8568 40.3005,24.1901 44.5,24.5 Z"/></g>
<g><path style="opacity:0.796" fill="#6d2d22" d="M 28.5,15.5 C 29.5,15.5 30.5,15.5 31.5,15.5C 33.1004,17.5713 33.6004,19.9047 33,22.5C 31.9887,23.3366 30.8221,23.67 29.5,23.5C 30.994,19.1466 29.8273,18.4799 26,21.5C 24.8223,27.2691 26.989,28.9358 32.5,26.5C 30.9341,29.4944 31.6008,30.4944 34.5,29.5C 34.5,30.8333 35.1667,31.5 36.5,31.5C 38.9935,31.1307 39.6602,31.7973 38.5,33.5C 37.209,33.2627 36.209,33.596 35.5,34.5C 34.1667,34.5 32.8333,34.5 31.5,34.5C 28.8915,34.4003 26.5582,35.0669 24.5,36.5C 26.1436,34.5193 27.8103,32.5193 29.5,30.5C 23.634,28.7431 22.134,25.0765 25,19.5C 26.6268,18.4677 27.7934,17.1344 28.5,15.5 Z"/></g>
<g><path style="opacity:0.206" fill="#7d5a41" d="M 41.5,30.5 C 39.5853,30.2155 37.9187,30.5489 36.5,31.5C 35.1667,31.5 34.5,30.8333 34.5,29.5C 38.4197,25.5222 42.4197,25.5222 46.5,29.5C 44.9547,30.4519 43.288,30.7852 41.5,30.5 Z"/></g>
<g><path style="opacity:0.047" fill="#876146" d="M 28.5,15.5 C 27.7934,17.1344 26.6268,18.4677 25,19.5C 22.134,25.0765 23.634,28.7431 29.5,30.5C 27.8103,32.5193 26.1436,34.5193 24.5,36.5C 22.6675,37.2485 21.0009,38.2485 19.5,39.5C 14.6724,39.6148 13.3391,37.4481 15.5,33C 15.8333,32.8333 16.1667,32.6667 16.5,32.5C 17.4287,33.6888 17.762,35.0222 17.5,36.5C 18.5,36.5 19.5,36.5 20.5,36.5C 20.702,34.0504 20.3686,31.717 19.5,29.5C 20.4916,29.6716 21.1583,29.3382 21.5,28.5C 21.8333,28.5 22.1667,28.5 22.5,28.5C 22.0074,26.1944 21.6741,23.861 21.5,21.5C 23.2014,20.7886 24.2014,19.4553 24.5,17.5C 25.8333,16.8333 27.1667,16.1667 28.5,15.5 Z"/></g>
<g><path style="opacity:0.22" fill="#825f45" d="M 65.5,30.5 C 65.0527,32.9732 64.0527,33.1399 62.5,31C 59.1832,30.5017 55.8499,30.335 52.5,30.5C 52.9371,28.9256 53.9371,27.7589 55.5,27C 59.7647,25.7549 63.098,26.9215 65.5,30.5 Z"/></g>
<g><path style="opacity:0.165" fill="#885b43" d="M 15.5,29.5 C 14.674,31.2644 13.3407,32.5977 11.5,33.5C 11.5,32.8333 11.5,32.1667 11.5,31.5C 12.1667,31.5 12.5,31.1667 12.5,30.5C 13.391,29.8902 14.391,29.5569 15.5,29.5 Z"/></g>
<g><path style="opacity:0.627" fill="#72402d" d="M 36.5,31.5 C 37.9187,30.5489 39.5853,30.2155 41.5,30.5C 42.5676,31.4345 43.901,31.7678 45.5,31.5C 45.2172,32.2891 44.7172,32.9558 44,33.5C 42.7083,32.2089 41.5417,32.2089 40.5,33.5C 39.8333,33.5 39.1667,33.5 38.5,33.5C 39.6602,31.7973 38.9935,31.1307 36.5,31.5 Z"/></g>
<g><path style="opacity:0.943" fill="#702e23" d="M 15.5,29.5 C 16.8333,29.5 18.1667,29.5 19.5,29.5C 20.3686,31.717 20.702,34.0504 20.5,36.5C 19.5,36.5 18.5,36.5 17.5,36.5C 17.762,35.0222 17.4287,33.6888 16.5,32.5C 16.1667,32.6667 15.8333,32.8333 15.5,33C 13.3391,37.4481 14.6724,39.6148 19.5,39.5C 18.1667,40.1667 16.8333,40.8333 15.5,41.5C 13.8305,39.4079 12.1638,37.4079 10.5,35.5C 10.3284,34.5084 10.6618,33.8417 11.5,33.5C 13.3407,32.5977 14.674,31.2644 15.5,29.5 Z"/></g>
<g><path style="opacity:1" fill="#94775e" d="M 38.5,33.5 C 39.1667,33.5 39.8333,33.5 40.5,33.5C 42.4904,33.9931 42.4904,35.1598 40.5,37C 42.9307,38.7291 42.5974,40.2291 39.5,41.5C 38.7025,41.0431 38.3691,40.3764 38.5,39.5C 38.5,37.5 38.5,35.5 38.5,33.5 Z"/></g>
<g><path style="opacity:1" fill="#452c1f" d="M 60.5,33.5 C 61.4916,33.3284 62.1583,33.6618 62.5,34.5C 62.9746,37.0821 62.3079,39.0821 60.5,40.5C 58.8333,39.8333 57.1667,39.1667 55.5,38.5C 57.3603,37.0613 59.027,35.3947 60.5,33.5 Z"/></g>
<g><path style="opacity:1" fill="#674930" d="M 31.5,34.5 C 32.8333,34.5 34.1667,34.5 35.5,34.5C 32.4018,38.1041 29.9018,42.1041 28,46.5C 26.8907,43.0528 27.8907,40.3862 31,38.5C 31.6917,37.5632 31.525,36.8966 30.5,36.5C 30.8333,35.8333 31.1667,35.1667 31.5,34.5 Z"/></g>
<g><path style="opacity:1" fill="#ac9070" d="M 47.5,41.5 C 44.752,43.5725 41.752,45.2391 38.5,46.5C 37.7611,46.631 37.0944,46.4643 36.5,46C 42.116,42.3845 47.116,38.0511 51.5,33C 52.635,32.2506 53.635,32.4173 54.5,33.5C 51.7714,35.8904 49.4381,38.557 47.5,41.5 Z"/></g>
<g><path style="opacity:1" fill="#593a23" d="M 35.5,34.5 C 36.209,33.596 37.209,33.2627 38.5,33.5C 38.5,35.5 38.5,37.5 38.5,39.5C 36.7727,41.6035 34.6061,43.2702 32,44.5C 31.3333,43.8333 31.3333,43.1667 32,42.5C 34.4054,40.597 36.2388,38.2637 37.5,35.5C 37.0431,34.7025 36.3764,34.3691 35.5,34.5 Z"/></g>
<g><path style="opacity:1" fill="#6a4d37" d="M 55.5,38.5 C 57.1667,39.1667 58.8333,39.8333 60.5,40.5C 58.4727,40.3379 56.4727,40.5045 54.5,41C 49.9694,43.4655 45.3028,45.6322 40.5,47.5C 39.5084,47.6716 38.8417,47.3382 38.5,46.5C 41.752,45.2391 44.752,43.5725 47.5,41.5C 50.3554,40.8832 53.0221,39.8832 55.5,38.5 Z"/></g>
<g><path style="opacity:1" fill="#9e8264" d="M 67.5,41.5 C 66.2073,43.2959 64.7073,44.9625 63,46.5C 62.8782,44.7184 63.3782,43.0518 64.5,41.5C 65.3019,40.0484 65.8019,38.3817 66,36.5C 67.2692,37.9047 67.7692,39.5714 67.5,41.5 Z"/></g>
<g><path style="opacity:0.06" fill="#866348" d="M 66.5,15.5 C 68.5273,15.3379 70.5273,15.5045 72.5,16C 75.8655,18.7068 78.5322,22.0401 80.5,26C 79.8333,26.6667 79.1667,27.3333 78.5,28C 82.6333,28.9937 86.3,30.1604 89.5,31.5C 90.1408,32.4822 90.8075,33.4822 91.5,34.5C 90.9125,38.4624 89.9125,42.2958 88.5,46C 89.8825,47.2708 90.8825,48.7708 91.5,50.5C 93.2378,52.9214 94.5711,55.5881 95.5,58.5C 94.609,57.8902 93.609,57.5569 92.5,57.5C 89.2443,52.2375 85.5776,47.2375 81.5,42.5C 85.7927,39.2425 86.4594,35.4091 83.5,31C 79.0826,29.4315 77.0826,30.9315 77.5,35.5C 78.5,35.5 79.5,35.5 80.5,35.5C 80.5,34.5 80.5,33.5 80.5,32.5C 81.5,32.5 82.5,32.5 83.5,32.5C 84.1686,38.0001 81.8353,40.1667 76.5,39C 74.3555,36.0211 72.0222,33.1878 69.5,30.5C 75.195,28.6538 76.8617,24.9871 74.5,19.5C 71.7046,16.2369 68.7046,15.9036 65.5,18.5C 65.5,17.8333 65.5,17.1667 65.5,16.5C 66.1667,16.5 66.5,16.1667 66.5,15.5 Z"/></g>
<g><path style="opacity:1" fill="#785941" d="M 78.5,43.5 C 79.8333,44.1667 80.8333,45.1667 81.5,46.5C 80.5655,47.5676 80.2322,48.901 80.5,50.5C 78.396,50.7989 76.396,50.4656 74.5,49.5C 75.3202,47.8888 76.6536,47.2222 78.5,47.5C 78.5,46.1667 78.5,44.8333 78.5,43.5 Z"/></g>
<g><path style="opacity:1" fill="#5c3e28" d="M 22.5,40.5 C 21.6185,44.9093 22.9518,48.4093 26.5,51C 24.8876,51.7203 23.3876,51.5536 22,50.5C 21.0572,47.7493 20.2239,45.0826 19.5,42.5C 20.2905,41.5987 21.2905,40.9321 22.5,40.5 Z"/></g>
<g><path style="opacity:1" fill="#a7856f" d="M 60.5,40.5 C 60.19,43.7131 60.5233,46.7131 61.5,49.5C 61.5,50.1667 61.1667,50.5 60.5,50.5C 60.1667,50.5 59.8333,50.5 59.5,50.5C 57.9017,48.431 55.7351,47.431 53,47.5C 47.5267,48.0227 42.36,49.356 37.5,51.5C 36.5,52.1667 35.5,52.8333 34.5,53.5C 32.2655,53.3801 30.0989,53.7135 28,54.5C 26.9701,54.1639 26.4701,53.4972 26.5,52.5C 28.4837,51.0172 30.317,49.3505 32,47.5C 34.9831,48.7321 37.8164,48.7321 40.5,47.5C 45.3028,45.6322 49.9694,43.4655 54.5,41C 56.4727,40.5045 58.4727,40.3379 60.5,40.5 Z"/></g>
<g><path style="opacity:1" fill="#8f6e5a" d="M 59.5,50.5 C 56.9039,51.2653 54.2372,51.5987 51.5,51.5C 50.9032,50.8614 50.0698,50.528 49,50.5C 46,51.5 43,52.5 40,53.5C 38.6244,53.3158 37.7911,52.6491 37.5,51.5C 42.36,49.356 47.5267,48.0227 53,47.5C 55.7351,47.431 57.9017,48.431 59.5,50.5 Z"/></g>
<g><path style="opacity:0.996" fill="#692a20" d="M 92.5,57.5 C 94.4342,61.3027 95.7676,65.3027 96.5,69.5C 95.7321,68.7375 95.2321,67.7375 95,66.5C 94.6012,66.7284 94.4346,67.0618 94.5,67.5C 92.6919,63.4124 90.6919,59.4124 88.5,55.5C 87.5667,52.6298 85.9,50.2964 83.5,48.5C 83.1667,47.5 82.5,46.8333 81.5,46.5C 80.8333,45.1667 79.8333,44.1667 78.5,43.5C 74.3047,39.2325 69.3047,36.2325 63.5,34.5C 63.1667,34.5 62.8333,34.5 62.5,34.5C 62.1583,33.6618 61.4916,33.3284 60.5,33.5C 57.6915,33.3067 55.0248,32.64 52.5,31.5C 52.5,31.1667 52.5,30.8333 52.5,30.5C 55.8499,30.335 59.1832,30.5017 62.5,31C 64.0527,33.1399 65.0527,32.9732 65.5,30.5C 67.0481,30.1788 67.7148,29.1788 67.5,27.5C 68.8734,27.6567 70.2068,27.49 71.5,27C 74.5628,22.755 73.5628,19.9217 68.5,18.5C 68.4208,19.9305 68.7542,21.2638 69.5,22.5C 68.1916,23.6256 66.8583,23.6256 65.5,22.5C 65.5,21.1667 65.5,19.8333 65.5,18.5C 68.7046,15.9036 71.7046,16.2369 74.5,19.5C 76.8617,24.9871 75.195,28.6538 69.5,30.5C 72.0222,33.1878 74.3555,36.0211 76.5,39C 81.8353,40.1667 84.1686,38.0001 83.5,32.5C 82.5,32.5 81.5,32.5 80.5,32.5C 80.5,33.5 80.5,34.5 80.5,35.5C 79.5,35.5 78.5,35.5 77.5,35.5C 77.0826,30.9315 79.0826,29.4315 83.5,31C 86.4594,35.4091 85.7927,39.2425 81.5,42.5C 85.5776,47.2375 89.2443,52.2375 92.5,57.5 Z"/></g>
<g><path style="opacity:1" fill="#9e866a" d="M 12.5,49.5 C 12.8333,49.5 13.1667,49.5 13.5,49.5C 14.6721,51.8769 14.3388,54.2102 12.5,56.5C 11.6618,56.1583 11.3284,55.4916 11.5,54.5C 12.038,52.8828 12.3713,51.2161 12.5,49.5 Z"/></g>
<g><path style="opacity:1" fill="#85664d" d="M 45.5,31.5 C 47.8333,31.5 50.1667,31.5 52.5,31.5C 55.0248,32.64 57.6915,33.3067 60.5,33.5C 59.027,35.3947 57.3603,37.0613 55.5,38.5C 53.0221,39.8832 50.3554,40.8832 47.5,41.5C 49.4381,38.557 51.7714,35.8904 54.5,33.5C 53.635,32.4173 52.635,32.2506 51.5,33C 47.116,38.0511 42.116,42.3845 36.5,46C 37.0944,46.4643 37.7611,46.631 38.5,46.5C 38.8417,47.3382 39.5084,47.6716 40.5,47.5C 37.8164,48.7321 34.9831,48.7321 32,47.5C 30.317,49.3505 28.4837,51.0172 26.5,52.5C 24.7986,53.2114 23.7986,54.5447 23.5,56.5C 23.3893,57.1174 23.056,57.6174 22.5,58C 26.1567,58.0498 29.49,58.8832 32.5,60.5C 32.1667,61.5 31.5,62.1667 30.5,62.5C 27.7131,61.5233 24.7131,61.19 21.5,61.5C 21.9175,60.7784 22.5842,60.2784 23.5,60C 21.2755,59.9605 19.2755,59.7938 17.5,59.5C 18.2129,56.7602 19.8796,54.7602 22.5,53.5C 21.8333,52.1667 20.8333,51.1667 19.5,50.5C 18.5258,48.2573 18.1924,45.924 18.5,43.5C 18.5,42.8333 18.8333,42.5 19.5,42.5C 20.2239,45.0826 21.0572,47.7493 22,50.5C 23.3876,51.5536 24.8876,51.7203 26.5,51C 22.9518,48.4093 21.6185,44.9093 22.5,40.5C 24.6148,38.1093 27.2814,36.7759 30.5,36.5C 31.525,36.8966 31.6917,37.5632 31,38.5C 27.8907,40.3862 26.8907,43.0528 28,46.5C 29.9018,42.1041 32.4018,38.1041 35.5,34.5C 36.3764,34.3691 37.0431,34.7025 37.5,35.5C 36.2388,38.2637 34.4054,40.597 32,42.5C 31.3333,43.1667 31.3333,43.8333 32,44.5C 34.6061,43.2702 36.7727,41.6035 38.5,39.5C 38.3691,40.3764 38.7025,41.0431 39.5,41.5C 42.5974,40.2291 42.9307,38.7291 40.5,37C 42.4904,35.1598 42.4904,33.9931 40.5,33.5C 41.5417,32.2089 42.7083,32.2089 44,33.5C 44.7172,32.9558 45.2172,32.2891 45.5,31.5 Z"/></g>
<g><path style="opacity:1" fill="#483023" d="M 65.5,51.5 C 64.8333,51.5 64.5,51.1667 64.5,50.5C 65.7514,48.439 67.4181,48.1057 69.5,49.5C 68.7542,50.7362 68.4208,52.0695 68.5,53.5C 69.675,53.281 70.675,53.6143 71.5,54.5C 69.9547,55.4519 68.288,55.7852 66.5,55.5C 66.7678,53.901 66.4345,52.5676 65.5,51.5 Z"/></g>
<g><path style="opacity:1" fill="#71543c" d="M 15.5,46.5 C 16.5064,47.9792 16.5064,49.6459 15.5,51.5C 16.1667,52.5 16.8333,53.5 17.5,54.5C 17.1909,57.4917 15.5242,58.825 12.5,58.5C 12.7709,60.3797 12.1042,61.713 10.5,62.5C 10.6036,60.2972 11.2702,58.2972 12.5,56.5C 14.3388,54.2102 14.6721,51.8769 13.5,49.5C 13.427,47.9731 14.0937,46.9731 15.5,46.5 Z"/></g>
<g><path style="opacity:1" fill="#8c6756" d="M 61.5,49.5 C 62.391,50.1098 63.391,50.4431 64.5,50.5C 64.5,51.1667 64.8333,51.5 65.5,51.5C 65.5,53.1667 65.5,54.8333 65.5,56.5C 67.4147,56.2155 69.0813,56.5489 70.5,57.5C 68.4727,57.3379 66.4727,57.5045 64.5,58C 63.944,58.3826 63.6107,58.8826 63.5,59.5C 62.391,59.5569 61.391,59.8902 60.5,60.5C 59.9569,60.44 59.6236,60.1067 59.5,59.5C 65.1262,56.2979 64.7928,54.2979 58.5,53.5C 58.5,54.5 58.5,55.5 58.5,56.5C 55.7079,56.6225 53.7079,57.9558 52.5,60.5C 49.2785,60.8503 46.1118,61.5169 43,62.5C 41.8926,62.4148 40.8926,62.0814 40,61.5C 39.4719,60.184 39.9719,59.5173 41.5,59.5C 41.4701,60.4972 41.9701,61.1639 43,61.5C 47.163,59.844 50.9963,57.6773 54.5,55C 53.552,54.5172 52.552,54.3505 51.5,54.5C 54.6754,53.5713 58.0087,52.738 61.5,52C 60.944,51.6174 60.6107,51.1174 60.5,50.5C 61.1667,50.5 61.5,50.1667 61.5,49.5 Z"/></g>
<g><path style="opacity:1" fill="#6c4f3a" d="M 62.5,34.5 C 62.8333,34.5 63.1667,34.5 63.5,34.5C 63.6741,36.861 64.0074,39.1944 64.5,41.5C 63.3782,43.0518 62.8782,44.7184 63,46.5C 64.7073,44.9625 66.2073,43.2959 67.5,41.5C 68.525,41.8966 68.6917,42.5632 68,43.5C 63.3025,47.2207 64.1358,48.3874 70.5,47C 71.2106,45.7453 72.044,44.5786 73,43.5C 73.1667,43.8333 73.3333,44.1667 73.5,44.5C 71.9802,46.6621 70.9802,48.9954 70.5,51.5C 72.6382,51.703 74.3049,52.703 75.5,54.5C 77.5225,52.8267 79.8559,52.1601 82.5,52.5C 80.6326,54.4605 78.2992,55.7939 75.5,56.5C 75.7093,57.086 76.0426,57.586 76.5,58C 78.4727,58.4955 80.4727,58.6621 82.5,58.5C 80.7354,59.4614 78.7354,59.7947 76.5,59.5C 74.7028,58.2702 72.7028,57.6036 70.5,57.5C 69.0813,56.5489 67.4147,56.2155 65.5,56.5C 65.5,54.8333 65.5,53.1667 65.5,51.5C 66.4345,52.5676 66.7678,53.901 66.5,55.5C 68.288,55.7852 69.9547,55.4519 71.5,54.5C 70.675,53.6143 69.675,53.281 68.5,53.5C 68.4208,52.0695 68.7542,50.7362 69.5,49.5C 67.4181,48.1057 65.7514,48.439 64.5,50.5C 63.391,50.4431 62.391,50.1098 61.5,49.5C 60.5233,46.7131 60.19,43.7131 60.5,40.5C 62.3079,39.0821 62.9746,37.0821 62.5,34.5 Z"/></g>
<g><path style="opacity:1" fill="#8d6f51" d="M 63.5,34.5 C 69.3047,36.2325 74.3047,39.2325 78.5,43.5C 78.5,44.8333 78.5,46.1667 78.5,47.5C 76.6536,47.2222 75.3202,47.8888 74.5,49.5C 76.396,50.4656 78.396,50.7989 80.5,50.5C 80.2322,48.901 80.5655,47.5676 81.5,46.5C 82.5,46.8333 83.1667,47.5 83.5,48.5C 83.5674,49.9587 83.2341,51.2921 82.5,52.5C 79.8559,52.1601 77.5225,52.8267 75.5,54.5C 74.3049,52.703 72.6382,51.703 70.5,51.5C 70.9802,48.9954 71.9802,46.6621 73.5,44.5C 73.3333,44.1667 73.1667,43.8333 73,43.5C 72.044,44.5786 71.2106,45.7453 70.5,47C 64.1358,48.3874 63.3025,47.2207 68,43.5C 68.6917,42.5632 68.525,41.8966 67.5,41.5C 67.7692,39.5714 67.2692,37.9047 66,36.5C 65.8019,38.3817 65.3019,40.0484 64.5,41.5C 64.0074,39.1944 63.6741,36.861 63.5,34.5 Z"/></g>
<g><path style="opacity:1" fill="#583c2a" d="M 18.5,43.5 C 18.1924,45.924 18.5258,48.2573 19.5,50.5C 20.8333,51.1667 21.8333,52.1667 22.5,53.5C 19.8796,54.7602 18.2129,56.7602 17.5,59.5C 16.5489,60.9187 16.2155,62.5853 16.5,64.5C 21.5111,64.3341 26.5111,64.5007 31.5,65C 34.1247,66.3757 34.1247,67.5423 31.5,68.5C 28.5866,67.7599 25.7532,66.7599 23,65.5C 18.769,65.95 16.269,68.2833 15.5,72.5C 14.6909,70.7078 14.1909,68.7078 14,66.5C 13.0565,67.263 12.5565,68.263 12.5,69.5C 13.3958,71.8006 13.5625,74.1339 13,76.5C 12.3333,75.8333 11.6667,75.1667 11,74.5C 10.5831,75.756 9.74975,76.4226 8.5,76.5C 8.16667,75.8333 7.83333,75.1667 7.5,74.5C 8.22158,74.0825 8.72158,73.4158 9,72.5C 9.49742,69.854 9.66409,67.1873 9.5,64.5C 9.83333,63.8333 10.1667,63.1667 10.5,62.5C 12.1042,61.713 12.7709,60.3797 12.5,58.5C 15.5242,58.825 17.1909,57.4917 17.5,54.5C 16.8333,53.5 16.1667,52.5 15.5,51.5C 16.5064,49.6459 16.5064,47.9792 15.5,46.5C 16.1667,45.1667 17.1667,44.1667 18.5,43.5 Z"/></g>
<g><path style="opacity:1" fill="#947563" d="M 26.5,52.5 C 26.4701,53.4972 26.9701,54.1639 28,54.5C 30.0989,53.7135 32.2655,53.3801 34.5,53.5C 34.8333,54.1667 35.1667,54.8333 35.5,55.5C 34.8333,56.8333 34.1667,58.1667 33.5,59.5C 33.5,58.1667 33.5,56.8333 33.5,55.5C 30.0977,55.3424 26.7644,55.6758 23.5,56.5C 23.7986,54.5447 24.7986,53.2114 26.5,52.5 Z"/></g>
<g><path style="opacity:1" fill="#a78866" d="M 51.5,51.5 C 48.4111,52.7389 45.4111,54.2389 42.5,56C 39.9615,56.7958 37.6282,56.6291 35.5,55.5C 35.1667,54.8333 34.8333,54.1667 34.5,53.5C 35.5,52.8333 36.5,52.1667 37.5,51.5C 37.7911,52.6491 38.6244,53.3158 40,53.5C 43,52.5 46,51.5 49,50.5C 50.0698,50.528 50.9032,50.8614 51.5,51.5 Z"/></g>
<g><path style="opacity:1" fill="#725844" d="M 83.5,48.5 C 85.9,50.2964 87.5667,52.6298 88.5,55.5C 88.1788,57.0481 87.1788,57.7148 85.5,57.5C 85.5,58.5 85.5,59.5 85.5,60.5C 84.7321,59.7375 84.2321,58.7375 84,57.5C 83.6174,58.056 83.1174,58.3893 82.5,58.5C 82.3285,56.5082 82.9951,54.8415 84.5,53.5C 84.0431,52.7025 83.3764,52.3691 82.5,52.5C 83.2341,51.2921 83.5674,49.9587 83.5,48.5 Z"/></g>
<g><path style="opacity:1" fill="#aa8972" d="M 33.5,59.5 C 33.5,60.1667 33.1667,60.5 32.5,60.5C 29.49,58.8832 26.1567,58.0498 22.5,58C 23.056,57.6174 23.3893,57.1174 23.5,56.5C 26.7644,55.6758 30.0977,55.3424 33.5,55.5C 33.5,56.8333 33.5,58.1667 33.5,59.5 Z"/></g>
<g><path style="opacity:1" fill="#513829" d="M 82.5,52.5 C 83.3764,52.3691 84.0431,52.7025 84.5,53.5C 82.9951,54.8415 82.3285,56.5082 82.5,58.5C 80.4727,58.6621 78.4727,58.4955 76.5,58C 76.0426,57.586 75.7093,57.086 75.5,56.5C 78.2992,55.7939 80.6326,54.4605 82.5,52.5 Z"/></g>
<g><path style="opacity:1" fill="#ae8773" d="M 51.5,54.5 C 52.552,54.3505 53.552,54.5172 54.5,55C 50.9963,57.6773 47.163,59.844 43,61.5C 41.9701,61.1639 41.4701,60.4972 41.5,59.5C 44.8333,57.8333 48.1667,56.1667 51.5,54.5 Z"/></g>
<g><path style="opacity:1" fill="#856a4d" d="M 11.5,54.5 C 11.3284,55.4916 11.6618,56.1583 12.5,56.5C 11.2702,58.2972 10.6036,60.2972 10.5,62.5C 10.1667,63.1667 9.83333,63.8333 9.5,64.5C 8.72813,65.6935 7.72813,66.6935 6.5,67.5C 6.80491,62.5705 8.47157,58.2372 11.5,54.5 Z"/></g>
<g><path style="opacity:1" fill="#b08b74" d="M 70.5,57.5 C 72.7028,57.6036 74.7028,58.2702 76.5,59.5C 80.9469,61.7611 82.6136,65.4278 81.5,70.5C 80.1626,68.6255 78.8293,66.6255 77.5,64.5C 73.8927,63.5108 70.226,63.1774 66.5,63.5C 67.2625,62.7321 68.2625,62.2321 69.5,62C 66.9488,61.9977 64.9488,61.1644 63.5,59.5C 63.6107,58.8826 63.944,58.3826 64.5,58C 66.4727,57.5045 68.4727,57.3379 70.5,57.5 Z"/></g>
<g><path style="opacity:1" fill="#6e4e3a" d="M 59.5,50.5 C 59.8333,50.5 60.1667,50.5 60.5,50.5C 60.6107,51.1174 60.944,51.6174 61.5,52C 58.0087,52.738 54.6754,53.5713 51.5,54.5C 48.1667,56.1667 44.8333,57.8333 41.5,59.5C 39.9719,59.5173 39.4719,60.184 40,61.5C 40.8926,62.0814 41.8926,62.4148 43,62.5C 46.1118,61.5169 49.2785,60.8503 52.5,60.5C 54.068,62.8437 53.7347,64.8437 51.5,66.5C 47.873,66.3706 44.2063,66.704 40.5,67.5C 40.5,66.5 40.5,65.5 40.5,64.5C 38.8333,64.5 37.1667,64.5 35.5,64.5C 34.6909,66.2922 34.1909,68.2922 34,70.5C 33.0053,69.9341 32.172,69.2674 31.5,68.5C 34.1247,67.5423 34.1247,66.3757 31.5,65C 26.5111,64.5007 21.5111,64.3341 16.5,64.5C 16.2155,62.5853 16.5489,60.9187 17.5,59.5C 19.2755,59.7938 21.2755,59.9605 23.5,60C 22.5842,60.2784 21.9175,60.7784 21.5,61.5C 20.6236,61.3691 19.9569,61.7025 19.5,62.5C 23.3147,63.8077 26.9813,63.8077 30.5,62.5C 31.5,62.1667 32.1667,61.5 32.5,60.5C 33.1667,60.5 33.5,60.1667 33.5,59.5C 34.1667,58.1667 34.8333,56.8333 35.5,55.5C 37.6282,56.6291 39.9615,56.7958 42.5,56C 45.4111,54.2389 48.4111,52.7389 51.5,51.5C 54.2372,51.5987 56.9039,51.2653 59.5,50.5 Z"/></g>
<g><path style="opacity:1" fill="#ac8e6f" d="M 21.5,61.5 C 24.7131,61.19 27.7131,61.5233 30.5,62.5C 26.9813,63.8077 23.3147,63.8077 19.5,62.5C 19.9569,61.7025 20.6236,61.3691 21.5,61.5 Z"/></g>
<g><path style="opacity:1" fill="#5e4c40" d="M 88.5,55.5 C 90.6919,59.4124 92.6919,63.4124 94.5,67.5C 94.5,71.5 94.5,75.5 94.5,79.5C 93.2101,78.9423 92.3768,77.9423 92,76.5C 92.6669,70.383 90.5002,65.7163 85.5,62.5C 85.5,61.8333 85.5,61.1667 85.5,60.5C 85.5,59.5 85.5,58.5 85.5,57.5C 87.1788,57.7148 88.1788,57.0481 88.5,55.5 Z"/></g>
<g><path style="opacity:1" fill="#a6816d" d="M 63.5,59.5 C 64.9488,61.1644 66.9488,61.9977 69.5,62C 68.2625,62.2321 67.2625,62.7321 66.5,63.5C 60.7193,62.7372 57.0526,65.0706 55.5,70.5C 55.9569,71.2975 56.6236,71.6309 57.5,71.5C 60.3033,72.9279 63.3033,73.5946 66.5,73.5C 66.7706,75.4305 67.7706,76.7638 69.5,77.5C 64.0996,75.0565 58.433,73.0565 52.5,71.5C 50.9623,71.4534 49.9623,72.1201 49.5,73.5C 49.1667,73.5 48.8333,73.5 48.5,73.5C 47.5,73.5 46.5,73.5 45.5,73.5C 45.5,71.8333 45.5,70.1667 45.5,68.5C 47.8056,68.9926 50.139,69.3259 52.5,69.5C 52.5,68.5 52.5,67.5 52.5,66.5C 55.9895,65.6872 58.6562,63.6872 60.5,60.5C 61.391,59.8902 62.391,59.5569 63.5,59.5 Z"/></g>
<g><path style="opacity:0.271" fill="#895c43" d="M 6.5,52.5 C 6.83333,52.5 7.16667,52.5 7.5,52.5C 3.61162,58.7637 0.944951,65.4303 -0.5,72.5C -0.5,69.8333 -0.5,67.1667 -0.5,64.5C 1.07394,62.8984 1.74061,60.8984 1.5,58.5C 3.25027,57.3406 4.25027,55.674 4.5,53.5C 5.16667,53.1667 5.83333,52.8333 6.5,52.5 Z"/></g>
<g><path style="opacity:1" fill="#5d3e2b" d="M 12.5,49.5 C 12.3713,51.2161 12.038,52.8828 11.5,54.5C 8.47157,58.2372 6.80491,62.5705 6.5,67.5C 6.16916,69.3224 5.50249,70.9891 4.5,72.5C 4.16667,72.5 3.83333,72.5 3.5,72.5C 3.57783,63.5848 6.57783,55.9181 12.5,49.5 Z"/></g>
<g><path style="opacity:1" fill="#967361" d="M 60.5,60.5 C 58.6562,63.6872 55.9895,65.6872 52.5,66.5C 52.5,67.5 52.5,68.5 52.5,69.5C 50.139,69.3259 47.8056,68.9926 45.5,68.5C 45.5,70.1667 45.5,71.8333 45.5,73.5C 46.5,73.5 47.5,73.5 48.5,73.5C 47.791,74.404 46.791,74.7373 45.5,74.5C 44.1667,74.5 42.8333,74.5 41.5,74.5C 44.3301,71.6698 43.9968,69.3365 40.5,67.5C 44.2063,66.704 47.873,66.3706 51.5,66.5C 53.7347,64.8437 54.068,62.8437 52.5,60.5C 53.7079,57.9558 55.7079,56.6225 58.5,56.5C 58.5,55.5 58.5,54.5 58.5,53.5C 64.7928,54.2979 65.1262,56.2979 59.5,59.5C 59.6236,60.1067 59.9569,60.44 60.5,60.5 Z"/></g>
<g><path style="opacity:1" fill="#6f5035" d="M 9.5,64.5 C 9.66409,67.1873 9.49742,69.854 9,72.5C 8.72158,73.4158 8.22158,74.0825 7.5,74.5C 6.29049,74.0679 5.29049,73.4013 4.5,72.5C 5.50249,70.9891 6.16916,69.3224 6.5,67.5C 7.72813,66.6935 8.72813,65.6935 9.5,64.5 Z"/></g>
<g><path style="opacity:1" fill="#b3836c" d="M 35.5,64.5 C 37.1667,64.5 38.8333,64.5 40.5,64.5C 40.5,65.5 40.5,66.5 40.5,67.5C 43.9968,69.3365 44.3301,71.6698 41.5,74.5C 39.1667,74.5 36.8333,74.5 34.5,74.5C 34.2627,73.209 34.596,72.209 35.5,71.5C 35.5,69.1667 35.5,66.8333 35.5,64.5 Z"/></g>
<g><path style="opacity:1" fill="#cc9c90" d="M 73.5,66.5 C 76.8421,68.1885 78.3421,70.8552 78,74.5C 77.3109,75.3567 76.4776,76.0233 75.5,76.5C 72.4273,75.6502 69.4273,74.6502 66.5,73.5C 63.3033,73.5946 60.3033,72.9279 57.5,71.5C 59.2959,69.7277 60.9625,67.7277 62.5,65.5C 65.7844,64.343 69.1177,64.1764 72.5,65C 73.056,65.3826 73.3893,65.8826 73.5,66.5 Z"/></g>
<g><path style="opacity:1" fill="#dba8a3" d="M 73.5,66.5 C 73.7031,68.0443 74.3698,69.3777 75.5,70.5C 75.2907,71.086 74.9574,71.586 74.5,72C 69.6248,72.8072 64.9581,72.1406 60.5,70C 62.1667,69 63.8333,68 65.5,67C 65.1667,66.6667 64.8333,66.3333 64.5,66C 67.5547,65.3658 70.5547,65.5325 73.5,66.5 Z"/></g>
<g><path style="opacity:1" fill="#b98c78" d="M 66.5,63.5 C 70.226,63.1774 73.8927,63.5108 77.5,64.5C 78.8293,66.6255 80.1626,68.6255 81.5,70.5C 81.7564,72.7925 81.4231,74.9592 80.5,77C 77.5184,77.498 74.5184,77.6646 71.5,77.5C 70.8333,77.5 70.1667,77.5 69.5,77.5C 67.7706,76.7638 66.7706,75.4305 66.5,73.5C 69.4273,74.6502 72.4273,75.6502 75.5,76.5C 76.4776,76.0233 77.3109,75.3567 78,74.5C 78.3421,70.8552 76.8421,68.1885 73.5,66.5C 73.3893,65.8826 73.056,65.3826 72.5,65C 69.1177,64.1764 65.7844,64.343 62.5,65.5C 60.9625,67.7277 59.2959,69.7277 57.5,71.5C 56.6236,71.6309 55.9569,71.2975 55.5,70.5C 57.0526,65.0706 60.7193,62.7372 66.5,63.5 Z"/></g>
<g><path style="opacity:1" fill="#7e6553" d="M 85.5,62.5 C 90.5002,65.7163 92.6669,70.383 92,76.5C 92.3768,77.9423 93.2101,78.9423 94.5,79.5C 94.5,80.8333 94.5,82.1667 94.5,83.5C 93.5275,85.1392 92.1942,86.4726 90.5,87.5C 90.2761,85.2133 89.6094,83.0466 88.5,81C 89.1667,79 89.8333,77 90.5,75C 90.4301,74.2352 90.0967,73.7352 89.5,73.5C 89.5,71.8333 89.5,70.1667 89.5,68.5C 87.5165,68.3832 85.8498,69.0499 84.5,70.5C 84.1667,69.6667 83.8333,68.8333 83.5,68C 84.3784,66.1999 85.045,64.3666 85.5,62.5 Z"/></g>
<g><path style="opacity:1" fill="#795845" d="M 35.5,64.5 C 35.5,66.8333 35.5,69.1667 35.5,71.5C 34.596,72.209 34.2627,73.209 34.5,74.5C 36.8333,74.5 39.1667,74.5 41.5,74.5C 42.8333,74.5 44.1667,74.5 45.5,74.5C 42.9122,76.6246 39.9122,77.9579 36.5,78.5C 36.2964,80.6854 35.6298,82.6854 34.5,84.5C 33.0419,81.7855 32.0419,78.7855 31.5,75.5C 30.2723,72.9285 28.2723,71.5952 25.5,71.5C 23.7091,70.7721 23.0424,69.7721 23.5,68.5C 23.6107,67.8826 23.944,67.3826 24.5,67C 20.1808,66.1579 18.5141,67.6579 19.5,71.5C 18.8153,73.4144 18.3153,75.4144 18,77.5C 17.6174,76.944 17.1174,76.6107 16.5,76.5C 16.5674,75.0413 16.2341,73.7079 15.5,72.5C 16.269,68.2833 18.769,65.95 23,65.5C 25.7532,66.7599 28.5866,67.7599 31.5,68.5C 32.172,69.2674 33.0053,69.9341 34,70.5C 34.1909,68.2922 34.6909,66.2922 35.5,64.5 Z"/></g>
<g><path style="opacity:1" fill="#9d7b62" d="M 85.5,60.5 C 85.5,61.1667 85.5,61.8333 85.5,62.5C 85.045,64.3666 84.3784,66.1999 83.5,68C 83.8333,68.8333 84.1667,69.6667 84.5,70.5C 85.8498,69.0499 87.5165,68.3832 89.5,68.5C 89.5,70.1667 89.5,71.8333 89.5,73.5C 87.9458,74.9142 86.6125,76.5808 85.5,78.5C 80.7629,78.6635 76.0962,78.3302 71.5,77.5C 74.5184,77.6646 77.5184,77.498 80.5,77C 81.4231,74.9592 81.7564,72.7925 81.5,70.5C 82.6136,65.4278 80.9469,61.7611 76.5,59.5C 78.7354,59.7947 80.7354,59.4614 82.5,58.5C 83.1174,58.3893 83.6174,58.056 84,57.5C 84.2321,58.7375 84.7321,59.7375 85.5,60.5 Z"/></g>
<g><path style="opacity:0.87" fill="#653427" d="M 96.5,70.5 C 97.3382,70.8417 97.6716,71.5084 97.5,72.5C 97.6659,77.5111 97.4993,82.5111 97,87.5C 96.79,89.0581 96.29,90.3915 95.5,91.5C 96.2897,84.5293 96.6231,77.5293 96.5,70.5 Z"/></g>
<g><path style="opacity:0.514" fill="#7d6045" d="M 92.5,57.5 C 93.609,57.5569 94.609,57.8902 95.5,58.5C 97.6807,61.7365 99.1807,65.4032 100,69.5C 102.102,82.9186 100.102,95.5853 94,107.5C 92.383,109.763 90.5497,111.763 88.5,113.5C 82.0234,120.336 74.3568,125.003 65.5,127.5C 64.475,127.103 64.3083,126.437 65,125.5C 66.3024,124.915 67.469,124.249 68.5,123.5C 71.5547,122.964 74.5547,122.131 77.5,121C 81.3489,117.154 85.5156,113.654 90,110.5C 91.4884,106.19 93.4884,102.19 96,98.5C 98.5384,89.8064 99.0384,81.1398 97.5,72.5C 97.6716,71.5084 97.3382,70.8417 96.5,70.5C 96.5,70.1667 96.5,69.8333 96.5,69.5C 95.7676,65.3027 94.4342,61.3027 92.5,57.5 Z"/></g>
<g><path style="opacity:0.009" fill="#916e50" d="M -0.5,85.5 C 3.15117,100.688 11.4845,112.855 24.5,122C 26.1545,122.608 27.8211,123.108 29.5,123.5C 31.0414,124.667 32.3748,126 33.5,127.5C 32.8476,128.449 32.5143,129.615 32.5,131C 33.5362,134.627 34.5362,138.127 35.5,141.5C 36.209,142.404 37.209,142.737 38.5,142.5C 38.2322,144.099 38.5655,145.432 39.5,146.5C 40.1667,146.833 40.8333,147.167 41.5,147.5C 41.7986,149.455 42.7986,150.789 44.5,151.5C 45.925,152.922 46.925,154.589 47.5,156.5C 47.8039,157.15 48.1373,157.817 48.5,158.5C 32.1803,159.499 15.8469,159.833 -0.5,159.5C -0.5,138.167 -0.5,116.833 -0.5,95.5C 0.833333,95.1667 0.833333,94.8333 -0.5,94.5C -0.5,91.5 -0.5,88.5 -0.5,85.5 Z M 32.5,145.5 C 33.1174,145.611 33.6174,145.944 34,146.5C 34.6667,148.833 34.6667,151.167 34,153.5C 33.7674,151.22 32.934,149.22 31.5,147.5C 31.8627,146.817 32.1961,146.15 32.5,145.5 Z"/></g>
<g><path style="opacity:0.996" fill="#631814" d="M 31.5,34.5 C 31.1667,35.1667 30.8333,35.8333 30.5,36.5C 27.2814,36.7759 24.6148,38.1093 22.5,40.5C 21.2905,40.9321 20.2905,41.5987 19.5,42.5C 18.8333,42.5 18.5,42.8333 18.5,43.5C 17.1667,44.1667 16.1667,45.1667 15.5,46.5C 14.0937,46.9731 13.427,47.9731 13.5,49.5C 13.1667,49.5 12.8333,49.5 12.5,49.5C 6.57783,55.9181 3.57783,63.5848 3.5,72.5C 2.35034,77.3158 2.18368,82.3158 3,87.5C 3.38258,88.056 3.88258,88.3893 4.5,88.5C 4.36596,90.2915 4.69929,91.9582 5.5,93.5C 6.40975,96.9922 8.07642,99.9922 10.5,102.5C 14.5556,110.222 20.5556,115.889 28.5,119.5C 38.0688,124.85 48.0688,125.85 58.5,122.5C 65.3744,121.552 71.3744,118.885 76.5,114.5C 84.1833,109.473 89.1833,102.473 91.5,93.5C 93.4098,90.5475 94.4098,87.2142 94.5,83.5C 94.5,82.1667 94.5,80.8333 94.5,79.5C 94.5,75.5 94.5,71.5 94.5,67.5C 94.4346,67.0618 94.6012,66.7284 95,66.5C 95.2321,67.7375 95.7321,68.7375 96.5,69.5C 96.5,69.8333 96.5,70.1667 96.5,70.5C 96.6231,77.5293 96.2897,84.5293 95.5,91.5C 90.8015,105.86 81.8015,116.527 68.5,123.5C 63.5972,124.494 58.9305,125.828 54.5,127.5C 49.1301,127.608 43.7968,127.275 38.5,126.5C 35.5738,125.302 32.5738,124.302 29.5,123.5C 27.8211,123.108 26.1545,122.608 24.5,122C 11.4845,112.855 3.15117,100.688 -0.5,85.5C -0.5,81.1667 -0.5,76.8333 -0.5,72.5C 0.944951,65.4303 3.61162,58.7637 7.5,52.5C 10.1914,48.8151 12.8581,45.1484 15.5,41.5C 16.8333,40.8333 18.1667,40.1667 19.5,39.5C 21.0009,38.2485 22.6675,37.2485 24.5,36.5C 26.5582,35.0669 28.8915,34.4003 31.5,34.5 Z"/></g>
<g><path style="opacity:1" fill="#906753" d="M 74.5,90.5 C 73.5,90.5 72.5,90.5 71.5,90.5C 71.418,93.5849 72.918,95.2515 76,95.5C 77.993,93.3651 80.493,92.3651 83.5,92.5C 82.962,94.1172 82.6287,95.7839 82.5,97.5C 83.5,97.5 84.5,97.5 85.5,97.5C 85.1344,98.6946 84.301,99.3613 83,99.5C 80.2305,98.6521 77.3971,98.3187 74.5,98.5C 73.469,97.7515 72.3024,97.0848 71,96.5C 70.5034,94.1902 70.3367,91.8568 70.5,89.5C 72.099,89.2322 73.4324,89.5655 74.5,90.5 Z"/></g>
<g><path style="opacity:1" fill="#371e1c" d="M 46.5,95.5 C 50.5653,97.2783 54.8986,97.9449 59.5,97.5C 59.5,97.8333 59.5,98.1667 59.5,98.5C 59.1667,98.5 58.8333,98.5 58.5,98.5C 54.7307,98.756 51.0641,98.4227 47.5,97.5C 47.1667,96.8333 46.8333,96.1667 46.5,95.5 Z"/></g>
<g><path style="opacity:1" fill="#76523e" d="M 34.5,86.5 C 35.7281,87.3065 36.7281,88.3065 37.5,89.5C 37.3398,91.1992 37.5065,92.8659 38,94.5C 40.099,95.1305 41.9323,96.1305 43.5,97.5C 44.1667,98.5 44.8333,99.5 45.5,100.5C 44.8333,100.5 44.1667,100.5 43.5,100.5C 41.7354,99.5386 39.7354,99.2053 37.5,99.5C 37.2606,101.467 37.5939,103.301 38.5,105C 40.3502,104.405 42.3502,103.905 44.5,103.5C 44.5,104.833 44.5,106.167 44.5,107.5C 43.7784,107.082 43.2784,106.416 43,105.5C 42.4806,106.516 41.6473,107.182 40.5,107.5C 38.6746,106.349 36.6746,105.682 34.5,105.5C 35.7109,99.6899 35.7109,94.0233 34.5,88.5C 34.5,87.8333 34.5,87.1667 34.5,86.5 Z"/></g>
<g><path style="opacity:1" fill="#4b3529" d="M 15.5,72.5 C 16.2341,73.7079 16.5674,75.0413 16.5,76.5C 16.5,77.5 16.5,78.5 16.5,79.5C 15.3349,80.4961 14.6682,81.8295 14.5,83.5C 14.4232,89.2765 14.7565,94.9432 15.5,100.5C 15.5,101.167 15.5,101.833 15.5,102.5C 13.7163,101.28 12.0496,101.28 10.5,102.5C 8.07642,99.9922 6.40975,96.9922 5.5,93.5C 7.31369,95.7641 9.14702,98.0975 11,100.5C 11.498,97.5184 11.6646,94.5184 11.5,91.5C 11.8769,89.742 12.5435,88.0754 13.5,86.5C 13.0431,85.7025 12.3764,85.3691 11.5,85.5C 11.5,85.1667 11.5,84.8333 11.5,84.5C 11.9746,81.9179 11.3079,79.9179 9.5,78.5C 8.66175,78.1583 8.32842,77.4916 8.5,76.5C 9.74975,76.4226 10.5831,75.756 11,74.5C 11.6667,75.1667 12.3333,75.8333 13,76.5C 13.5625,74.1339 13.3958,71.8006 12.5,69.5C 12.5565,68.263 13.0565,67.263 14,66.5C 14.1909,68.7078 14.6909,70.7078 15.5,72.5 Z"/></g>
<g><path style="opacity:1" fill="#73513c" d="M 69.5,77.5 C 71.0586,78.829 72.7252,80.1624 74.5,81.5C 74.9385,84.2949 75.9385,86.6283 77.5,88.5C 77.1788,90.0481 76.1788,90.7148 74.5,90.5C 73.4324,89.5655 72.099,89.2322 70.5,89.5C 70.3367,91.8568 70.5034,94.1902 71,96.5C 72.3024,97.0848 73.469,97.7515 74.5,98.5C 73.3509,98.7911 72.6842,99.6244 72.5,101C 72.9586,102.942 73.9586,104.442 75.5,105.5C 74.4861,107.574 73.4861,109.574 72.5,111.5C 72.5912,109.302 71.9245,108.969 70.5,110.5C 71.0012,106.588 71.0012,102.588 70.5,98.5C 68.2188,98.0773 66.5521,98.744 65.5,100.5C 64.6618,100.842 64.3284,101.508 64.5,102.5C 64.1667,102.5 63.8333,102.5 63.5,102.5C 63.5,101.833 63.1667,101.5 62.5,101.5C 64.2541,97.7424 64.9208,93.7424 64.5,89.5C 65.9778,89.762 67.3112,89.4287 68.5,88.5C 64.206,85.0107 59.8727,81.5107 55.5,78C 51.7581,78.0816 48.0914,77.915 44.5,77.5C 46.9479,76.5269 49.6146,76.1936 52.5,76.5C 52.5,75.5 52.5,74.5 52.5,73.5C 51.5,73.5 50.5,73.5 49.5,73.5C 49.9623,72.1201 50.9623,71.4534 52.5,71.5C 58.433,73.0565 64.0996,75.0565 69.5,77.5 Z"/></g>
<g><path style="opacity:1" fill="#ac856e" d="M 83.5,92.5 C 80.493,92.3651 77.993,93.3651 76,95.5C 72.918,95.2515 71.418,93.5849 71.5,90.5C 72.5,90.5 73.5,90.5 74.5,90.5C 76.1788,90.7148 77.1788,90.0481 77.5,88.5C 77.5,87.1667 77.5,85.8333 77.5,84.5C 81.007,84.3067 84.3404,84.9733 87.5,86.5C 88.8739,89.3306 88.2073,91.664 85.5,93.5C 84.8165,93.1373 84.1499,92.8039 83.5,92.5 Z"/></g>
<g><path style="opacity:1" fill="#8f6656" d="M 44.5,82.5 C 43.3592,85.6399 43.1925,88.9733 44,92.5C 44.3826,91.944 44.8826,91.6107 45.5,91.5C 45.2322,93.099 45.5655,94.4324 46.5,95.5C 46.8333,96.1667 47.1667,96.8333 47.5,97.5C 45.965,96.6457 44.6316,96.6457 43.5,97.5C 41.9323,96.1305 40.099,95.1305 38,94.5C 37.5065,92.8659 37.3398,91.1992 37.5,89.5C 38.6354,87.7868 40.302,87.1201 42.5,87.5C 42.2011,85.396 42.5344,83.396 43.5,81.5C 44.1067,81.6236 44.44,81.9569 44.5,82.5 Z"/></g>
<g><path style="opacity:1" fill="#100608" d="M 58.5,88.5 C 62.0787,91.0767 62.412,94.0767 59.5,97.5C 54.8986,97.9449 50.5653,97.2783 46.5,95.5C 45.5655,94.4324 45.2322,93.099 45.5,91.5C 46.1667,90.1667 47.1667,89.1667 48.5,88.5C 51.8333,87.1667 55.1667,87.1667 58.5,88.5 Z"/></g>
<g><path style="opacity:1" fill="#c7998b" d="M 32.5,84.5 C 32.8333,85.1667 33.1667,85.8333 33.5,86.5C 33.7413,88.8863 33.0746,90.8863 31.5,92.5C 29.1667,92.5 26.8333,92.5 24.5,92.5C 24.5,90.8333 24.5,89.1667 24.5,87.5C 26.5452,85.0156 29.2118,84.0156 32.5,84.5 Z"/></g>
<g><path style="opacity:1" fill="#705a4b" d="M 11.5,85.5 C 12.3764,85.3691 13.0431,85.7025 13.5,86.5C 12.5435,88.0754 11.8769,89.742 11.5,91.5C 10.5,91.5 9.5,91.5 8.5,91.5C 8.5,90.1667 8.5,88.8333 8.5,87.5C 10.1788,87.7148 11.1788,87.0481 11.5,85.5 Z"/></g>
<g><path style="opacity:1" fill="#5c4533" d="M 8.5,76.5 C 8.32842,77.4916 8.66175,78.1583 9.5,78.5C 8.28569,80.808 8.28569,83.1413 9.5,85.5C 10.1835,85.1373 10.8501,84.8039 11.5,84.5C 11.5,84.8333 11.5,85.1667 11.5,85.5C 11.1788,87.0481 10.1788,87.7148 8.5,87.5C 8.5,88.8333 8.5,90.1667 8.5,91.5C 9.5,91.5 10.5,91.5 11.5,91.5C 11.6646,94.5184 11.498,97.5184 11,100.5C 9.14702,98.0975 7.31369,95.7641 5.5,93.5C 4.69929,91.9582 4.36596,90.2915 4.5,88.5C 3.74169,85.6481 3.74169,82.9815 4.5,80.5C 4.27203,82.3547 4.9387,83.1881 6.5,83C 7.40609,81.3005 7.73943,79.4672 7.5,77.5C 6.5,77.5 5.5,77.5 4.5,77.5C 4.36899,76.7611 4.53566,76.0944 5,75.5C 6.01127,76.3366 7.17793,76.67 8.5,76.5 Z"/></g>
<g><path style="opacity:1" fill="#bd8d7f" d="M 58.5,87.5 C 55.592,86.4309 52.592,86.2642 49.5,87C 48.944,87.3826 48.6107,87.8826 48.5,88.5C 47.1667,89.1667 46.1667,90.1667 45.5,91.5C 44.8826,91.6107 44.3826,91.944 44,92.5C 43.1925,88.9733 43.3592,85.6399 44.5,82.5C 47.1667,83.8333 47.8333,83.1667 46.5,80.5C 46.56,79.9569 46.8933,79.6236 47.5,79.5C 50.8928,82.579 54.8928,84.4123 59.5,85C 63.5075,87.8178 63.1742,88.6511 58.5,87.5 Z"/></g>
<g><path style="opacity:1" fill="#583330" d="M 58.5,87.5 C 58.5,87.8333 58.5,88.1667 58.5,88.5C 55.1667,87.1667 51.8333,87.1667 48.5,88.5C 48.6107,87.8826 48.944,87.3826 49.5,87C 52.592,86.2642 55.592,86.4309 58.5,87.5 Z"/></g>
<g><path style="opacity:1" fill="#786149" d="M 9.5,78.5 C 11.3079,79.9179 11.9746,81.9179 11.5,84.5C 10.8501,84.8039 10.1835,85.1373 9.5,85.5C 8.28569,83.1413 8.28569,80.808 9.5,78.5 Z"/></g>
<g><path style="opacity:1" fill="#a77b67" d="M 44.5,77.5 C 48.0914,77.915 51.7581,78.0816 55.5,78C 59.8727,81.5107 64.206,85.0107 68.5,88.5C 67.3112,89.4287 65.9778,89.762 64.5,89.5C 64.9208,93.7424 64.2541,97.7424 62.5,101.5C 61.3951,102.6 60.0618,103.267 58.5,103.5C 59.9598,101.856 61.2932,100.023 62.5,98C 62.3333,97.5 62.1667,97 62,96.5C 61.2917,97.3805 60.4584,98.0472 59.5,98.5C 59.5,98.1667 59.5,97.8333 59.5,97.5C 62.412,94.0767 62.0787,91.0767 58.5,88.5C 58.5,88.1667 58.5,87.8333 58.5,87.5C 63.1742,88.6511 63.5075,87.8178 59.5,85C 54.8928,84.4123 50.8928,82.579 47.5,79.5C 46.8933,79.6236 46.56,79.9569 46.5,80.5C 45.0937,80.0269 44.427,79.0269 44.5,77.5 Z"/></g>
<g><path style="opacity:1" fill="#937055" d="M 89.5,73.5 C 90.0967,73.7352 90.4301,74.2352 90.5,75C 89.8333,77 89.1667,79 88.5,81C 89.6094,83.0466 90.2761,85.2133 90.5,87.5C 89.8975,91.3716 88.2309,94.7049 85.5,97.5C 84.5,97.5 83.5,97.5 82.5,97.5C 82.6287,95.7839 82.962,94.1172 83.5,92.5C 84.1499,92.8039 84.8165,93.1373 85.5,93.5C 88.2073,91.664 88.8739,89.3306 87.5,86.5C 84.3404,84.9733 81.007,84.3067 77.5,84.5C 77.5,85.8333 77.5,87.1667 77.5,88.5C 75.9385,86.6283 74.9385,84.2949 74.5,81.5C 72.7252,80.1624 71.0586,78.829 69.5,77.5C 70.1667,77.5 70.8333,77.5 71.5,77.5C 76.0962,78.3302 80.7629,78.6635 85.5,78.5C 86.6125,76.5808 87.9458,74.9142 89.5,73.5 Z"/></g>
<g><path style="opacity:1" fill="#7b6043" d="M 4.5,77.5 C 5.5,77.5 6.5,77.5 7.5,77.5C 7.73943,79.4672 7.40609,81.3005 6.5,83C 4.9387,83.1881 4.27203,82.3547 4.5,80.5C 4.5,79.5 4.5,78.5 4.5,77.5 Z"/></g>
<g><path style="opacity:1" fill="#51362a" d="M 48.5,73.5 C 48.8333,73.5 49.1667,73.5 49.5,73.5C 50.5,73.5 51.5,73.5 52.5,73.5C 52.5,74.5 52.5,75.5 52.5,76.5C 49.6146,76.1936 46.9479,76.5269 44.5,77.5C 42.2733,79.2287 41.2733,81.562 41.5,84.5C 39.1667,84.5 36.8333,84.5 34.5,84.5C 35.6298,82.6854 36.2964,80.6854 36.5,78.5C 39.9122,77.9579 42.9122,76.6246 45.5,74.5C 46.791,74.7373 47.791,74.404 48.5,73.5 Z"/></g>
<g><path style="opacity:1" fill="#775b4d" d="M 25.5,71.5 C 28.2723,71.5952 30.2723,72.9285 31.5,75.5C 32.0419,78.7855 33.0419,81.7855 34.5,84.5C 36.8333,84.5 39.1667,84.5 41.5,84.5C 41.2733,81.562 42.2733,79.2287 44.5,77.5C 44.427,79.0269 45.0937,80.0269 46.5,80.5C 47.8333,83.1667 47.1667,83.8333 44.5,82.5C 44.44,81.9569 44.1067,81.6236 43.5,81.5C 42.5344,83.396 42.2011,85.396 42.5,87.5C 40.302,87.1201 38.6354,87.7868 37.5,89.5C 36.7281,88.3065 35.7281,87.3065 34.5,86.5C 34.1667,86.5 33.8333,86.5 33.5,86.5C 33.1667,85.8333 32.8333,85.1667 32.5,84.5C 26.5665,83.9162 26.0665,81.9162 31,78.5C 31.6877,77.6683 31.521,77.0016 30.5,76.5C 27.135,78.5668 23.4683,79.9001 19.5,80.5C 19.9569,81.2975 20.6236,81.6309 21.5,81.5C 22.0906,82.1515 22.7573,82.8182 23.5,83.5C 21.5101,84.8732 19.3434,85.8732 17,86.5C 15.7101,90.7305 15.2101,95.0638 15.5,99.5C 15.5,99.8333 15.5,100.167 15.5,100.5C 14.7565,94.9432 14.4232,89.2765 14.5,83.5C 14.6682,81.8295 15.3349,80.4961 16.5,79.5C 18.1172,78.962 19.7839,78.6287 21.5,78.5C 21.2011,76.396 21.5344,74.396 22.5,72.5C 23.4168,71.8728 24.4168,71.5394 25.5,71.5 Z"/></g>
<g><path style="opacity:1" fill="#a68371" d="M 32.5,84.5 C 29.2118,84.0156 26.5452,85.0156 24.5,87.5C 22.901,87.2322 21.5676,87.5655 20.5,88.5C 19.6236,88.6309 18.9569,88.2975 18.5,87.5C 20.396,86.5344 22.396,86.2011 24.5,86.5C 24.5,84.8333 24.5,83.1667 24.5,81.5C 23.5,81.5 22.5,81.5 21.5,81.5C 20.6236,81.6309 19.9569,81.2975 19.5,80.5C 23.4683,79.9001 27.135,78.5668 30.5,76.5C 31.521,77.0016 31.6877,77.6683 31,78.5C 26.0665,81.9162 26.5665,83.9162 32.5,84.5 Z"/></g>
<g><path style="opacity:1" fill="#442d1f" d="M 3.5,72.5 C 3.83333,72.5 4.16667,72.5 4.5,72.5C 5.29049,73.4013 6.29049,74.0679 7.5,74.5C 7.83333,75.1667 8.16667,75.8333 8.5,76.5C 7.17793,76.67 6.01127,76.3366 5,75.5C 4.53566,76.0944 4.36899,76.7611 4.5,77.5C 4.5,78.5 4.5,79.5 4.5,80.5C 3.74169,82.9815 3.74169,85.6481 4.5,88.5C 3.88258,88.3893 3.38258,88.056 3,87.5C 2.18368,82.3158 2.35034,77.3158 3.5,72.5 Z"/></g>
<g><path style="opacity:1" fill="#342720" d="M 24.5,73.5 C 25.675,73.281 26.675,73.6143 27.5,74.5C 26.277,75.6139 24.9437,75.7805 23.5,75C 24.056,74.6174 24.3893,74.1174 24.5,73.5 Z"/></g>
<g><path style="opacity:1" fill="#654431" d="M 23.5,68.5 C 23.0424,69.7721 23.7091,70.7721 25.5,71.5C 24.4168,71.5394 23.4168,71.8728 22.5,72.5C 21.5344,74.396 21.2011,76.396 21.5,78.5C 19.7839,78.6287 18.1172,78.962 16.5,79.5C 16.5,78.5 16.5,77.5 16.5,76.5C 17.1174,76.6107 17.6174,76.944 18,77.5C 18.3153,75.4144 18.8153,73.4144 19.5,71.5C 20.2623,69.7376 21.5956,68.7376 23.5,68.5 Z"/></g>
<g><path style="opacity:1" fill="#d3a799" d="M 35.5,71.5 C 37.0418,70.6993 38.7085,70.366 40.5,70.5C 40.5,71.5 40.5,72.5 40.5,73.5C 38.2188,73.9227 36.5521,73.256 35.5,71.5 Z"/></g>
<g><path style="opacity:1" fill="#99765c" d="M 23.5,68.5 C 21.5956,68.7376 20.2623,69.7376 19.5,71.5C 18.5141,67.6579 20.1808,66.1579 24.5,67C 23.944,67.3826 23.6107,67.8826 23.5,68.5 Z"/></g>
<g><path style="opacity:1" fill="#b78076" d="M 47.5,97.5 C 51.0641,98.4227 54.7307,98.756 58.5,98.5C 55.5,99.8333 52.5,101.167 49.5,102.5C 47.847,102.34 46.5137,101.674 45.5,100.5C 44.8333,99.5 44.1667,98.5 43.5,97.5C 44.6316,96.6457 45.965,96.6457 47.5,97.5 Z"/></g>
<g><path style="opacity:1" fill="#644431" d="M 94.5,83.5 C 94.4098,87.2142 93.4098,90.5475 91.5,93.5C 89.066,96.8485 86.7327,100.349 84.5,104C 83.2575,104.311 82.2575,103.811 81.5,102.5C 79.9745,102.994 78.6412,103.661 77.5,104.5C 76.8333,104.833 76.1667,105.167 75.5,105.5C 73.9586,104.442 72.9586,102.942 72.5,101C 72.6842,99.6244 73.3509,98.7911 74.5,98.5C 77.3971,98.3187 80.2305,98.6521 83,99.5C 84.301,99.3613 85.1344,98.6946 85.5,97.5C 88.2309,94.7049 89.8975,91.3716 90.5,87.5C 92.1942,86.4726 93.5275,85.1392 94.5,83.5 Z"/></g>
<g><path style="opacity:1" fill="#9d7360" d="M 21.5,81.5 C 22.5,81.5 23.5,81.5 24.5,81.5C 24.5,83.1667 24.5,84.8333 24.5,86.5C 22.396,86.2011 20.396,86.5344 18.5,87.5C 18.9569,88.2975 19.6236,88.6309 20.5,88.5C 21.2653,91.0961 21.5987,93.7628 21.5,96.5C 24.1873,96.6641 26.854,96.4974 29.5,96C 30.9733,95.2904 31.6399,94.1238 31.5,92.5C 33.0746,90.8863 33.7413,88.8863 33.5,86.5C 33.8333,86.5 34.1667,86.5 34.5,86.5C 34.5,87.1667 34.5,87.8333 34.5,88.5C 35.0407,94.9962 33.7074,100.996 30.5,106.5C 29.9035,105.065 29.9035,103.398 30.5,101.5C 28.3254,101.682 26.3254,102.349 24.5,103.5C 21.4137,102.167 18.4137,100.834 15.5,99.5C 15.2101,95.0638 15.7101,90.7305 17,86.5C 19.3434,85.8732 21.5101,84.8732 23.5,83.5C 22.7573,82.8182 22.0906,82.1515 21.5,81.5 Z"/></g>
<g><path style="opacity:1" fill="#b98677" d="M 24.5,87.5 C 24.5,89.1667 24.5,90.8333 24.5,92.5C 26.8333,92.5 29.1667,92.5 31.5,92.5C 31.6399,94.1238 30.9733,95.2904 29.5,96C 26.854,96.4974 24.1873,96.6641 21.5,96.5C 21.5987,93.7628 21.2653,91.0961 20.5,88.5C 21.5676,87.5655 22.901,87.2322 24.5,87.5 Z"/></g>
<g><path style="opacity:1" fill="#e5a79a" d="M 58.5,103.5 C 55.4299,103.632 52.4299,103.299 49.5,102.5C 52.5,101.167 55.5,99.8333 58.5,98.5C 58.8333,98.5 59.1667,98.5 59.5,98.5C 60.4584,98.0472 61.2917,97.3805 62,96.5C 62.1667,97 62.3333,97.5 62.5,98C 61.2932,100.023 59.9598,101.856 58.5,103.5 Z"/></g>
<g><path style="opacity:1" fill="#59392d" d="M 43.5,100.5 C 44.1667,100.5 44.8333,100.5 45.5,100.5C 46.5137,101.674 47.847,102.34 49.5,102.5C 49.6107,103.117 49.944,103.617 50.5,104C 53.367,104.801 56.0336,104.634 58.5,103.5C 60.0618,103.267 61.3951,102.6 62.5,101.5C 63.1667,101.5 63.5,101.833 63.5,102.5C 62.8333,103.5 62.1667,104.5 61.5,105.5C 60.1806,106.897 58.5139,107.563 56.5,107.5C 53.3307,106.444 50.3307,106.444 47.5,107.5C 46.8826,107.611 46.3826,107.944 46,108.5C 45.5045,106.527 45.3379,104.527 45.5,102.5C 43.4086,102.318 41.4086,102.652 39.5,103.5C 39.1667,103.167 38.8333,102.833 38.5,102.5C 40.0217,101.438 41.6883,100.771 43.5,100.5 Z"/></g>
<g><path style="opacity:1" fill="#a47267" d="M 49.5,102.5 C 52.4299,103.299 55.4299,103.632 58.5,103.5C 56.0336,104.634 53.367,104.801 50.5,104C 49.944,103.617 49.6107,103.117 49.5,102.5 Z"/></g>
<g><path style="opacity:1" fill="#caa897" d="M 64.5,102.5 C 64.3284,101.508 64.6618,100.842 65.5,100.5C 66.7079,99.7659 68.0413,99.4326 69.5,99.5C 69.7683,102.119 69.435,104.619 68.5,107C 63.7485,109.035 62.4151,107.535 64.5,102.5 Z"/></g>
<g><path style="opacity:1" fill="#866856" d="M 15.5,99.5 C 18.4137,100.834 21.4137,102.167 24.5,103.5C 26.3254,102.349 28.3254,101.682 30.5,101.5C 29.9035,103.398 29.9035,105.065 30.5,106.5C 29.1667,109.167 29.1667,111.833 30.5,114.5C 29.8333,114.5 29.1667,114.5 28.5,114.5C 25.8915,114.6 23.5582,113.933 21.5,112.5C 18.9689,109.43 16.9689,106.096 15.5,102.5C 15.5,101.833 15.5,101.167 15.5,100.5C 15.5,100.167 15.5,99.8333 15.5,99.5 Z"/></g>
<g><path style="opacity:1" fill="#855f47" d="M 34.5,88.5 C 35.7109,94.0233 35.7109,99.6899 34.5,105.5C 36.6746,105.682 38.6746,106.349 40.5,107.5C 41.6473,107.182 42.4806,106.516 43,105.5C 43.2784,106.416 43.7784,107.082 44.5,107.5C 45.2071,110.786 45.5405,114.119 45.5,117.5C 41.2036,117.92 40.5369,116.253 43.5,112.5C 43,112.167 42.5,111.833 42,111.5C 38.8401,115.053 35.0068,116.053 30.5,114.5C 29.1667,111.833 29.1667,109.167 30.5,106.5C 33.7074,100.996 35.0407,94.9962 34.5,88.5 Z"/></g>
<g><path style="opacity:1" fill="#36231c" d="M 15.5,102.5 C 16.9689,106.096 18.9689,109.43 21.5,112.5C 24.1031,114.621 26.4364,116.954 28.5,119.5C 20.5556,115.889 14.5556,110.222 10.5,102.5C 12.0496,101.28 13.7163,101.28 15.5,102.5 Z"/></g>
<g><path style="opacity:1" fill="#9a8072" d="M 77.5,104.5 C 78.675,104.281 79.675,104.614 80.5,105.5C 78.1165,106.885 76.4499,108.885 75.5,111.5C 74.609,112.11 73.609,112.443 72.5,112.5C 72.5,112.167 72.5,111.833 72.5,111.5C 73.4861,109.574 74.4861,107.574 75.5,105.5C 76.1667,105.167 76.8333,104.833 77.5,104.5 Z"/></g>
<g><path style="opacity:1" fill="#a5806a" d="M 70.5,110.5 C 65.3528,112.685 62.3528,111.018 61.5,105.5C 62.1667,104.5 62.8333,103.5 63.5,102.5C 63.8333,102.5 64.1667,102.5 64.5,102.5C 62.4151,107.535 63.7485,109.035 68.5,107C 69.435,104.619 69.7683,102.119 69.5,99.5C 68.0413,99.4326 66.7079,99.7659 65.5,100.5C 66.5521,98.744 68.2188,98.0773 70.5,98.5C 71.0012,102.588 71.0012,106.588 70.5,110.5 Z"/></g>
<g><path style="opacity:1" fill="#7e5e4d" d="M 91.5,93.5 C 89.1833,102.473 84.1833,109.473 76.5,114.5C 76.4142,113.504 76.7476,112.671 77.5,112C 76.9056,111.536 76.2389,111.369 75.5,111.5C 76.4499,108.885 78.1165,106.885 80.5,105.5C 79.675,104.614 78.675,104.281 77.5,104.5C 78.6412,103.661 79.9745,102.994 81.5,102.5C 82.2575,103.811 83.2575,104.311 84.5,104C 86.7327,100.349 89.066,96.8485 91.5,93.5 Z"/></g>
<g><path style="opacity:1" fill="#6d4e3a" d="M 45.5,117.5 C 44.3591,119.243 42.6924,120.243 40.5,120.5C 37.3313,119.041 33.998,118.208 30.5,118C 29.695,116.887 29.0283,115.721 28.5,114.5C 29.1667,114.5 29.8333,114.5 30.5,114.5C 35.0068,116.053 38.8401,115.053 42,111.5C 42.5,111.833 43,112.167 43.5,112.5C 40.5369,116.253 41.2036,117.92 45.5,117.5 Z"/></g>
<g><path style="opacity:1" fill="#6b4e3c" d="M 75.5,111.5 C 76.2389,111.369 76.9056,111.536 77.5,112C 76.7476,112.671 76.4142,113.504 76.5,114.5C 71.3744,118.885 65.3744,121.552 58.5,122.5C 54.2984,122.817 50.2984,122.483 46.5,121.5C 47.6409,119.757 49.3076,118.757 51.5,118.5C 59.5595,120.309 66.5595,118.309 72.5,112.5C 73.609,112.443 74.609,112.11 75.5,111.5 Z"/></g>
<g><path style="opacity:0.004" fill="#926f50" d="M 104.5,113.5 C 104.5,128.833 104.5,144.167 104.5,159.5C 92.6547,159.828 80.988,159.495 69.5,158.5C 70.4511,157.081 70.7845,155.415 70.5,153.5C 71.8333,153.5 73.1667,153.5 74.5,153.5C 74.2837,151.319 75.117,149.653 77,148.5C 76.5335,142.36 78.3668,137.194 82.5,133C 84.1667,132.667 85.8333,132.333 87.5,132C 90.378,127.144 94.378,123.644 99.5,121.5C 100.31,119.202 101.144,116.868 102,114.5C 102.671,113.748 103.504,113.414 104.5,113.5 Z"/></g>
<g><path style="opacity:1" fill="#81614c" d="M 61.5,105.5 C 62.3528,111.018 65.3528,112.685 70.5,110.5C 65.1318,117.063 58.4652,118.729 50.5,115.5C 48.5065,113.184 47.5065,110.518 47.5,107.5C 50.3307,106.444 53.3307,106.444 56.5,107.5C 58.5139,107.563 60.1806,106.897 61.5,105.5 Z"/></g>
<g><path style="opacity:1" fill="#a67f6b" d="M 51.5,108.5 C 54.2469,108.187 56.9135,108.52 59.5,109.5C 60.9501,110.85 61.6168,112.516 61.5,114.5C 58.0307,115.907 54.6974,115.574 51.5,113.5C 50.1854,111.801 50.1854,110.135 51.5,108.5 Z"/></g>
<g><path style="opacity:1" fill="#5c402e" d="M 43.5,100.5 C 41.6883,100.771 40.0217,101.438 38.5,102.5C 38.8333,102.833 39.1667,103.167 39.5,103.5C 41.4086,102.652 43.4086,102.318 45.5,102.5C 45.3379,104.527 45.5045,106.527 46,108.5C 46.3826,107.944 46.8826,107.611 47.5,107.5C 47.5065,110.518 48.5065,113.184 50.5,115.5C 58.4652,118.729 65.1318,117.063 70.5,110.5C 71.9245,108.969 72.5912,109.302 72.5,111.5C 72.5,111.833 72.5,112.167 72.5,112.5C 66.5595,118.309 59.5595,120.309 51.5,118.5C 49.3076,118.757 47.6409,119.757 46.5,121.5C 40.4091,121.465 34.4091,120.799 28.5,119.5C 26.4364,116.954 24.1031,114.621 21.5,112.5C 23.5582,113.933 25.8915,114.6 28.5,114.5C 29.0283,115.721 29.695,116.887 30.5,118C 33.998,118.208 37.3313,119.041 40.5,120.5C 42.6924,120.243 44.3591,119.243 45.5,117.5C 45.5405,114.119 45.2071,110.786 44.5,107.5C 44.5,106.167 44.5,104.833 44.5,103.5C 42.3502,103.905 40.3502,104.405 38.5,105C 37.5939,103.301 37.2606,101.467 37.5,99.5C 39.7354,99.2053 41.7354,99.5386 43.5,100.5 Z"/></g>
<g><path style="opacity:0.725" fill="#694d38" d="M 97.5,72.5 C 99.0384,81.1398 98.5384,89.8064 96,98.5C 93.4884,102.19 91.4884,106.19 90,110.5C 85.5156,113.654 81.3489,117.154 77.5,121C 74.5547,122.131 71.5547,122.964 68.5,123.5C 81.8015,116.527 90.8015,105.86 95.5,91.5C 96.29,90.3915 96.79,89.0581 97,87.5C 97.4993,82.5111 97.6659,77.5111 97.5,72.5 Z"/></g>
<g><path style="opacity:1" fill="#4a3024" d="M 28.5,119.5 C 34.4091,120.799 40.4091,121.465 46.5,121.5C 50.2984,122.483 54.2984,122.817 58.5,122.5C 48.0688,125.85 38.0688,124.85 28.5,119.5 Z"/></g>
<g><path style="opacity:0.041" fill="#88694c" d="M 88.5,113.5 C 88.5,114.167 88.5,114.833 88.5,115.5C 84.1972,121.123 78.8638,125.79 72.5,129.5C 71.1638,134.712 69.9971,139.712 69,144.5C 65.4454,147.302 62.1121,150.302 59,153.5C 58.6905,154.766 58.1905,155.933 57.5,157C 57.8333,157.333 58.1667,157.667 58.5,158C 62.1516,158.499 65.8183,158.665 69.5,158.5C 80.988,159.495 92.6547,159.828 104.5,159.5C 104.5,159.833 104.5,160.167 104.5,160.5C 69.5,160.5 34.5,160.5 -0.5,160.5C -0.5,160.167 -0.5,159.833 -0.5,159.5C 15.8469,159.833 32.1803,159.499 48.5,158.5C 48.1373,157.817 47.8039,157.15 47.5,156.5C 48.1667,156.5 48.8333,156.5 49.5,156.5C 54.4177,156.828 56.4177,154.495 55.5,149.5C 59.9083,149.938 61.5749,147.938 60.5,143.5C 62.1667,143.5 63.8333,143.5 65.5,143.5C 64.9736,139.75 65.9736,136.584 68.5,134C 68.6134,132.301 67.9468,131.134 66.5,130.5C 66.6716,129.508 66.3382,128.842 65.5,128.5C 65.5,128.167 65.5,127.833 65.5,127.5C 74.3568,125.003 82.0234,120.336 88.5,113.5 Z"/></g>
<g><path style="opacity:0.918" fill="#6b4230" d="M 68.5,123.5 C 67.469,124.249 66.3024,124.915 65,125.5C 64.3083,126.437 64.475,127.103 65.5,127.5C 65.5,127.833 65.5,128.167 65.5,128.5C 63.8227,129.412 61.9893,130.079 60,130.5C 58.6153,130.486 57.4486,130.152 56.5,129.5C 58.604,129.799 60.604,129.466 62.5,128.5C 59.9135,127.52 57.2469,127.187 54.5,127.5C 58.9305,125.828 63.5972,124.494 68.5,123.5 Z"/></g>
<g><path style="opacity:0.678" fill="#77513b" d="M 29.5,123.5 C 32.5738,124.302 35.5738,125.302 38.5,126.5C 39.9002,127.1 40.9002,128.1 41.5,129.5C 38.2844,131.013 35.6178,130.347 33.5,127.5C 32.3748,126 31.0414,124.667 29.5,123.5 Z"/></g>
<g><path style="opacity:0.92" fill="#755a42" d="M 54.5,127.5 C 57.2469,127.187 59.9135,127.52 62.5,128.5C 60.604,129.466 58.604,129.799 56.5,129.5C 56.1667,129.5 55.8333,129.5 55.5,129.5C 55.1667,128.833 54.8333,128.167 54.5,127.5 Z"/></g>
<g><path style="opacity:0.99" fill="#6b392a" d="M 38.5,126.5 C 43.7968,127.275 49.1301,127.608 54.5,127.5C 54.8333,128.167 55.1667,128.833 55.5,129.5C 54.1266,129.343 52.7932,129.51 51.5,130C 52.7375,130.232 53.7375,130.732 54.5,131.5C 53.8333,131.5 53.5,131.833 53.5,132.5C 50.483,131.575 47.6497,130.242 45,128.5C 43.7441,128.648 42.5774,128.982 41.5,129.5C 40.9002,128.1 39.9002,127.1 38.5,126.5 Z"/></g>
<g><path style="opacity:1" fill="#641612" d="M 33.5,127.5 C 35.6178,130.347 38.2844,131.013 41.5,129.5C 42.5774,128.982 43.7441,128.648 45,128.5C 47.6497,130.242 50.483,131.575 53.5,132.5C 54.2883,136.633 52.7883,139.966 49,142.5C 46.4054,140.57 44.572,138.07 43.5,135C 44.1007,133.395 45.1007,132.062 46.5,131C 45.1011,130.405 43.7678,130.572 42.5,131.5C 41.5258,133.743 41.1924,136.076 41.5,138.5C 39.9699,140.346 37.9699,141.346 35.5,141.5C 34.5362,138.127 33.5362,134.627 32.5,131C 32.5143,129.615 32.8476,128.449 33.5,127.5 Z"/></g>
<g><path style="opacity:0.784" fill="#734f39" d="M 53.5,132.5 C 53.5,131.833 53.8333,131.5 54.5,131.5C 57.0771,132.69 57.9105,134.69 57,137.5C 54.1576,140.542 51.3243,143.542 48.5,146.5C 46.7806,144.456 45.1139,142.456 43.5,140.5C 43.1667,139.5 42.5,138.833 41.5,138.5C 41.1924,136.076 41.5258,133.743 42.5,131.5C 43.7678,130.572 45.1011,130.405 46.5,131C 45.1007,132.062 44.1007,133.395 43.5,135C 44.572,138.07 46.4054,140.57 49,142.5C 52.7883,139.966 54.2883,136.633 53.5,132.5 Z"/></g>
<g><path style="opacity:0.886" fill="#672f23" d="M 41.5,138.5 C 42.5,138.833 43.1667,139.5 43.5,140.5C 40.6874,141.446 39.354,143.446 39.5,146.5C 38.5655,145.432 38.2322,144.099 38.5,142.5C 37.209,142.737 36.209,142.404 35.5,141.5C 37.9699,141.346 39.9699,140.346 41.5,138.5 Z"/></g>
<g><path style="opacity:0.694" fill="#6e3c2d" d="M 62.5,141.5 C 61.791,142.404 60.791,142.737 59.5,142.5C 59.7678,144.099 59.4345,145.432 58.5,146.5C 58.6715,144.508 58.0049,142.842 56.5,141.5C 58.4012,140.769 60.4012,140.769 62.5,141.5 Z"/></g>
<g><path style="opacity:0.698" fill="#6d3f2e" d="M 44.5,151.5 C 42.7986,150.789 41.7986,149.455 41.5,147.5C 42.9669,146.708 44.3002,146.708 45.5,147.5C 44.7542,148.736 44.4208,150.07 44.5,151.5 Z"/></g>
<g><path style="opacity:1" fill="#631411" d="M 65.5,128.5 C 66.3382,128.842 66.6716,129.508 66.5,130.5C 64.653,133.96 63.3197,137.626 62.5,141.5C 60.4012,140.769 58.4012,140.769 56.5,141.5C 58.0049,142.842 58.6715,144.508 58.5,146.5C 56.537,147.168 54.537,147.502 52.5,147.5C 53.4847,149.098 53.6514,150.765 53,152.5C 51.2802,153.384 50.1135,154.717 49.5,156.5C 48.8333,156.5 48.1667,156.5 47.5,156.5C 46.925,154.589 45.925,152.922 44.5,151.5C 44.4208,150.07 44.7542,148.736 45.5,147.5C 44.3002,146.708 42.9669,146.708 41.5,147.5C 40.8333,147.167 40.1667,146.833 39.5,146.5C 39.354,143.446 40.6874,141.446 43.5,140.5C 45.1139,142.456 46.7806,144.456 48.5,146.5C 51.3243,143.542 54.1576,140.542 57,137.5C 57.9105,134.69 57.0771,132.69 54.5,131.5C 53.7375,130.732 52.7375,130.232 51.5,130C 52.7932,129.51 54.1266,129.343 55.5,129.5C 55.8333,129.5 56.1667,129.5 56.5,129.5C 57.4486,130.152 58.6153,130.486 60,130.5C 61.9893,130.079 63.8227,129.412 65.5,128.5 Z"/></g>
<g><path style="opacity:0.4" fill="#6f503a" d="M 66.5,130.5 C 67.9468,131.134 68.6134,132.301 68.5,134C 65.9736,136.584 64.9736,139.75 65.5,143.5C 63.8333,143.5 62.1667,143.5 60.5,143.5C 61.5749,147.938 59.9083,149.938 55.5,149.5C 56.4177,154.495 54.4177,156.828 49.5,156.5C 50.1135,154.717 51.2802,153.384 53,152.5C 53.6514,150.765 53.4847,149.098 52.5,147.5C 54.537,147.502 56.537,147.168 58.5,146.5C 59.4345,145.432 59.7678,144.099 59.5,142.5C 60.791,142.737 61.791,142.404 62.5,141.5C 63.3197,137.626 64.653,133.96 66.5,130.5 Z"/></g>
</svg>
