<?xml version="1.0" encoding="UTF-8"?>
<!DOCTYPE svg PUBLIC "-//W3C//DTD SVG 1.1//EN" "http://www.w3.org/Graphics/SVG/1.1/DTD/svg11.dtd">
<svg xmlns="http://www.w3.org/2000/svg" version="1.1" width="105px" height="161px" style="shape-rendering:geometricPrecision; text-rendering:geometricPrecision; image-rendering:optimizeQuality; fill-rule:evenodd; clip-rule:evenodd" xmlns:xlink="http://www.w3.org/1999/xlink">
<g><path style="opacity:0.007" fill="#906d4f" d="M 33.5,-0.5 C 57.1667,-0.5 80.8333,-0.5 104.5,-0.5C 104.5,19.8333 104.5,40.1667 104.5,60.5C 103.07,60.5792 101.736,60.2458 100.5,59.5C 100.167,60.3333 99.8333,61.1667 99.5,62C 100.832,66.3312 102.165,70.6645 103.5,75C 102.66,81.4299 102.326,87.9299 102.5,94.5C 102.747,95.7133 103.414,96.38 104.5,96.5C 104.5,97.1667 104.5,97.8333 104.5,98.5C 103.173,99.8001 101.84,101.133 100.5,102.5C 98.9273,107.804 95.594,111.637 90.5,114C 85.313,120.014 79.313,125.18 72.5,129.5C 71.1638,134.712 69.9971,139.712 69,144.5C 65.4454,147.302 62.1121,150.302 59,153.5C 58.5899,154.901 58.0899,156.234 57.5,157.5C 57.2089,158.649 56.3756,159.316 55,159.5C 54.1667,159.167 53.3333,158.833 52.5,158.5C 56.2105,153.169 60.5438,148.503 65.5,144.5C 67.3505,139.769 67.6839,135.103 66.5,130.5C 66.6716,129.508 66.3382,128.842 65.5,128.5C 65.4142,127.504 65.7476,126.671 66.5,126C 85.0764,120.999 96.2431,109.166 100,90.5C 100.987,81.5584 100.487,72.7251 98.5,64C 96.5407,62.7005 95.374,60.8671 95,58.5C 94.3292,57.7476 93.4959,57.4142 92.5,57.5C 90.017,51.6762 86.3504,46.6762 81.5,42.5C 85.7927,39.2425 86.4594,35.4091 83.5,31C 79.0826,29.4315 77.0826,30.9315 77.5,35.5C 78.5,35.5 79.5,35.5 80.5,35.5C 80.5,34.5 80.5,33.5 80.5,32.5C 81.5,32.5 82.5,32.5 83.5,32.5C 84.1686,38.0001 81.8353,40.1667 76.5,39C 74.3555,36.0211 72.0222,33.1878 69.5,30.5C 74.5933,28.9168 76.4267,25.5835 75,20.5C 71.5033,15.4269 68.3366,15.4269 65.5,20.5C 65.859,23.2817 67.1923,23.9483 69.5,22.5C 68.7542,21.2638 68.4208,19.9305 68.5,18.5C 73.5628,19.9217 74.5628,22.755 71.5,27C 67.9075,27.3044 64.5742,26.4711 61.5,24.5C 63.25,20.5818 62.5834,17.2485 59.5,14.5C 58.4324,13.5655 57.099,13.2322 55.5,13.5C 55.7271,11.0672 54.7271,9.40058 52.5,8.5C 52.573,6.97306 51.9063,5.97306 50.5,5.5C 49.2946,4.31434 47.9613,4.31434 46.5,5.5C 46.5654,5.06178 46.3988,4.72845 46,4.5C 44.8129,6.04442 44.4795,7.71109 45,9.5C 45.2784,8.5842 45.7784,7.91753 46.5,7.5C 46.8426,12.0411 46.8426,16.3744 46.5,20.5C 45.3882,17.0536 43.0548,15.0536 39.5,14.5C 39.3398,16.1992 39.5065,17.8659 40,19.5C 41.6667,20.7332 43.1667,22.0665 44.5,23.5C 44.5,23.8333 44.5,24.1667 44.5,24.5C 38.9363,24.2825 33.603,25.2825 28.5,27.5C 27.5581,27.3918 26.7247,27.0585 26,26.5C 24.5233,22.0022 26.0233,19.8355 30.5,20C 29.6634,21.0113 29.33,22.1779 29.5,23.5C 30.8221,23.67 31.9887,23.3366 33,22.5C 33.6004,19.9047 33.1004,17.5713 31.5,15.5C 33.5,16.8333 35.5,18.1667 37.5,19.5C 37.3253,17.3792 37.6586,15.3792 38.5,13.5C 37.5041,13.4142 36.6708,13.7476 36,14.5C 35.2613,13.4258 34.2613,12.7591 33,12.5C 30.5,13.3333 28,14.1667 25.5,15C 24.7476,15.6708 24.4142,16.5041 24.5,17.5C 22.0882,17.6941 21.0882,19.0274 21.5,21.5C 20.2437,23.7257 20.2437,26.059 21.5,28.5C 19.2181,27.6103 16.8848,27.4436 14.5,28C 13.244,28.4169 12.5774,29.2502 12.5,30.5C 11.8333,30.5 11.5,30.8333 11.5,31.5C 7.9303,33.8966 7.59696,36.8966 10.5,40.5C 10.9569,41.2975 11.6236,41.6309 12.5,41.5C 12.5,42.1667 12.5,42.8333 12.5,43.5C 11.1667,43.5 10.5,44.1667 10.5,45.5C 9.83333,45.5 9.5,45.8333 9.5,46.5C 8.83333,46.5 8.5,46.8333 8.5,47.5C 7.16667,48.1667 7.16667,48.8333 8.5,49.5C 8.57298,51.0269 7.90632,52.0269 6.5,52.5C 5.69871,50.2071 5.03204,50.5404 4.5,53.5C 2.2729,54.4006 1.2729,56.0672 1.5,58.5C 0.833333,58.8333 0.166667,59.1667 -0.5,59.5C -0.5,43.1667 -0.5,26.8333 -0.5,10.5C 10.8333,10.5 22.1667,10.5 33.5,10.5C 33.5,6.83333 33.5,3.16667 33.5,-0.5 Z M 46.5,5.5 C 46.5,6.16667 46.5,6.83333 46.5,7.5C 45.7784,7.91753 45.2784,8.5842 45,9.5C 44.4795,7.71109 44.8129,6.04442 46,4.5C 46.3988,4.72845 46.5654,5.06178 46.5,5.5 Z M 38.5,13.5 C 37.6586,15.3792 37.3253,17.3792 37.5,19.5C 35.5,18.1667 33.5,16.8333 31.5,15.5C 30.5,15.5 29.5,15.5 28.5,15.5C 27.1667,16.1667 25.8333,16.8333 24.5,17.5C 24.4142,16.5041 24.7476,15.6708 25.5,15C 28,14.1667 30.5,13.3333 33,12.5C 34.2613,12.7591 35.2613,13.4258 36,14.5C 36.6708,13.7476 37.5041,13.4142 38.5,13.5 Z M 89.5,31.5 C 86.3,30.1604 82.6333,28.9937 78.5,28C 79.1667,27.3333 79.8333,26.6667 80.5,26C 78.5322,22.0401 75.8655,18.7068 72.5,16C 70.5273,15.5045 68.5273,15.3379 66.5,15.5C 71.1988,12.4272 76.1988,12.0938 81.5,14.5C 84.1806,18.3572 86.6806,22.3572 89,26.5C 89.4935,28.1341 89.6602,29.8008 89.5,31.5 Z M 24.5,17.5 C 24.2014,19.4553 23.2014,20.7886 21.5,21.5C 21.0882,19.0274 22.0882,17.6941 24.5,17.5 Z M 21.5,21.5 C 21.6741,23.861 22.0074,26.1944 22.5,28.5C 22.1667,28.5 21.8333,28.5 21.5,28.5C 20.2437,26.059 20.2437,23.7257 21.5,21.5 Z M 21.5,28.5 C 21.1583,29.3382 20.4916,29.6716 19.5,29.5C 17.0504,29.298 14.717,29.6314 12.5,30.5C 12.5774,29.2502 13.244,28.4169 14.5,28C 16.8848,27.4436 19.2181,27.6103 21.5,28.5 Z M 11.5,31.5 C 11.1667,32.8333 10.8333,34.1667 10.5,35.5C 10.6036,37.7028 11.2702,39.7028 12.5,41.5C 11.6236,41.6309 10.9569,41.2975 10.5,40.5C 7.59696,36.8966 7.9303,33.8966 11.5,31.5 Z M 89.5,31.5 C 92.3903,31.278 95.057,31.9447 97.5,33.5C 98.8104,38.8799 99.1437,44.2133 98.5,49.5C 96.1305,49.8511 93.7972,50.0178 91.5,50C 90.7433,48.4878 89.7433,47.1545 88.5,46C 89.9125,42.2958 90.9125,38.4624 91.5,34.5C 90.8075,33.4822 90.1408,32.4822 89.5,31.5 Z M 12.5,43.5 C 12.1667,44.5 11.5,45.1667 10.5,45.5C 10.5,44.1667 11.1667,43.5 12.5,43.5 Z M 6.5,52.5 C 5.83333,52.5 5.5,52.8333 5.5,53.5C 5.16667,53.5 4.83333,53.5 4.5,53.5C 5.03204,50.5404 5.69871,50.2071 6.5,52.5 Z M 4.5,53.5 C 4.25027,55.674 3.25027,57.3406 1.5,58.5C 1.2729,56.0672 2.2729,54.4006 4.5,53.5 Z"/></g>
<g><path style="opacity:0.996" fill="#62100e" d="M 50.5,5.5 C 51.9063,5.97306 52.573,6.97306 52.5,8.5C 52.9693,12.9104 51.9693,16.9104 49.5,20.5C 47.7191,15.972 47.2191,11.3053 48,6.5C 48.6708,5.74756 49.5041,5.41423 50.5,5.5 Z"/></g>
<g><path style="opacity:1" fill="#651c16" d="M 46.5,20.5 C 46.4142,21.4959 46.7476,22.3292 47.5,23C 46.552,23.4828 45.552,23.6495 44.5,23.5C 43.1667,22.0665 41.6667,20.7332 40,19.5C 39.5065,17.8659 39.3398,16.1992 39.5,14.5C 43.0548,15.0536 45.3882,17.0536 46.5,20.5 Z"/></g>
<g><path style="opacity:0.44" fill="#79513b" d="M 50.5,5.5 C 49.5041,5.41423 48.6708,5.74756 48,6.5C 47.2191,11.3053 47.7191,15.972 49.5,20.5C 51.9693,16.9104 52.9693,12.9104 52.5,8.5C 54.7271,9.40058 55.7271,11.0672 55.5,13.5C 57.099,13.2322 58.4324,13.5655 59.5,14.5C 62.5834,17.2485 63.25,20.5818 61.5,24.5C 56.5763,23.9621 52.5763,25.6288 49.5,29.5C 47.4788,28.1455 45.8121,26.4788 44.5,24.5C 44.5,24.1667 44.5,23.8333 44.5,23.5C 45.552,23.6495 46.552,23.4828 47.5,23C 46.7476,22.3292 46.4142,21.4959 46.5,20.5C 46.8426,16.3744 46.8426,12.0411 46.5,7.5C 46.5,6.83333 46.5,6.16667 46.5,5.5C 47.9613,4.31434 49.2946,4.31434 50.5,5.5 Z"/></g>
<g><path style="opacity:1" fill="#651914" d="M 59.5,14.5 C 59.3542,18.619 57.3542,21.619 53.5,23.5C 53.1667,22.8333 52.8333,22.1667 52.5,21.5C 53.5314,19.6178 54.3647,17.6178 55,15.5C 56.3561,14.6198 57.8561,14.2865 59.5,14.5 Z"/></g>
<g><path style="opacity:0.796" fill="#6f2e24" d="M 28.5,15.5 C 29.5,15.5 30.5,15.5 31.5,15.5C 33.1004,17.5713 33.6004,19.9047 33,22.5C 31.9887,23.3366 30.8221,23.67 29.5,23.5C 29.33,22.1779 29.6634,21.0113 30.5,20C 26.0233,19.8355 24.5233,22.0022 26,26.5C 26.7247,27.0585 27.5581,27.3918 28.5,27.5C 33.603,25.2825 38.9363,24.2825 44.5,24.5C 45.8121,26.4788 47.4788,28.1455 49.5,29.5C 52.5763,25.6288 56.5763,23.9621 61.5,24.5C 64.5742,26.4711 67.9075,27.3044 71.5,27C 74.5628,22.755 73.5628,19.9217 68.5,18.5C 68.4208,19.9305 68.7542,21.2638 69.5,22.5C 67.1923,23.9483 65.859,23.2817 65.5,20.5C 68.3366,15.4269 71.5033,15.4269 75,20.5C 76.4267,25.5835 74.5933,28.9168 69.5,30.5C 72.0222,33.1878 74.3555,36.0211 76.5,39C 81.8353,40.1667 84.1686,38.0001 83.5,32.5C 82.5,32.5 81.5,32.5 80.5,32.5C 80.5,33.5 80.5,34.5 80.5,35.5C 79.5,35.5 78.5,35.5 77.5,35.5C 77.0826,30.9315 79.0826,29.4315 83.5,31C 86.4594,35.4091 85.7927,39.2425 81.5,42.5C 86.3504,46.6762 90.017,51.6762 92.5,57.5C 94.4342,61.3027 95.7676,65.3027 96.5,69.5C 94.7868,68.3646 94.1201,66.698 94.5,64.5C 93.5,64.5 92.5,64.5 91.5,64.5C 89.4727,64.6621 87.4727,64.4955 85.5,64C 88.3615,64.0302 90.6948,63.1969 92.5,61.5C 92.5,60.8333 92.1667,60.5 91.5,60.5C 89.4942,55.1454 86.4942,50.4787 82.5,46.5C 80.0706,43.4005 77.0706,41.0671 73.5,39.5C 71.52,37.5486 69.1867,36.0486 66.5,35C 60.9395,33.3602 55.2728,32.1936 49.5,31.5C 45.8183,31.3347 42.1516,31.5014 38.5,32C 37.944,32.3826 37.6107,32.8826 37.5,33.5C 19.1508,37.8492 7.81751,49.1825 3.5,67.5C 2.73209,68.2625 2.23209,69.2625 2,70.5C 1.50085,75.1548 1.33418,79.8215 1.5,84.5C 1.51715,86.5648 1.85048,88.5648 2.5,90.5C 2.63101,91.2389 2.46434,91.9056 2,92.5C 1.76791,91.2625 1.26791,90.2625 0.5,89.5C 0.767809,87.901 0.434475,86.5676 -0.5,85.5C -0.5,81.1667 -0.5,76.8333 -0.5,72.5C 1.32644,66.2201 3.32644,59.8868 5.5,53.5C 5.5,52.8333 5.83333,52.5 6.5,52.5C 7.90632,52.0269 8.57298,51.0269 8.5,49.5C 11.1456,47.5211 13.4789,45.1878 15.5,42.5C 14.0319,39.8464 12.3652,37.513 10.5,35.5C 10.8333,34.1667 11.1667,32.8333 11.5,31.5C 12.1667,31.5 12.5,31.1667 12.5,30.5C 14.717,29.6314 17.0504,29.298 19.5,29.5C 20.3686,31.717 20.702,34.0504 20.5,36.5C 19.5,36.5 18.5,36.5 17.5,36.5C 17.762,35.0222 17.4287,33.6888 16.5,32.5C 14.5539,34.0437 14.0539,36.0437 15,38.5C 18.1283,39.942 20.9616,39.442 23.5,37C 25.684,34.9835 27.684,32.8169 29.5,30.5C 23.634,28.7431 22.134,25.0765 25,19.5C 26.6268,18.4677 27.7934,17.1344 28.5,15.5 Z"/></g>
<g><path style="opacity:0.206" fill="#7d5a41" d="M 37.5,26.5 C 41.0798,25.9228 44.0798,26.9228 46.5,29.5C 42.8261,30.2325 39.1594,30.8992 35.5,31.5C 34.4173,30.635 34.2506,29.635 35,28.5C 35.9947,27.9341 36.828,27.2674 37.5,26.5 Z"/></g>
<g><path style="opacity:0.047" fill="#876146" d="M 28.5,15.5 C 27.7934,17.1344 26.6268,18.4677 25,19.5C 22.134,25.0765 23.634,28.7431 29.5,30.5C 27.684,32.8169 25.684,34.9835 23.5,37C 20.9616,39.442 18.1283,39.942 15,38.5C 14.0539,36.0437 14.5539,34.0437 16.5,32.5C 17.4287,33.6888 17.762,35.0222 17.5,36.5C 18.5,36.5 19.5,36.5 20.5,36.5C 20.702,34.0504 20.3686,31.717 19.5,29.5C 20.4916,29.6716 21.1583,29.3382 21.5,28.5C 21.8333,28.5 22.1667,28.5 22.5,28.5C 22.0074,26.1944 21.6741,23.861 21.5,21.5C 23.2014,20.7886 24.2014,19.4553 24.5,17.5C 25.8333,16.8333 27.1667,16.1667 28.5,15.5 Z"/></g>
<g><path style="opacity:0.22" fill="#825f45" d="M 55.5,26.5 C 60.0218,25.6203 63.3552,27.1203 65.5,31C 65.1667,31.5 64.8333,32 64.5,32.5C 60.717,30.9763 56.717,29.9763 52.5,29.5C 53.7701,28.7124 54.7701,27.7124 55.5,26.5 Z"/></g>
<g><path style="opacity:1" fill="#9e909c" d="M 49.5,31.5 C 50.9899,33.2798 52.9899,33.9465 55.5,33.5C 55.7373,34.791 55.404,35.791 54.5,36.5C 49.3651,32.8123 43.6985,31.8123 37.5,33.5C 37.6107,32.8826 37.944,32.3826 38.5,32C 42.1516,31.5014 45.8183,31.3347 49.5,31.5 Z"/></g>
<g><path style="opacity:1" fill="#f5f2f2" d="M 54.5,36.5 C 53.8333,36.5 53.5,36.8333 53.5,37.5C 48.272,39.0637 42.9387,40.0637 37.5,40.5C 36.7109,40.7828 36.0442,41.2828 35.5,42C 31.106,42.3028 26.7727,42.9695 22.5,44C 21.944,44.3826 21.6107,44.8826 21.5,45.5C 20.8333,45.5 20.5,45.8333 20.5,46.5C 19.6721,52.6534 19.1721,58.9867 19,65.5C 17.3775,66.0989 15.8775,66.7656 14.5,67.5C 12.5853,67.2155 10.9187,67.5489 9.5,68.5C 7.73759,68.3573 6.07092,68.6906 4.5,69.5C 3.70245,69.0431 3.36912,68.3764 3.5,67.5C 7.81751,49.1825 19.1508,37.8492 37.5,33.5C 43.6985,31.8123 49.3651,32.8123 54.5,36.5 Z"/></g>
<g><path style="opacity:1" fill="#494344" d="M 49.5,31.5 C 55.2728,32.1936 60.9395,33.3602 66.5,35C 69.1867,36.0486 71.52,37.5486 73.5,39.5C 72.8333,39.5 72.1667,39.5 71.5,39.5C 65.3504,38.9626 59.3504,38.296 53.5,37.5C 53.5,36.8333 53.8333,36.5 54.5,36.5C 55.404,35.791 55.7373,34.791 55.5,33.5C 52.9899,33.9465 50.9899,33.2798 49.5,31.5 Z"/></g>
<g><path style="opacity:0.282" fill="#8a6146" d="M 10.5,35.5 C 12.3652,37.513 14.0319,39.8464 15.5,42.5C 13.4789,45.1878 11.1456,47.5211 8.5,49.5C 8.5,48.8333 8.5,48.1667 8.5,47.5C 9.16667,47.5 9.5,47.1667 9.5,46.5C 10.1667,46.5 10.5,46.1667 10.5,45.5C 11.5,45.1667 12.1667,44.5 12.5,43.5C 13.8333,42.8333 13.8333,42.1667 12.5,41.5C 11.2702,39.7028 10.6036,37.7028 10.5,35.5 Z"/></g>
<g><path style="opacity:1" fill="#a7a69f" d="M 53.5,37.5 C 59.3504,38.296 65.3504,38.9626 71.5,39.5C 72.3029,40.4232 72.4696,41.4232 72,42.5C 67.6614,40.9777 63.1614,40.3111 58.5,40.5C 56.1296,40.736 54.1296,41.736 52.5,43.5C 51.3348,42.5089 50.1681,41.5089 49,40.5C 48.0497,41.0223 47.2164,41.689 46.5,42.5C 43.7877,40.7397 40.7877,40.073 37.5,40.5C 42.9387,40.0637 48.272,39.0637 53.5,37.5 Z"/></g>
<g><path style="opacity:1" fill="#7b7867" d="M 37.5,40.5 C 40.7877,40.073 43.7877,40.7397 46.5,42.5C 47.2164,41.689 48.0497,41.0223 49,40.5C 50.1681,41.5089 51.3348,42.5089 52.5,43.5C 54.1296,41.736 56.1296,40.736 58.5,40.5C 58.5,41.5 58.5,42.5 58.5,43.5C 62.0542,43.151 65.3875,43.151 68.5,43.5C 69.0906,44.1515 69.7573,44.8182 70.5,45.5C 68.8361,46.2231 67.1694,45.8897 65.5,44.5C 64.8933,44.6236 64.56,44.9569 64.5,45.5C 61.7851,46.5062 59.1185,46.1729 56.5,44.5C 53.6865,47.0918 50.8532,47.0918 48,44.5C 46.9701,44.8361 46.4701,45.5028 46.5,46.5C 44.4727,46.3379 42.4727,46.5045 40.5,47C 41.8333,48 41.8333,49 40.5,50C 42.0127,52.0226 43.3461,51.8559 44.5,49.5C 45.8975,51.8982 47.8975,53.5649 50.5,54.5C 48.1442,55.2943 45.8109,54.961 43.5,53.5C 42.0295,54.3805 41.1962,55.7139 41,57.5C 39.871,55.8588 38.371,54.8588 36.5,54.5C 36.0269,53.0937 35.0269,52.427 33.5,52.5C 31.8333,52.5 30.1667,52.5 28.5,52.5C 28.4606,51.4168 28.1272,50.4168 27.5,49.5C 29.4716,46.6739 31.9716,46.0072 35,47.5C 36.395,47.2196 37.5617,46.5529 38.5,45.5C 36.5352,44.7078 34.5352,44.0412 32.5,43.5C 29.05,45.2242 25.3834,45.8909 21.5,45.5C 21.6107,44.8826 21.944,44.3826 22.5,44C 26.7727,42.9695 31.106,42.3028 35.5,42C 36.0442,41.2828 36.7109,40.7828 37.5,40.5 Z"/></g>
<g><path style="opacity:1" fill="#656661" d="M 28.5,52.5 C 26.0977,53.9925 23.431,54.9925 20.5,55.5C 20.5,52.5 20.5,49.5 20.5,46.5C 20.5,45.8333 20.8333,45.5 21.5,45.5C 25.3834,45.8909 29.05,45.2242 32.5,43.5C 34.5352,44.0412 36.5352,44.7078 38.5,45.5C 37.5617,46.5529 36.395,47.2196 35,47.5C 31.9716,46.0072 29.4716,46.6739 27.5,49.5C 28.1272,50.4168 28.4606,51.4168 28.5,52.5 Z"/></g>
<g><path style="opacity:1" fill="#a3a18c" d="M 64.5,45.5 C 64.8212,47.0481 65.8212,47.7148 67.5,47.5C 67.2322,49.099 67.5655,50.4324 68.5,51.5C 66.6431,52.7537 64.6431,52.7537 62.5,51.5C 57.9478,54.881 55.2811,53.881 54.5,48.5C 51.5718,48.4349 48.9052,47.7682 46.5,46.5C 46.4701,45.5028 46.9701,44.8361 48,44.5C 50.8532,47.0918 53.6865,47.0918 56.5,44.5C 59.1185,46.1729 61.7851,46.5062 64.5,45.5 Z"/></g>
<g><path style="opacity:1" fill="#43392e" d="M 82.5,46.5 C 86.4942,50.4787 89.4942,55.1454 91.5,60.5C 90.5,60.5 89.5,60.5 88.5,60.5C 87.9694,57.2206 85.9694,55.8872 82.5,56.5C 82.5,53.1667 82.5,49.8333 82.5,46.5 Z"/></g>
<g><path style="opacity:1" fill="#655e4c" d="M 28.5,52.5 C 30.1667,52.5 31.8333,52.5 33.5,52.5C 33.5,53.5 33.5,54.5 33.5,55.5C 31.396,55.2011 29.396,55.5344 27.5,56.5C 28.8754,58.1634 28.542,59.4968 26.5,60.5C 29.5827,63.0719 30.9161,66.4052 30.5,70.5C 32.5,70.5 34.5,70.5 36.5,70.5C 36.1349,65.5786 37.1349,65.2453 39.5,69.5C 40.7362,70.2458 42.0695,70.5792 43.5,70.5C 38.3491,71.3267 33.0158,71.8267 27.5,72C 24.3793,72.7261 21.7127,74.2261 19.5,76.5C 18.5481,74.9547 18.2148,73.288 18.5,71.5C 22.5028,69.1724 23.1695,66.1724 20.5,62.5C 20.6667,61.8333 20.8333,61.1667 21,60.5C 22.5095,59.9103 24.0095,59.2436 25.5,58.5C 24.1117,55.9211 22.6117,55.9211 21,58.5C 20.5172,57.552 20.3505,56.552 20.5,55.5C 23.431,54.9925 26.0977,53.9925 28.5,52.5 Z"/></g>
<g><path style="opacity:1" fill="#9d9675" d="M 46.5,46.5 C 48.9052,47.7682 51.5718,48.4349 54.5,48.5C 55.2811,53.881 57.9478,54.881 62.5,51.5C 64.6431,52.7537 66.6431,52.7537 68.5,51.5C 70.6505,47.7194 71.6505,48.3861 71.5,53.5C 74.462,53.1167 75.462,54.1167 74.5,56.5C 72.6675,55.7515 71.0009,54.7515 69.5,53.5C 66.5582,57.1183 67.2248,60.1183 71.5,62.5C 69.8361,63.2231 68.1694,62.8897 66.5,61.5C 67.0888,53.7331 64.0888,51.7331 57.5,55.5C 55.8333,54.8333 54.1667,54.1667 52.5,53.5C 51.6143,54.325 51.281,55.325 51.5,56.5C 53.6188,56.4677 54.9522,57.4677 55.5,59.5C 52.995,60.4967 50.3283,60.4967 47.5,59.5C 46.2223,59.7822 45.2223,60.4489 44.5,61.5C 42.2362,60.7814 39.9029,60.448 37.5,60.5C 37.822,58.2776 37.1554,56.4443 35.5,55C 35.7284,54.6012 36.0618,54.4346 36.5,54.5C 38.371,54.8588 39.871,55.8588 41,57.5C 41.1962,55.7139 42.0295,54.3805 43.5,53.5C 45.8109,54.961 48.1442,55.2943 50.5,54.5C 47.8975,53.5649 45.8975,51.8982 44.5,49.5C 43.3461,51.8559 42.0127,52.0226 40.5,50C 41.8333,49 41.8333,48 40.5,47C 42.4727,46.5045 44.4727,46.3379 46.5,46.5 Z"/></g>
<g><path style="opacity:1" fill="#66573f" d="M 82.5,56.5 C 85.9694,55.8872 87.9694,57.2206 88.5,60.5C 89.5,60.5 90.5,60.5 91.5,60.5C 92.1667,60.5 92.5,60.8333 92.5,61.5C 89.1667,61.5 85.8333,61.5 82.5,61.5C 82.5,59.8333 82.5,58.1667 82.5,56.5 Z"/></g>
<g><path style="opacity:1" fill="#bdb294" d="M 68.5,43.5 C 72.4191,46.191 76.4191,48.191 80.5,49.5C 81.8333,51.5 81.8333,53.5 80.5,55.5C 79.5,54.8333 78.5,54.1667 77.5,53.5C 77.1667,53.8333 76.8333,54.1667 76.5,54.5C 77.3697,56.5259 78.8697,57.8592 81,58.5C 81.6667,60.1667 81.6667,61.8333 81,63.5C 78.169,63.0417 75.8357,61.7084 74,59.5C 73.8333,59.8333 73.6667,60.1667 73.5,60.5C 76.0133,62.4334 78.5133,64.4334 81,66.5C 81.7891,68.7116 81.6225,70.7116 80.5,72.5C 79.8333,72.1667 79.1667,71.8333 78.5,71.5C 75.0381,70.5184 71.3714,70.185 67.5,70.5C 66.4324,69.5655 65.099,69.2322 63.5,69.5C 63.2924,67.0799 63.6258,64.7466 64.5,62.5C 61.5335,62.1283 59.2002,60.795 57.5,58.5C 56.8165,58.8627 56.1499,59.1961 55.5,59.5C 54.9522,57.4677 53.6188,56.4677 51.5,56.5C 51.281,55.325 51.6143,54.325 52.5,53.5C 54.1667,54.1667 55.8333,54.8333 57.5,55.5C 64.0888,51.7331 67.0888,53.7331 66.5,61.5C 68.1694,62.8897 69.8361,63.2231 71.5,62.5C 67.2248,60.1183 66.5582,57.1183 69.5,53.5C 71.0009,54.7515 72.6675,55.7515 74.5,56.5C 75.462,54.1167 74.462,53.1167 71.5,53.5C 71.6505,48.3861 70.6505,47.7194 68.5,51.5C 67.5655,50.4324 67.2322,49.099 67.5,47.5C 65.8212,47.7148 64.8212,47.0481 64.5,45.5C 64.56,44.9569 64.8933,44.6236 65.5,44.5C 67.1694,45.8897 68.8361,46.2231 70.5,45.5C 69.7573,44.8182 69.0906,44.1515 68.5,43.5 Z"/></g>
<g><path style="opacity:1" fill="#978d66" d="M 33.5,52.5 C 35.0269,52.427 36.0269,53.0937 36.5,54.5C 36.0618,54.4346 35.7284,54.6012 35.5,55C 37.1554,56.4443 37.822,58.2776 37.5,60.5C 35.7376,60.6427 34.0709,60.3094 32.5,59.5C 31.6143,60.325 31.281,61.325 31.5,62.5C 36.0323,62.8182 40.3656,62.4849 44.5,61.5C 45.2223,60.4489 46.2223,59.7822 47.5,59.5C 47.8333,60.1667 48.1667,60.8333 48.5,61.5C 47.9094,62.1515 47.2427,62.8182 46.5,63.5C 48.0453,64.4519 49.712,64.7852 51.5,64.5C 51.719,65.675 51.3857,66.675 50.5,67.5C 49.4763,66.1468 48.143,65.4802 46.5,65.5C 46.5,66.8333 46.5,68.1667 46.5,69.5C 45.391,69.5569 44.391,69.8902 43.5,70.5C 42.0695,70.5792 40.7362,70.2458 39.5,69.5C 37.1349,65.2453 36.1349,65.5786 36.5,70.5C 34.5,70.5 32.5,70.5 30.5,70.5C 30.9161,66.4052 29.5827,63.0719 26.5,60.5C 28.542,59.4968 28.8754,58.1634 27.5,56.5C 29.396,55.5344 31.396,55.2011 33.5,55.5C 33.5,54.5 33.5,53.5 33.5,52.5 Z"/></g>
<g><path style="opacity:1" fill="#695c3e" d="M 37.5,60.5 C 39.9029,60.448 42.2362,60.7814 44.5,61.5C 40.3656,62.4849 36.0323,62.8182 31.5,62.5C 31.281,61.325 31.6143,60.325 32.5,59.5C 34.0709,60.3094 35.7376,60.6427 37.5,60.5 Z"/></g>
<g><path style="opacity:0.271" fill="#895c43" d="M 4.5,53.5 C 4.83333,53.5 5.16667,53.5 5.5,53.5C 3.32644,59.8868 1.32644,66.2201 -0.5,72.5C -0.5,69.8333 -0.5,67.1667 -0.5,64.5C 1.07394,62.8984 1.74061,60.8984 1.5,58.5C 3.25027,57.3406 4.25027,55.674 4.5,53.5 Z"/></g>
<g><path style="opacity:1" fill="#8e8d8d" d="M 20.5,46.5 C 20.5,49.5 20.5,52.5 20.5,55.5C 20.3505,56.552 20.5172,57.552 21,58.5C 22.6117,55.9211 24.1117,55.9211 25.5,58.5C 24.0095,59.2436 22.5095,59.9103 21,60.5C 20.8333,61.1667 20.6667,61.8333 20.5,62.5C 23.1695,66.1724 22.5028,69.1724 18.5,71.5C 18.5,70.1667 18.5,68.8333 18.5,67.5C 17.1667,67.5 15.8333,67.5 14.5,67.5C 15.8775,66.7656 17.3775,66.0989 19,65.5C 19.1721,58.9867 19.6721,52.6534 20.5,46.5 Z"/></g>
<g><path style="opacity:1" fill="#b7ae8f" d="M 48.5,61.5 C 50.9032,61.393 52.7365,62.393 54,64.5C 56.1529,62.5561 58.6529,62.0561 61.5,63C 63.4749,66.7395 62.4749,68.9061 58.5,69.5C 56.4205,69.3142 54.9205,68.3142 54,66.5C 53.6258,67.4162 53.1258,68.2496 52.5,69C 50.5273,69.4955 48.5273,69.6621 46.5,69.5C 46.5,68.1667 46.5,66.8333 46.5,65.5C 48.143,65.4802 49.4763,66.1468 50.5,67.5C 51.3857,66.675 51.719,65.675 51.5,64.5C 49.712,64.7852 48.0453,64.4519 46.5,63.5C 47.2427,62.8182 47.9094,62.1515 48.5,61.5 Z"/></g>
<g><path style="opacity:1" fill="#7d6f4b" d="M 67.5,70.5 C 60.1683,70.3883 53.1683,70.055 46.5,69.5C 48.5273,69.6621 50.5273,69.4955 52.5,69C 53.1258,68.2496 53.6258,67.4162 54,66.5C 54.9205,68.3142 56.4205,69.3142 58.5,69.5C 62.4749,68.9061 63.4749,66.7395 61.5,63C 58.6529,62.0561 56.1529,62.5561 54,64.5C 52.7365,62.393 50.9032,61.393 48.5,61.5C 48.1667,60.8333 47.8333,60.1667 47.5,59.5C 50.3283,60.4967 52.995,60.4967 55.5,59.5C 56.1499,59.1961 56.8165,58.8627 57.5,58.5C 59.2002,60.795 61.5335,62.1283 64.5,62.5C 63.6258,64.7466 63.2924,67.0799 63.5,69.5C 65.099,69.2322 66.4324,69.5655 67.5,70.5 Z"/></g>
<g><path style="opacity:1" fill="#3d3731" d="M 14.5,67.5 C 15.8333,67.5 17.1667,67.5 18.5,67.5C 18.5,68.8333 18.5,70.1667 18.5,71.5C 18.2148,73.288 18.5481,74.9547 19.5,76.5C 21.7127,74.2261 24.3793,72.7261 27.5,72C 33.0158,71.8267 38.3491,71.3267 43.5,70.5C 44.391,69.8902 45.391,69.5569 46.5,69.5C 53.1683,70.055 60.1683,70.3883 67.5,70.5C 71.3714,70.185 75.0381,70.5184 78.5,71.5C 79.4492,74.2075 79.4492,76.8742 78.5,79.5C 77.7717,77.8068 76.7717,76.3068 75.5,75C 72.0976,73.7901 68.5976,72.9567 65,72.5C 62.9674,72.5056 61.134,72.8389 59.5,73.5C 49.8276,73.3335 40.1609,73.5002 30.5,74C 27.3634,74.6011 24.3634,75.6011 21.5,77C 19.5028,85.1177 19.1694,93.2844 20.5,101.5C 16.8333,101.5 13.1667,101.5 9.5,101.5C 8.59748,98.6085 8.26414,95.6085 8.5,92.5C 9.37644,92.6309 10.0431,92.2975 10.5,91.5C 9.67443,90.549 9.50776,89.549 10,88.5C 10.7175,89.4506 11.5509,89.6172 12.5,89C 9.79283,87.1363 8.9595,84.6363 10,81.5C 10.3333,82.8333 10.6667,84.1667 11,85.5C 11.8928,86.7112 12.7261,86.7112 13.5,85.5C 10.6118,82.3958 10.9451,79.7291 14.5,77.5C 13.1667,77.1667 11.8333,76.8333 10.5,76.5C 12.1667,75.5 13.5,74.1667 14.5,72.5C 13.1667,71.8333 11.8333,71.1667 10.5,70.5C 12.1836,69.8503 13.5169,68.8503 14.5,67.5 Z"/></g>
<g><path style="opacity:1" fill="#998874" d="M 71.5,39.5 C 72.1667,39.5 72.8333,39.5 73.5,39.5C 77.0706,41.0671 80.0706,43.4005 82.5,46.5C 82.5,49.8333 82.5,53.1667 82.5,56.5C 82.5,58.1667 82.5,59.8333 82.5,61.5C 85.8333,61.5 89.1667,61.5 92.5,61.5C 90.6948,63.1969 88.3615,64.0302 85.5,64C 87.4727,64.4955 89.4727,64.6621 91.5,64.5C 92.441,69.0704 92.7744,73.737 92.5,78.5C 91.5041,78.5858 90.6708,78.2524 90,77.5C 89.418,72.9606 87.2513,71.794 83.5,74C 84.7375,74.2321 85.7375,74.7321 86.5,75.5C 85.6236,75.3691 84.9569,75.7025 84.5,76.5C 85.5,77.8333 86.5,79.1667 87.5,80.5C 87.1667,80.8333 86.8333,81.1667 86.5,81.5C 85.8333,80.8333 85.1667,80.1667 84.5,79.5C 83.4937,79.9377 83.4937,80.6043 84.5,81.5C 81.7386,82.3498 81.0719,81.3498 82.5,78.5C 82.0431,77.7025 81.3764,77.3691 80.5,77.5C 80.5,75.8333 80.5,74.1667 80.5,72.5C 81.6225,70.7116 81.7891,68.7116 81,66.5C 78.5133,64.4334 76.0133,62.4334 73.5,60.5C 73.6667,60.1667 73.8333,59.8333 74,59.5C 75.8357,61.7084 78.169,63.0417 81,63.5C 81.6667,61.8333 81.6667,60.1667 81,58.5C 78.8697,57.8592 77.3697,56.5259 76.5,54.5C 76.8333,54.1667 77.1667,53.8333 77.5,53.5C 78.5,54.1667 79.5,54.8333 80.5,55.5C 81.8333,53.5 81.8333,51.5 80.5,49.5C 76.4191,48.191 72.4191,46.191 68.5,43.5C 65.3875,43.151 62.0542,43.151 58.5,43.5C 58.5,42.5 58.5,41.5 58.5,40.5C 63.1614,40.3111 67.6614,40.9777 72,42.5C 72.4696,41.4232 72.3029,40.4232 71.5,39.5 Z"/></g>
<g><path style="opacity:1" fill="#c8e0d7" d="M 3.5,67.5 C 3.36912,68.3764 3.70245,69.0431 4.5,69.5C 6.07092,68.6906 7.73759,68.3573 9.5,68.5C 9.44285,74.8513 9.10951,81.1846 8.5,87.5C 7.73209,88.2625 7.23209,89.2625 7,90.5C 6.78107,89.062 6.28107,87.7287 5.5,86.5C 4.91395,86.7093 4.41395,87.0426 4,87.5C 3.14825,86.4293 2.31491,85.4293 1.5,84.5C 1.33418,79.8215 1.50085,75.1548 2,70.5C 2.23209,69.2625 2.73209,68.2625 3.5,67.5 Z"/></g>
<g><path style="opacity:1" fill="#252d26" d="M 91.5,64.5 C 92.5,64.5 93.5,64.5 94.5,64.5C 94.1201,66.698 94.7868,68.3646 96.5,69.5C 96.5,69.8333 96.5,70.1667 96.5,70.5C 97.3347,79.0343 96.0013,87.0343 92.5,94.5C 92.5,89.1667 92.5,83.8333 92.5,78.5C 92.7744,73.737 92.441,69.0704 91.5,64.5 Z"/></g>
<g><path style="opacity:1" fill="#70675e" d="M 14.5,67.5 C 13.5169,68.8503 12.1836,69.8503 10.5,70.5C 11.8333,71.1667 13.1667,71.8333 14.5,72.5C 13.5,74.1667 12.1667,75.5 10.5,76.5C 11.8333,76.8333 13.1667,77.1667 14.5,77.5C 10.9451,79.7291 10.6118,82.3958 13.5,85.5C 12.7261,86.7112 11.8928,86.7112 11,85.5C 10.6667,84.1667 10.3333,82.8333 10,81.5C 8.9595,84.6363 9.79283,87.1363 12.5,89C 11.5509,89.6172 10.7175,89.4506 10,88.5C 9.50776,89.549 9.67443,90.549 10.5,91.5C 10.0431,92.2975 9.37644,92.6309 8.5,92.5C 8.5,90.8333 8.5,89.1667 8.5,87.5C 9.10951,81.1846 9.44285,74.8513 9.5,68.5C 10.9187,67.5489 12.5853,67.2155 14.5,67.5 Z"/></g>
<g><path style="opacity:1" fill="#7f6364" d="M 41.5,78.5 C 43.6895,82.3879 44.0228,86.3879 42.5,90.5C 42.7852,88.712 42.4519,87.0453 41.5,85.5C 39.8273,87.0863 37.8273,87.7529 35.5,87.5C 33.2548,86.3774 30.9215,85.2107 28.5,84C 29.6906,83.3021 30.6906,82.4687 31.5,81.5C 33.2411,86.3057 35.5744,86.639 38.5,82.5C 41.999,82.741 42.3323,81.9076 39.5,80C 36.9556,78.908 34.2889,78.2414 31.5,78C 34.9496,75.9908 38.2829,76.1575 41.5,78.5 Z"/></g>
<g><path style="opacity:1" fill="#c5b5a0" d="M 86.5,75.5 C 89.4422,77.7793 91.1089,80.7793 91.5,84.5C 84.3455,87.3196 80.6788,84.9863 80.5,77.5C 81.3764,77.3691 82.0431,77.7025 82.5,78.5C 81.0719,81.3498 81.7386,82.3498 84.5,81.5C 83.4937,80.6043 83.4937,79.9377 84.5,79.5C 85.1667,80.1667 85.8333,80.8333 86.5,81.5C 86.8333,81.1667 87.1667,80.8333 87.5,80.5C 86.5,79.1667 85.5,77.8333 84.5,76.5C 84.9569,75.7025 85.6236,75.3691 86.5,75.5 Z"/></g>
<g><path style="opacity:1" fill="#916d61" d="M 78.5,71.5 C 79.1667,71.8333 79.8333,72.1667 80.5,72.5C 80.5,74.1667 80.5,75.8333 80.5,77.5C 80.6788,84.9863 84.3455,87.3196 91.5,84.5C 91.5,85.5 91.5,86.5 91.5,87.5C 88.5722,86.8025 85.5722,86.6358 82.5,87C 81.3147,85.647 79.9814,84.4803 78.5,83.5C 77.2671,87.6329 78.9338,89.9663 83.5,90.5C 84.1667,90.5 84.5,90.8333 84.5,91.5C 81.7128,94.9683 82.7128,97.135 87.5,98C 84.102,98.1597 81.102,96.993 78.5,94.5C 79.5,93.8333 80.5,93.1667 81.5,92.5C 77.7488,91.1376 76.2488,92.471 77,96.5C 78.0736,97.6184 79.2402,98.6184 80.5,99.5C 79.8728,100.417 79.5394,101.417 79.5,102.5C 77.6119,101.725 75.6119,101.725 73.5,102.5C 73.5,101.167 73.5,99.8333 73.5,98.5C 73.3508,94.8767 72.1842,94.5434 70,97.5C 69.2352,97.4301 68.7352,97.0967 68.5,96.5C 70.3002,95.5266 72.1335,94.5266 74,93.5C 74.6667,90.8333 74.6667,88.1667 74,85.5C 72.8545,84.3157 71.6879,84.3157 70.5,85.5C 68.3873,80.2636 64.3873,77.7636 58.5,78C 60.6137,76.482 62.947,76.1487 65.5,77C 67.9768,78.6427 70.3102,80.476 72.5,82.5C 73.5827,81.635 73.7494,80.635 73,79.5C 68.9428,76.2155 64.4428,74.2155 59.5,73.5C 61.134,72.8389 62.9674,72.5056 65,72.5C 68.5976,72.9567 72.0976,73.7901 75.5,75C 76.7717,76.3068 77.7717,77.8068 78.5,79.5C 79.4492,76.8742 79.4492,74.2075 78.5,71.5 Z"/></g>
<g><path style="opacity:1" fill="#564443" d="M 59.5,73.5 C 64.4428,74.2155 68.9428,76.2155 73,79.5C 73.7494,80.635 73.5827,81.635 72.5,82.5C 70.3102,80.476 67.9768,78.6427 65.5,77C 62.947,76.1487 60.6137,76.482 58.5,78C 64.3873,77.7636 68.3873,80.2636 70.5,85.5C 68.7105,86.8772 66.7105,87.8772 64.5,88.5C 61.9407,88.8016 59.6074,88.4682 57.5,87.5C 58.8734,87.6567 60.2068,87.49 61.5,87C 59.2262,86.5298 57.2262,85.5298 55.5,84C 56.7468,82.5421 56.7468,81.0421 55.5,79.5C 56.1667,78.8333 56.8333,78.1667 57.5,77.5C 57.1667,77.1667 56.8333,76.8333 56.5,76.5C 53.7208,77.3977 51.3875,78.731 49.5,80.5C 48.0221,81.4475 47.0221,82.7809 46.5,84.5C 47.2104,81.1148 46.0437,78.7814 43,77.5C 42.2352,77.5699 41.7352,77.9033 41.5,78.5C 38.2829,76.1575 34.9496,75.9908 31.5,78C 34.2889,78.2414 36.9556,78.908 39.5,80C 42.3323,81.9076 41.999,82.741 38.5,82.5C 37.4891,79.9818 36.1557,79.9818 34.5,82.5C 33.5832,81.8728 32.5832,81.5394 31.5,81.5C 30.6906,82.4687 29.6906,83.3021 28.5,84C 30.9215,85.2107 33.2548,86.3774 35.5,87.5C 31.4037,88.2847 28.0704,87.118 25.5,84C 24.2068,83.51 22.8734,83.3433 21.5,83.5C 21.2053,85.7354 21.5386,87.7354 22.5,89.5C 22.5,89.8333 22.5,90.1667 22.5,90.5C 22.5,95.1667 22.5,99.8333 22.5,104.5C 22.1667,104.5 21.8333,104.5 21.5,104.5C 21.4431,103.391 21.1098,102.391 20.5,101.5C 19.1694,93.2844 19.5028,85.1177 21.5,77C 24.3634,75.6011 27.3634,74.6011 30.5,74C 40.1609,73.5002 49.8276,73.3335 59.5,73.5 Z"/></g>
<g><path style="opacity:1" fill="#b1a19d" d="M 57.5,81.5 C 60.089,82.1273 62.589,82.1273 65,81.5C 66.3188,82.3185 67.4855,83.3185 68.5,84.5C 65.8938,85.6517 63.2272,85.8184 60.5,85C 58.9371,84.2411 57.9371,83.0744 57.5,81.5 Z"/></g>
<g><path style="opacity:1" fill="#bcaea7" d="M 38.5,82.5 C 35.5744,86.639 33.2411,86.3057 31.5,81.5C 32.5832,81.5394 33.5832,81.8728 34.5,82.5C 36.1557,79.9818 37.4891,79.9818 38.5,82.5 Z"/></g>
<g><path style="opacity:1" fill="#3a2d2e" d="M 57.5,87.5 C 57.1667,87.5 56.8333,87.5 56.5,87.5C 55.2196,86.0687 53.5529,85.4021 51.5,85.5C 50.0687,84.2196 49.4021,82.5529 49.5,80.5C 51.3875,78.731 53.7208,77.3977 56.5,76.5C 56.8333,76.8333 57.1667,77.1667 57.5,77.5C 56.8333,78.1667 56.1667,78.8333 55.5,79.5C 56.7468,81.0421 56.7468,82.5421 55.5,84C 57.2262,85.5298 59.2262,86.5298 61.5,87C 60.2068,87.49 58.8734,87.6567 57.5,87.5 Z"/></g>
<g><path style="opacity:1" fill="#a1888c" d="M 35.5,87.5 C 37.8273,87.7529 39.8273,87.0863 41.5,85.5C 42.4519,87.0453 42.7852,88.712 42.5,90.5C 41.596,91.209 41.2627,92.209 41.5,93.5C 37.8145,91.9888 34.1479,90.4888 30.5,89C 28.2884,88.2109 26.2884,88.3775 24.5,89.5C 23.8333,89.5 23.1667,89.5 22.5,89.5C 21.5386,87.7354 21.2053,85.7354 21.5,83.5C 22.8734,83.3433 24.2068,83.51 25.5,84C 28.0704,87.118 31.4037,88.2847 35.5,87.5 Z"/></g>
<g><path style="opacity:1" fill="#675543" d="M 92.5,78.5 C 92.5,83.8333 92.5,89.1667 92.5,94.5C 92.7373,95.791 92.404,96.791 91.5,97.5C 91.5,96.1667 91.5,94.8333 91.5,93.5C 88.9214,93.6061 86.588,92.9395 84.5,91.5C 84.5,90.8333 84.1667,90.5 83.5,90.5C 83.7352,89.9033 84.2352,89.5699 85,89.5C 87.0466,90.6094 89.2133,91.2761 91.5,91.5C 91.5,90.1667 91.5,88.8333 91.5,87.5C 91.5,86.5 91.5,85.5 91.5,84.5C 91.1089,80.7793 89.4422,77.7793 86.5,75.5C 85.7375,74.7321 84.7375,74.2321 83.5,74C 87.2513,71.794 89.418,72.9606 90,77.5C 90.6708,78.2524 91.5041,78.5858 92.5,78.5 Z"/></g>
<g><path style="opacity:0.514" fill="#775a41" d="M 92.5,57.5 C 93.4959,57.4142 94.3292,57.7476 95,58.5C 95.374,60.8671 96.5407,62.7005 98.5,64C 100.487,72.7251 100.987,81.5584 100,90.5C 96.2431,109.166 85.0764,120.999 66.5,126C 65.7476,126.671 65.4142,127.504 65.5,128.5C 62.3416,130.593 59.0083,130.926 55.5,129.5C 54.8902,128.609 54.5569,127.609 54.5,126.5C 67.9536,126.039 78.6203,120.373 86.5,109.5C 96.1806,98.0877 99.5139,85.0877 96.5,70.5C 96.5,70.1667 96.5,69.8333 96.5,69.5C 95.7676,65.3027 94.4342,61.3027 92.5,57.5 Z"/></g>
<g><path style="opacity:1" fill="#a68484" d="M 49.5,80.5 C 49.4021,82.5529 50.0687,84.2196 51.5,85.5C 53.123,88.2153 53.7896,91.2153 53.5,94.5C 50.9525,91.7413 49.4525,88.4079 49,84.5C 47.8924,88.0863 47.3924,91.753 47.5,95.5C 46.5184,92.0381 46.185,88.3714 46.5,84.5C 47.0221,82.7809 48.0221,81.4475 49.5,80.5 Z"/></g>
<g><path style="opacity:1" fill="#b69c80" d="M 91.5,87.5 C 91.5,88.8333 91.5,90.1667 91.5,91.5C 89.2133,91.2761 87.0466,90.6094 85,89.5C 84.2352,89.5699 83.7352,89.9033 83.5,90.5C 78.9338,89.9663 77.2671,87.6329 78.5,83.5C 79.9814,84.4803 81.3147,85.647 82.5,87C 85.5722,86.6358 88.5722,86.8025 91.5,87.5 Z"/></g>
<g><path style="opacity:1" fill="#a9b7b6" d="M 1.5,84.5 C 2.31491,85.4293 3.14825,86.4293 4,87.5C 4.41395,87.0426 4.91395,86.7093 5.5,86.5C 6.28107,87.7287 6.78107,89.062 7,90.5C 7.23209,89.2625 7.73209,88.2625 8.5,87.5C 8.5,89.1667 8.5,90.8333 8.5,92.5C 8.26414,95.6085 8.59748,98.6085 9.5,101.5C 8.83333,101.5 8.5,101.833 8.5,102.5C 6.30809,98.5876 4.30809,94.5876 2.5,90.5C 1.85048,88.5648 1.51715,86.5648 1.5,84.5 Z"/></g>
<g><path style="opacity:1" fill="#8c6661" d="M 24.5,89.5 C 26.2884,88.3775 28.2884,88.2109 30.5,89C 34.1479,90.4888 37.8145,91.9888 41.5,93.5C 40.5,95.1667 39.1667,96.5 37.5,97.5C 35.3589,94.5282 32.6922,92.0282 29.5,90C 27.8659,89.5065 26.1992,89.3398 24.5,89.5 Z"/></g>
<g><path style="opacity:1" fill="#937072" d="M 56.5,87.5 C 56.8333,87.5 57.1667,87.5 57.5,87.5C 59.6074,88.4682 61.9407,88.8016 64.5,88.5C 65.1047,90.0257 66.2714,91.0257 68,91.5C 68.4935,93.1341 68.6602,94.8008 68.5,96.5C 66.1089,95.5924 63.7756,95.4257 61.5,96C 59.5479,93.9261 57.7146,91.7594 56,89.5C 55.3083,88.5632 55.475,87.8966 56.5,87.5 Z"/></g>
<g><path style="opacity:1" fill="#dcc2c2" d="M 53.5,94.5 C 53.9528,95.4584 54.6195,96.2917 55.5,97C 54.9056,97.4643 54.2389,97.631 53.5,97.5C 51.3736,96.9518 49.3736,96.2852 47.5,95.5C 47.3924,91.753 47.8924,88.0863 49,84.5C 49.4525,88.4079 50.9525,91.7413 53.5,94.5 Z"/></g>
<g><path style="opacity:1" fill="#b9999c" d="M 68.5,96.5 C 68.6602,94.8008 68.4935,93.1341 68,91.5C 66.2714,91.0257 65.1047,90.0257 64.5,88.5C 66.7105,87.8772 68.7105,86.8772 70.5,85.5C 71.6879,84.3157 72.8545,84.3157 74,85.5C 74.6667,88.1667 74.6667,90.8333 74,93.5C 72.1335,94.5266 70.3002,95.5266 68.5,96.5 Z"/></g>
<g><path style="opacity:1" fill="#42312f" d="M 46.5,84.5 C 46.185,88.3714 46.5184,92.0381 47.5,95.5C 49.3736,96.2852 51.3736,96.9518 53.5,97.5C 54.5511,98.2223 55.2178,99.2223 55.5,100.5C 53.8212,100.285 52.8212,100.952 52.5,102.5C 49.8333,102.5 47.1667,102.5 44.5,102.5C 42.3945,101.181 40.3945,101.514 38.5,103.5C 37.5344,101.604 37.2011,99.604 37.5,97.5C 39.1667,96.5 40.5,95.1667 41.5,93.5C 41.2627,92.209 41.596,91.209 42.5,90.5C 44.0228,86.3879 43.6895,82.3879 41.5,78.5C 41.7352,77.9033 42.2352,77.5699 43,77.5C 46.0437,78.7814 47.2104,81.1148 46.5,84.5 Z"/></g>
<g><path style="opacity:1" fill="#ac9171" d="M 84.5,91.5 C 86.588,92.9395 88.9214,93.6061 91.5,93.5C 91.5,94.8333 91.5,96.1667 91.5,97.5C 91.2969,99.0443 90.6302,100.378 89.5,101.5C 86.2317,102.487 82.8984,102.82 79.5,102.5C 79.5394,101.417 79.8728,100.417 80.5,99.5C 79.2402,98.6184 78.0736,97.6184 77,96.5C 76.2488,92.471 77.7488,91.1376 81.5,92.5C 80.5,93.1667 79.5,93.8333 78.5,94.5C 81.102,96.993 84.102,98.1597 87.5,98C 82.7128,97.135 81.7128,94.9683 84.5,91.5 Z"/></g>
<g><path style="opacity:0.009" fill="#916e4f" d="M -0.5,85.5 C 0.434475,86.5676 0.767809,87.901 0.5,89.5C 6.25835,109.757 19.425,122.423 40,127.5C 41.0299,127.836 41.5299,128.503 41.5,129.5C 38.3151,131.029 35.6485,130.363 33.5,127.5C 33.1667,128.667 32.8333,129.833 32.5,131C 33.6466,134.429 34.48,137.929 35,141.5C 36.0113,142.337 37.1779,142.67 38.5,142.5C 38.238,143.978 38.5713,145.311 39.5,146.5C 41.5879,147.179 43.5879,147.512 45.5,147.5C 45.0133,148.446 44.6799,149.446 44.5,150.5C 45.5186,152.511 46.5186,154.511 47.5,156.5C 47.8039,157.15 48.1373,157.817 48.5,158.5C 32.1803,159.499 15.8469,159.833 -0.5,159.5C -0.5,138.167 -0.5,116.833 -0.5,95.5C 0.833333,95.1667 0.833333,94.8333 -0.5,94.5C -0.5,91.5 -0.5,88.5 -0.5,85.5 Z M 32.5,145.5 C 33.1174,145.611 33.6174,145.944 34,146.5C 34.6667,148.833 34.6667,151.167 34,153.5C 33.7674,151.22 32.934,149.22 31.5,147.5C 31.8627,146.817 32.1961,146.15 32.5,145.5 Z"/></g>
<g><path style="opacity:1" fill="#b08986" d="M 55.5,100.5 C 59.5605,104.194 60.3938,108.527 58,113.5C 57.8171,110.635 57.3171,107.969 56.5,105.5C 55.7377,103.738 54.4044,102.738 52.5,102.5C 52.8212,100.952 53.8212,100.285 55.5,100.5 Z"/></g>
<g><path style="opacity:1" fill="#6e4d45" d="M 22.5,90.5 C 22.5,90.1667 22.5,89.8333 22.5,89.5C 23.1667,89.5 23.8333,89.5 24.5,89.5C 26.1992,89.3398 27.8659,89.5065 29.5,90C 32.6922,92.0282 35.3589,94.5282 37.5,97.5C 37.2011,99.604 37.5344,101.604 38.5,103.5C 40.3945,101.514 42.3945,101.181 44.5,102.5C 38.1957,106.476 36.8624,111.81 40.5,118.5C 39.5084,118.328 38.8417,118.662 38.5,119.5C 36.9666,117.366 36.2999,114.866 36.5,112C 36.5649,109.775 36.8982,107.608 37.5,105.5C 35.2573,104.526 32.924,104.192 30.5,104.5C 29.9988,99.962 29.4988,95.6286 29,91.5C 26.9592,90.5769 24.7925,90.2436 22.5,90.5 Z"/></g>
<g><path style="opacity:1" fill="#775350" d="M 51.5,85.5 C 53.5529,85.4021 55.2196,86.0687 56.5,87.5C 55.475,87.8966 55.3083,88.5632 56,89.5C 57.7146,91.7594 59.5479,93.9261 61.5,96C 63.7756,95.4257 66.1089,95.5924 68.5,96.5C 68.7352,97.0967 69.2352,97.4301 70,97.5C 72.1842,94.5434 73.3508,94.8767 73.5,98.5C 72.2876,99.2299 71.2876,100.23 70.5,101.5C 69.2798,100.289 68.1131,100.289 67,101.5C 67.1093,106.273 66.276,110.939 64.5,115.5C 64.5,116.167 64.1667,116.5 63.5,116.5C 63.1034,115.475 62.4368,115.308 61.5,116C 59.6116,118.19 57.4449,120.023 55,121.5C 55.9323,119.418 56.4323,117.085 56.5,114.5C 56.5,111.5 56.5,108.5 56.5,105.5C 57.3171,107.969 57.8171,110.635 58,113.5C 60.3938,108.527 59.5605,104.194 55.5,100.5C 55.2178,99.2223 54.5511,98.2223 53.5,97.5C 54.2389,97.631 54.9056,97.4643 55.5,97C 54.6195,96.2917 53.9528,95.4584 53.5,94.5C 53.7896,91.2153 53.123,88.2153 51.5,85.5 Z"/></g>
<g><path style="opacity:1" fill="#643e34" d="M 96.5,70.5 C 99.5139,85.0877 96.1806,98.0877 86.5,109.5C 86.5,108.833 86.5,108.167 86.5,107.5C 86.8039,106.85 87.1373,106.183 87.5,105.5C 77.2947,102.446 70.2947,105.78 66.5,115.5C 65.8333,115.5 65.1667,115.5 64.5,115.5C 66.276,110.939 67.1093,106.273 67,101.5C 68.1131,100.289 69.2798,100.289 70.5,101.5C 71.2876,100.23 72.2876,99.2299 73.5,98.5C 73.5,99.8333 73.5,101.167 73.5,102.5C 75.6119,101.725 77.6119,101.725 79.5,102.5C 82.8984,102.82 86.2317,102.487 89.5,101.5C 90.6302,100.378 91.2969,99.0443 91.5,97.5C 92.404,96.791 92.7373,95.791 92.5,94.5C 96.0013,87.0343 97.3347,79.0343 96.5,70.5 Z"/></g>
<g><path style="opacity:1" fill="#46342e" d="M 22.5,90.5 C 24.7925,90.2436 26.9592,90.5769 29,91.5C 29.4988,95.6286 29.9988,99.962 30.5,104.5C 32.924,104.192 35.2573,104.526 37.5,105.5C 36.8982,107.608 36.5649,109.775 36.5,112C 36.2999,114.866 36.9666,117.366 38.5,119.5C 39.5794,121.543 41.246,122.876 43.5,123.5C 45.5313,123.972 47.1979,124.972 48.5,126.5C 41.9793,125.829 35.6459,124.329 29.5,122C 28.8767,119.393 28.21,116.893 27.5,114.5C 24.8068,111.781 23.1402,108.447 22.5,104.5C 22.5,99.8333 22.5,95.1667 22.5,90.5 Z"/></g>
<g><path style="opacity:0.678" fill="#743c32" d="M 0.5,89.5 C 1.26791,90.2625 1.76791,91.2625 2,92.5C 2.46434,91.9056 2.63101,91.2389 2.5,90.5C 4.30809,94.5876 6.30809,98.5876 8.5,102.5C 9.34026,104.853 10.6736,106.853 12.5,108.5C 12.8333,109.5 13.5,110.167 14.5,110.5C 17.577,114.908 21.577,118.241 26.5,120.5C 27.4656,118.604 27.7989,116.604 27.5,114.5C 28.21,116.893 28.8767,119.393 29.5,122C 35.6459,124.329 41.9793,125.829 48.5,126.5C 50.5,126.5 52.5,126.5 54.5,126.5C 54.5569,127.609 54.8902,128.609 55.5,129.5C 54.1266,129.343 52.7932,129.51 51.5,130C 52.7375,130.232 53.7375,130.732 54.5,131.5C 53.8333,131.5 53.5,131.833 53.5,132.5C 50.483,131.575 47.6497,130.242 45,128.5C 43.7441,128.648 42.5774,128.982 41.5,129.5C 41.5299,128.503 41.0299,127.836 40,127.5C 19.425,122.423 6.25835,109.757 0.5,89.5 Z"/></g>
<g><path style="opacity:1" fill="#a7c3aa" d="M 9.5,101.5 C 13.1667,101.5 16.8333,101.5 20.5,101.5C 21.1098,102.391 21.4431,103.391 21.5,104.5C 20.5768,103.697 19.5768,103.53 18.5,104C 19.3366,105.011 19.67,106.178 19.5,107.5C 17.0504,107.298 14.717,107.631 12.5,108.5C 10.6736,106.853 9.34026,104.853 8.5,102.5C 8.5,101.833 8.83333,101.5 9.5,101.5 Z"/></g>
<g><path style="opacity:1" fill="#181c1f" d="M 44.5,102.5 C 47.1667,102.5 49.8333,102.5 52.5,102.5C 54.4044,102.738 55.7377,103.738 56.5,105.5C 56.5,108.5 56.5,111.5 56.5,114.5C 55.5,117.5 53.5,119.5 50.5,120.5C 47.4816,120.665 44.4816,120.498 41.5,120C 40.944,119.617 40.6107,119.117 40.5,118.5C 36.8624,111.81 38.1957,106.476 44.5,102.5 Z"/></g>
<g><path style="opacity:1" fill="#f1f4e8" d="M 21.5,104.5 C 22.2647,109.906 19.9313,111.906 14.5,110.5C 13.5,110.167 12.8333,109.5 12.5,108.5C 14.717,107.631 17.0504,107.298 19.5,107.5C 19.67,106.178 19.3366,105.011 18.5,104C 19.5768,103.53 20.5768,103.697 21.5,104.5 Z"/></g>
<g><path style="opacity:1" fill="#dfd7c9" d="M 21.5,104.5 C 21.8333,104.5 22.1667,104.5 22.5,104.5C 23.1402,108.447 24.8068,111.781 27.5,114.5C 27.7989,116.604 27.4656,118.604 26.5,120.5C 21.577,118.241 17.577,114.908 14.5,110.5C 19.9313,111.906 22.2647,109.906 21.5,104.5 Z"/></g>
<g><path style="opacity:0.004" fill="#926f50" d="M 104.5,113.5 C 104.5,128.833 104.5,144.167 104.5,159.5C 92.6547,159.828 80.988,159.495 69.5,158.5C 70.4511,157.081 70.7845,155.415 70.5,153.5C 71.8333,153.5 73.1667,153.5 74.5,153.5C 74.2837,151.319 75.117,149.653 77,148.5C 76.5335,142.36 78.3668,137.194 82.5,133C 84.1667,132.667 85.8333,132.333 87.5,132C 90.378,127.144 94.378,123.644 99.5,121.5C 100.31,119.202 101.144,116.868 102,114.5C 102.671,113.748 103.504,113.414 104.5,113.5 Z"/></g>
<g><path style="opacity:1" fill="#c5bcad" d="M 86.5,107.5 C 84.5,108.976 82.8334,110.809 81.5,113C 79.4494,115.02 77.1161,116.52 74.5,117.5C 74.5,116.5 74.5,115.5 74.5,114.5C 72.4247,114.302 70.4247,114.135 68.5,114C 67.8906,115.948 67.224,117.782 66.5,119.5C 66.5,118.167 66.5,116.833 66.5,115.5C 70.2947,105.78 77.2947,102.446 87.5,105.5C 87.1373,106.183 86.8039,106.85 86.5,107.5 Z"/></g>
<g><path style="opacity:1" fill="#e3dacc" d="M 74.5,117.5 C 72.5136,119.795 70.0136,121.461 67,122.5C 66.5172,121.552 66.3505,120.552 66.5,119.5C 67.224,117.782 67.8906,115.948 68.5,114C 70.4247,114.135 72.4247,114.302 74.5,114.5C 74.5,115.5 74.5,116.5 74.5,117.5 Z"/></g>
<g><path style="opacity:0.965" fill="#79483e" d="M 86.5,107.5 C 86.5,108.167 86.5,108.833 86.5,109.5C 78.6203,120.373 67.9536,126.039 54.5,126.5C 57.4715,123.192 60.4715,119.859 63.5,116.5C 64.1667,116.5 64.5,116.167 64.5,115.5C 65.1667,115.5 65.8333,115.5 66.5,115.5C 66.5,116.833 66.5,118.167 66.5,119.5C 66.3505,120.552 66.5172,121.552 67,122.5C 70.0136,121.461 72.5136,119.795 74.5,117.5C 77.1161,116.52 79.4494,115.02 81.5,113C 82.8334,110.809 84.5,108.976 86.5,107.5 Z"/></g>
<g><path style="opacity:1" fill="#ad877b" d="M 40.5,118.5 C 40.6107,119.117 40.944,119.617 41.5,120C 44.4816,120.498 47.4816,120.665 50.5,120.5C 51.675,120.281 52.675,120.614 53.5,121.5C 50.3978,123.183 47.0644,123.849 43.5,123.5C 41.246,122.876 39.5794,121.543 38.5,119.5C 38.8417,118.662 39.5084,118.328 40.5,118.5 Z"/></g>
<g><path style="opacity:1" fill="#5b3b32" d="M 56.5,114.5 C 56.4323,117.085 55.9323,119.418 55,121.5C 57.4449,120.023 59.6116,118.19 61.5,116C 62.4368,115.308 63.1034,115.475 63.5,116.5C 60.4715,119.859 57.4715,123.192 54.5,126.5C 52.5,126.5 50.5,126.5 48.5,126.5C 47.1979,124.972 45.5313,123.972 43.5,123.5C 47.0644,123.849 50.3978,123.183 53.5,121.5C 52.675,120.614 51.675,120.281 50.5,120.5C 53.5,119.5 55.5,117.5 56.5,114.5 Z"/></g>
<g><path style="opacity:1" fill="#641712" d="M 41.5,129.5 C 42.5774,128.982 43.7441,128.648 45,128.5C 47.6497,130.242 50.483,131.575 53.5,132.5C 54.2883,136.633 52.7883,139.966 49,142.5C 46.4054,140.57 44.572,138.07 43.5,135C 44.1007,133.395 45.1007,132.062 46.5,131C 45.1011,130.405 43.7678,130.572 42.5,131.5C 41.3526,133.765 41.1859,136.098 42,138.5C 43.9773,141.312 46.144,143.978 48.5,146.5C 51.3243,143.542 54.1576,140.542 57,137.5C 57.9105,134.69 57.0771,132.69 54.5,131.5C 53.7375,130.732 52.7375,130.232 51.5,130C 52.7932,129.51 54.1266,129.343 55.5,129.5C 59.0083,130.926 62.3416,130.593 65.5,128.5C 66.3382,128.842 66.6716,129.508 66.5,130.5C 66.7709,132.38 66.1042,133.713 64.5,134.5C 63.5318,136.607 63.1984,138.941 63.5,141.5C 61.0509,140.943 58.7175,140.943 56.5,141.5C 58.1045,143.179 58.7711,145.179 58.5,147.5C 56.7376,147.643 55.0709,147.309 53.5,146.5C 52.9478,148.003 52.9478,149.669 53.5,151.5C 51.7726,153.567 49.7726,155.233 47.5,156.5C 46.5186,154.511 45.5186,152.511 44.5,150.5C 44.6799,149.446 45.0133,148.446 45.5,147.5C 43.5879,147.512 41.5879,147.179 39.5,146.5C 38.5713,145.311 38.238,143.978 38.5,142.5C 37.1779,142.67 36.0113,142.337 35,141.5C 34.48,137.929 33.6466,134.429 32.5,131C 32.8333,129.833 33.1667,128.667 33.5,127.5C 35.6485,130.363 38.3151,131.029 41.5,129.5 Z"/></g>
<g><path style="opacity:0.784" fill="#734f39" d="M 53.5,132.5 C 53.5,131.833 53.8333,131.5 54.5,131.5C 57.0771,132.69 57.9105,134.69 57,137.5C 54.1576,140.542 51.3243,143.542 48.5,146.5C 46.144,143.978 43.9773,141.312 42,138.5C 41.1859,136.098 41.3526,133.765 42.5,131.5C 43.7678,130.572 45.1011,130.405 46.5,131C 45.1007,132.062 44.1007,133.395 43.5,135C 44.572,138.07 46.4054,140.57 49,142.5C 52.7883,139.966 54.2883,136.633 53.5,132.5 Z"/></g>
<g><path style="opacity:0.4" fill="#6f4936" d="M 64.5,134.5 C 64.5,137.5 64.5,140.5 64.5,143.5C 63.1667,143.5 61.8333,143.5 60.5,143.5C 60.6602,145.199 60.4935,146.866 60,148.5C 57.6252,149.129 55.4586,150.129 53.5,151.5C 52.9478,149.669 52.9478,148.003 53.5,146.5C 55.0709,147.309 56.7376,147.643 58.5,147.5C 58.7711,145.179 58.1045,143.179 56.5,141.5C 58.7175,140.943 61.0509,140.943 63.5,141.5C 63.1984,138.941 63.5318,136.607 64.5,134.5 Z"/></g>
<g><path style="opacity:0.038" fill="#7f6349" d="M 66.5,130.5 C 67.6839,135.103 67.3505,139.769 65.5,144.5C 60.5438,148.503 56.2105,153.169 52.5,158.5C 53.3333,158.833 54.1667,159.167 55,159.5C 56.3756,159.316 57.2089,158.649 57.5,157.5C 61.3998,158.43 65.3998,158.763 69.5,158.5C 80.988,159.495 92.6547,159.828 104.5,159.5C 104.5,159.833 104.5,160.167 104.5,160.5C 69.5,160.5 34.5,160.5 -0.5,160.5C -0.5,160.167 -0.5,159.833 -0.5,159.5C 15.8469,159.833 32.1803,159.499 48.5,158.5C 48.1373,157.817 47.8039,157.15 47.5,156.5C 49.7726,155.233 51.7726,153.567 53.5,151.5C 55.4586,150.129 57.6252,149.129 60,148.5C 60.4935,146.866 60.6602,145.199 60.5,143.5C 61.8333,143.5 63.1667,143.5 64.5,143.5C 64.5,140.5 64.5,137.5 64.5,134.5C 66.1042,133.713 66.7709,132.38 66.5,130.5 Z"/></g>
</svg>
