<?xml version="1.0" encoding="UTF-8"?>
<!DOCTYPE svg PUBLIC "-//W3C//DTD SVG 1.1//EN" "http://www.w3.org/Graphics/SVG/1.1/DTD/svg11.dtd">
<svg xmlns="http://www.w3.org/2000/svg" version="1.1" width="105px" height="161px" style="shape-rendering:geometricPrecision; text-rendering:geometricPrecision; image-rendering:optimizeQuality; fill-rule:evenodd; clip-rule:evenodd" xmlns:xlink="http://www.w3.org/1999/xlink">
<g><path style="opacity:0.007" fill="#916e50" d="M 33.5,-0.5 C 57.1667,-0.5 80.8333,-0.5 104.5,-0.5C 104.5,19.8333 104.5,40.1667 104.5,60.5C 103.07,60.5792 101.736,60.2458 100.5,59.5C 100.167,60.3333 99.8333,61.1667 99.5,62C 100.832,66.3312 102.165,70.6645 103.5,75C 102.66,81.4299 102.326,87.9299 102.5,94.5C 102.747,95.7133 103.414,96.38 104.5,96.5C 104.5,97.1667 104.5,97.8333 104.5,98.5C 103.173,99.8001 101.84,101.133 100.5,102.5C 98.9273,107.804 95.594,111.637 90.5,114C 85.313,120.014 79.313,125.18 72.5,129.5C 71.1638,134.712 69.9971,139.712 69,144.5C 65.4454,147.302 62.1121,150.302 59,153.5C 58.5899,154.901 58.0899,156.234 57.5,157.5C 57.2089,158.649 56.3756,159.316 55,159.5C 54.1667,159.167 53.3333,158.833 52.5,158.5C 56.2105,153.169 60.5438,148.503 65.5,144.5C 67.3505,139.769 67.6839,135.103 66.5,130.5C 66.5,129.833 66.5,129.167 66.5,128.5C 70.5106,128.038 74.1772,126.538 77.5,124C 81.1482,120.021 85.1482,116.355 89.5,113C 95.118,106.475 98.618,98.9753 100,90.5C 100.667,83.5 100.667,76.5 100,69.5C 97.1053,63.2184 94.272,56.885 91.5,50.5C 93.8056,50.0074 96.139,49.6741 98.5,49.5C 99.1437,44.2133 98.8104,38.8799 97.5,33.5C 95.057,31.9447 92.3903,31.278 89.5,31.5C 89.6602,29.8008 89.4935,28.1341 89,26.5C 86.6806,22.3572 84.1806,18.3572 81.5,14.5C 76.1988,12.0938 71.1988,12.4272 66.5,15.5C 65.8333,15.5 65.5,15.8333 65.5,16.5C 65.5,17.1667 65.5,17.8333 65.5,18.5C 65.5,19.8333 65.5,21.1667 65.5,22.5C 65.5,22.8333 65.5,23.1667 65.5,23.5C 64.8333,23.5 64.5,23.8333 64.5,24.5C 63.8333,24.5 63.1667,24.5 62.5,24.5C 62.1667,24.5 61.8333,24.5 61.5,24.5C 63.25,20.5818 62.5834,17.2485 59.5,14.5C 58.4324,13.5655 57.099,13.2322 55.5,13.5C 55.7271,11.0672 54.7271,9.40058 52.5,8.5C 52.573,6.97306 51.9063,5.97306 50.5,5.5C 49.2946,4.31434 47.9613,4.31434 46.5,5.5C 46.5654,5.06178 46.3988,4.72845 46,4.5C 44.8129,6.04442 44.4795,7.71109 45,9.5C 45.2784,8.5842 45.7784,7.91753 46.5,7.5C 46.8426,12.0411 46.8426,16.3744 46.5,20.5C 45.3882,17.0536 43.0548,15.0536 39.5,14.5C 39.3398,16.1992 39.5065,17.8659 40,19.5C 41.6667,20.7332 43.1667,22.0665 44.5,23.5C 44.5,23.8333 44.5,24.1667 44.5,24.5C 38.9363,24.2825 33.603,25.2825 28.5,27.5C 27.5581,27.3918 26.7247,27.0585 26,26.5C 24.5233,22.0022 26.0233,19.8355 30.5,20C 29.6634,21.0113 29.33,22.1779 29.5,23.5C 30.8221,23.67 31.9887,23.3366 33,22.5C 33.6004,19.9047 33.1004,17.5713 31.5,15.5C 33.5,16.8333 35.5,18.1667 37.5,19.5C 37.3253,17.3792 37.6586,15.3792 38.5,13.5C 37.5041,13.4142 36.6708,13.7476 36,14.5C 35.2613,13.4258 34.2613,12.7591 33,12.5C 30.5,13.3333 28,14.1667 25.5,15C 24.7476,15.6708 24.4142,16.5041 24.5,17.5C 22.0882,17.6941 21.0882,19.0274 21.5,21.5C 20.2437,23.7257 20.2437,26.059 21.5,28.5C 19.2181,27.6103 16.8848,27.4436 14.5,28C 13.244,28.4169 12.5774,29.2502 12.5,30.5C 11.8333,30.5 11.5,30.8333 11.5,31.5C 7.9303,33.8966 7.59696,36.8966 10.5,40.5C 10.9569,41.2975 11.6236,41.6309 12.5,41.5C 11.2702,39.7028 10.6036,37.7028 10.5,35.5C 12.1638,37.4079 13.8305,39.4079 15.5,41.5C 11.5271,46.092 8.02706,51.092 5,56.5C 2.80822,61.8456 0.97489,67.179 -0.5,72.5C -0.5,69.8333 -0.5,67.1667 -0.5,64.5C 1.07394,62.8984 1.74061,60.8984 1.5,58.5C 0.833333,58.8333 0.166667,59.1667 -0.5,59.5C -0.5,43.1667 -0.5,26.8333 -0.5,10.5C 10.8333,10.5 22.1667,10.5 33.5,10.5C 33.5,6.83333 33.5,3.16667 33.5,-0.5 Z M 46.5,5.5 C 46.5,6.16667 46.5,6.83333 46.5,7.5C 45.7784,7.91753 45.2784,8.5842 45,9.5C 44.4795,7.71109 44.8129,6.04442 46,4.5C 46.3988,4.72845 46.5654,5.06178 46.5,5.5 Z M 38.5,13.5 C 37.6586,15.3792 37.3253,17.3792 37.5,19.5C 35.5,18.1667 33.5,16.8333 31.5,15.5C 30.5,15.5 29.5,15.5 28.5,15.5C 27.1667,16.1667 25.8333,16.8333 24.5,17.5C 24.4142,16.5041 24.7476,15.6708 25.5,15C 28,14.1667 30.5,13.3333 33,12.5C 34.2613,12.7591 35.2613,13.4258 36,14.5C 36.6708,13.7476 37.5041,13.4142 38.5,13.5 Z M 89.5,31.5 C 86.3,30.1604 82.6333,28.9937 78.5,28C 79.1667,27.3333 79.8333,26.6667 80.5,26C 78.5322,22.0401 75.8655,18.7068 72.5,16C 70.5273,15.5045 68.5273,15.3379 66.5,15.5C 71.1988,12.4272 76.1988,12.0938 81.5,14.5C 84.1806,18.3572 86.6806,22.3572 89,26.5C 89.4935,28.1341 89.6602,29.8008 89.5,31.5 Z M 24.5,17.5 C 24.2014,19.4553 23.2014,20.7886 21.5,21.5C 21.0882,19.0274 22.0882,17.6941 24.5,17.5 Z M 21.5,21.5 C 21.6741,23.861 22.0074,26.1944 22.5,28.5C 22.1667,28.5 21.8333,28.5 21.5,28.5C 20.2437,26.059 20.2437,23.7257 21.5,21.5 Z M 21.5,28.5 C 21.1583,29.3382 20.4916,29.6716 19.5,29.5C 17.0504,29.298 14.717,29.6314 12.5,30.5C 12.5774,29.2502 13.244,28.4169 14.5,28C 16.8848,27.4436 19.2181,27.6103 21.5,28.5 Z M 11.5,31.5 C 11.1667,32.8333 10.8333,34.1667 10.5,35.5C 10.6036,37.7028 11.2702,39.7028 12.5,41.5C 11.6236,41.6309 10.9569,41.2975 10.5,40.5C 7.59696,36.8966 7.9303,33.8966 11.5,31.5 Z M 89.5,31.5 C 92.3903,31.278 95.057,31.9447 97.5,33.5C 98.8104,38.8799 99.1437,44.2133 98.5,49.5C 96.139,49.6741 93.8056,50.0074 91.5,50.5C 90.8825,48.7708 89.8825,47.2708 88.5,46C 89.9125,42.2958 90.9125,38.4624 91.5,34.5C 90.8075,33.4822 90.1408,32.4822 89.5,31.5 Z M 12.5,43.5 C 12.1667,44.5 11.5,45.1667 10.5,45.5C 10.5,44.1667 11.1667,43.5 12.5,43.5 Z M 4.5,53.5 C 4.46141,52.2438 4.96141,51.2438 6,50.5C 6.5847,51.9976 6.0847,52.9976 4.5,53.5 Z M 4.5,53.5 C 4.25027,55.674 3.25027,57.3406 1.5,58.5C 1.2729,56.0672 2.2729,54.4006 4.5,53.5 Z"/></g>
<g><path style="opacity:0.996" fill="#62100e" d="M 50.5,5.5 C 51.9063,5.97306 52.573,6.97306 52.5,8.5C 52.9693,12.9104 51.9693,16.9104 49.5,20.5C 47.7191,15.972 47.2191,11.3053 48,6.5C 48.6708,5.74756 49.5041,5.41423 50.5,5.5 Z"/></g>
<g><path style="opacity:1" fill="#651c16" d="M 46.5,20.5 C 46.4142,21.4959 46.7476,22.3292 47.5,23C 46.552,23.4828 45.552,23.6495 44.5,23.5C 43.1667,22.0665 41.6667,20.7332 40,19.5C 39.5065,17.8659 39.3398,16.1992 39.5,14.5C 43.0548,15.0536 45.3882,17.0536 46.5,20.5 Z"/></g>
<g><path style="opacity:0.169" fill="#7e5a41" d="M 62.5,24.5 C 63.1667,24.5 63.8333,24.5 64.5,24.5C 65.1667,24.5 65.5,24.1667 65.5,23.5C 65.5,23.1667 65.5,22.8333 65.5,22.5C 66.8583,23.6256 68.1916,23.6256 69.5,22.5C 68.7542,21.2638 68.4208,19.9305 68.5,18.5C 72.2049,19.3781 73.7049,21.7114 73,25.5C 69.3259,27.8834 65.8259,27.55 62.5,24.5 Z"/></g>
<g><path style="opacity:0.44" fill="#79513b" d="M 50.5,5.5 C 49.5041,5.41423 48.6708,5.74756 48,6.5C 47.2191,11.3053 47.7191,15.972 49.5,20.5C 51.9693,16.9104 52.9693,12.9104 52.5,8.5C 54.7271,9.40058 55.7271,11.0672 55.5,13.5C 57.099,13.2322 58.4324,13.5655 59.5,14.5C 62.5834,17.2485 63.25,20.5818 61.5,24.5C 59.4727,24.3379 57.4727,24.5045 55.5,25C 53.2657,26.7498 50.9324,28.2498 48.5,29.5C 47.1667,27.8333 45.8333,26.1667 44.5,24.5C 44.5,24.1667 44.5,23.8333 44.5,23.5C 45.552,23.6495 46.552,23.4828 47.5,23C 46.7476,22.3292 46.4142,21.4959 46.5,20.5C 46.8426,16.3744 46.8426,12.0411 46.5,7.5C 46.5,6.83333 46.5,6.16667 46.5,5.5C 47.9613,4.31434 49.2946,4.31434 50.5,5.5 Z"/></g>
<g><path style="opacity:1" fill="#651914" d="M 59.5,14.5 C 59.3542,18.619 57.3542,21.619 53.5,23.5C 53.1667,22.8333 52.8333,22.1667 52.5,21.5C 53.5314,19.6178 54.3647,17.6178 55,15.5C 56.3561,14.6198 57.8561,14.2865 59.5,14.5 Z"/></g>
<g><path style="opacity:0.796" fill="#6f2d22" d="M 28.5,15.5 C 29.5,15.5 30.5,15.5 31.5,15.5C 33.1004,17.5713 33.6004,19.9047 33,22.5C 31.9887,23.3366 30.8221,23.67 29.5,23.5C 29.33,22.1779 29.6634,21.0113 30.5,20C 26.0233,19.8355 24.5233,22.0022 26,26.5C 26.7247,27.0585 27.5581,27.3918 28.5,27.5C 33.603,25.2825 38.9363,24.2825 44.5,24.5C 45.8333,26.1667 47.1667,27.8333 48.5,29.5C 47.8333,29.8333 47.1667,30.1667 46.5,30.5C 43.8131,26.2649 40.1464,25.4316 35.5,28C 34.2089,29.2917 34.2089,30.4583 35.5,31.5C 31.5463,33.4979 27.5463,35.4979 23.5,37.5C 25.4773,35.1862 27.4773,32.8528 29.5,30.5C 23.634,28.7431 22.134,25.0765 25,19.5C 26.6268,18.4677 27.7934,17.1344 28.5,15.5 Z"/></g>
<g><path style="opacity:0.206" fill="#7d5a41" d="M 46.5,30.5 C 42.7307,30.244 39.0641,30.5773 35.5,31.5C 34.2089,30.4583 34.2089,29.2917 35.5,28C 40.1464,25.4316 43.8131,26.2649 46.5,30.5 Z"/></g>
<g><path style="opacity:0.047" fill="#876146" d="M 28.5,15.5 C 27.7934,17.1344 26.6268,18.4677 25,19.5C 22.134,25.0765 23.634,28.7431 29.5,30.5C 27.4773,32.8528 25.4773,35.1862 23.5,37.5C 21.9382,37.7329 20.6049,38.3995 19.5,39.5C 14.6724,39.6148 13.3391,37.4481 15.5,33C 15.8333,32.8333 16.1667,32.6667 16.5,32.5C 17.4287,33.6888 17.762,35.0222 17.5,36.5C 18.5,36.5 19.5,36.5 20.5,36.5C 20.702,34.0504 20.3686,31.717 19.5,29.5C 20.4916,29.6716 21.1583,29.3382 21.5,28.5C 21.8333,28.5 22.1667,28.5 22.5,28.5C 22.0074,26.1944 21.6741,23.861 21.5,21.5C 23.2014,20.7886 24.2014,19.4553 24.5,17.5C 25.8333,16.8333 27.1667,16.1667 28.5,15.5 Z"/></g>
<g><path style="opacity:0.22" fill="#815a41" d="M 63.5,32.5 C 59.8333,31.8333 56.1667,31.1667 52.5,30.5C 56.0796,25.5527 60.2463,25.2193 65,29.5C 65.7252,31.1575 65.2252,32.1575 63.5,32.5 Z"/></g>
<g><path style="opacity:0.839" fill="#6e2e23" d="M 72.5,34.5 C 71.7354,34.9234 70.9021,35.2568 70,35.5C 67.8523,34.2698 65.6856,33.2698 63.5,32.5C 65.2252,32.1575 65.7252,31.1575 65,29.5C 60.2463,25.2193 56.0796,25.5527 52.5,30.5C 50.901,30.7678 49.5676,30.4345 48.5,29.5C 50.9324,28.2498 53.2657,26.7498 55.5,25C 57.4727,24.5045 59.4727,24.3379 61.5,24.5C 61.8333,24.5 62.1667,24.5 62.5,24.5C 65.8259,27.55 69.3259,27.8834 73,25.5C 73.7049,21.7114 72.2049,19.3781 68.5,18.5C 68.4208,19.9305 68.7542,21.2638 69.5,22.5C 68.1916,23.6256 66.8583,23.6256 65.5,22.5C 65.5,21.1667 65.5,19.8333 65.5,18.5C 69.2118,15.913 72.3784,16.5797 75,20.5C 76.4267,25.5835 74.5933,28.9168 69.5,30.5C 70.5244,31.8518 71.5244,33.1851 72.5,34.5 Z"/></g>
<g><path style="opacity:0.943" fill="#723225" d="M 19.5,29.5 C 20.3686,31.717 20.702,34.0504 20.5,36.5C 19.5,36.5 18.5,36.5 17.5,36.5C 17.762,35.0222 17.4287,33.6888 16.5,32.5C 16.1667,32.6667 15.8333,32.8333 15.5,33C 13.3391,37.4481 14.6724,39.6148 19.5,39.5C 18.1667,40.1667 16.8333,40.8333 15.5,41.5C 13.8305,39.4079 12.1638,37.4079 10.5,35.5C 10.8333,34.1667 11.1667,32.8333 11.5,31.5C 12.1667,31.5 12.5,31.1667 12.5,30.5C 14.717,29.6314 17.0504,29.298 19.5,29.5 Z"/></g>
<g><path style="opacity:0.06" fill="#826247" d="M 66.5,15.5 C 68.5273,15.3379 70.5273,15.5045 72.5,16C 75.8655,18.7068 78.5322,22.0401 80.5,26C 79.8333,26.6667 79.1667,27.3333 78.5,28C 82.6333,28.9937 86.3,30.1604 89.5,31.5C 90.1408,32.4822 90.8075,33.4822 91.5,34.5C 90.9125,38.4624 89.9125,42.2958 88.5,46C 89.8825,47.2708 90.8825,48.7708 91.5,50.5C 94.272,56.885 97.1053,63.2184 100,69.5C 100.667,76.5 100.667,83.5 100,90.5C 98.618,98.9753 95.118,106.475 89.5,113C 85.1482,116.355 81.1482,120.021 77.5,124C 74.1772,126.538 70.5106,128.038 66.5,128.5C 66.1667,128.5 65.8333,128.5 65.5,128.5C 65.4142,127.504 65.7476,126.671 66.5,126C 69.6982,124.321 73.0315,122.987 76.5,122C 80.8333,118.333 85.1667,114.667 89.5,111C 91.4035,108.123 92.4035,104.956 92.5,101.5C 101.898,79.4547 98.2313,59.9547 81.5,43C 82.4965,41.4045 83.6632,39.9045 85,38.5C 86.6683,32.5069 84.5017,30.0069 78.5,31C 77.6198,32.3561 77.2865,33.8561 77.5,35.5C 78.5,35.5 79.5,35.5 80.5,35.5C 80.5,34.5 80.5,33.5 80.5,32.5C 81.5,32.5 82.5,32.5 83.5,32.5C 84.1686,38.0001 81.8353,40.1667 76.5,39C 75.6719,37.0077 74.3386,35.5077 72.5,34.5C 71.5244,33.1851 70.5244,31.8518 69.5,30.5C 74.5933,28.9168 76.4267,25.5835 75,20.5C 72.3784,16.5797 69.2118,15.913 65.5,18.5C 65.5,17.8333 65.5,17.1667 65.5,16.5C 66.1667,16.5 66.5,16.1667 66.5,15.5 Z"/></g>
<g><path style="opacity:0.969" fill="#641d17" d="M 48.5,29.5 C 49.5676,30.4345 50.901,30.7678 52.5,30.5C 56.1667,31.1667 59.8333,31.8333 63.5,32.5C 65.6856,33.2698 67.8523,34.2698 70,35.5C 70.9021,35.2568 71.7354,34.9234 72.5,34.5C 74.3386,35.5077 75.6719,37.0077 76.5,39C 81.8353,40.1667 84.1686,38.0001 83.5,32.5C 82.5,32.5 81.5,32.5 80.5,32.5C 80.5,33.5 80.5,34.5 80.5,35.5C 79.5,35.5 78.5,35.5 77.5,35.5C 77.2865,33.8561 77.6198,32.3561 78.5,31C 84.5017,30.0069 86.6683,32.5069 85,38.5C 83.6632,39.9045 82.4965,41.4045 81.5,43C 98.2313,59.9547 101.898,79.4547 92.5,101.5C 89.6132,105.543 86.4465,109.543 83,113.5C 80.2872,115.72 77.4539,117.72 74.5,119.5C 74.1667,118.167 73.8333,116.833 73.5,115.5C 77.1488,116.586 79.8155,115.252 81.5,111.5C 83.5475,109.45 85.2141,107.117 86.5,104.5C 87.4013,103.71 88.0679,102.71 88.5,101.5C 89.5375,100.07 90.2041,98.403 90.5,96.5C 91.8269,92.527 92.9936,88.527 94,84.5C 94.1667,82.3333 94.3333,80.1667 94.5,78C 94.4668,75.3897 93.8001,73.223 92.5,71.5C 92.8412,67.8405 92.1745,64.5072 90.5,61.5C 87.4237,52.4217 81.757,45.4217 73.5,40.5C 71.3649,38.9291 69.0316,37.5957 66.5,36.5C 65.8333,36.5 65.1667,36.5 64.5,36.5C 63.7095,35.5987 62.7095,34.9321 61.5,34.5C 61.1667,34.5 60.8333,34.5 60.5,34.5C 54.4263,32.7517 48.093,32.085 41.5,32.5C 39.597,32.7959 37.9303,33.4625 36.5,34.5C 33.9327,34.7215 31.5994,35.3882 29.5,36.5C 25.9754,37.7589 22.9754,39.7589 20.5,42.5C 18.5956,42.7376 17.2623,43.7376 16.5,45.5C 10.188,51.1177 6.18801,58.1177 4.5,66.5C 3.54885,67.9187 3.21552,69.5853 3.5,71.5C 1.66271,82.3266 3.32938,92.6599 8.5,102.5C 10.979,106.671 13.979,110.338 17.5,113.5C 18.8121,115.479 20.4788,117.145 22.5,118.5C 23.4287,117.311 23.762,115.978 23.5,114.5C 24.8698,116.25 25.8698,118.25 26.5,120.5C 26.1583,121.338 25.4916,121.672 24.5,121.5C 11.213,112.922 2.87969,100.922 -0.5,85.5C -0.5,81.1667 -0.5,76.8333 -0.5,72.5C 0.97489,67.179 2.80822,61.8456 5,56.5C 8.02706,51.092 11.5271,46.092 15.5,41.5C 16.8333,40.8333 18.1667,40.1667 19.5,39.5C 20.6049,38.3995 21.9382,37.7329 23.5,37.5C 27.5463,35.4979 31.5463,33.4979 35.5,31.5C 39.0641,30.5773 42.7307,30.244 46.5,30.5C 47.1667,30.1667 47.8333,29.8333 48.5,29.5 Z"/></g>
<g><path style="opacity:1" fill="#333539" d="M 66.5,36.5 C 69.0316,37.5957 71.3649,38.9291 73.5,40.5C 71.8333,40.5 70.1667,40.5 68.5,40.5C 69.1143,44.1352 69.4476,47.8019 69.5,51.5C 70.791,51.2627 71.791,51.596 72.5,52.5C 68.875,51.9375 65.375,50.9375 62,49.5C 61.6892,47.444 61.1892,45.444 60.5,43.5C 62.5227,41.1472 64.5227,38.8138 66.5,36.5 Z"/></g>
<g><path style="opacity:1" fill="#9da3ad" d="M 46.5,39.5 C 50.1667,40.8333 53.8333,40.8333 57.5,39.5C 57.0248,41.7837 56.0248,43.7837 54.5,45.5C 50.4105,45.4119 47.7438,43.4119 46.5,39.5 Z"/></g>
<g><path style="opacity:1" fill="#a87f43" d="M 41.5,32.5 C 41.5,32.8333 41.5,33.1667 41.5,33.5C 42.091,35.8193 43.7577,37.8193 46.5,39.5C 47.7438,43.4119 50.4105,45.4119 54.5,45.5C 54.5,45.8333 54.5,46.1667 54.5,46.5C 54.5,46.8333 54.5,47.1667 54.5,47.5C 53.5326,48.8062 52.1993,49.4729 50.5,49.5C 47.2029,46.2635 44.3696,42.5969 42,38.5C 40.0083,37.3353 38.175,36.002 36.5,34.5C 37.9303,33.4625 39.597,32.7959 41.5,32.5 Z"/></g>
<g><path style="opacity:1" fill="#b5a796" d="M 60.5,34.5 C 60.8333,34.5 61.1667,34.5 61.5,34.5C 60.8763,36.754 59.543,38.4206 57.5,39.5C 57.8333,38.1667 58.1667,36.8333 58.5,35.5C 59.1667,35.1667 59.8333,34.8333 60.5,34.5 Z"/></g>
<g><path style="opacity:1" fill="#875e29" d="M 61.5,34.5 C 62.7095,34.9321 63.7095,35.5987 64.5,36.5C 61.5421,39.0595 59.0421,42.0595 57,45.5C 56.3292,46.2524 55.4959,46.5858 54.5,46.5C 54.5,46.1667 54.5,45.8333 54.5,45.5C 56.0248,43.7837 57.0248,41.7837 57.5,39.5C 59.543,38.4206 60.8763,36.754 61.5,34.5 Z"/></g>
<g><path style="opacity:1" fill="#505963" d="M 58.5,35.5 C 58.1667,36.8333 57.8333,38.1667 57.5,39.5C 53.8333,40.8333 50.1667,40.8333 46.5,39.5C 46.2671,37.9382 45.6005,36.6049 44.5,35.5C 45.3121,34.0069 46.6455,33.3402 48.5,33.5C 51.8777,34.0422 55.211,34.7089 58.5,35.5 Z"/></g>
<g><path style="opacity:1" fill="#a99881" d="M 41.5,33.5 C 42.5,34.1667 43.5,34.8333 44.5,35.5C 45.6005,36.6049 46.2671,37.9382 46.5,39.5C 43.7577,37.8193 42.091,35.8193 41.5,33.5 Z"/></g>
<g><path style="opacity:1" fill="#5c4a44" d="M 41.5,33.5 C 41.5,33.1667 41.5,32.8333 41.5,32.5C 48.093,32.085 54.4263,32.7517 60.5,34.5C 59.8333,34.8333 59.1667,35.1667 58.5,35.5C 55.211,34.7089 51.8777,34.0422 48.5,33.5C 46.6455,33.3402 45.3121,34.0069 44.5,35.5C 43.5,34.8333 42.5,34.1667 41.5,33.5 Z"/></g>
<g><path style="opacity:1" fill="#4b5660" d="M 73.5,40.5 C 73.617,44.3574 75.4503,47.0241 79,48.5C 79.49,49.7932 79.6567,51.1266 79.5,52.5C 77.1667,52.5 74.8333,52.5 72.5,52.5C 71.791,51.596 70.791,51.2627 69.5,51.5C 69.4476,47.8019 69.1143,44.1352 68.5,40.5C 70.1667,40.5 71.8333,40.5 73.5,40.5 Z"/></g>
<g><path style="opacity:1" fill="#292c33" d="M 29.5,36.5 C 31.451,36.2267 32.951,36.8934 34,38.5C 35.5642,43.1324 35.7309,47.7991 34.5,52.5C 30.7593,53.0743 27.426,54.4076 24.5,56.5C 22.8653,55.9537 21.1986,55.6204 19.5,55.5C 19.8333,53.5 20.1667,51.5 20.5,49.5C 16.5287,50.2045 15.1954,48.8711 16.5,45.5C 17.2623,43.7376 18.5956,42.7376 20.5,42.5C 22.9754,39.7589 25.9754,37.7589 29.5,36.5 Z"/></g>
<g><path style="opacity:1" fill="#433024" d="M 54.5,47.5 C 54.5394,48.5832 54.8728,49.5832 55.5,50.5C 60.6877,52.5856 66.021,54.419 71.5,56C 76.0132,59.5143 79.8465,63.681 83,68.5C 83.6877,69.3317 83.521,69.9984 82.5,70.5C 79.675,67.5048 77.0083,64.3381 74.5,61C 70.7586,58.4807 66.7586,56.6474 62.5,55.5C 59.2927,54.5133 55.9593,53.5133 52.5,52.5C 51.2867,52.2528 50.62,51.5862 50.5,50.5C 50.5,50.1667 50.5,49.8333 50.5,49.5C 52.1993,49.4729 53.5326,48.8062 54.5,47.5 Z"/></g>
<g><path style="opacity:1" fill="#313a45" d="M 20.5,42.5 C 23.5,42.5 26.5,42.5 29.5,42.5C 30.9455,45.3384 31.4455,48.3384 31,51.5C 28.3135,52.713 25.4802,53.3797 22.5,53.5C 23.3845,49.5104 22.0511,46.6771 18.5,45C 19.3805,44.2917 20.0472,43.4584 20.5,42.5 Z"/></g>
<g><path style="opacity:1" fill="#1c1a1c" d="M 36.5,34.5 C 38.175,36.002 40.0083,37.3353 42,38.5C 44.3696,42.5969 47.2029,46.2635 50.5,49.5C 50.5,49.8333 50.5,50.1667 50.5,50.5C 49.8333,50.5 49.1667,50.5 48.5,50.5C 45.8085,47.8049 43.4752,44.8049 41.5,41.5C 42.516,44.8866 42.516,48.5532 41.5,52.5C 35.958,55.2914 30.2913,57.7914 24.5,60C 21.3307,60.9782 18.4973,60.4782 16,58.5C 14.4933,60.008 12.8267,61.3413 11,62.5C 10.5065,64.1341 10.3398,65.8008 10.5,67.5C 8.3792,67.6747 6.3792,67.3414 4.5,66.5C 6.18801,58.1177 10.188,51.1177 16.5,45.5C 15.1954,48.8711 16.5287,50.2045 20.5,49.5C 20.1667,51.5 19.8333,53.5 19.5,55.5C 21.1986,55.6204 22.8653,55.9537 24.5,56.5C 27.426,54.4076 30.7593,53.0743 34.5,52.5C 35.7309,47.7991 35.5642,43.1324 34,38.5C 32.951,36.8934 31.451,36.2267 29.5,36.5C 31.5994,35.3882 33.9327,34.7215 36.5,34.5 Z"/></g>
<g><path style="opacity:1" fill="#442317" d="M 43.5,56.5 C 49.6446,55.5098 55.9779,55.1765 62.5,55.5C 63.6883,56.3636 64.8549,57.3636 66,58.5C 66.0367,60.9739 66.87,62.9739 68.5,64.5C 68.5,66.1667 68.5,67.8333 68.5,69.5C 67.5655,68.4324 67.2322,67.099 67.5,65.5C 66.325,65.719 65.325,65.3857 64.5,64.5C 65.6446,63.109 65.6446,61.7757 64.5,60.5C 62.2534,59.6258 59.9201,59.2924 57.5,59.5C 55.1582,59.2252 55.1582,58.3919 57.5,57C 52.8452,56.5008 48.1785,56.3342 43.5,56.5 Z"/></g>
<g><path style="opacity:1" fill="#333234" d="M 73.5,40.5 C 81.757,45.4217 87.4237,52.4217 90.5,61.5C 90.762,62.9778 90.4287,64.3112 89.5,65.5C 84.1384,64.1723 80.4717,61.0056 78.5,56C 76.1209,55.2838 74.1209,54.1172 72.5,52.5C 74.8333,52.5 77.1667,52.5 79.5,52.5C 79.6567,51.1266 79.49,49.7932 79,48.5C 75.4503,47.0241 73.617,44.3574 73.5,40.5 Z"/></g>
<g><path style="opacity:1" fill="#381d12" d="M 42.5,56.5 C 42.3893,57.1174 42.056,57.6174 41.5,58C 44.3201,57.0925 46.9867,57.5925 49.5,59.5C 49.1667,59.8333 48.8333,60.1667 48.5,60.5C 47.2278,59.954 45.8945,59.6207 44.5,59.5C 41.8222,60.1754 39.1555,60.842 36.5,61.5C 35.761,65.0151 35.761,68.3485 36.5,71.5C 37.0916,74.1272 37.4249,76.7938 37.5,79.5C 36.8333,78.5 36.1667,77.5 35.5,76.5C 34.7227,71.9164 34.2227,67.2497 34,62.5C 32.9717,64.3615 31.4717,65.6948 29.5,66.5C 28.8333,68.1667 28.1667,69.8333 27.5,71.5C 26.8182,70.7573 26.1515,70.0906 25.5,69.5C 24.5,69.5 23.5,69.5 22.5,69.5C 22.0825,68.7784 21.4158,68.2784 20.5,68C 22.557,64.7002 23.557,64.8669 23.5,68.5C 26.6359,67.5261 28.6359,65.3595 29.5,62C 33.5886,59.6233 37.9219,57.79 42.5,56.5 Z"/></g>
<g><path style="opacity:1" fill="#4a3930" d="M 71.5,68.5 C 70.391,68.5569 69.391,68.8902 68.5,69.5C 68.5,67.8333 68.5,66.1667 68.5,64.5C 68.3398,62.8008 68.5065,61.1341 69,59.5C 71.2508,62.0172 72.0841,65.0172 71.5,68.5 Z"/></g>
<g><path style="opacity:1" fill="#6a3418" d="M 42.5,56.5 C 42.8333,56.5 43.1667,56.5 43.5,56.5C 48.1785,56.3342 52.8452,56.5008 57.5,57C 55.1582,58.3919 55.1582,59.2252 57.5,59.5C 56.5345,60.8758 55.5345,62.2092 54.5,63.5C 54.5,63.1667 54.5,62.8333 54.5,62.5C 52.4791,57.6341 51.4791,57.6341 51.5,62.5C 51.5,62.8333 51.5,63.1667 51.5,63.5C 49.7365,66.7808 47.0699,68.6142 43.5,69C 44.5,68.1667 45.5,67.3333 46.5,66.5C 44.9089,65.1359 43.2422,64.3026 41.5,64C 37.9933,65.3296 36.3266,67.8296 36.5,71.5C 35.761,68.3485 35.761,65.0151 36.5,61.5C 39.1555,60.842 41.8222,60.1754 44.5,59.5C 45.8945,59.6207 47.2278,59.954 48.5,60.5C 48.8333,60.1667 49.1667,59.8333 49.5,59.5C 46.9867,57.5925 44.3201,57.0925 41.5,58C 42.056,57.6174 42.3893,57.1174 42.5,56.5 Z"/></g>
<g><path style="opacity:1" fill="#977361" d="M 54.5,62.5 C 53.5,62.5 52.5,62.5 51.5,62.5C 51.4791,57.6341 52.4791,57.6341 54.5,62.5 Z"/></g>
<g><path style="opacity:1" fill="#a35a2f" d="M 57.5,59.5 C 59.9201,59.2924 62.2534,59.6258 64.5,60.5C 65.6446,61.7757 65.6446,63.109 64.5,64.5C 65.325,65.3857 66.325,65.719 67.5,65.5C 67.2322,67.099 67.5655,68.4324 68.5,69.5C 68.5,69.8333 68.5,70.1667 68.5,70.5C 68.11,73.7967 67.11,76.7967 65.5,79.5C 65.3253,77.3792 65.6586,75.3792 66.5,73.5C 66.5,71.1667 66.5,68.8333 66.5,66.5C 64.4205,65.9556 62.4205,65.1223 60.5,64C 61.8882,63.1107 61.7215,62.6107 60,62.5C 58.699,62.6387 57.8656,63.3054 57.5,64.5C 56.5,65.8333 55.5,65.8333 54.5,64.5C 54.5,64.1667 54.5,63.8333 54.5,63.5C 55.5345,62.2092 56.5345,60.8758 57.5,59.5 Z"/></g>
<g><path style="opacity:1" fill="#150c08" d="M 48.5,50.5 C 49.1667,50.5 49.8333,50.5 50.5,50.5C 50.62,51.5862 51.2867,52.2528 52.5,52.5C 55.9593,53.5133 59.2927,54.5133 62.5,55.5C 55.9779,55.1765 49.6446,55.5098 43.5,56.5C 43.1667,56.5 42.8333,56.5 42.5,56.5C 37.9219,57.79 33.5886,59.6233 29.5,62C 28.6359,65.3595 26.6359,67.5261 23.5,68.5C 23.557,64.8669 22.557,64.7002 20.5,68C 21.4158,68.2784 22.0825,68.7784 22.5,69.5C 21.791,70.404 20.791,70.7373 19.5,70.5C 14.4889,70.6659 9.48892,70.4993 4.5,70C 8.5,69.6667 12.5,69.3333 16.5,69C 18.539,66.6255 20.8723,64.6255 23.5,63C 32.1448,59.2737 40.4781,55.107 48.5,50.5 Z"/></g>
<g><path style="opacity:1" fill="#28221e" d="M 48.5,50.5 C 40.4781,55.107 32.1448,59.2737 23.5,63C 20.8723,64.6255 18.539,66.6255 16.5,69C 12.5,69.3333 8.5,69.6667 4.5,70C 9.48892,70.4993 14.4889,70.6659 19.5,70.5C 18.0813,71.4511 16.4147,71.7845 14.5,71.5C 10.8333,71.5 7.16667,71.5 3.5,71.5C 3.21552,69.5853 3.54885,67.9187 4.5,66.5C 6.3792,67.3414 8.3792,67.6747 10.5,67.5C 10.3398,65.8008 10.5065,64.1341 11,62.5C 12.8267,61.3413 14.4933,60.008 16,58.5C 18.4973,60.4782 21.3307,60.9782 24.5,60C 30.2913,57.7914 35.958,55.2914 41.5,52.5C 42.516,48.5532 42.516,44.8866 41.5,41.5C 43.4752,44.8049 45.8085,47.8049 48.5,50.5 Z"/></g>
<g><path style="opacity:1" fill="#ebbd9b" d="M 51.5,62.5 C 52.5,62.5 53.5,62.5 54.5,62.5C 54.5,62.8333 54.5,63.1667 54.5,63.5C 54.5,63.8333 54.5,64.1667 54.5,64.5C 54.4142,65.4959 54.7476,66.3292 55.5,67C 57.5364,67.4536 59.3697,68.2869 61,69.5C 62.0588,69.3699 62.8921,68.8699 63.5,68C 60.6546,67.9918 58.6546,66.8251 57.5,64.5C 57.8656,63.3054 58.699,62.6387 60,62.5C 61.7215,62.6107 61.8882,63.1107 60.5,64C 62.4205,65.1223 64.4205,65.9556 66.5,66.5C 66.5,68.8333 66.5,71.1667 66.5,73.5C 64.9008,72.438 63.2341,72.438 61.5,73.5C 60.5,73.1667 59.8333,72.5 59.5,71.5C 57.0483,71.0139 54.3817,71.0139 51.5,71.5C 51.5,68.8333 51.5,66.1667 51.5,63.5C 51.5,63.1667 51.5,62.8333 51.5,62.5 Z"/></g>
<g><path style="opacity:1" fill="#d28a58" d="M 54.5,64.5 C 55.5,65.8333 56.5,65.8333 57.5,64.5C 58.6546,66.8251 60.6546,67.9918 63.5,68C 62.8921,68.8699 62.0588,69.3699 61,69.5C 59.3697,68.2869 57.5364,67.4536 55.5,67C 54.7476,66.3292 54.4142,65.4959 54.5,64.5 Z"/></g>
<g><path style="opacity:1" fill="#191413" d="M 64.5,36.5 C 65.1667,36.5 65.8333,36.5 66.5,36.5C 64.5227,38.8138 62.5227,41.1472 60.5,43.5C 61.1892,45.444 61.6892,47.444 62,49.5C 65.375,50.9375 68.875,51.9375 72.5,52.5C 74.1209,54.1172 76.1209,55.2838 78.5,56C 80.4717,61.0056 84.1384,64.1723 89.5,65.5C 90.4287,64.3112 90.762,62.9778 90.5,61.5C 92.1745,64.5072 92.8412,67.8405 92.5,71.5C 87.8969,72.3833 83.2303,72.7166 78.5,72.5C 76.7857,71.2616 74.7857,70.595 72.5,70.5C 72.1667,69.8333 71.8333,69.1667 71.5,68.5C 72.0841,65.0172 71.2508,62.0172 69,59.5C 68.5065,61.1341 68.3398,62.8008 68.5,64.5C 66.87,62.9739 66.0367,60.9739 66,58.5C 64.8549,57.3636 63.6883,56.3636 62.5,55.5C 66.7586,56.6474 70.7586,58.4807 74.5,61C 77.0083,64.3381 79.675,67.5048 82.5,70.5C 83.521,69.9984 83.6877,69.3317 83,68.5C 79.8465,63.681 76.0132,59.5143 71.5,56C 66.021,54.419 60.6877,52.5856 55.5,50.5C 54.8728,49.5832 54.5394,48.5832 54.5,47.5C 54.5,47.1667 54.5,46.8333 54.5,46.5C 55.4959,46.5858 56.3292,46.2524 57,45.5C 59.0421,42.0595 61.5421,39.0595 64.5,36.5 Z"/></g>
<g><path style="opacity:1" fill="#a06a49" d="M 51.5,63.5 C 51.5,66.1667 51.5,68.8333 51.5,71.5C 54.3817,71.0139 57.0483,71.0139 59.5,71.5C 57.3023,71.4088 56.9689,72.0755 58.5,73.5C 56.9382,73.7329 55.6049,74.3995 54.5,75.5C 54.5,76.1667 54.5,76.8333 54.5,77.5C 53.8333,77.5 53.1667,77.5 52.5,77.5C 48.6566,76.7745 45.99,78.1078 44.5,81.5C 42.7973,80.3398 42.1307,81.0065 42.5,83.5C 41.7978,84.1157 40.7978,84.1157 39.5,83.5C 39.5,83.1667 39.5,82.8333 39.5,82.5C 42.068,80.3312 42.068,77.9979 39.5,75.5C 39.7093,74.914 40.0426,74.414 40.5,74C 38.867,73.5204 37.5336,72.6871 36.5,71.5C 36.3266,67.8296 37.9933,65.3296 41.5,64C 43.2422,64.3026 44.9089,65.1359 46.5,66.5C 45.5,67.3333 44.5,68.1667 43.5,69C 47.0699,68.6142 49.7365,66.7808 51.5,63.5 Z"/></g>
<g><path style="opacity:1" fill="#6e2f12" d="M 54.5,75.5 C 52.2491,74.703 49.7491,74.703 47,75.5C 45.3141,72.978 43.9808,73.3113 43,76.5C 42.5828,73.7158 43.7495,71.7158 46.5,70.5C 49.5195,71.8757 52.1862,73.5423 54.5,75.5 Z"/></g>
<g><path style="opacity:1" fill="#8e3c14" d="M 59.5,71.5 C 59.8333,72.5 60.5,73.1667 61.5,73.5C 61.6602,75.1992 61.4935,76.8659 61,78.5C 60.7216,77.5842 60.2216,76.9175 59.5,76.5C 58.8902,75.609 58.5569,74.609 58.5,73.5C 56.9689,72.0755 57.3023,71.4088 59.5,71.5 Z"/></g>
<g><path style="opacity:1" fill="#cec4bb" d="M 71.5,68.5 C 71.8333,69.1667 72.1667,69.8333 72.5,70.5C 72.3253,72.6208 72.6586,74.6208 73.5,76.5C 72.5041,76.4142 71.6708,76.7476 71,77.5C 70.5065,79.1341 70.3398,80.8008 70.5,82.5C 69.2053,78.7329 68.5387,74.7329 68.5,70.5C 68.5,70.1667 68.5,69.8333 68.5,69.5C 69.391,68.8902 70.391,68.5569 71.5,68.5 Z"/></g>
<g><path style="opacity:1" fill="#5a5048" d="M 35.5,76.5 C 35.7521,79.2438 35.0855,81.7438 33.5,84C 33.7432,84.9021 34.0766,85.7354 34.5,86.5C 33.448,86.6495 32.448,86.4828 31.5,86C 32.435,83.6194 32.7683,81.1194 32.5,78.5C 27.6721,77.652 25.3388,74.652 25.5,69.5C 26.1515,70.0906 26.8182,70.7573 27.5,71.5C 28.1667,69.8333 28.8333,68.1667 29.5,66.5C 31.4717,65.6948 32.9717,64.3615 34,62.5C 34.2227,67.2497 34.7227,71.9164 35.5,76.5 Z"/></g>
<g><path style="opacity:1" fill="#f5ead7" d="M 58.5,73.5 C 58.5569,74.609 58.8902,75.609 59.5,76.5C 59.1583,77.3382 58.4916,77.6716 57.5,77.5C 56.5,77.5 55.5,77.5 54.5,77.5C 54.5,76.8333 54.5,76.1667 54.5,75.5C 55.6049,74.3995 56.9382,73.7329 58.5,73.5 Z"/></g>
<g><path style="opacity:1" fill="#c78659" d="M 66.5,73.5 C 65.6586,75.3792 65.3253,77.3792 65.5,79.5C 65.5,79.8333 65.5,80.1667 65.5,80.5C 64.8386,79.2825 64.1719,77.9492 63.5,76.5C 62.8302,78.2914 62.1635,79.9581 61.5,81.5C 60.6304,79.7263 59.297,78.393 57.5,77.5C 58.4916,77.6716 59.1583,77.3382 59.5,76.5C 60.2216,76.9175 60.7216,77.5842 61,78.5C 61.4935,76.8659 61.6602,75.1992 61.5,73.5C 63.2341,72.438 64.9008,72.438 66.5,73.5 Z"/></g>
<g><path style="opacity:1" fill="#6e6259" d="M 92.5,71.5 C 93.8001,73.223 94.4668,75.3897 94.5,78C 94.3333,80.1667 94.1667,82.3333 94,84.5C 92.9936,88.527 91.8269,92.527 90.5,96.5C 89.7784,96.0825 89.2784,95.4158 89,94.5C 89.5345,85.0257 85.7012,77.8591 77.5,73C 77.7284,72.6012 78.0618,72.4346 78.5,72.5C 83.2303,72.7166 87.8969,72.3833 92.5,71.5 Z"/></g>
<g><path style="opacity:1" fill="#7a3f1a" d="M 36.5,71.5 C 37.5336,72.6871 38.867,73.5204 40.5,74C 40.0426,74.414 39.7093,74.914 39.5,75.5C 42.068,77.9979 42.068,80.3312 39.5,82.5C 38.8333,81.5 38.1667,80.5 37.5,79.5C 37.4249,76.7938 37.0916,74.1272 36.5,71.5 Z"/></g>
<g><path style="opacity:1" fill="#4c1b0f" d="M 52.5,77.5 C 52.5,77.8333 52.5,78.1667 52.5,78.5C 49.8598,79.4485 47.1931,80.4485 44.5,81.5C 45.99,78.1078 48.6566,76.7745 52.5,77.5 Z"/></g>
<g><path style="opacity:1" fill="#8b3719" d="M 52.5,78.5 C 52.5,78.1667 52.5,77.8333 52.5,77.5C 53.1667,77.5 53.8333,77.5 54.5,77.5C 55.5,77.5 56.5,77.5 57.5,77.5C 59.297,78.393 60.6304,79.7263 61.5,81.5C 59.5,80.8333 57.5,80.1667 55.5,79.5C 54.791,78.596 53.791,78.2627 52.5,78.5 Z"/></g>
<g><path style="opacity:1" fill="#e9e3de" d="M 73.5,76.5 C 76.7103,81.8898 80.5436,86.8898 85,91.5C 85.7401,92.7494 85.5735,93.7494 84.5,94.5C 83.4226,93.9816 82.2559,93.6483 81,93.5C 78.7298,94.8599 76.2298,95.5266 73.5,95.5C 73.1667,94.8333 72.8333,94.1667 72.5,93.5C 72.5,93.1667 72.5,92.8333 72.5,92.5C 73.8333,92.5 75.1667,92.5 76.5,92.5C 76.7373,91.209 76.404,90.209 75.5,89.5C 73.082,88.0857 71.4153,86.0857 70.5,83.5C 70.5,83.1667 70.5,82.8333 70.5,82.5C 70.3398,80.8008 70.5065,79.1341 71,77.5C 71.6708,76.7476 72.5041,76.4142 73.5,76.5 Z"/></g>
<g><path style="opacity:1" fill="#6c5e51" d="M 22.5,69.5 C 23.5,69.5 24.5,69.5 25.5,69.5C 25.3388,74.652 27.6721,77.652 32.5,78.5C 32.7683,81.1194 32.435,83.6194 31.5,86C 32.448,86.4828 33.448,86.6495 34.5,86.5C 35.1082,90.4724 35.6082,94.4724 36,98.5C 36.7083,99.3805 37.5416,100.047 38.5,100.5C 38.3342,105.179 38.5008,109.845 39,114.5C 40.7331,116.723 42.2331,119.056 43.5,121.5C 43.1667,122.167 42.8333,122.833 42.5,123.5C 40.1152,120.788 37.7819,118.122 35.5,115.5C 35.5,114.167 35.5,112.833 35.5,111.5C 35.6695,109.152 36.0029,106.818 36.5,104.5C 35.0714,101.04 34.2381,97.3735 34,93.5C 33.4387,94.0219 32.772,94.3552 32,94.5C 30.2399,93.3699 28.4066,92.3699 26.5,91.5C 28.0737,90.0158 29.407,88.3492 30.5,86.5C 29.9984,85.479 29.3317,85.3123 28.5,86C 27.1279,87.2419 26.1279,88.7419 25.5,90.5C 23.6587,91.2304 21.8254,91.8971 20,92.5C 19.6913,90.6086 20.5247,89.2752 22.5,88.5C 22.3764,87.8933 22.0431,87.56 21.5,87.5C 23.6875,83.4243 24.0208,79.0909 22.5,74.5C 21.1575,75.9023 20.3242,75.5689 20,73.5C 19.8142,75.9005 19.3142,78.2338 18.5,80.5C 17.8333,80.8333 17.1667,81.1667 16.5,81.5C 15.5258,79.2573 15.1924,76.924 15.5,74.5C 13.4078,74.5614 11.9078,75.5614 11,77.5C 9.73082,76.0953 9.23082,74.4286 9.5,72.5C 11.4147,72.7845 13.0813,72.4511 14.5,71.5C 16.4147,71.7845 18.0813,71.4511 19.5,70.5C 20.791,70.7373 21.791,70.404 22.5,69.5 Z"/></g>
<g><path style="opacity:1" fill="#dda67d" d="M 65.5,80.5 C 66.5,80.8333 67.1667,81.5 67.5,82.5C 64.2736,82.6258 60.9402,82.9592 57.5,83.5C 56.4479,81.744 54.7812,81.0773 52.5,81.5C 52.0825,80.7784 51.4158,80.2784 50.5,80C 52.1341,79.5065 53.8008,79.3398 55.5,79.5C 57.5,80.1667 59.5,80.8333 61.5,81.5C 62.1635,79.9581 62.8302,78.2914 63.5,76.5C 64.1719,77.9492 64.8386,79.2825 65.5,80.5 Z"/></g>
<g><path style="opacity:1" fill="#98765f" d="M 68.5,70.5 C 68.5387,74.7329 69.2053,78.7329 70.5,82.5C 70.5,82.8333 70.5,83.1667 70.5,83.5C 69.596,84.209 69.2627,85.209 69.5,86.5C 68.8333,85.1667 68.1667,83.8333 67.5,82.5C 67.1667,81.5 66.5,80.8333 65.5,80.5C 65.5,80.1667 65.5,79.8333 65.5,79.5C 67.11,76.7967 68.11,73.7967 68.5,70.5 Z"/></g>
<g><path style="opacity:1" fill="#6f340e" d="M 52.5,81.5 C 54.7812,81.0773 56.4479,81.744 57.5,83.5C 57.1667,83.5 56.8333,83.5 56.5,83.5C 54.076,83.8076 51.7427,83.4742 49.5,82.5C 50.325,81.6143 51.325,81.281 52.5,81.5 Z"/></g>
<g><path style="opacity:1" fill="#a7734d" d="M 52.5,78.5 C 53.791,78.2627 54.791,78.596 55.5,79.5C 53.8008,79.3398 52.1341,79.5065 50.5,80C 51.4158,80.2784 52.0825,80.7784 52.5,81.5C 51.325,81.281 50.325,81.6143 49.5,82.5C 51.7427,83.4742 54.076,83.8076 56.5,83.5C 56.5,83.8333 56.5,84.1667 56.5,84.5C 53.6029,84.3187 50.7695,84.6521 48,85.5C 45.9264,84.9283 44.7598,83.595 44.5,81.5C 47.1931,80.4485 49.8598,79.4485 52.5,78.5 Z"/></g>
<g><path style="opacity:1" fill="#d7c1b0" d="M 67.5,82.5 C 68.1667,83.8333 68.8333,85.1667 69.5,86.5C 70.6253,88.1288 71.9586,89.6288 73.5,91C 74.816,91.5281 75.4827,91.0281 75.5,89.5C 76.404,90.209 76.7373,91.209 76.5,92.5C 75.1667,92.5 73.8333,92.5 72.5,92.5C 71.5,92.5 70.5,92.5 69.5,92.5C 69.6882,90.8967 69.1882,89.5634 68,88.5C 67.6667,91.1667 67.3333,93.8333 67,96.5C 66.3598,91.9123 64.5265,87.9123 61.5,84.5C 60.7025,84.9569 60.3691,85.6236 60.5,86.5C 59.5326,85.1938 58.1993,84.5271 56.5,84.5C 56.5,84.1667 56.5,83.8333 56.5,83.5C 56.8333,83.5 57.1667,83.5 57.5,83.5C 60.9402,82.9592 64.2736,82.6258 67.5,82.5 Z"/></g>
<g><path style="opacity:1" fill="#5e4434" d="M 35.5,76.5 C 36.1667,77.5 36.8333,78.5 37.5,79.5C 38.1667,80.5 38.8333,81.5 39.5,82.5C 39.5,82.8333 39.5,83.1667 39.5,83.5C 38.6618,83.8417 38.3284,84.5084 38.5,85.5C 37.2921,86.2341 35.9587,86.5674 34.5,86.5C 34.0766,85.7354 33.7432,84.9021 33.5,84C 35.0855,81.7438 35.7521,79.2438 35.5,76.5 Z"/></g>
<g><path style="opacity:1" fill="#655142" d="M 72.5,70.5 C 74.7857,70.595 76.7857,71.2616 78.5,72.5C 78.0618,72.4346 77.7284,72.6012 77.5,73C 85.7012,77.8591 89.5345,85.0257 89,94.5C 89.2784,95.4158 89.7784,96.0825 90.5,96.5C 90.2041,98.403 89.5375,100.07 88.5,101.5C 87.8166,99.8235 86.4832,99.1568 84.5,99.5C 83.438,97.9008 83.438,96.2341 84.5,94.5C 85.5735,93.7494 85.7401,92.7494 85,91.5C 80.5436,86.8898 76.7103,81.8898 73.5,76.5C 72.6586,74.6208 72.3253,72.6208 72.5,70.5 Z"/></g>
<g><path style="opacity:1" fill="#6e4b31" d="M 70.5,83.5 C 71.4153,86.0857 73.082,88.0857 75.5,89.5C 75.4827,91.0281 74.816,91.5281 73.5,91C 71.9586,89.6288 70.6253,88.1288 69.5,86.5C 69.2627,85.209 69.596,84.209 70.5,83.5 Z"/></g>
<g><path style="opacity:1" fill="#6f5d4b" d="M 3.5,71.5 C 7.16667,71.5 10.8333,71.5 14.5,71.5C 13.0813,72.4511 11.4147,72.7845 9.5,72.5C 9.23082,74.4286 9.73082,76.0953 11,77.5C 11.9078,75.5614 13.4078,74.5614 15.5,74.5C 15.1924,76.924 15.5258,79.2573 16.5,81.5C 17.1667,81.1667 17.8333,80.8333 18.5,80.5C 19.3142,78.2338 19.8142,75.9005 20,73.5C 20.3242,75.5689 21.1575,75.9023 22.5,74.5C 24.0208,79.0909 23.6875,83.4243 21.5,87.5C 19.6115,88.604 17.9448,89.9373 16.5,91.5C 15.8902,92.391 15.5569,93.391 15.5,94.5C 17.017,95.7349 18.6837,95.7349 20.5,94.5C 21.2508,95.376 21.7508,96.376 22,97.5C 22.6708,96.7476 23.5041,96.4142 24.5,96.5C 24.5,97.1667 24.8333,97.5 25.5,97.5C 25.5,97.8333 25.5,98.1667 25.5,98.5C 22.2882,100.043 18.9549,101.376 15.5,102.5C 14.8478,101.275 13.6811,100.608 12,100.5C 10.3189,100.608 9.1522,101.275 8.5,102.5C 3.32938,92.6599 1.66271,82.3266 3.5,71.5 Z"/></g>
<g><path style="opacity:1" fill="#ada297" d="M 39.5,83.5 C 40.7978,84.1157 41.7978,84.1157 42.5,83.5C 43.7899,84.0577 44.6232,85.0577 45,86.5C 45.3333,88.5 45.6667,90.5 46,92.5C 46.3333,91.8333 46.6667,91.1667 47,90.5C 47.4974,93.146 47.6641,95.8127 47.5,98.5C 46.9386,99.9085 46.6052,101.408 46.5,103C 47.9774,107.082 48.8107,111.249 49,115.5C 47.3333,112.167 45.6667,108.833 44,105.5C 43.5357,106.094 43.369,106.761 43.5,107.5C 42.6805,104.695 42.1805,101.695 42,98.5C 41.5065,100.134 41.3398,101.801 41.5,103.5C 40.8333,102.167 40.1667,100.833 39.5,99.5C 39.6775,98.3052 40.0109,97.1385 40.5,96C 38.7727,92.7242 38.106,89.2242 38.5,85.5C 38.3284,84.5084 38.6618,83.8417 39.5,83.5 Z"/></g>
<g><path style="opacity:1" fill="#d2bfad" d="M 44.5,81.5 C 44.7598,83.595 45.9264,84.9283 48,85.5C 50.7695,84.6521 53.6029,84.3187 56.5,84.5C 58.1128,85.8381 58.6128,87.5048 58,89.5C 56.9705,86.1247 54.8039,84.9581 51.5,86C 52.2524,86.6708 52.5858,87.5041 52.5,88.5C 51.0099,92.942 50.0099,97.6086 49.5,102.5C 48.8333,101.167 48.1667,99.8333 47.5,98.5C 47.6641,95.8127 47.4974,93.146 47,90.5C 46.6667,91.1667 46.3333,91.8333 46,92.5C 45.6667,90.5 45.3333,88.5 45,86.5C 44.6232,85.0577 43.7899,84.0577 42.5,83.5C 42.1307,81.0065 42.7973,80.3398 44.5,81.5 Z"/></g>
<g><path style="opacity:1" fill="#f3eee8" d="M 56.5,84.5 C 58.1993,84.5271 59.5326,85.1938 60.5,86.5C 61.3382,86.8417 61.6716,87.5084 61.5,88.5C 61.6695,90.8484 62.0029,93.1817 62.5,95.5C 60.4674,99.2165 59.4674,103.217 59.5,107.5C 58.4696,110.104 58.4696,112.771 59.5,115.5C 59.5,115.833 59.5,116.167 59.5,116.5C 58.6851,115.571 57.8518,114.571 57,113.5C 56.1925,109.973 56.3592,106.64 57.5,103.5C 59.0762,99.8449 59.4096,96.0116 58.5,92C 57.8699,90.6898 56.8699,89.8565 55.5,89.5C 54.209,89.7373 53.209,89.404 52.5,88.5C 52.5858,87.5041 52.2524,86.6708 51.5,86C 54.8039,84.9581 56.9705,86.1247 58,89.5C 58.6128,87.5048 58.1128,85.8381 56.5,84.5 Z"/></g>
<g><path style="opacity:1" fill="#e8e2da" d="M 16.5,91.5 C 18.0481,91.8212 18.7148,92.8212 18.5,94.5C 17.5,94.5 16.5,94.5 15.5,94.5C 15.5569,93.391 15.8902,92.391 16.5,91.5 Z"/></g>
<g><path style="opacity:1" fill="#cbc1b7" d="M 55.5,89.5 C 56.8699,89.8565 57.8699,90.6898 58.5,92C 59.4096,96.0116 59.0762,99.8449 57.5,103.5C 57.221,98.7732 56.5544,94.1065 55.5,89.5 Z"/></g>
<g><path style="opacity:1" fill="#a4998d" d="M 35.5,111.5 C 34.2502,111.577 33.4169,112.244 33,113.5C 32.338,111.187 31.838,108.854 31.5,106.5C 33.1765,105.817 33.8432,104.483 33.5,102.5C 33.4699,97.5494 31.1366,96.2161 26.5,98.5C 26.1667,98.5 25.8333,98.5 25.5,98.5C 25.5,98.1667 25.5,97.8333 25.5,97.5C 31.623,96.287 31.4564,94.6204 25,92.5C 24.2496,93.1258 23.4162,93.6258 22.5,94C 23.756,94.4169 24.4226,95.2502 24.5,96.5C 23.5041,96.4142 22.6708,96.7476 22,97.5C 21.7508,96.376 21.2508,95.376 20.5,94.5C 18.6837,95.7349 17.017,95.7349 15.5,94.5C 16.5,94.5 17.5,94.5 18.5,94.5C 18.7148,92.8212 18.0481,91.8212 16.5,91.5C 17.9448,89.9373 19.6115,88.604 21.5,87.5C 22.0431,87.56 22.3764,87.8933 22.5,88.5C 20.5247,89.2752 19.6913,90.6086 20,92.5C 21.8254,91.8971 23.6587,91.2304 25.5,90.5C 26.1279,88.7419 27.1279,87.2419 28.5,86C 29.3317,85.3123 29.9984,85.479 30.5,86.5C 29.407,88.3492 28.0737,90.0158 26.5,91.5C 28.4066,92.3699 30.2399,93.3699 32,94.5C 32.772,94.3552 33.4387,94.0219 34,93.5C 34.2381,97.3735 35.0714,101.04 36.5,104.5C 36.0029,106.818 35.6695,109.152 35.5,111.5 Z"/></g>
<g><path style="opacity:1" fill="#e4d5c5" d="M 25.5,97.5 C 24.8333,97.5 24.5,97.1667 24.5,96.5C 24.4226,95.2502 23.756,94.4169 22.5,94C 23.4162,93.6258 24.2496,93.1258 25,92.5C 31.4564,94.6204 31.623,96.287 25.5,97.5 Z"/></g>
<g><path style="opacity:1" fill="#7a5737" d="M 84.5,94.5 C 83.438,96.2341 83.438,97.9008 84.5,99.5C 83.5084,99.3284 82.8417,99.6618 82.5,100.5C 81.8333,100.5 81.1667,100.5 80.5,100.5C 78.8008,100.66 77.1341,100.494 75.5,100C 76.5,99.6667 77.5,99.3333 78.5,99C 76.8172,97.7137 75.1506,96.547 73.5,95.5C 76.2298,95.5266 78.7298,94.8599 81,93.5C 82.2559,93.6483 83.4226,93.9816 84.5,94.5 Z"/></g>
<g><path style="opacity:0.009" fill="#916e50" d="M -0.5,85.5 C 2.87969,100.922 11.213,112.922 24.5,121.5C 27.4549,123.243 30.1215,125.243 32.5,127.5C 33.0096,132.207 33.8429,136.873 35,141.5C 36.0113,142.337 37.1779,142.67 38.5,142.5C 38.238,143.978 38.5713,145.311 39.5,146.5C 41.5879,147.179 43.5879,147.512 45.5,147.5C 45.0133,148.446 44.6799,149.446 44.5,150.5C 45.5186,152.511 46.5186,154.511 47.5,156.5C 47.8039,157.15 48.1373,157.817 48.5,158.5C 32.1803,159.499 15.8469,159.833 -0.5,159.5C -0.5,138.167 -0.5,116.833 -0.5,95.5C 0.833333,95.1667 0.833333,94.8333 -0.5,94.5C -0.5,91.5 -0.5,88.5 -0.5,85.5 Z M 32.5,145.5 C 33.1174,145.611 33.6174,145.944 34,146.5C 34.6667,148.833 34.6667,151.167 34,153.5C 33.7674,151.22 32.934,149.22 31.5,147.5C 31.8627,146.817 32.1961,146.15 32.5,145.5 Z"/></g>
<g><path style="opacity:1" fill="#948375" d="M 38.5,85.5 C 38.106,89.2242 38.7727,92.7242 40.5,96C 40.0109,97.1385 39.6775,98.3052 39.5,99.5C 39.5,100.167 39.1667,100.5 38.5,100.5C 37.5416,100.047 36.7083,99.3805 36,98.5C 35.6082,94.4724 35.1082,90.4724 34.5,86.5C 35.9587,86.5674 37.2921,86.2341 38.5,85.5 Z"/></g>
<g><path style="opacity:1" fill="#a99788" d="M 72.5,92.5 C 72.5,92.8333 72.5,93.1667 72.5,93.5C 71.0047,93.4148 70.0047,94.0815 69.5,95.5C 70.3482,97.4086 70.6816,99.4086 70.5,101.5C 68.4508,101.706 68.1175,102.539 69.5,104C 67.4144,104.315 65.4144,104.815 63.5,105.5C 63.6658,100.821 63.4992,96.1548 63,91.5C 62.7679,90.2625 62.2679,89.2625 61.5,88.5C 61.6716,87.5084 61.3382,86.8417 60.5,86.5C 60.3691,85.6236 60.7025,84.9569 61.5,84.5C 64.5265,87.9123 66.3598,91.9123 67,96.5C 67.3333,93.8333 67.6667,91.1667 68,88.5C 69.1882,89.5634 69.6882,90.8967 69.5,92.5C 70.5,92.5 71.5,92.5 72.5,92.5 Z"/></g>
<g><path style="opacity:1" fill="#613f2b" d="M 72.5,93.5 C 72.8333,94.1667 73.1667,94.8333 73.5,95.5C 75.1506,96.547 76.8172,97.7137 78.5,99C 77.5,99.3333 76.5,99.6667 75.5,100C 77.1341,100.494 78.8008,100.66 80.5,100.5C 79.4097,101.857 78.0764,102.857 76.5,103.5C 75.1667,103.833 73.8333,104.167 72.5,104.5C 71.0937,104.027 70.427,103.027 70.5,101.5C 70.6816,99.4086 70.3482,97.4086 69.5,95.5C 70.0047,94.0815 71.0047,93.4148 72.5,93.5 Z"/></g>
<g><path style="opacity:1" fill="#624c3c" d="M 33.5,102.5 C 30.5113,102.186 28.178,100.852 26.5,98.5C 31.1366,96.2161 33.4699,97.5494 33.5,102.5 Z"/></g>
<g><path style="opacity:1" fill="#d2c2ac" d="M 15.5,102.5 C 15.1667,102.5 14.8333,102.5 14.5,102.5C 12.5,102.5 10.5,102.5 8.5,102.5C 9.1522,101.275 10.3189,100.608 12,100.5C 13.6811,100.608 14.8478,101.275 15.5,102.5 Z"/></g>
<g><path style="opacity:1" fill="#442111" d="M 25.5,98.5 C 25.8333,98.5 26.1667,98.5 26.5,98.5C 28.178,100.852 30.5113,102.186 33.5,102.5C 33.8432,104.483 33.1765,105.817 31.5,106.5C 31.1667,106.5 30.8333,106.5 30.5,106.5C 29.9717,105.279 29.305,104.113 28.5,103C 25.3035,102.195 22.3035,102.362 19.5,103.5C 17.7839,103.629 16.1172,103.962 14.5,104.5C 14.5,103.833 14.5,103.167 14.5,102.5C 14.8333,102.5 15.1667,102.5 15.5,102.5C 18.9549,101.376 22.2882,100.043 25.5,98.5 Z"/></g>
<g><path style="opacity:1" fill="#a26e33" d="M 84.5,99.5 C 86.4832,99.1568 87.8166,99.8235 88.5,101.5C 88.0679,102.71 87.4013,103.71 86.5,104.5C 85.0813,103.549 83.4147,103.216 81.5,103.5C 82.1098,102.609 82.4431,101.609 82.5,100.5C 82.8417,99.6618 83.5084,99.3284 84.5,99.5 Z"/></g>
<g><path style="opacity:1" fill="#91806b" d="M 30.5,106.5 C 28.3037,106.59 26.137,106.923 24,107.5C 22.6244,107.684 21.7911,108.351 21.5,109.5C 20.5418,107.698 19.8751,105.698 19.5,103.5C 22.3035,102.362 25.3035,102.195 28.5,103C 29.305,104.113 29.9717,105.279 30.5,106.5 Z"/></g>
<g><path style="opacity:1" fill="#942515" d="M 80.5,100.5 C 81.1667,100.5 81.8333,100.5 82.5,100.5C 82.4431,101.609 82.1098,102.609 81.5,103.5C 80.1667,104.167 79.1667,105.167 78.5,106.5C 77.5116,107.795 76.5116,109.128 75.5,110.5C 75.1667,110.5 74.8333,110.5 74.5,110.5C 74.3939,107.921 75.0605,105.588 76.5,103.5C 78.0764,102.857 79.4097,101.857 80.5,100.5 Z"/></g>
<g><path style="opacity:1" fill="#beb1a8" d="M 70.5,101.5 C 70.427,103.027 71.0937,104.027 72.5,104.5C 72.762,105.978 72.4287,107.311 71.5,108.5C 70.3131,107.106 69.6465,107.273 69.5,109C 70.5174,111.787 70.6841,114.62 70,117.5C 69.9274,113.355 68.2607,110.021 65,107.5C 64.6667,108.833 64.3333,110.167 64,111.5C 63.5045,109.527 63.3379,107.527 63.5,105.5C 65.4144,104.815 67.4144,104.315 69.5,104C 68.1175,102.539 68.4508,101.706 70.5,101.5 Z"/></g>
<g><path style="opacity:1" fill="#bd8e4f" d="M 81.5,103.5 C 83.4147,103.216 85.0813,103.549 86.5,104.5C 85.2141,107.117 83.5475,109.45 81.5,111.5C 80.3077,109.887 79.3077,108.22 78.5,106.5C 79.1667,105.167 80.1667,104.167 81.5,103.5 Z"/></g>
<g><path style="opacity:1" fill="#6e6561" d="M 43.5,107.5 C 44.454,110.143 45.454,112.81 46.5,115.5C 45.8333,115.5 45.5,115.833 45.5,116.5C 44.8826,116.389 44.3826,116.056 44,115.5C 42.6409,111.595 41.8076,107.595 41.5,103.5C 41.3398,101.801 41.5065,100.134 42,98.5C 42.1805,101.695 42.6805,104.695 43.5,107.5 Z"/></g>
<g><path style="opacity:1" fill="#f5f1ea" d="M 30.5,106.5 C 30.8333,106.5 31.1667,106.5 31.5,106.5C 31.838,108.854 32.338,111.187 33,113.5C 33.4169,112.244 34.2502,111.577 35.5,111.5C 35.5,112.833 35.5,114.167 35.5,115.5C 35.4397,118.021 36.1064,120.354 37.5,122.5C 37.4573,123.416 37.1239,124.083 36.5,124.5C 32.7073,124.269 29.3739,122.935 26.5,120.5C 25.8698,118.25 24.8698,116.25 23.5,114.5C 23.5,114.167 23.5,113.833 23.5,113.5C 23.573,111.973 22.9063,110.973 21.5,110.5C 21.5,110.167 21.5,109.833 21.5,109.5C 21.7911,108.351 22.6244,107.684 24,107.5C 26.137,106.923 28.3037,106.59 30.5,106.5 Z"/></g>
<g><path style="opacity:1" fill="#a97836" d="M 8.5,102.5 C 10.5,102.5 12.5,102.5 14.5,102.5C 14.5,103.167 14.5,103.833 14.5,104.5C 15.3448,107.543 16.3448,110.543 17.5,113.5C 13.979,110.338 10.979,106.671 8.5,102.5 Z"/></g>
<g><path style="opacity:1" fill="#e4ddd6" d="M 53.5,117.5 C 54.2653,120.096 54.5987,122.763 54.5,125.5C 53.209,125.263 52.209,125.596 51.5,126.5C 50.8333,126.5 50.1667,126.5 49.5,126.5C 51.0861,123.784 50.7528,121.45 48.5,119.5C 48.2671,117.938 47.6005,116.605 46.5,115.5C 45.454,112.81 44.454,110.143 43.5,107.5C 43.369,106.761 43.5357,106.094 44,105.5C 45.6667,108.833 47.3333,112.167 49,115.5C 48.8107,111.249 47.9774,107.082 46.5,103C 46.6052,101.408 46.9386,99.9085 47.5,98.5C 48.1667,99.8333 48.8333,101.167 49.5,102.5C 50.209,103.404 51.209,103.737 52.5,103.5C 52.1814,101.25 52.6814,99.2495 54,97.5C 54.498,100.482 54.6646,103.482 54.5,106.5C 52.712,106.215 51.0453,106.548 49.5,107.5C 51.0591,110.865 52.3924,114.198 53.5,117.5 Z"/></g>
<g><path style="opacity:1" fill="#a82d17" d="M 19.5,103.5 C 19.8751,105.698 20.5418,107.698 21.5,109.5C 21.5,109.833 21.5,110.167 21.5,110.5C 21.427,112.027 22.0937,113.027 23.5,113.5C 23.5,113.833 23.5,114.167 23.5,114.5C 23.762,115.978 23.4287,117.311 22.5,118.5C 20.4788,117.145 18.8121,115.479 17.5,113.5C 16.3448,110.543 15.3448,107.543 14.5,104.5C 16.1172,103.962 17.7839,103.629 19.5,103.5 Z"/></g>
<g><path style="opacity:1" fill="#b47e82" d="M 21.5,110.5 C 22.9063,110.973 23.573,111.973 23.5,113.5C 22.0937,113.027 21.427,112.027 21.5,110.5 Z"/></g>
<g><path style="opacity:1" fill="#e0c099" d="M 78.5,106.5 C 79.3077,108.22 80.3077,109.887 81.5,111.5C 79.8155,115.252 77.1488,116.586 73.5,115.5C 73.8925,113.716 74.5592,112.05 75.5,110.5C 76.5116,109.128 77.5116,107.795 78.5,106.5 Z"/></g>
<g><path style="opacity:1" fill="#d0c9c2" d="M 39.5,99.5 C 40.1667,100.833 40.8333,102.167 41.5,103.5C 41.8076,107.595 42.6409,111.595 44,115.5C 44.3826,116.056 44.8826,116.389 45.5,116.5C 46.038,118.117 46.3713,119.784 46.5,121.5C 46.67,122.822 46.3366,123.989 45.5,125C 43.5273,125.495 41.5273,125.662 39.5,125.5C 38.209,125.737 37.209,125.404 36.5,124.5C 37.1239,124.083 37.4573,123.416 37.5,122.5C 36.1064,120.354 35.4397,118.021 35.5,115.5C 37.7819,118.122 40.1152,120.788 42.5,123.5C 42.8333,122.833 43.1667,122.167 43.5,121.5C 42.2331,119.056 40.7331,116.723 39,114.5C 38.5008,109.845 38.3342,105.179 38.5,100.5C 39.1667,100.5 39.5,100.167 39.5,99.5 Z"/></g>
<g><path style="opacity:1" fill="#bbb0a5" d="M 59.5,107.5 C 60.8994,109.942 62.566,112.276 64.5,114.5C 63.8333,115.167 63.1667,115.833 62.5,116.5C 63.5896,117.609 63.5896,118.609 62.5,119.5C 61.1408,118.376 60.1408,117.042 59.5,115.5C 58.4696,112.771 58.4696,110.104 59.5,107.5 Z"/></g>
<g><path style="opacity:0.004" fill="#926f50" d="M 104.5,113.5 C 104.5,128.833 104.5,144.167 104.5,159.5C 92.6547,159.828 80.988,159.495 69.5,158.5C 70.4511,157.081 70.7845,155.415 70.5,153.5C 71.8333,153.5 73.1667,153.5 74.5,153.5C 74.2837,151.319 75.117,149.653 77,148.5C 76.5335,142.36 78.3668,137.194 82.5,133C 84.1667,132.667 85.8333,132.333 87.5,132C 90.378,127.144 94.378,123.644 99.5,121.5C 100.31,119.202 101.144,116.868 102,114.5C 102.671,113.748 103.504,113.414 104.5,113.5 Z"/></g>
<g><path style="opacity:1" fill="#a99d92" d="M 52.5,88.5 C 53.209,89.404 54.209,89.7373 55.5,89.5C 56.5544,94.1065 57.221,98.7732 57.5,103.5C 56.3592,106.64 56.1925,109.973 57,113.5C 57.8518,114.571 58.6851,115.571 59.5,116.5C 58.9045,119.113 58.0712,119.113 57,116.5C 56.5357,117.094 56.369,117.761 56.5,118.5C 55.834,115.642 55.1674,112.642 54.5,109.5C 53.52,112.086 53.1866,114.753 53.5,117.5C 52.3924,114.198 51.0591,110.865 49.5,107.5C 51.0453,106.548 52.712,106.215 54.5,106.5C 54.6646,103.482 54.498,100.482 54,97.5C 52.6814,99.2495 52.1814,101.25 52.5,103.5C 51.209,103.737 50.209,103.404 49.5,102.5C 50.0099,97.6086 51.0099,92.942 52.5,88.5 Z"/></g>
<g><path style="opacity:1" fill="#79665b" d="M 56.5,118.5 C 56.8333,120.5 57.1667,122.5 57.5,124.5C 58.8333,124.5 60.1667,124.5 61.5,124.5C 58.4115,125.785 55.0781,126.451 51.5,126.5C 52.209,125.596 53.209,125.263 54.5,125.5C 54.5987,122.763 54.2653,120.096 53.5,117.5C 53.1866,114.753 53.52,112.086 54.5,109.5C 55.1674,112.642 55.834,115.642 56.5,118.5 Z"/></g>
<g><path style="opacity:0.996" fill="#8d453b" d="M 74.5,110.5 C 74.8333,110.5 75.1667,110.5 75.5,110.5C 74.5592,112.05 73.8925,113.716 73.5,115.5C 73.8333,116.833 74.1667,118.167 74.5,119.5C 72.094,121.531 69.4273,123.198 66.5,124.5C 65.537,124.03 65.537,123.363 66.5,122.5C 71.7055,120.722 73.8722,117.055 73,111.5C 73.3826,110.944 73.8826,110.611 74.5,110.5 Z"/></g>
<g><path style="opacity:1" fill="#ded3ca" d="M 61.5,88.5 C 62.2679,89.2625 62.7679,90.2625 63,91.5C 63.4992,96.1548 63.6658,100.821 63.5,105.5C 63.3379,107.527 63.5045,109.527 64,111.5C 64.3333,110.167 64.6667,108.833 65,107.5C 68.2607,110.021 69.9274,113.355 70,117.5C 70.6841,114.62 70.5174,111.787 69.5,109C 69.6465,107.273 70.3131,107.106 71.5,108.5C 72.4287,107.311 72.762,105.978 72.5,104.5C 73.8333,104.167 75.1667,103.833 76.5,103.5C 75.0605,105.588 74.3939,107.921 74.5,110.5C 73.8826,110.611 73.3826,110.944 73,111.5C 73.8722,117.055 71.7055,120.722 66.5,122.5C 64.597,122.796 62.9303,123.463 61.5,124.5C 60.1667,124.5 58.8333,124.5 57.5,124.5C 57.1667,122.5 56.8333,120.5 56.5,118.5C 56.369,117.761 56.5357,117.094 57,116.5C 58.0712,119.113 58.9045,119.113 59.5,116.5C 59.5,116.167 59.5,115.833 59.5,115.5C 60.1408,117.042 61.1408,118.376 62.5,119.5C 63.5896,118.609 63.5896,117.609 62.5,116.5C 63.1667,115.833 63.8333,115.167 64.5,114.5C 62.566,112.276 60.8994,109.942 59.5,107.5C 59.4674,103.217 60.4674,99.2165 62.5,95.5C 62.0029,93.1817 61.6695,90.8484 61.5,88.5 Z"/></g>
<g><path style="opacity:1" fill="#403129" d="M 46.5,115.5 C 47.6005,116.605 48.2671,117.938 48.5,119.5C 49.9887,123.354 49.322,124.021 46.5,121.5C 46.3713,119.784 46.038,118.117 45.5,116.5C 45.5,115.833 45.8333,115.5 46.5,115.5 Z"/></g>
<g><path style="opacity:1" fill="#b19f96" d="M 48.5,119.5 C 50.7528,121.45 51.0861,123.784 49.5,126.5C 46.5,126.5 43.5,126.5 40.5,126.5C 39.8333,126.5 39.5,126.167 39.5,125.5C 41.5273,125.662 43.5273,125.495 45.5,125C 46.3366,123.989 46.67,122.822 46.5,121.5C 49.322,124.021 49.9887,123.354 48.5,119.5 Z"/></g>
<g><path style="opacity:0.841" fill="#714e3b" d="M 92.5,101.5 C 92.4035,104.956 91.4035,108.123 89.5,111C 85.1667,114.667 80.8333,118.333 76.5,122C 73.0315,122.987 69.6982,124.321 66.5,126C 65.7476,126.671 65.4142,127.504 65.5,128.5C 64.2223,128.782 63.2223,129.449 62.5,130.5C 59.0855,130.739 55.9188,130.072 53,128.5C 50.3333,129.833 47.6667,129.833 45,128.5C 43.124,128.525 41.624,129.191 40.5,130.5C 37.3552,130.507 34.6885,129.507 32.5,127.5C 30.1215,125.243 27.4549,123.243 24.5,121.5C 25.4916,121.672 26.1583,121.338 26.5,120.5C 29.3739,122.935 32.7073,124.269 36.5,124.5C 37.209,125.404 38.209,125.737 39.5,125.5C 39.5,126.167 39.8333,126.5 40.5,126.5C 48.5032,128.058 56.5032,127.558 64.5,125C 63.552,124.517 62.552,124.351 61.5,124.5C 62.9303,123.463 64.597,122.796 66.5,122.5C 65.537,123.363 65.537,124.03 66.5,124.5C 69.4273,123.198 72.094,121.531 74.5,119.5C 77.4539,117.72 80.2872,115.72 83,113.5C 86.4465,109.543 89.6132,105.543 92.5,101.5 Z"/></g>
<g><path style="opacity:1" fill="#662a21" d="M 61.5,124.5 C 62.552,124.351 63.552,124.517 64.5,125C 56.5032,127.558 48.5032,128.058 40.5,126.5C 43.5,126.5 46.5,126.5 49.5,126.5C 50.1667,126.5 50.8333,126.5 51.5,126.5C 55.0781,126.451 58.4115,125.785 61.5,124.5 Z"/></g>
<g><path style="opacity:0.999" fill="#631612" d="M 32.5,127.5 C 34.6885,129.507 37.3552,130.507 40.5,130.5C 41.4916,130.328 42.1583,130.662 42.5,131.5C 41.3709,133.628 41.2042,135.961 42,138.5C 43.9773,141.312 46.144,143.978 48.5,146.5C 51.3243,143.542 54.1576,140.542 57,137.5C 57.7796,135.613 57.6129,133.946 56.5,132.5C 58.5,131.833 60.5,131.167 62.5,130.5C 63.2223,129.449 64.2223,128.782 65.5,128.5C 65.8333,128.5 66.1667,128.5 66.5,128.5C 66.5,129.167 66.5,129.833 66.5,130.5C 66.7709,132.38 66.1042,133.713 64.5,134.5C 63.5318,136.607 63.1984,138.941 63.5,141.5C 61.0509,140.943 58.7175,140.943 56.5,141.5C 58.1045,143.179 58.7711,145.179 58.5,147.5C 56.7376,147.643 55.0709,147.309 53.5,146.5C 52.9478,148.003 52.9478,149.669 53.5,151.5C 51.7726,153.567 49.7726,155.233 47.5,156.5C 46.5186,154.511 45.5186,152.511 44.5,150.5C 44.6799,149.446 45.0133,148.446 45.5,147.5C 43.5879,147.512 41.5879,147.179 39.5,146.5C 38.5713,145.311 38.238,143.978 38.5,142.5C 37.1779,142.67 36.0113,142.337 35,141.5C 33.8429,136.873 33.0096,132.207 32.5,127.5 Z"/></g>
<g><path style="opacity:0.99" fill="#6c3024" d="M 62.5,130.5 C 60.5,131.167 58.5,131.833 56.5,132.5C 55.3478,131.375 54.3478,131.375 53.5,132.5C 50.8333,132.5 48.1667,132.5 45.5,132.5C 46.0764,130.217 45.0764,129.883 42.5,131.5C 42.1583,130.662 41.4916,130.328 40.5,130.5C 41.624,129.191 43.124,128.525 45,128.5C 47.6667,129.833 50.3333,129.833 53,128.5C 55.9188,130.072 59.0855,130.739 62.5,130.5 Z"/></g>
<g><path style="opacity:0.784" fill="#734f39" d="M 45.5,132.5 C 43.7274,133.314 43.2274,134.648 44,136.5C 45.314,138.812 46.9806,140.812 49,142.5C 52.7883,139.966 54.2883,136.633 53.5,132.5C 54.3478,131.375 55.3478,131.375 56.5,132.5C 57.6129,133.946 57.7796,135.613 57,137.5C 54.1576,140.542 51.3243,143.542 48.5,146.5C 46.144,143.978 43.9773,141.312 42,138.5C 41.2042,135.961 41.3709,133.628 42.5,131.5C 45.0764,129.883 46.0764,130.217 45.5,132.5 Z"/></g>
<g><path style="opacity:1" fill="#621310" d="M 45.5,132.5 C 48.1667,132.5 50.8333,132.5 53.5,132.5C 54.2883,136.633 52.7883,139.966 49,142.5C 46.9806,140.812 45.314,138.812 44,136.5C 43.2274,134.648 43.7274,133.314 45.5,132.5 Z"/></g>
<g><path style="opacity:0.4" fill="#6f4936" d="M 64.5,134.5 C 64.5,137.5 64.5,140.5 64.5,143.5C 63.1667,143.5 61.8333,143.5 60.5,143.5C 60.6602,145.199 60.4935,146.866 60,148.5C 57.6252,149.129 55.4586,150.129 53.5,151.5C 52.9478,149.669 52.9478,148.003 53.5,146.5C 55.0709,147.309 56.7376,147.643 58.5,147.5C 58.7711,145.179 58.1045,143.179 56.5,141.5C 58.7175,140.943 61.0509,140.943 63.5,141.5C 63.1984,138.941 63.5318,136.607 64.5,134.5 Z"/></g>
<g><path style="opacity:0.038" fill="#7f6349" d="M 66.5,130.5 C 67.6839,135.103 67.3505,139.769 65.5,144.5C 60.5438,148.503 56.2105,153.169 52.5,158.5C 53.3333,158.833 54.1667,159.167 55,159.5C 56.3756,159.316 57.2089,158.649 57.5,157.5C 61.3998,158.43 65.3998,158.763 69.5,158.5C 80.988,159.495 92.6547,159.828 104.5,159.5C 104.5,159.833 104.5,160.167 104.5,160.5C 69.5,160.5 34.5,160.5 -0.5,160.5C -0.5,160.167 -0.5,159.833 -0.5,159.5C 15.8469,159.833 32.1803,159.499 48.5,158.5C 48.1373,157.817 47.8039,157.15 47.5,156.5C 49.7726,155.233 51.7726,153.567 53.5,151.5C 55.4586,150.129 57.6252,149.129 60,148.5C 60.4935,146.866 60.6602,145.199 60.5,143.5C 61.8333,143.5 63.1667,143.5 64.5,143.5C 64.5,140.5 64.5,137.5 64.5,134.5C 66.1042,133.713 66.7709,132.38 66.5,130.5 Z"/></g>
</svg>
