<?xml version="1.0" encoding="UTF-8"?>
<!DOCTYPE svg PUBLIC "-//W3C//DTD SVG 1.1//EN" "http://www.w3.org/Graphics/SVG/1.1/DTD/svg11.dtd">
<svg xmlns="http://www.w3.org/2000/svg" version="1.1" width="105px" height="161px" style="shape-rendering:geometricPrecision; text-rendering:geometricPrecision; image-rendering:optimizeQuality; fill-rule:evenodd; clip-rule:evenodd" xmlns:xlink="http://www.w3.org/1999/xlink">
<g><path style="opacity:0.007" fill="#916e4f" d="M 33.5,-0.5 C 57.1667,-0.5 80.8333,-0.5 104.5,-0.5C 104.5,19.8333 104.5,40.1667 104.5,60.5C 103.07,60.5792 101.736,60.2458 100.5,59.5C 100.167,60.3333 99.8333,61.1667 99.5,62C 100.832,66.3312 102.165,70.6645 103.5,75C 103.011,76.1385 102.678,77.3052 102.5,78.5C 100.849,73.9032 99.5154,69.0699 98.5,64C 97.9915,62.8315 97.1581,61.9981 96,61.5C 95.5709,57.3196 94.0709,53.6529 91.5,50.5C 93.8056,50.0074 96.139,49.6741 98.5,49.5C 99.1437,44.2133 98.8104,38.8799 97.5,33.5C 95.057,31.9447 92.3903,31.278 89.5,31.5C 89.6602,29.8008 89.4935,28.1341 89,26.5C 86.6806,22.3572 84.1806,18.3572 81.5,14.5C 76.1988,12.0938 71.1988,12.4272 66.5,15.5C 65.8333,15.5 65.5,15.8333 65.5,16.5C 65.5,17.1667 65.5,17.8333 65.5,18.5C 64.7464,22.4193 66.0797,23.7527 69.5,22.5C 68.7542,21.2638 68.4208,19.9305 68.5,18.5C 73.5628,19.9217 74.5628,22.755 71.5,27C 67.9075,27.3044 64.5742,26.4711 61.5,24.5C 63.25,20.5818 62.5834,17.2485 59.5,14.5C 58.4324,13.5655 57.099,13.2322 55.5,13.5C 55.7271,11.0672 54.7271,9.40058 52.5,8.5C 52.573,6.97306 51.9063,5.97306 50.5,5.5C 49.2946,4.31434 47.9613,4.31434 46.5,5.5C 46.5654,5.06178 46.3988,4.72845 46,4.5C 44.8129,6.04442 44.4795,7.71109 45,9.5C 45.2784,8.5842 45.7784,7.91753 46.5,7.5C 46.8426,12.0411 46.8426,16.3744 46.5,20.5C 45.3882,17.0536 43.0548,15.0536 39.5,14.5C 39.3398,16.1992 39.5065,17.8659 40,19.5C 41.6667,20.7332 43.1667,22.0665 44.5,23.5C 44.5,23.8333 44.5,24.1667 44.5,24.5C 38.9363,24.2825 33.603,25.2825 28.5,27.5C 27.5581,27.3918 26.7247,27.0585 26,26.5C 24.5233,22.0022 26.0233,19.8355 30.5,20C 29.6634,21.0113 29.33,22.1779 29.5,23.5C 30.8221,23.67 31.9887,23.3366 33,22.5C 33.6004,19.9047 33.1004,17.5713 31.5,15.5C 33.5,16.8333 35.5,18.1667 37.5,19.5C 37.3253,17.3792 37.6586,15.3792 38.5,13.5C 37.5041,13.4142 36.6708,13.7476 36,14.5C 35.2613,13.4258 34.2613,12.7591 33,12.5C 30.5,13.3333 28,14.1667 25.5,15C 24.7476,15.6708 24.4142,16.5041 24.5,17.5C 22.0882,17.6941 21.0882,19.0274 21.5,21.5C 20.2437,23.7257 20.2437,26.059 21.5,28.5C 19.2181,27.6103 16.8848,27.4436 14.5,28C 13.244,28.4169 12.5774,29.2502 12.5,30.5C 11.8333,30.5 11.5,30.8333 11.5,31.5C 7.9303,33.8966 7.59696,36.8966 10.5,40.5C 10.9569,41.2975 11.6236,41.6309 12.5,41.5C 11.2702,39.7028 10.6036,37.7028 10.5,35.5C 12.1638,37.4079 13.8305,39.4079 15.5,41.5C 11.5271,46.092 8.02706,51.092 5,56.5C 2.80822,61.8456 0.97489,67.179 -0.5,72.5C -0.5,69.8333 -0.5,67.1667 -0.5,64.5C 1.07394,62.8984 1.74061,60.8984 1.5,58.5C 0.833333,58.8333 0.166667,59.1667 -0.5,59.5C -0.5,43.1667 -0.5,26.8333 -0.5,10.5C 10.8333,10.5 22.1667,10.5 33.5,10.5C 33.5,6.83333 33.5,3.16667 33.5,-0.5 Z M 46.5,5.5 C 46.5,6.16667 46.5,6.83333 46.5,7.5C 45.7784,7.91753 45.2784,8.5842 45,9.5C 44.4795,7.71109 44.8129,6.04442 46,4.5C 46.3988,4.72845 46.5654,5.06178 46.5,5.5 Z M 38.5,13.5 C 37.6586,15.3792 37.3253,17.3792 37.5,19.5C 35.5,18.1667 33.5,16.8333 31.5,15.5C 30.5,15.5 29.5,15.5 28.5,15.5C 27.1667,16.1667 25.8333,16.8333 24.5,17.5C 24.4142,16.5041 24.7476,15.6708 25.5,15C 28,14.1667 30.5,13.3333 33,12.5C 34.2613,12.7591 35.2613,13.4258 36,14.5C 36.6708,13.7476 37.5041,13.4142 38.5,13.5 Z M 89.5,31.5 C 86.3,30.1604 82.6333,28.9937 78.5,28C 79.1667,27.3333 79.8333,26.6667 80.5,26C 78.5322,22.0401 75.8655,18.7068 72.5,16C 70.5273,15.5045 68.5273,15.3379 66.5,15.5C 71.1988,12.4272 76.1988,12.0938 81.5,14.5C 84.1806,18.3572 86.6806,22.3572 89,26.5C 89.4935,28.1341 89.6602,29.8008 89.5,31.5 Z M 24.5,17.5 C 24.2014,19.4553 23.2014,20.7886 21.5,21.5C 21.0882,19.0274 22.0882,17.6941 24.5,17.5 Z M 21.5,21.5 C 21.6741,23.861 22.0074,26.1944 22.5,28.5C 22.1667,28.5 21.8333,28.5 21.5,28.5C 20.2437,26.059 20.2437,23.7257 21.5,21.5 Z M 21.5,28.5 C 21.1583,29.3382 20.4916,29.6716 19.5,29.5C 17.0504,29.298 14.717,29.6314 12.5,30.5C 12.5774,29.2502 13.244,28.4169 14.5,28C 16.8848,27.4436 19.2181,27.6103 21.5,28.5 Z M 11.5,31.5 C 11.1667,32.8333 10.8333,34.1667 10.5,35.5C 10.6036,37.7028 11.2702,39.7028 12.5,41.5C 11.6236,41.6309 10.9569,41.2975 10.5,40.5C 7.59696,36.8966 7.9303,33.8966 11.5,31.5 Z M 89.5,31.5 C 92.3903,31.278 95.057,31.9447 97.5,33.5C 98.8104,38.8799 99.1437,44.2133 98.5,49.5C 96.139,49.6741 93.8056,50.0074 91.5,50.5C 90.8825,48.7708 89.8825,47.2708 88.5,46C 89.9125,42.2958 90.9125,38.4624 91.5,34.5C 90.8075,33.4822 90.1408,32.4822 89.5,31.5 Z M 12.5,43.5 C 12.1667,44.5 11.5,45.1667 10.5,45.5C 10.5,44.1667 11.1667,43.5 12.5,43.5 Z M 4.5,53.5 C 4.46141,52.2438 4.96141,51.2438 6,50.5C 6.5847,51.9976 6.0847,52.9976 4.5,53.5 Z M 4.5,53.5 C 4.25027,55.674 3.25027,57.3406 1.5,58.5C 1.2729,56.0672 2.2729,54.4006 4.5,53.5 Z"/></g>
<g><path style="opacity:0.996" fill="#62100e" d="M 50.5,5.5 C 51.9063,5.97306 52.573,6.97306 52.5,8.5C 52.9693,12.9104 51.9693,16.9104 49.5,20.5C 47.7191,15.972 47.2191,11.3053 48,6.5C 48.6708,5.74756 49.5041,5.41423 50.5,5.5 Z"/></g>
<g><path style="opacity:1" fill="#651c16" d="M 46.5,20.5 C 46.4142,21.4959 46.7476,22.3292 47.5,23C 46.552,23.4828 45.552,23.6495 44.5,23.5C 43.1667,22.0665 41.6667,20.7332 40,19.5C 39.5065,17.8659 39.3398,16.1992 39.5,14.5C 43.0548,15.0536 45.3882,17.0536 46.5,20.5 Z"/></g>
<g><path style="opacity:0.44" fill="#79513b" d="M 50.5,5.5 C 49.5041,5.41423 48.6708,5.74756 48,6.5C 47.2191,11.3053 47.7191,15.972 49.5,20.5C 51.9693,16.9104 52.9693,12.9104 52.5,8.5C 54.7271,9.40058 55.7271,11.0672 55.5,13.5C 57.099,13.2322 58.4324,13.5655 59.5,14.5C 62.5834,17.2485 63.25,20.5818 61.5,24.5C 56.5763,23.9621 52.5763,25.6288 49.5,29.5C 47.4788,28.1455 45.8121,26.4788 44.5,24.5C 44.5,24.1667 44.5,23.8333 44.5,23.5C 45.552,23.6495 46.552,23.4828 47.5,23C 46.7476,22.3292 46.4142,21.4959 46.5,20.5C 46.8426,16.3744 46.8426,12.0411 46.5,7.5C 46.5,6.83333 46.5,6.16667 46.5,5.5C 47.9613,4.31434 49.2946,4.31434 50.5,5.5 Z"/></g>
<g><path style="opacity:1" fill="#651914" d="M 59.5,14.5 C 59.3542,18.619 57.3542,21.619 53.5,23.5C 53.1667,22.8333 52.8333,22.1667 52.5,21.5C 53.5314,19.6178 54.3647,17.6178 55,15.5C 56.3561,14.6198 57.8561,14.2865 59.5,14.5 Z"/></g>
<g><path style="opacity:0.796" fill="#6d2d21" d="M 28.5,15.5 C 29.5,15.5 30.5,15.5 31.5,15.5C 33.1004,17.5713 33.6004,19.9047 33,22.5C 31.9887,23.3366 30.8221,23.67 29.5,23.5C 29.33,22.1779 29.6634,21.0113 30.5,20C 26.0233,19.8355 24.5233,22.0022 26,26.5C 26.7247,27.0585 27.5581,27.3918 28.5,27.5C 33.603,25.2825 38.9363,24.2825 44.5,24.5C 45.8121,26.4788 47.4788,28.1455 49.5,29.5C 52.5763,25.6288 56.5763,23.9621 61.5,24.5C 64.5742,26.4711 67.9075,27.3044 71.5,27C 74.5628,22.755 73.5628,19.9217 68.5,18.5C 68.4208,19.9305 68.7542,21.2638 69.5,22.5C 66.0797,23.7527 64.7464,22.4193 65.5,18.5C 69.2118,15.913 72.3784,16.5797 75,20.5C 76.4267,25.5835 74.5933,28.9168 69.5,30.5C 70.5244,31.8518 71.5244,33.1851 72.5,34.5C 71.7354,34.9234 70.9021,35.2568 70,35.5C 68.1208,33.9872 65.9541,33.3205 63.5,33.5C 61.5165,33.3832 59.8498,34.0499 58.5,35.5C 57.1552,34.6533 56.1552,33.4866 55.5,32C 54.2068,31.51 52.8734,31.3433 51.5,31.5C 49.8333,31.5 48.1667,31.5 46.5,31.5C 46.1667,31.5 45.8333,31.5 45.5,31.5C 43.901,31.2322 42.5676,31.5655 41.5,32.5C 40.1667,32.5 38.8333,32.5 37.5,32.5C 33.0436,33.3652 28.7103,34.6985 24.5,36.5C 26.1436,34.5193 27.8103,32.5193 29.5,30.5C 23.634,28.7431 22.134,25.0765 25,19.5C 26.6268,18.4677 27.7934,17.1344 28.5,15.5 Z"/></g>
<g><path style="opacity:0.206" fill="#7d5a41" d="M 37.5,26.5 C 41.0798,25.9228 44.0798,26.9228 46.5,29.5C 42.8261,30.2325 39.1594,30.8992 35.5,31.5C 34.4173,30.635 34.2506,29.635 35,28.5C 35.9947,27.9341 36.828,27.2674 37.5,26.5 Z"/></g>
<g><path style="opacity:0.047" fill="#876146" d="M 28.5,15.5 C 27.7934,17.1344 26.6268,18.4677 25,19.5C 22.134,25.0765 23.634,28.7431 29.5,30.5C 27.8103,32.5193 26.1436,34.5193 24.5,36.5C 22.6675,37.2485 21.0009,38.2485 19.5,39.5C 14.6724,39.6148 13.3391,37.4481 15.5,33C 15.8333,32.8333 16.1667,32.6667 16.5,32.5C 17.4287,33.6888 17.762,35.0222 17.5,36.5C 18.5,36.5 19.5,36.5 20.5,36.5C 20.702,34.0504 20.3686,31.717 19.5,29.5C 20.4916,29.6716 21.1583,29.3382 21.5,28.5C 21.8333,28.5 22.1667,28.5 22.5,28.5C 22.0074,26.1944 21.6741,23.861 21.5,21.5C 23.2014,20.7886 24.2014,19.4553 24.5,17.5C 25.8333,16.8333 27.1667,16.1667 28.5,15.5 Z"/></g>
<g><path style="opacity:0.22" fill="#825f45" d="M 55.5,26.5 C 60.0218,25.6203 63.3552,27.1203 65.5,31C 65.1667,31.5 64.8333,32 64.5,32.5C 60.717,30.9763 56.717,29.9763 52.5,29.5C 53.7701,28.7124 54.7701,27.7124 55.5,26.5 Z"/></g>
<g><path style="opacity:1" fill="#4c3814" d="M 37.5,32.5 C 38.8333,32.5 40.1667,32.5 41.5,32.5C 40.8041,36.5544 39.1375,37.2211 36.5,34.5C 36.8333,33.8333 37.1667,33.1667 37.5,32.5 Z"/></g>
<g><path style="opacity:0.943" fill="#723225" d="M 19.5,29.5 C 20.3686,31.717 20.702,34.0504 20.5,36.5C 19.5,36.5 18.5,36.5 17.5,36.5C 17.762,35.0222 17.4287,33.6888 16.5,32.5C 16.1667,32.6667 15.8333,32.8333 15.5,33C 13.3391,37.4481 14.6724,39.6148 19.5,39.5C 18.1667,40.1667 16.8333,40.8333 15.5,41.5C 13.8305,39.4079 12.1638,37.4079 10.5,35.5C 10.8333,34.1667 11.1667,32.8333 11.5,31.5C 12.1667,31.5 12.5,31.1667 12.5,30.5C 14.717,29.6314 17.0504,29.298 19.5,29.5 Z"/></g>
<g><path style="opacity:1" fill="#56451c" d="M 31.5,35.5 C 31.5,36.8333 31.5,38.1667 31.5,39.5C 29.5853,39.7845 27.9187,39.4511 26.5,38.5C 27.6594,36.7497 29.326,35.7497 31.5,35.5 Z"/></g>
<g><path style="opacity:1" fill="#1e1706" d="M 45.5,31.5 C 45.8333,31.5 46.1667,31.5 46.5,31.5C 46.4176,33.2517 47.2509,34.2517 49,34.5C 50.7491,34.2517 51.5824,33.2517 51.5,31.5C 52.8734,31.3433 54.2068,31.51 55.5,32C 56.1552,33.4866 57.1552,34.6533 58.5,35.5C 59.8498,34.0499 61.5165,33.3832 63.5,33.5C 69.7,36.6929 75.3667,40.6929 80.5,45.5C 78.9468,47.385 76.9468,48.385 74.5,48.5C 71.6737,48.0023 69.3403,46.6689 67.5,44.5C 66.0975,43.0688 64.4308,41.9022 62.5,41C 56.8913,39.6159 51.2247,39.2825 45.5,40C 41.988,41.3144 38.3214,42.3144 34.5,43C 31.9638,45.705 29.2971,48.205 26.5,50.5C 24.9382,50.7329 23.6049,51.3995 22.5,52.5C 24.0068,49.4969 26.0068,46.8302 28.5,44.5C 35.4293,40.6905 42.7627,38.1905 50.5,37C 47.2277,36.5635 45.561,34.7301 45.5,31.5 Z"/></g>
<g><path style="opacity:1" fill="#554114" d="M 46.5,31.5 C 48.1667,31.5 49.8333,31.5 51.5,31.5C 51.5824,33.2517 50.7491,34.2517 49,34.5C 47.2509,34.2517 46.4176,33.2517 46.5,31.5 Z"/></g>
<g><path style="opacity:1" fill="#140e03" d="M 45.5,31.5 C 45.561,34.7301 47.2277,36.5635 50.5,37C 42.7627,38.1905 35.4293,40.6905 28.5,44.5C 26.0068,46.8302 24.0068,49.4969 22.5,52.5C 21.1154,53.5736 19.9487,54.9069 19,56.5C 16.6133,63.6837 14.4466,70.6837 12.5,77.5C 8.03981,76.7943 7.53981,75.1277 11,72.5C 12.1603,67.8479 10.3269,65.8479 5.5,66.5C 5.26269,65.209 5.59603,64.209 6.5,63.5C 11.9071,64.8196 14.5737,62.8196 14.5,57.5C 12.7085,57.634 11.0418,57.3007 9.5,56.5C 9.42702,54.9731 10.0937,53.9731 11.5,53.5C 14.9496,54.2436 16.6162,52.9103 16.5,49.5C 15.5,49.5 14.5,49.5 13.5,49.5C 14.5,47.8333 15.8333,46.5 17.5,45.5C 19.8333,45.5 22.1667,45.5 24.5,45.5C 24.7709,43.6203 24.1042,42.287 22.5,41.5C 23.2623,39.7376 24.5956,38.7376 26.5,38.5C 27.9187,39.4511 29.5853,39.7845 31.5,39.5C 31.5,38.1667 31.5,36.8333 31.5,35.5C 33.0418,34.6993 34.7085,34.366 36.5,34.5C 39.1375,37.2211 40.8041,36.5544 41.5,32.5C 42.5676,31.5655 43.901,31.2322 45.5,31.5 Z"/></g>
<g><path style="opacity:0.929" fill="#642017" d="M 95.5,65.5 C 95.366,67.2915 95.6993,68.9582 96.5,70.5C 96.8696,76.9251 96.3696,83.2584 95,89.5C 94.5172,88.552 94.3505,87.552 94.5,86.5C 94.5,85.1667 94.5,83.8333 94.5,82.5C 94.8128,78.9581 94.4794,75.6248 93.5,72.5C 93.5674,71.0413 93.2341,69.7079 92.5,68.5C 92.634,66.7085 92.3007,65.0418 91.5,63.5C 91.0113,62.0048 90.3446,60.6715 89.5,59.5C 89.3465,57.0301 88.3465,55.0301 86.5,53.5C 86.6716,52.5084 86.3382,51.8417 85.5,51.5C 84.5569,48.8908 82.8903,46.8908 80.5,45.5C 75.3667,40.6929 69.7,36.6929 63.5,33.5C 65.9541,33.3205 68.1208,33.9872 70,35.5C 70.9021,35.2568 71.7354,34.9234 72.5,34.5C 74.3386,35.5077 75.6719,37.0077 76.5,39C 81.8353,40.1667 84.1686,38.0001 83.5,32.5C 82.5,32.5 81.5,32.5 80.5,32.5C 80.5,33.5 80.5,34.5 80.5,35.5C 79.5,35.5 78.5,35.5 77.5,35.5C 77.0826,30.9315 79.0826,29.4315 83.5,31C 85.4439,33.1529 85.9439,35.6529 85,38.5C 83.6632,39.9045 82.4965,41.4045 81.5,43C 88.087,49.3962 92.7536,56.8962 95.5,65.5 Z"/></g>
<g><path style="opacity:1" fill="#4d3f1c" d="M 22.5,41.5 C 24.1042,42.287 24.7709,43.6203 24.5,45.5C 22.1667,45.5 19.8333,45.5 17.5,45.5C 18.5846,43.4131 20.2512,42.0798 22.5,41.5 Z"/></g>
<g><path style="opacity:1" fill="#433122" d="M 67.5,44.5 C 63.8049,44.1863 60.3049,43.1863 57,41.5C 56.0497,42.0223 55.2164,42.689 54.5,43.5C 52.9788,42.0627 51.1454,41.396 49,41.5C 43.3072,42.6138 38.1405,44.6138 33.5,47.5C 32.1049,51.2252 29.4382,53.5585 25.5,54.5C 26.2341,53.2921 26.5674,51.9587 26.5,50.5C 29.2971,48.205 31.9638,45.705 34.5,43C 38.3214,42.3144 41.988,41.3144 45.5,40C 51.2247,39.2825 56.8913,39.6159 62.5,41C 64.4308,41.9022 66.0975,43.0688 67.5,44.5 Z"/></g>
<g><path style="opacity:1" fill="#463318" d="M 80.5,45.5 C 82.8903,46.8908 84.5569,48.8908 85.5,51.5C 83.0225,51.0508 81.0225,51.7175 79.5,53.5C 79.8869,54.7199 80.7202,55.3865 82,55.5C 83.585,54.9561 85.085,54.2894 86.5,53.5C 88.3465,55.0301 89.3465,57.0301 89.5,59.5C 87.076,59.1924 84.7427,59.5258 82.5,60.5C 82.9384,67.4998 84.2717,74.1665 86.5,80.5C 83.2622,73.9552 80.7622,66.9552 79,59.5C 78.0027,57.6769 76.8361,56.0103 75.5,54.5C 76.0906,53.8485 76.7573,53.1818 77.5,52.5C 76.4756,51.1482 75.4756,49.8149 74.5,48.5C 76.9468,48.385 78.9468,47.385 80.5,45.5 Z"/></g>
<g><path style="opacity:1" fill="#80693b" d="M 13.5,49.5 C 14.5,49.5 15.5,49.5 16.5,49.5C 16.6162,52.9103 14.9496,54.2436 11.5,53.5C 11.6596,51.847 12.3263,50.5137 13.5,49.5 Z"/></g>
<g><path style="opacity:1" fill="#e7c3a8" d="M 53.5,45.5 C 54.1667,45.5 54.8333,45.5 55.5,45.5C 56.0577,46.7899 57.0577,47.6232 58.5,48C 60.8782,48.5112 63.2115,49.1779 65.5,50C 66.3366,51.0113 66.67,52.1779 66.5,53.5C 67.8333,53.5 69.1667,53.5 70.5,53.5C 70.393,55.9032 71.393,57.7365 73.5,59C 72.9056,59.4643 72.2389,59.631 71.5,59.5C 67.7424,57.7459 63.7424,57.0792 59.5,57.5C 54.1398,56.8544 48.8065,56.5211 43.5,56.5C 43.5,57.8333 43.5,59.1667 43.5,60.5C 40.1667,60.5 36.8333,60.5 33.5,60.5C 34.9917,56.8479 36.9917,53.5146 39.5,50.5C 40.5,50.1667 41.1667,49.5 41.5,48.5C 45.1394,46.2912 49.1394,45.2912 53.5,45.5 Z"/></g>
<g><path style="opacity:1" fill="#170f01" d="M 85.5,51.5 C 86.3382,51.8417 86.6716,52.5084 86.5,53.5C 85.085,54.2894 83.585,54.9561 82,55.5C 80.7202,55.3865 79.8869,54.7199 79.5,53.5C 81.0225,51.7175 83.0225,51.0508 85.5,51.5 Z"/></g>
<g><path style="opacity:1" fill="#674b34" d="M 67.5,44.5 C 69.3403,46.6689 71.6737,48.0023 74.5,48.5C 75.4756,49.8149 76.4756,51.1482 77.5,52.5C 76.7573,53.1818 76.0906,53.8485 75.5,54.5C 72.2575,53.1329 69.2575,51.2996 66.5,49C 62.8463,47.7262 59.1796,46.5596 55.5,45.5C 54.8333,45.5 54.1667,45.5 53.5,45.5C 51.9472,42.746 49.6139,41.9126 46.5,43C 44.6266,44.7038 42.9599,46.5372 41.5,48.5C 41.1667,49.5 40.5,50.1667 39.5,50.5C 38.448,50.3505 37.448,50.5172 36.5,51C 33.9638,53.705 31.2971,56.205 28.5,58.5C 28.1667,58.5 27.8333,58.5 27.5,58.5C 27.1034,57.475 26.4368,57.3083 25.5,58C 22.979,60.2198 20.8123,62.7198 19,65.5C 18.3333,64.1667 18.3333,62.8333 19,61.5C 21.3722,59.2968 23.5389,56.9635 25.5,54.5C 29.4382,53.5585 32.1049,51.2252 33.5,47.5C 38.1405,44.6138 43.3072,42.6138 49,41.5C 51.1454,41.396 52.9788,42.0627 54.5,43.5C 55.2164,42.689 56.0497,42.0223 57,41.5C 60.3049,43.1863 63.8049,44.1863 67.5,44.5 Z"/></g>
<g><path style="opacity:1" fill="#c08b5d" d="M 53.5,45.5 C 49.1394,45.2912 45.1394,46.2912 41.5,48.5C 42.9599,46.5372 44.6266,44.7038 46.5,43C 49.6139,41.9126 51.9472,42.746 53.5,45.5 Z"/></g>
<g><path style="opacity:1" fill="#31210c" d="M 26.5,50.5 C 26.5674,51.9587 26.2341,53.2921 25.5,54.5C 23.5389,56.9635 21.3722,59.2968 19,61.5C 18.3333,62.8333 18.3333,64.1667 19,65.5C 20.8123,62.7198 22.979,60.2198 25.5,58C 26.4368,57.3083 27.1034,57.475 27.5,58.5C 25.7376,59.2623 24.7376,60.5956 24.5,62.5C 22.4131,63.5846 21.0798,65.2512 20.5,67.5C 19.2101,68.0577 18.3768,69.0577 18,70.5C 16.6409,74.4052 15.8076,78.4052 15.5,82.5C 11.9562,95.1517 15.2895,105.652 25.5,114C 27.1545,114.608 28.8211,115.108 30.5,115.5C 39.3937,119.147 48.727,120.314 58.5,119C 59.056,118.617 59.3893,118.117 59.5,117.5C 61.1958,117.315 62.5291,116.481 63.5,115C 73.836,113.326 81.336,107.826 86,98.5C 86.49,97.2068 86.6567,95.8734 86.5,94.5C 86.5,94.1667 86.5,93.8333 86.5,93.5C 87.4959,93.5858 88.3292,93.2524 89,92.5C 89.7083,93.3805 90.5416,94.0472 91.5,94.5C 90.3078,99.217 88.3078,103.55 85.5,107.5C 82.033,107.446 79.3663,108.946 77.5,112C 76.552,112.483 75.552,112.649 74.5,112.5C 74.5,113.5 74.5,114.5 74.5,115.5C 71.0306,114.887 69.0306,116.221 68.5,119.5C 66.8333,119.5 65.1667,119.5 63.5,119.5C 63.7373,120.791 63.404,121.791 62.5,122.5C 62.1667,122.5 61.8333,122.5 61.5,122.5C 59.6112,121.258 57.6112,121.258 55.5,122.5C 52.164,122.533 48.9973,121.866 46,120.5C 44.6897,121.897 43.1897,122.897 41.5,123.5C 40.7354,123.923 39.9021,124.257 39,124.5C 36.7438,122.915 34.2438,122.248 31.5,122.5C 29.8333,121.833 28.1667,121.167 26.5,120.5C 24.6316,119.737 22.9649,118.737 21.5,117.5C 21.8174,113.828 20.1507,112.162 16.5,112.5C 14.9254,110.886 14.2587,108.886 14.5,106.5C 12.0274,106.912 10.6941,105.912 10.5,103.5C 12.0808,101.858 12.7475,99.8583 12.5,97.5C 13.6291,95.3718 13.7958,93.0385 13,90.5C 12.6174,91.056 12.1174,91.3893 11.5,91.5C 11.5,90.5 11.5,89.5 11.5,88.5C 9.5,88.5 7.5,88.5 5.5,88.5C 5.52709,86.8007 6.19376,85.4674 7.5,84.5C 7.83333,83.5 8.5,82.8333 9.5,82.5C 10.1667,82.1667 10.8333,81.8333 11.5,81.5C 12.4345,80.4324 12.7678,79.099 12.5,77.5C 14.4466,70.6837 16.6133,63.6837 19,56.5C 19.9487,54.9069 21.1154,53.5736 22.5,52.5C 23.6049,51.3995 24.9382,50.7329 26.5,50.5 Z"/></g>
<g><path style="opacity:1" fill="#9c8956" d="M 8.5,58.5 C 11.6323,59.0526 11.9657,60.0526 9.5,61.5C 8.28665,61.2528 7.61998,60.5862 7.5,59.5C 7.5,58.8333 7.83333,58.5 8.5,58.5 Z"/></g>
<g><path style="opacity:1" fill="#54421d" d="M 9.5,56.5 C 11.0418,57.3007 12.7085,57.634 14.5,57.5C 14.5737,62.8196 11.9071,64.8196 6.5,63.5C 6.23219,61.901 6.56552,60.5676 7.5,59.5C 7.61998,60.5862 8.28665,61.2528 9.5,61.5C 11.9657,60.0526 11.6323,59.0526 8.5,58.5C 8.32842,57.5084 8.66175,56.8417 9.5,56.5 Z"/></g>
<g><path style="opacity:1" fill="#d4a684" d="M 39.5,50.5 C 36.9917,53.5146 34.9917,56.8479 33.5,60.5C 36.8333,60.5 40.1667,60.5 43.5,60.5C 43.5,59.1667 43.5,57.8333 43.5,56.5C 48.8065,56.5211 54.1398,56.8544 59.5,57.5C 59.5,57.8333 59.5,58.1667 59.5,58.5C 57.5956,58.7376 56.2623,59.7376 55.5,61.5C 54.4226,62.0184 53.2559,62.3517 52,62.5C 50.1579,60.8395 47.9912,59.8395 45.5,59.5C 45.7148,61.1788 45.0481,62.1788 43.5,62.5C 39.5727,60.8741 35.906,61.2074 32.5,63.5C 29.1117,63.0002 27.7784,61.3335 28.5,58.5C 31.2971,56.205 33.9638,53.705 36.5,51C 37.448,50.5172 38.448,50.3505 39.5,50.5 Z"/></g>
<g><path style="opacity:1" fill="#b88155" d="M 27.5,58.5 C 27.8333,58.5 28.1667,58.5 28.5,58.5C 27.7784,61.3335 29.1117,63.0002 32.5,63.5C 29.7562,66.3208 28.0896,69.6542 27.5,73.5C 27.5854,75.3328 28.2521,76.6661 29.5,77.5C 28.4324,78.4345 27.099,78.7678 25.5,78.5C 24.448,78.3505 23.448,78.5172 22.5,79C 21.8971,80.8254 21.2304,82.6587 20.5,84.5C 19.8933,84.3764 19.56,84.0431 19.5,83.5C 20.0811,77.0899 22.0811,71.0899 25.5,65.5C 24.8728,64.5832 24.5394,63.5832 24.5,62.5C 24.7376,60.5956 25.7376,59.2623 27.5,58.5 Z"/></g>
<g><path style="opacity:1" fill="#a26844" d="M 59.5,58.5 C 59.5,58.1667 59.5,57.8333 59.5,57.5C 63.7424,57.0792 67.7424,57.7459 71.5,59.5C 72.0906,60.1515 72.7573,60.8182 73.5,61.5C 72.1667,61.8333 70.8333,62.1667 69.5,62.5C 71.9568,64.5888 74.4568,66.5888 77,68.5C 77.49,69.7932 77.6567,71.1266 77.5,72.5C 75.5,73.8333 73.5,73.8333 71.5,72.5C 72.2389,72.631 72.9056,72.4643 73.5,72C 70.5372,70.0394 67.8706,67.706 65.5,65C 63.1527,64.6664 60.8194,64.833 58.5,65.5C 58.0807,62.6755 59.0807,60.5088 61.5,59C 60.9056,58.5357 60.2389,58.369 59.5,58.5 Z"/></g>
<g><path style="opacity:1" fill="#cf9a6d" d="M 55.5,45.5 C 59.1796,46.5596 62.8463,47.7262 66.5,49C 69.2575,51.2996 72.2575,53.1329 75.5,54.5C 76.8361,56.0103 78.0027,57.6769 79,59.5C 80.7622,66.9552 83.2622,73.9552 86.5,80.5C 86.5,82.8333 86.5,85.1667 86.5,87.5C 85.1429,86.4097 84.1429,85.0764 83.5,83.5C 83.6633,81.1432 83.4966,78.8098 83,76.5C 80.9663,75.2787 79.133,73.9454 77.5,72.5C 77.6567,71.1266 77.49,69.7932 77,68.5C 74.4568,66.5888 71.9568,64.5888 69.5,62.5C 70.8333,62.1667 72.1667,61.8333 73.5,61.5C 72.7573,60.8182 72.0906,60.1515 71.5,59.5C 72.2389,59.631 72.9056,59.4643 73.5,59C 71.393,57.7365 70.393,55.9032 70.5,53.5C 69.1667,53.5 67.8333,53.5 66.5,53.5C 66.67,52.1779 66.3366,51.0113 65.5,50C 63.2115,49.1779 60.8782,48.5112 58.5,48C 57.0577,47.6232 56.0577,46.7899 55.5,45.5 Z"/></g>
<g><path style="opacity:1" fill="#bb8b6a" d="M 55.5,61.5 C 54.8921,62.7997 54.2255,64.1331 53.5,65.5C 54.2022,70.2095 56.8689,72.2095 61.5,71.5C 66.8333,70.8333 66.8333,70.1667 61.5,69.5C 65.2823,66.4814 67.949,67.4814 69.5,72.5C 68.8485,73.0906 68.1818,73.7573 67.5,74.5C 63.9852,72.3783 60.3185,72.045 56.5,73.5C 55.376,72.086 54.376,70.586 53.5,69C 52.552,68.5172 51.552,68.3505 50.5,68.5C 49.8005,72.7978 49.4672,77.1311 49.5,81.5C 47.4458,81.3653 45.7791,82.032 44.5,83.5C 44.5299,82.5028 44.0299,81.8361 43,81.5C 41.6974,81.9783 40.5307,82.645 39.5,83.5C 39.5,83.1667 39.5,82.8333 39.5,82.5C 41.6174,80.3455 44.284,79.3455 47.5,79.5C 47.7778,77.6536 47.1112,76.3202 45.5,75.5C 42.9037,76.2129 40.2371,76.2129 37.5,75.5C 37.5,74.8333 37.8333,74.5 38.5,74.5C 45.2817,75.8753 48.4484,73.2087 48,66.5C 46.6032,64.9297 45.1032,63.5964 43.5,62.5C 45.0481,62.1788 45.7148,61.1788 45.5,59.5C 47.9912,59.8395 50.1579,60.8395 52,62.5C 53.2559,62.3517 54.4226,62.0184 55.5,61.5 Z"/></g>
<g><path style="opacity:1" fill="#342610" d="M 89.5,59.5 C 90.3446,60.6715 91.0113,62.0048 91.5,63.5C 85.5784,62.8563 84.5784,64.3563 88.5,68C 89.7932,68.49 91.1266,68.6567 92.5,68.5C 93.2341,69.7079 93.5674,71.0413 93.5,72.5C 92.1667,72.5 90.8333,72.5 89.5,72.5C 89.1196,75.7916 90.4529,78.1249 93.5,79.5C 91.0819,80.7969 88.7486,81.1303 86.5,80.5C 84.2717,74.1665 82.9384,67.4998 82.5,60.5C 84.7427,59.5258 87.076,59.1924 89.5,59.5 Z"/></g>
<g><path style="opacity:1" fill="#804e2e" d="M 59.5,58.5 C 60.2389,58.369 60.9056,58.5357 61.5,59C 59.0807,60.5088 58.0807,62.6755 58.5,65.5C 60.8194,64.833 63.1527,64.6664 65.5,65C 67.8706,67.706 70.5372,70.0394 73.5,72C 72.9056,72.4643 72.2389,72.631 71.5,72.5C 70.8333,72.5 70.1667,72.5 69.5,72.5C 67.949,67.4814 65.2823,66.4814 61.5,69.5C 61.5,70.1667 61.5,70.8333 61.5,71.5C 56.8689,72.2095 54.2022,70.2095 53.5,65.5C 54.2255,64.1331 54.8921,62.7997 55.5,61.5C 56.2623,59.7376 57.5956,58.7376 59.5,58.5 Z"/></g>
<g><path style="opacity:1" fill="#937d49" d="M 91.5,63.5 C 92.3007,65.0418 92.634,66.7085 92.5,68.5C 91.1266,68.6567 89.7932,68.49 88.5,68C 84.5784,64.3563 85.5784,62.8563 91.5,63.5 Z"/></g>
<g><path style="opacity:1" fill="#805031" d="M 43.5,62.5 C 45.1032,63.5964 46.6032,64.9297 48,66.5C 48.4484,73.2087 45.2817,75.8753 38.5,74.5C 40.0311,73.0755 39.6977,72.4088 37.5,72.5C 40.3002,70.5244 39.9669,69.6911 36.5,70C 34.5125,71.3189 33.3459,73.1523 33,75.5C 32.1841,76.8228 31.0174,77.4894 29.5,77.5C 28.2521,76.6661 27.5854,75.3328 27.5,73.5C 28.0896,69.6542 29.7562,66.3208 32.5,63.5C 35.906,61.2074 39.5727,60.8741 43.5,62.5 Z"/></g>
<g><path style="opacity:1" fill="#ad955f" d="M 4.5,67.5 C 8.5,66.8333 10.1667,68.5 9.5,72.5C 7.83333,72.5 6.16667,72.5 4.5,72.5C 4.5,71.1667 4.5,69.8333 4.5,68.5C 4.5,68.1667 4.5,67.8333 4.5,67.5 Z"/></g>
<g><path style="opacity:1" fill="#301814" d="M 61.5,69.5 C 66.8333,70.1667 66.8333,70.8333 61.5,71.5C 61.5,70.8333 61.5,70.1667 61.5,69.5 Z"/></g>
<g><path style="opacity:1" fill="#22140f" d="M 37.5,72.5 C 39.6977,72.4088 40.0311,73.0755 38.5,74.5C 37.8333,74.5 37.5,74.8333 37.5,75.5C 35.0155,74.7399 35.0155,73.7399 37.5,72.5 Z"/></g>
<g><path style="opacity:1" fill="#4a3415" d="M 4.5,67.5 C 4.5,66.8333 4.83333,66.5 5.5,66.5C 10.3269,65.8479 12.1603,67.8479 11,72.5C 7.53981,75.1277 8.03981,76.7943 12.5,77.5C 12.7678,79.099 12.4345,80.4324 11.5,81.5C 11.5,80.5 11.5,79.5 11.5,78.5C 8.83333,78.5 6.16667,78.5 3.5,78.5C 3.18723,74.9581 3.52056,71.6248 4.5,68.5C 4.5,69.8333 4.5,71.1667 4.5,72.5C 6.16667,72.5 7.83333,72.5 9.5,72.5C 10.1667,68.5 8.5,66.8333 4.5,67.5 Z"/></g>
<g><path style="opacity:1" fill="#dead8f" d="M 69.5,72.5 C 70.1667,72.5 70.8333,72.5 71.5,72.5C 73.5,73.8333 75.5,73.8333 77.5,72.5C 79.133,73.9454 80.9663,75.2787 83,76.5C 83.4966,78.8098 83.6633,81.1432 83.5,83.5C 82.2153,85.4516 80.5486,87.1182 78.5,88.5C 76.4084,86.3951 74.0751,84.7284 71.5,83.5C 71.1583,82.6618 70.4916,82.3284 69.5,82.5C 69.1667,81.8333 68.8333,81.1667 68.5,80.5C 72.8741,81.3436 77.2075,82.3436 81.5,83.5C 81.5,81.8333 81.5,80.1667 81.5,78.5C 74.5367,77.29 67.5367,76.79 60.5,77C 62.6526,77.0995 64.3192,77.9328 65.5,79.5C 63.4595,78.4808 61.4595,78.4808 59.5,79.5C 60.6016,80.1757 61.6016,80.8423 62.5,81.5C 57.4963,81.8371 54.4963,79.5037 53.5,74.5C 52.675,73.6143 51.675,73.281 50.5,73.5C 50.5,76.8333 50.5,80.1667 50.5,83.5C 54.1667,83.5 57.8333,83.5 61.5,83.5C 61.5,83.8333 61.5,84.1667 61.5,84.5C 57.0293,83.9106 53.0293,84.5772 49.5,86.5C 48.1667,86.5 46.8333,86.5 45.5,86.5C 44.8902,85.609 44.5569,84.609 44.5,83.5C 45.7791,82.032 47.4458,81.3653 49.5,81.5C 49.4672,77.1311 49.8005,72.7978 50.5,68.5C 51.552,68.3505 52.552,68.5172 53.5,69C 54.376,70.586 55.376,72.086 56.5,73.5C 60.3185,72.045 63.9852,72.3783 67.5,74.5C 68.1818,73.7573 68.8485,73.0906 69.5,72.5 Z"/></g>
<g><path style="opacity:1" fill="#7e6737" d="M 3.5,79.5 C 3.5,79.1667 3.5,78.8333 3.5,78.5C 6.16667,78.5 8.83333,78.5 11.5,78.5C 11.5,79.5 11.5,80.5 11.5,81.5C 10.8333,81.8333 10.1667,82.1667 9.5,82.5C 9.58577,81.5041 9.25244,80.6708 8.5,80C 6.86586,79.5065 5.19919,79.3398 3.5,79.5 Z"/></g>
<g><path style="opacity:1" fill="#b38772" d="M 37.5,72.5 C 35.0155,73.7399 35.0155,74.7399 37.5,75.5C 36.9423,76.7899 35.9423,77.6232 34.5,78C 31.5682,78.9533 28.5682,79.4533 25.5,79.5C 25.5,79.1667 25.5,78.8333 25.5,78.5C 27.099,78.7678 28.4324,78.4345 29.5,77.5C 31.0174,77.4894 32.1841,76.8228 33,75.5C 33.3459,73.1523 34.5125,71.3189 36.5,70C 39.9669,69.6911 40.3002,70.5244 37.5,72.5 Z"/></g>
<g><path style="opacity:1" fill="#f1d3ba" d="M 62.5,81.5 C 62.6716,82.4916 62.3382,83.1583 61.5,83.5C 57.8333,83.5 54.1667,83.5 50.5,83.5C 50.5,80.1667 50.5,76.8333 50.5,73.5C 51.675,73.281 52.675,73.6143 53.5,74.5C 54.4963,79.5037 57.4963,81.8371 62.5,81.5 Z"/></g>
<g><path style="opacity:1" fill="#edc6b0" d="M 68.5,80.5 C 67.391,80.4431 66.391,80.1098 65.5,79.5C 64.3192,77.9328 62.6526,77.0995 60.5,77C 67.5367,76.79 74.5367,77.29 81.5,78.5C 81.5,80.1667 81.5,81.8333 81.5,83.5C 77.2075,82.3436 72.8741,81.3436 68.5,80.5 Z"/></g>
<g><path style="opacity:1" fill="#c7b57e" d="M 3.5,79.5 C 5.19919,79.3398 6.86586,79.5065 8.5,80C 9.25244,80.6708 9.58577,81.5041 9.5,82.5C 8.5,82.8333 7.83333,83.5 7.5,84.5C 6.16667,84.5 4.83333,84.5 3.5,84.5C 3.5,82.8333 3.5,81.1667 3.5,79.5 Z"/></g>
<g><path style="opacity:1" fill="#6d522c" d="M 93.5,72.5 C 94.4794,75.6248 94.8128,78.9581 94.5,82.5C 92.2188,82.0773 90.5521,82.744 89.5,84.5C 87.1861,85.1787 86.8528,86.512 88.5,88.5C 89.1667,88.8333 89.8333,89.1667 90.5,89.5C 91.7133,89.2528 92.38,88.5862 92.5,87.5C 92.8333,87.5 93.1667,87.5 93.5,87.5C 93.2785,90.0673 92.6118,92.4006 91.5,94.5C 90.5416,94.0472 89.7083,93.3805 89,92.5C 88.3292,93.2524 87.4959,93.5858 86.5,93.5C 86.5,91.5 86.5,89.5 86.5,87.5C 86.5,85.1667 86.5,82.8333 86.5,80.5C 88.7486,81.1303 91.0819,80.7969 93.5,79.5C 90.4529,78.1249 89.1196,75.7916 89.5,72.5C 90.8333,72.5 92.1667,72.5 93.5,72.5 Z"/></g>
<g><path style="opacity:1" fill="#dfb29a" d="M 37.5,75.5 C 40.2371,76.2129 42.9037,76.2129 45.5,75.5C 47.1112,76.3202 47.7778,77.6536 47.5,79.5C 44.284,79.3455 41.6174,80.3455 39.5,82.5C 36.3704,82.5991 33.7037,83.7658 31.5,86C 29.5273,86.4955 27.5273,86.6621 25.5,86.5C 25.5,84.1667 25.5,81.8333 25.5,79.5C 28.5682,79.4533 31.5682,78.9533 34.5,78C 35.9423,77.6232 36.9423,76.7899 37.5,75.5 Z"/></g>
<g><path style="opacity:1" fill="#99834f" d="M 94.5,82.5 C 94.5,83.8333 94.5,85.1667 94.5,86.5C 93.8333,86.5 93.5,86.8333 93.5,87.5C 93.1667,87.5 92.8333,87.5 92.5,87.5C 91.1667,86.8333 90.1667,85.8333 89.5,84.5C 90.5521,82.744 92.2188,82.0773 94.5,82.5 Z"/></g>
<g><path style="opacity:1" fill="#84512d" d="M 20.5,67.5 C 19.1805,75.4841 17.8472,83.4841 16.5,91.5C 17.2692,94.1147 17.6025,96.7814 17.5,99.5C 15.7949,94.0967 15.1282,88.43 15.5,82.5C 15.8076,78.4052 16.6409,74.4052 18,70.5C 18.3768,69.0577 19.2101,68.0577 20.5,67.5 Z"/></g>
<g><path style="opacity:1" fill="#915a36" d="M 61.5,84.5 C 63.1765,85.1834 63.8432,86.5168 63.5,88.5C 62.5,88.5 61.5,88.5 60.5,88.5C 61.543,85.9709 60.543,85.1375 57.5,86C 56.7476,86.6708 56.4142,87.5041 56.5,88.5C 55.089,90.539 53.089,91.539 50.5,91.5C 50.5,91.1667 50.5,90.8333 50.5,90.5C 52.1765,89.8166 52.8432,88.4832 52.5,86.5C 51.5,86.5 50.5,86.5 49.5,86.5C 53.0293,84.5772 57.0293,83.9106 61.5,84.5 Z"/></g>
<g><path style="opacity:1" fill="#6c3a1d" d="M 45.5,86.5 C 46.8333,86.5 48.1667,86.5 49.5,86.5C 50.5,86.5 51.5,86.5 52.5,86.5C 52.8432,88.4832 52.1765,89.8166 50.5,90.5C 47.7224,90.9783 45.7224,89.9783 44.5,87.5C 44.6236,86.8933 44.9569,86.56 45.5,86.5 Z"/></g>
<g><path style="opacity:1" fill="#582615" d="M 60.5,88.5 C 59.1667,88.5 57.8333,88.5 56.5,88.5C 56.4142,87.5041 56.7476,86.6708 57.5,86C 60.543,85.1375 61.543,85.9709 60.5,88.5 Z"/></g>
<g><path style="opacity:0.051" fill="#88684b" d="M 66.5,15.5 C 68.5273,15.3379 70.5273,15.5045 72.5,16C 75.8655,18.7068 78.5322,22.0401 80.5,26C 79.8333,26.6667 79.1667,27.3333 78.5,28C 82.6333,28.9937 86.3,30.1604 89.5,31.5C 90.1408,32.4822 90.8075,33.4822 91.5,34.5C 90.9125,38.4624 89.9125,42.2958 88.5,46C 89.8825,47.2708 90.8825,48.7708 91.5,50.5C 94.0709,53.6529 95.5709,57.3196 96,61.5C 97.1581,61.9981 97.9915,62.8315 98.5,64C 99.5154,69.0699 100.849,73.9032 102.5,78.5C 102.552,83.7836 102.552,89.117 102.5,94.5C 102.747,95.7133 103.414,96.38 104.5,96.5C 104.5,97.1667 104.5,97.8333 104.5,98.5C 103.173,99.8001 101.84,101.133 100.5,102.5C 98.9273,107.804 95.594,111.637 90.5,114C 85.313,120.014 79.313,125.18 72.5,129.5C 71.1638,134.712 69.9971,139.712 69,144.5C 65.4454,147.302 62.1121,150.302 59,153.5C 58.6905,154.766 58.1905,155.933 57.5,157C 61.2968,158.424 65.2968,158.924 69.5,158.5C 80.988,159.495 92.6547,159.828 104.5,159.5C 104.5,159.833 104.5,160.167 104.5,160.5C 69.5,160.5 34.5,160.5 -0.5,160.5C -0.5,160.167 -0.5,159.833 -0.5,159.5C 15.8469,159.833 32.1803,159.499 48.5,158.5C 48.1373,157.817 47.8039,157.15 47.5,156.5C 48.1667,156.5 48.8333,156.5 49.5,156.5C 54.4177,156.828 56.4177,154.495 55.5,149.5C 59.9083,149.938 61.5749,147.938 60.5,143.5C 62.1667,143.5 63.8333,143.5 65.5,143.5C 64.9736,139.75 65.9736,136.584 68.5,134C 68.6134,132.301 67.9468,131.134 66.5,130.5C 66.6716,129.508 66.3382,128.842 65.5,128.5C 75.1064,123.235 83.9397,116.568 92,108.5C 94,102.5 96,96.5 98,90.5C 98.6667,83.5 98.6667,76.5 98,69.5C 97.0656,68.1416 96.2323,66.8083 95.5,65.5C 92.7536,56.8962 88.087,49.3962 81.5,43C 82.4965,41.4045 83.6632,39.9045 85,38.5C 85.9439,35.6529 85.4439,33.1529 83.5,31C 79.0826,29.4315 77.0826,30.9315 77.5,35.5C 78.5,35.5 79.5,35.5 80.5,35.5C 80.5,34.5 80.5,33.5 80.5,32.5C 81.5,32.5 82.5,32.5 83.5,32.5C 84.1686,38.0001 81.8353,40.1667 76.5,39C 75.6719,37.0077 74.3386,35.5077 72.5,34.5C 71.5244,33.1851 70.5244,31.8518 69.5,30.5C 74.5933,28.9168 76.4267,25.5835 75,20.5C 72.3784,16.5797 69.2118,15.913 65.5,18.5C 65.5,17.8333 65.5,17.1667 65.5,16.5C 66.1667,16.5 66.5,16.1667 66.5,15.5 Z"/></g>
<g><path style="opacity:1" fill="#201404" d="M 89.5,84.5 C 90.1667,85.8333 91.1667,86.8333 92.5,87.5C 92.38,88.5862 91.7133,89.2528 90.5,89.5C 89.8333,89.1667 89.1667,88.8333 88.5,88.5C 86.8528,86.512 87.1861,85.1787 89.5,84.5 Z"/></g>
<g><path style="opacity:1" fill="#664a23" d="M 3.5,84.5 C 4.83333,84.5 6.16667,84.5 7.5,84.5C 6.19376,85.4674 5.52709,86.8007 5.5,88.5C 7.5,88.5 9.5,88.5 11.5,88.5C 11.5,89.5 11.5,90.5 11.5,91.5C 11.5,92.1667 11.1667,92.5 10.5,92.5C 10.5,91.5 10.5,90.5 10.5,89.5C 8.83333,89.5 7.16667,89.5 5.5,89.5C 5.5,90.8333 5.5,92.1667 5.5,93.5C 4.65622,90.6553 3.98956,87.6553 3.5,84.5 Z"/></g>
<g><path style="opacity:1" fill="#cf936b" d="M 25.5,78.5 C 25.5,78.8333 25.5,79.1667 25.5,79.5C 25.5,81.8333 25.5,84.1667 25.5,86.5C 27.5273,86.6621 29.5273,86.4955 31.5,86C 33.7037,83.7658 36.3704,82.5991 39.5,82.5C 39.5,82.8333 39.5,83.1667 39.5,83.5C 36.9387,85.6397 34.6054,87.973 32.5,90.5C 31.5655,91.5676 31.2322,92.901 31.5,94.5C 30.5,94.5 29.5,94.5 28.5,94.5C 28.5,93.5 28.5,92.5 28.5,91.5C 21.4289,92.7499 18.4289,90.0832 19.5,83.5C 19.56,84.0431 19.8933,84.3764 20.5,84.5C 21.2304,82.6587 21.8971,80.8254 22.5,79C 23.448,78.5172 24.448,78.3505 25.5,78.5 Z"/></g>
<g><path style="opacity:1" fill="#a1864f" d="M 10.5,92.5 C 9.16667,93.5 7.83333,94.5 6.5,95.5C 5.66175,95.1583 5.32842,94.4916 5.5,93.5C 5.5,92.1667 5.5,90.8333 5.5,89.5C 7.16667,89.5 8.83333,89.5 10.5,89.5C 10.5,90.5 10.5,91.5 10.5,92.5 Z"/></g>
<g><path style="opacity:1" fill="#ac7153" d="M 44.5,83.5 C 44.5569,84.609 44.8902,85.609 45.5,86.5C 44.9569,86.56 44.6236,86.8933 44.5,87.5C 45.7224,89.9783 47.7224,90.9783 50.5,90.5C 50.5,90.8333 50.5,91.1667 50.5,91.5C 47.5,91.1667 46.1667,92.5 46.5,95.5C 49.5,95.5 52.5,95.5 55.5,95.5C 53.7354,96.4614 51.7354,96.7947 49.5,96.5C 47.5,96.5 45.5,96.5 43.5,96.5C 43.7678,94.901 43.4345,93.5676 42.5,92.5C 43.3007,90.9582 43.634,89.2915 43.5,87.5C 42.5,87.5 41.5,87.5 40.5,87.5C 41.209,86.596 42.209,86.2627 43.5,86.5C 43.2627,85.209 43.596,84.209 44.5,83.5 Z"/></g>
<g><path style="opacity:1" fill="#885231" d="M 44.5,83.5 C 43.596,84.209 43.2627,85.209 43.5,86.5C 42.209,86.2627 41.209,86.596 40.5,87.5C 39.1667,88.1667 38.1667,89.1667 37.5,90.5C 36.8333,90.5 36.5,90.8333 36.5,91.5C 35.0337,92.347 34.2004,93.6803 34,95.5C 32.7308,94.0953 32.2308,92.4286 32.5,90.5C 34.6054,87.973 36.9387,85.6397 39.5,83.5C 40.5307,82.645 41.6974,81.9783 43,81.5C 44.0299,81.8361 44.5299,82.5028 44.5,83.5 Z"/></g>
<g><path style="opacity:1" fill="#cd9f82" d="M 40.5,87.5 C 41.5,87.5 42.5,87.5 43.5,87.5C 43.634,89.2915 43.3007,90.9582 42.5,92.5C 41.8333,92.5 41.1667,92.5 40.5,92.5C 38.4017,93.9143 37.4017,93.2476 37.5,90.5C 38.1667,89.1667 39.1667,88.1667 40.5,87.5 Z"/></g>
<g><path style="opacity:1" fill="#231603" d="M 12.5,97.5 C 10.8333,97.5 9.16667,97.5 7.5,97.5C 6.66175,97.1583 6.32842,96.4916 6.5,95.5C 7.83333,94.5 9.16667,93.5 10.5,92.5C 11.1667,92.5 11.5,92.1667 11.5,91.5C 12.1174,91.3893 12.6174,91.056 13,90.5C 13.7958,93.0385 13.6291,95.3718 12.5,97.5 Z"/></g>
<g><path style="opacity:1" fill="#c17751" d="M 71.5,83.5 C 74.0751,84.7284 76.4084,86.3951 78.5,88.5C 80.5486,87.1182 82.2153,85.4516 83.5,83.5C 84.1429,85.0764 85.1429,86.4097 86.5,87.5C 86.5,89.5 86.5,91.5 86.5,93.5C 86.5,93.8333 86.5,94.1667 86.5,94.5C 85.0086,97.2296 83.6752,97.063 82.5,94C 81.1667,93.6667 79.8333,93.3333 78.5,93C 76.7209,89.3929 74.3875,86.2263 71.5,83.5 Z"/></g>
<g><path style="opacity:1" fill="#642b1d" d="M 96.5,70.5 C 99.3172,90.9877 92.3172,107.488 75.5,120C 74.8333,120.667 74.1667,120.667 73.5,120C 74.2524,119.329 74.5858,118.496 74.5,117.5C 78.7706,114.899 82.4372,111.566 85.5,107.5C 88.3078,103.55 90.3078,99.217 91.5,94.5C 92.6118,92.4006 93.2785,90.0673 93.5,87.5C 93.5,86.8333 93.8333,86.5 94.5,86.5C 94.3505,87.552 94.5172,88.552 95,89.5C 96.3696,83.2584 96.8696,76.9251 96.5,70.5 Z"/></g>
<g><path style="opacity:0.009" fill="#916e50" d="M -0.5,85.5 C 2.93947,100.837 11.2728,113.003 24.5,122C 25.448,122.483 26.448,122.649 27.5,122.5C 29.0258,124.333 30.6925,126 32.5,127.5C 33.0096,132.207 33.8429,136.873 35,141.5C 36.0113,142.337 37.1779,142.67 38.5,142.5C 38.238,143.978 38.5713,145.311 39.5,146.5C 41.5879,147.179 43.5879,147.512 45.5,147.5C 45.0133,148.446 44.6799,149.446 44.5,150.5C 45.5186,152.511 46.5186,154.511 47.5,156.5C 47.8039,157.15 48.1373,157.817 48.5,158.5C 32.1803,159.499 15.8469,159.833 -0.5,159.5C -0.5,138.167 -0.5,116.833 -0.5,95.5C 0.833333,95.1667 0.833333,94.8333 -0.5,94.5C -0.5,91.5 -0.5,88.5 -0.5,85.5 Z M 32.5,145.5 C 33.1174,145.611 33.6174,145.944 34,146.5C 34.6667,148.833 34.6667,151.167 34,153.5C 33.7674,151.22 32.934,149.22 31.5,147.5C 31.8627,146.817 32.1961,146.15 32.5,145.5 Z"/></g>
<g><path style="opacity:1" fill="#641a13" d="M 37.5,32.5 C 37.1667,33.1667 36.8333,33.8333 36.5,34.5C 34.7085,34.366 33.0418,34.6993 31.5,35.5C 29.326,35.7497 27.6594,36.7497 26.5,38.5C 24.5956,38.7376 23.2623,39.7376 22.5,41.5C 20.2512,42.0798 18.5846,43.4131 17.5,45.5C 15.8333,46.5 14.5,47.8333 13.5,49.5C 12.3263,50.5137 11.6596,51.847 11.5,53.5C 10.0937,53.9731 9.42702,54.9731 9.5,56.5C 8.66175,56.8417 8.32842,57.5084 8.5,58.5C 7.83333,58.5 7.5,58.8333 7.5,59.5C 6.56552,60.5676 6.23219,61.901 6.5,63.5C 5.59603,64.209 5.26269,65.209 5.5,66.5C 4.83333,66.5 4.5,66.8333 4.5,67.5C 4.5,67.8333 4.5,68.1667 4.5,68.5C 3.52056,71.6248 3.18723,74.9581 3.5,78.5C 3.5,78.8333 3.5,79.1667 3.5,79.5C 3.5,81.1667 3.5,82.8333 3.5,84.5C 3.98956,87.6553 4.65622,90.6553 5.5,93.5C 5.32842,94.4916 5.66175,95.1583 6.5,95.5C 6.32842,96.4916 6.66175,97.1583 7.5,97.5C 7.02458,100.313 8.02458,102.313 10.5,103.5C 10.6941,105.912 12.0274,106.912 14.5,106.5C 14.2587,108.886 14.9254,110.886 16.5,112.5C 17.8333,114.5 19.5,116.167 21.5,117.5C 22.9649,118.737 24.6316,119.737 26.5,120.5C 26.8333,121.167 27.1667,121.833 27.5,122.5C 26.448,122.649 25.448,122.483 24.5,122C 11.2728,113.003 2.93947,100.837 -0.5,85.5C -0.5,81.1667 -0.5,76.8333 -0.5,72.5C 0.97489,67.179 2.80822,61.8456 5,56.5C 8.02706,51.092 11.5271,46.092 15.5,41.5C 16.8333,40.8333 18.1667,40.1667 19.5,39.5C 21.0009,38.2485 22.6675,37.2485 24.5,36.5C 28.7103,34.6985 33.0436,33.3652 37.5,32.5 Z"/></g>
<g><path style="opacity:1" fill="#796134" d="M 7.5,97.5 C 9.16667,97.5 10.8333,97.5 12.5,97.5C 12.7475,99.8583 12.0808,101.858 10.5,103.5C 8.02458,102.313 7.02458,100.313 7.5,97.5 Z"/></g>
<g><path style="opacity:1" fill="#b97f5b" d="M 65.5,79.5 C 66.391,80.1098 67.391,80.4431 68.5,80.5C 68.8333,81.1667 69.1667,81.8333 69.5,82.5C 67.4595,81.4808 65.4595,81.4808 63.5,82.5C 66.2177,84.3889 69.051,86.0556 72,87.5C 72.2453,89.6633 73.2453,91.33 75,92.5C 75.4935,94.1341 75.6602,95.8008 75.5,97.5C 74.5,97.5 73.5,97.5 72.5,97.5C 72.4208,98.9305 72.7542,100.264 73.5,101.5C 70.5265,103.147 67.8599,105.147 65.5,107.5C 62.9082,105.974 61.9082,103.641 62.5,100.5C 57.8215,100.334 53.1548,100.501 48.5,101C 47.7556,102.815 47.0889,104.648 46.5,106.5C 43.8633,107.63 41.1967,107.63 38.5,106.5C 37.9149,101.485 37.2482,96.4855 36.5,91.5C 36.5,90.8333 36.8333,90.5 37.5,90.5C 37.4017,93.2476 38.4017,93.9143 40.5,92.5C 40.1826,95.5719 40.5159,98.5719 41.5,101.5C 45.1098,99.9836 48.7765,98.9836 52.5,98.5C 55.6414,97.6787 58.9748,97.1787 62.5,97C 63.056,96.6174 63.3893,96.1174 63.5,95.5C 68.7217,95.107 69.555,93.107 66,89.5C 65.79,91.0581 65.29,92.3915 64.5,93.5C 64.8453,90.512 63.512,89.1787 60.5,89.5C 58.3122,89.3073 56.6455,90.1406 55.5,92C 53.6131,92.7796 51.9464,92.6129 50.5,91.5C 53.089,91.539 55.089,90.539 56.5,88.5C 57.8333,88.5 59.1667,88.5 60.5,88.5C 61.5,88.5 62.5,88.5 63.5,88.5C 63.8432,86.5168 63.1765,85.1834 61.5,84.5C 61.5,84.1667 61.5,83.8333 61.5,83.5C 62.3382,83.1583 62.6716,82.4916 62.5,81.5C 61.6016,80.8423 60.6016,80.1757 59.5,79.5C 61.4595,78.4808 63.4595,78.4808 65.5,79.5 Z"/></g>
<g><path style="opacity:1" fill="#83462c" d="M 40.5,92.5 C 41.1667,92.5 41.8333,92.5 42.5,92.5C 43.4345,93.5676 43.7678,94.901 43.5,96.5C 45.5,96.5 47.5,96.5 49.5,96.5C 49.0825,97.2216 48.4158,97.7216 47.5,98C 49.1341,98.4935 50.8008,98.6602 52.5,98.5C 48.7765,98.9836 45.1098,99.9836 41.5,101.5C 40.5159,98.5719 40.1826,95.5719 40.5,92.5 Z"/></g>
<g><path style="opacity:1" fill="#611711" d="M 55.5,95.5 C 58.1667,95.5 60.8333,95.5 63.5,95.5C 63.3893,96.1174 63.056,96.6174 62.5,97C 58.9748,97.1787 55.6414,97.6787 52.5,98.5C 50.8008,98.6602 49.1341,98.4935 47.5,98C 48.4158,97.7216 49.0825,97.2216 49.5,96.5C 51.7354,96.7947 53.7354,96.4614 55.5,95.5 Z"/></g>
<g><path style="opacity:1" fill="#764022" d="M 63.5,95.5 C 60.8333,95.5 58.1667,95.5 55.5,95.5C 58.3447,94.6562 61.3447,93.9896 64.5,93.5C 65.29,92.3915 65.79,91.0581 66,89.5C 69.555,93.107 68.7217,95.107 63.5,95.5 Z"/></g>
<g><path style="opacity:1" fill="#e1b897" d="M 64.5,93.5 C 61.3447,93.9896 58.3447,94.6562 55.5,95.5C 52.5,95.5 49.5,95.5 46.5,95.5C 46.1667,92.5 47.5,91.1667 50.5,91.5C 51.9464,92.6129 53.6131,92.7796 55.5,92C 56.6455,90.1406 58.3122,89.3073 60.5,89.5C 63.512,89.1787 64.8453,90.512 64.5,93.5 Z"/></g>
<g><path style="opacity:1" fill="#a36b46" d="M 32.5,90.5 C 32.2308,92.4286 32.7308,94.0953 34,95.5C 34.2004,93.6803 35.0337,92.347 36.5,91.5C 37.2482,96.4855 37.9149,101.485 38.5,106.5C 41.1967,107.63 43.8633,107.63 46.5,106.5C 47.8333,106.5 49.1667,106.5 50.5,106.5C 49.7659,107.708 49.4326,109.041 49.5,110.5C 52.135,111.142 54.8016,111.809 57.5,112.5C 58.8333,112.333 60.1667,112.167 61.5,112C 62.2524,111.329 62.5858,110.496 62.5,109.5C 63.7911,110.542 63.7911,111.708 62.5,113C 57.7785,114.188 53.1118,114.354 48.5,113.5C 48.2089,112.351 47.3756,111.684 46,111.5C 44.4672,111.773 42.9672,112.106 41.5,112.5C 37.8179,110.294 34.1513,108.294 30.5,106.5C 32.0683,107.473 33.735,107.64 35.5,107C 34.0267,106.29 33.3601,105.124 33.5,103.5C 29.9438,103.725 29.6105,102.892 32.5,101C 31.7135,98.9011 31.3801,96.7345 31.5,94.5C 31.2322,92.901 31.5655,91.5676 32.5,90.5 Z"/></g>
<g><path style="opacity:1" fill="#ab6944" d="M 24.5,62.5 C 24.5394,63.5832 24.8728,64.5832 25.5,65.5C 22.0811,71.0899 20.0811,77.0899 19.5,83.5C 18.4289,90.0832 21.4289,92.7499 28.5,91.5C 28.5,92.5 28.5,93.5 28.5,94.5C 29.5,94.5 30.5,94.5 31.5,94.5C 31.3801,96.7345 31.7135,98.9011 32.5,101C 29.6105,102.892 29.9438,103.725 33.5,103.5C 33.3601,105.124 34.0267,106.29 35.5,107C 33.735,107.64 32.0683,107.473 30.5,106.5C 27.6233,105.789 25.9566,103.956 25.5,101C 24.2161,100.316 23.0495,100.483 22,101.5C 20.951,99.8934 19.451,99.2267 17.5,99.5C 17.6025,96.7814 17.2692,94.1147 16.5,91.5C 17.8472,83.4841 19.1805,75.4841 20.5,67.5C 21.0798,65.2512 22.4131,63.5846 24.5,62.5 Z"/></g>
<g><path style="opacity:1" fill="#945f35" d="M 69.5,82.5 C 70.4916,82.3284 71.1583,82.6618 71.5,83.5C 74.3875,86.2263 76.7209,89.3929 78.5,93C 79.8333,93.3333 81.1667,93.6667 82.5,94C 83.6752,97.063 85.0086,97.2296 86.5,94.5C 86.6567,95.8734 86.49,97.2068 86,98.5C 81.336,107.826 73.836,113.326 63.5,115C 62.5291,116.481 61.1958,117.315 59.5,117.5C 57.6334,117.045 55.8001,116.378 54,115.5C 52.175,115.943 50.3417,116.277 48.5,116.5C 48.5,115.5 48.5,114.5 48.5,113.5C 53.1118,114.354 57.7785,114.188 62.5,113C 63.7911,111.708 63.7911,110.542 62.5,109.5C 62.5,108.833 62.1667,108.5 61.5,108.5C 61.1667,107.5 60.5,106.833 59.5,106.5C 56.6038,105.225 53.6038,105.225 50.5,106.5C 49.1667,106.5 47.8333,106.5 46.5,106.5C 47.0889,104.648 47.7556,102.815 48.5,101C 53.1548,100.501 57.8215,100.334 62.5,100.5C 61.9082,103.641 62.9082,105.974 65.5,107.5C 67.8599,105.147 70.5265,103.147 73.5,101.5C 72.7542,100.264 72.4208,98.9305 72.5,97.5C 73.5,97.5 74.5,97.5 75.5,97.5C 75.6602,95.8008 75.4935,94.1341 75,92.5C 73.2453,91.33 72.2453,89.6633 72,87.5C 69.051,86.0556 66.2177,84.3889 63.5,82.5C 65.4595,81.4808 67.4595,81.4808 69.5,82.5 Z"/></g>
<g><path style="opacity:1" fill="#eac1a8" d="M 59.5,106.5 C 60.5,106.833 61.1667,107.5 61.5,108.5C 61.38,109.586 60.7133,110.253 59.5,110.5C 49.0107,108.822 49.0107,107.489 59.5,106.5 Z"/></g>
<g><path style="opacity:1" fill="#653d17" d="M 15.5,82.5 C 15.1282,88.43 15.7949,94.0967 17.5,99.5C 18.3602,102.849 19.8602,105.849 22,108.5C 25.2366,110.399 28.0699,112.732 30.5,115.5C 28.8211,115.108 27.1545,114.608 25.5,114C 15.2895,105.652 11.9562,95.1517 15.5,82.5 Z"/></g>
<g><path style="opacity:1" fill="#915b2c" d="M 17.5,99.5 C 19.451,99.2267 20.951,99.8934 22,101.5C 23.0495,100.483 24.2161,100.316 25.5,101C 25.9566,103.956 27.6233,105.789 30.5,106.5C 34.1513,108.294 37.8179,110.294 41.5,112.5C 41.7031,114.044 42.3698,115.378 43.5,116.5C 42.8333,116.833 42.1667,117.167 41.5,117.5C 37.9106,116.352 34.244,115.685 30.5,115.5C 28.0699,112.732 25.2366,110.399 22,108.5C 19.8602,105.849 18.3602,102.849 17.5,99.5 Z"/></g>
<g><path style="opacity:1" fill="#d2a17b" d="M 59.5,106.5 C 49.0107,107.489 49.0107,108.822 59.5,110.5C 60.7133,110.253 61.38,109.586 61.5,108.5C 62.1667,108.5 62.5,108.833 62.5,109.5C 62.5858,110.496 62.2524,111.329 61.5,112C 60.1667,112.167 58.8333,112.333 57.5,112.5C 54.8016,111.809 52.135,111.142 49.5,110.5C 49.4326,109.041 49.7659,107.708 50.5,106.5C 53.6038,105.225 56.6038,105.225 59.5,106.5 Z"/></g>
<g><path style="opacity:1" fill="#463518" d="M 85.5,107.5 C 82.4372,111.566 78.7706,114.899 74.5,117.5C 73.1667,117.5 71.8333,117.5 70.5,117.5C 70.7148,119.179 70.0481,120.179 68.5,120.5C 67.1667,120.5 65.8333,120.5 64.5,120.5C 64.719,121.675 64.3857,122.675 63.5,123.5C 62.8933,123.376 62.56,123.043 62.5,122.5C 63.404,121.791 63.7373,120.791 63.5,119.5C 65.1667,119.5 66.8333,119.5 68.5,119.5C 69.0306,116.221 71.0306,114.887 74.5,115.5C 74.5,114.5 74.5,113.5 74.5,112.5C 75.552,112.649 76.552,112.483 77.5,112C 79.3663,108.946 82.033,107.446 85.5,107.5 Z"/></g>
<g><path style="opacity:0.667" fill="#6c513a" d="M 95.5,65.5 C 96.2323,66.8083 97.0656,68.1416 98,69.5C 98.6667,76.5 98.6667,83.5 98,90.5C 96,96.5 94,102.5 92,108.5C 83.9397,116.568 75.1064,123.235 65.5,128.5C 62.3416,130.593 59.0083,130.926 55.5,129.5C 55.1667,128.833 54.8333,128.167 54.5,127.5C 55.4511,126.081 55.7845,124.415 55.5,122.5C 57.6112,121.258 59.6112,121.258 61.5,122.5C 60.1667,122.5 58.8333,122.5 57.5,122.5C 57.5,123.833 57.5,125.167 57.5,126.5C 61.7814,125.864 65.7814,124.364 69.5,122C 68.944,121.617 68.6107,121.117 68.5,120.5C 70.0481,120.179 70.7148,119.179 70.5,117.5C 71.8333,117.5 73.1667,117.5 74.5,117.5C 74.5858,118.496 74.2524,119.329 73.5,120C 74.1667,120.667 74.8333,120.667 75.5,120C 92.3172,107.488 99.3172,90.9877 96.5,70.5C 95.6993,68.9582 95.366,67.2915 95.5,65.5 Z"/></g>
<g><path style="opacity:0.004" fill="#926f50" d="M 104.5,113.5 C 104.5,128.833 104.5,144.167 104.5,159.5C 92.6547,159.828 80.988,159.495 69.5,158.5C 70.4511,157.081 70.7845,155.415 70.5,153.5C 71.8333,153.5 73.1667,153.5 74.5,153.5C 74.2837,151.319 75.117,149.653 77,148.5C 76.5335,142.36 78.3668,137.194 82.5,133C 84.1667,132.667 85.8333,132.333 87.5,132C 90.378,127.144 94.378,123.644 99.5,121.5C 100.31,119.202 101.144,116.868 102,114.5C 102.671,113.748 103.504,113.414 104.5,113.5 Z"/></g>
<g><path style="opacity:1" fill="#836234" d="M 16.5,112.5 C 20.1507,112.162 21.8174,113.828 21.5,117.5C 19.5,116.167 17.8333,114.5 16.5,112.5 Z"/></g>
<g><path style="opacity:1" fill="#6a411e" d="M 48.5,113.5 C 48.5,114.5 48.5,115.5 48.5,116.5C 50.3417,116.277 52.175,115.943 54,115.5C 55.8001,116.378 57.6334,117.045 59.5,117.5C 59.3893,118.117 59.056,118.617 58.5,119C 48.727,120.314 39.3937,119.147 30.5,115.5C 34.244,115.685 37.9106,116.352 41.5,117.5C 42.1667,117.167 42.8333,116.833 43.5,116.5C 42.3698,115.378 41.7031,114.044 41.5,112.5C 42.9672,112.106 44.4672,111.773 46,111.5C 47.3756,111.684 48.2089,112.351 48.5,113.5 Z"/></g>
<g><path style="opacity:1" fill="#987d54" d="M 68.5,120.5 C 68.6107,121.117 68.944,121.617 69.5,122C 65.7814,124.364 61.7814,125.864 57.5,126.5C 57.5,125.167 57.5,123.833 57.5,122.5C 58.8333,122.5 60.1667,122.5 61.5,122.5C 61.8333,122.5 62.1667,122.5 62.5,122.5C 62.56,123.043 62.8933,123.376 63.5,123.5C 64.3857,122.675 64.719,121.675 64.5,120.5C 65.8333,120.5 67.1667,120.5 68.5,120.5 Z"/></g>
<g><path style="opacity:1" fill="#39372b" d="M 55.5,122.5 C 55.7845,124.415 55.4511,126.081 54.5,127.5C 51.5,127.5 48.5,127.5 45.5,127.5C 45.5,126.167 45.5,124.833 45.5,123.5C 44.1667,123.5 42.8333,123.5 41.5,123.5C 43.1897,122.897 44.6897,121.897 46,120.5C 48.9973,121.866 52.164,122.533 55.5,122.5 Z"/></g>
<g><path style="opacity:0.996" fill="#b49e71" d="M 31.5,122.5 C 34.2438,122.248 36.7438,122.915 39,124.5C 39.9021,124.257 40.7354,123.923 41.5,123.5C 42.8333,123.5 44.1667,123.5 45.5,123.5C 45.5,124.833 45.5,126.167 45.5,127.5C 41.2901,126.739 37.1234,125.739 33,124.5C 31.9701,124.164 31.4701,123.497 31.5,122.5 Z"/></g>
<g><path style="opacity:1" fill="#641712" d="M 32.5,127.5 C 34.3257,128.438 36.159,129.438 38,130.5C 40.3333,129.833 42.6667,129.167 45,128.5C 48.0203,130.17 51.0203,131.836 54,133.5C 53.7357,137.141 52.069,140.141 49,142.5C 46.4054,140.57 44.572,138.07 43.5,135C 44.1007,133.395 45.1007,132.062 46.5,131C 45.1011,130.405 43.7678,130.572 42.5,131.5C 41.3526,133.765 41.1859,136.098 42,138.5C 43.9773,141.312 46.144,143.978 48.5,146.5C 51.3243,143.542 54.1576,140.542 57,137.5C 57.8597,133.147 56.0264,130.647 51.5,130C 52.7932,129.51 54.1266,129.343 55.5,129.5C 59.0083,130.926 62.3416,130.593 65.5,128.5C 66.3382,128.842 66.6716,129.508 66.5,130.5C 64.3899,133.723 63.3899,137.39 63.5,141.5C 61.0509,140.943 58.7175,140.943 56.5,141.5C 58.1045,143.179 58.7711,145.179 58.5,147.5C 56.7376,147.643 55.0709,147.309 53.5,146.5C 53.2448,148.343 53.0781,150.343 53,152.5C 51.2802,153.384 50.1135,154.717 49.5,156.5C 48.8333,156.5 48.1667,156.5 47.5,156.5C 46.5186,154.511 45.5186,152.511 44.5,150.5C 44.6799,149.446 45.0133,148.446 45.5,147.5C 43.5879,147.512 41.5879,147.179 39.5,146.5C 38.5713,145.311 38.238,143.978 38.5,142.5C 37.1779,142.67 36.0113,142.337 35,141.5C 33.8429,136.873 33.0096,132.207 32.5,127.5 Z"/></g>
<g><path style="opacity:0.835" fill="#724b36" d="M 26.5,120.5 C 28.1667,121.167 29.8333,121.833 31.5,122.5C 31.4701,123.497 31.9701,124.164 33,124.5C 37.1234,125.739 41.2901,126.739 45.5,127.5C 48.5,127.5 51.5,127.5 54.5,127.5C 54.8333,128.167 55.1667,128.833 55.5,129.5C 54.1266,129.343 52.7932,129.51 51.5,130C 56.0264,130.647 57.8597,133.147 57,137.5C 54.1576,140.542 51.3243,143.542 48.5,146.5C 46.144,143.978 43.9773,141.312 42,138.5C 41.1859,136.098 41.3526,133.765 42.5,131.5C 43.7678,130.572 45.1011,130.405 46.5,131C 45.1007,132.062 44.1007,133.395 43.5,135C 44.572,138.07 46.4054,140.57 49,142.5C 52.069,140.141 53.7357,137.141 54,133.5C 51.0203,131.836 48.0203,130.17 45,128.5C 42.6667,129.167 40.3333,129.833 38,130.5C 36.159,129.438 34.3257,128.438 32.5,127.5C 30.6925,126 29.0258,124.333 27.5,122.5C 27.1667,121.833 26.8333,121.167 26.5,120.5 Z"/></g>
<g><path style="opacity:0.4" fill="#6f4d38" d="M 66.5,130.5 C 67.9468,131.134 68.6134,132.301 68.5,134C 65.9736,136.584 64.9736,139.75 65.5,143.5C 63.8333,143.5 62.1667,143.5 60.5,143.5C 61.5749,147.938 59.9083,149.938 55.5,149.5C 56.4177,154.495 54.4177,156.828 49.5,156.5C 50.1135,154.717 51.2802,153.384 53,152.5C 53.0781,150.343 53.2448,148.343 53.5,146.5C 55.0709,147.309 56.7376,147.643 58.5,147.5C 58.7711,145.179 58.1045,143.179 56.5,141.5C 58.7175,140.943 61.0509,140.943 63.5,141.5C 63.3899,137.39 64.3899,133.723 66.5,130.5 Z"/></g>
</svg>
