<?xml version="1.0" encoding="UTF-8"?>
<!DOCTYPE svg PUBLIC "-//W3C//DTD SVG 1.1//EN" "http://www.w3.org/Graphics/SVG/1.1/DTD/svg11.dtd">
<svg xmlns="http://www.w3.org/2000/svg" version="1.1" width="105px" height="161px" style="shape-rendering:geometricPrecision; text-rendering:geometricPrecision; image-rendering:optimizeQuality; fill-rule:evenodd; clip-rule:evenodd" xmlns:xlink="http://www.w3.org/1999/xlink">
<g><path style="opacity:0.007" fill="#906d4f" d="M 33.5,-0.5 C 57.1667,-0.5 80.8333,-0.5 104.5,-0.5C 104.5,19.8333 104.5,40.1667 104.5,60.5C 103.07,60.5792 101.736,60.2458 100.5,59.5C 100.167,60.3333 99.8333,61.1667 99.5,62C 100.832,66.3312 102.165,70.6645 103.5,75C 102.66,81.4299 102.326,87.9299 102.5,94.5C 102.747,95.7133 103.414,96.38 104.5,96.5C 104.5,97.1667 104.5,97.8333 104.5,98.5C 103.173,99.8001 101.84,101.133 100.5,102.5C 98.9273,107.804 95.594,111.637 90.5,114C 85.313,120.014 79.313,125.18 72.5,129.5C 71.1638,134.712 69.9971,139.712 69,144.5C 65.4454,147.302 62.1121,150.302 59,153.5C 58.6905,154.766 58.1905,155.933 57.5,157C 61.6346,158.431 65.968,158.931 70.5,158.5C 70.5,156.833 70.5,155.167 70.5,153.5C 71.8333,153.5 73.1667,153.5 74.5,153.5C 74.2837,151.319 75.117,149.653 77,148.5C 76.5335,142.36 78.3668,137.194 82.5,133C 84.1667,132.667 85.8333,132.333 87.5,132C 90.378,127.144 94.378,123.644 99.5,121.5C 100.31,119.202 101.144,116.868 102,114.5C 102.671,113.748 103.504,113.414 104.5,113.5C 104.5,129.167 104.5,144.833 104.5,160.5C 69.5,160.5 34.5,160.5 -0.5,160.5C -0.5,138.833 -0.5,117.167 -0.5,95.5C 0.833333,95.1667 0.833333,94.8333 -0.5,94.5C -0.5,91.5 -0.5,88.5 -0.5,85.5C 2.49845,99.6844 9.83179,111.184 21.5,120C 24.6138,121.983 27.9471,123.483 31.5,124.5C 32.4778,124.811 33.1445,125.478 33.5,126.5C 32.9366,127.939 32.6032,129.439 32.5,131C 33.6466,134.429 34.48,137.929 35,141.5C 36.0113,142.337 37.1779,142.67 38.5,142.5C 38.238,143.978 38.5713,145.311 39.5,146.5C 41.5879,147.179 43.5879,147.512 45.5,147.5C 44.0357,151.712 45.3691,154.712 49.5,156.5C 54.4177,156.828 56.4177,154.495 55.5,149.5C 59.9083,149.938 61.5749,147.938 60.5,143.5C 62.1667,143.5 63.8333,143.5 65.5,143.5C 64.9736,139.75 65.9736,136.584 68.5,134C 68.6134,132.301 67.9468,131.134 66.5,130.5C 66.5,129.833 66.5,129.167 66.5,128.5C 71.429,124.756 76.7624,121.589 82.5,119C 92.0659,111.772 97.8993,102.272 100,90.5C 100.987,81.5584 100.487,72.7251 98.5,64C 96.5407,62.7005 95.374,60.8671 95,58.5C 94.3292,57.7476 93.4959,57.4142 92.5,57.5C 90.1675,51.7205 86.5008,46.8872 81.5,43C 82.4965,41.4045 83.6632,39.9045 85,38.5C 86.6683,32.5069 84.5017,30.0069 78.5,31C 77.6198,32.3561 77.2865,33.8561 77.5,35.5C 78.5,35.5 79.5,35.5 80.5,35.5C 80.5,34.5 80.5,33.5 80.5,32.5C 81.5,32.5 82.5,32.5 83.5,32.5C 84.1686,38.0001 81.8353,40.1667 76.5,39C 75.6719,37.0077 74.3386,35.5077 72.5,34.5C 71.5244,33.1851 70.5244,31.8518 69.5,30.5C 74.5933,28.9168 76.4267,25.5835 75,20.5C 71.5033,15.4269 68.3366,15.4269 65.5,20.5C 65.859,23.2817 67.1923,23.9483 69.5,22.5C 68.7542,21.2638 68.4208,19.9305 68.5,18.5C 73.5628,19.9217 74.5628,22.755 71.5,27C 67.9075,27.3044 64.5742,26.4711 61.5,24.5C 63.25,20.5818 62.5834,17.2485 59.5,14.5C 58.4324,13.5655 57.099,13.2322 55.5,13.5C 55.7271,11.0672 54.7271,9.40058 52.5,8.5C 52.573,6.97306 51.9063,5.97306 50.5,5.5C 49.2946,4.31434 47.9613,4.31434 46.5,5.5C 46.5654,5.06178 46.3988,4.72845 46,4.5C 44.8129,6.04442 44.4795,7.71109 45,9.5C 45.2784,8.5842 45.7784,7.91753 46.5,7.5C 46.8426,12.0411 46.8426,16.3744 46.5,20.5C 45.3882,17.0536 43.0548,15.0536 39.5,14.5C 39.3398,16.1992 39.5065,17.8659 40,19.5C 41.6667,20.7332 43.1667,22.0665 44.5,23.5C 44.5,23.8333 44.5,24.1667 44.5,24.5C 38.9363,24.2825 33.603,25.2825 28.5,27.5C 27.5581,27.3918 26.7247,27.0585 26,26.5C 24.5233,22.0022 26.0233,19.8355 30.5,20C 29.6634,21.0113 29.33,22.1779 29.5,23.5C 30.8221,23.67 31.9887,23.3366 33,22.5C 33.6004,19.9047 33.1004,17.5713 31.5,15.5C 33.5,16.8333 35.5,18.1667 37.5,19.5C 37.3253,17.3792 37.6586,15.3792 38.5,13.5C 37.5041,13.4142 36.6708,13.7476 36,14.5C 35.2613,13.4258 34.2613,12.7591 33,12.5C 30.5,13.3333 28,14.1667 25.5,15C 24.7476,15.6708 24.4142,16.5041 24.5,17.5C 22.0882,17.6941 21.0882,19.0274 21.5,21.5C 20.2437,23.7257 20.2437,26.059 21.5,28.5C 19.2181,27.6103 16.8848,27.4436 14.5,28C 13.244,28.4169 12.5774,29.2502 12.5,30.5C 11.8333,30.5 11.5,30.8333 11.5,31.5C 7.9303,33.8966 7.59696,36.8966 10.5,40.5C 10.9569,41.2975 11.6236,41.6309 12.5,41.5C 11.2702,39.7028 10.6036,37.7028 10.5,35.5C 12.1638,37.4079 13.8305,39.4079 15.5,41.5C 11.0859,46.6559 7.41928,52.3225 4.5,58.5C 2.25599,62.9825 0.589325,67.6491 -0.5,72.5C -0.5,69.8333 -0.5,67.1667 -0.5,64.5C 1.07394,62.8984 1.74061,60.8984 1.5,58.5C 0.833333,58.8333 0.166667,59.1667 -0.5,59.5C -0.5,43.1667 -0.5,26.8333 -0.5,10.5C 10.8333,10.5 22.1667,10.5 33.5,10.5C 33.5,6.83333 33.5,3.16667 33.5,-0.5 Z M 46.5,5.5 C 46.5,6.16667 46.5,6.83333 46.5,7.5C 45.7784,7.91753 45.2784,8.5842 45,9.5C 44.4795,7.71109 44.8129,6.04442 46,4.5C 46.3988,4.72845 46.5654,5.06178 46.5,5.5 Z M 38.5,13.5 C 37.6586,15.3792 37.3253,17.3792 37.5,19.5C 35.5,18.1667 33.5,16.8333 31.5,15.5C 30.5,15.5 29.5,15.5 28.5,15.5C 27.1667,16.1667 25.8333,16.8333 24.5,17.5C 24.4142,16.5041 24.7476,15.6708 25.5,15C 28,14.1667 30.5,13.3333 33,12.5C 34.2613,12.7591 35.2613,13.4258 36,14.5C 36.6708,13.7476 37.5041,13.4142 38.5,13.5 Z M 89.5,31.5 C 86.3,30.1604 82.6333,28.9937 78.5,28C 79.1667,27.3333 79.8333,26.6667 80.5,26C 78.5322,22.0401 75.8655,18.7068 72.5,16C 70.5273,15.5045 68.5273,15.3379 66.5,15.5C 71.1988,12.4272 76.1988,12.0938 81.5,14.5C 84.1806,18.3572 86.6806,22.3572 89,26.5C 89.4935,28.1341 89.6602,29.8008 89.5,31.5 Z M 24.5,17.5 C 24.2014,19.4553 23.2014,20.7886 21.5,21.5C 21.0882,19.0274 22.0882,17.6941 24.5,17.5 Z M 21.5,21.5 C 21.6741,23.861 22.0074,26.1944 22.5,28.5C 22.1667,28.5 21.8333,28.5 21.5,28.5C 20.2437,26.059 20.2437,23.7257 21.5,21.5 Z M 21.5,28.5 C 21.1583,29.3382 20.4916,29.6716 19.5,29.5C 17.0504,29.298 14.717,29.6314 12.5,30.5C 12.5774,29.2502 13.244,28.4169 14.5,28C 16.8848,27.4436 19.2181,27.6103 21.5,28.5 Z M 11.5,31.5 C 11.1667,32.8333 10.8333,34.1667 10.5,35.5C 10.6036,37.7028 11.2702,39.7028 12.5,41.5C 11.6236,41.6309 10.9569,41.2975 10.5,40.5C 7.59696,36.8966 7.9303,33.8966 11.5,31.5 Z M 89.5,31.5 C 92.3903,31.278 95.057,31.9447 97.5,33.5C 98.8104,38.8799 99.1437,44.2133 98.5,49.5C 96.1305,49.8511 93.7972,50.0178 91.5,50C 90.7433,48.4878 89.7433,47.1545 88.5,46C 89.9125,42.2958 90.9125,38.4624 91.5,34.5C 90.8075,33.4822 90.1408,32.4822 89.5,31.5 Z M 12.5,43.5 C 12.1667,44.5 11.5,45.1667 10.5,45.5C 10.5,44.1667 11.1667,43.5 12.5,43.5 Z M 4.5,53.5 C 4.46141,52.2438 4.96141,51.2438 6,50.5C 6.5847,51.9976 6.0847,52.9976 4.5,53.5 Z M 4.5,53.5 C 4.25027,55.674 3.25027,57.3406 1.5,58.5C 1.2729,56.0672 2.2729,54.4006 4.5,53.5 Z M 32.5,145.5 C 33.1174,145.611 33.6174,145.944 34,146.5C 34.6667,148.833 34.6667,151.167 34,153.5C 33.7674,151.22 32.934,149.22 31.5,147.5C 31.8627,146.817 32.1961,146.15 32.5,145.5 Z"/></g>
<g><path style="opacity:0.996" fill="#62100e" d="M 50.5,5.5 C 51.9063,5.97306 52.573,6.97306 52.5,8.5C 52.9693,12.9104 51.9693,16.9104 49.5,20.5C 47.7191,15.972 47.2191,11.3053 48,6.5C 48.6708,5.74756 49.5041,5.41423 50.5,5.5 Z"/></g>
<g><path style="opacity:1" fill="#651c16" d="M 46.5,20.5 C 46.4142,21.4959 46.7476,22.3292 47.5,23C 46.552,23.4828 45.552,23.6495 44.5,23.5C 43.1667,22.0665 41.6667,20.7332 40,19.5C 39.5065,17.8659 39.3398,16.1992 39.5,14.5C 43.0548,15.0536 45.3882,17.0536 46.5,20.5 Z"/></g>
<g><path style="opacity:0.44" fill="#79513b" d="M 50.5,5.5 C 49.5041,5.41423 48.6708,5.74756 48,6.5C 47.2191,11.3053 47.7191,15.972 49.5,20.5C 51.9693,16.9104 52.9693,12.9104 52.5,8.5C 54.7271,9.40058 55.7271,11.0672 55.5,13.5C 57.099,13.2322 58.4324,13.5655 59.5,14.5C 62.5834,17.2485 63.25,20.5818 61.5,24.5C 59.4727,24.3379 57.4727,24.5045 55.5,25C 53.2657,26.7498 50.9324,28.2498 48.5,29.5C 47.1667,27.8333 45.8333,26.1667 44.5,24.5C 44.5,24.1667 44.5,23.8333 44.5,23.5C 45.552,23.6495 46.552,23.4828 47.5,23C 46.7476,22.3292 46.4142,21.4959 46.5,20.5C 46.8426,16.3744 46.8426,12.0411 46.5,7.5C 46.5,6.83333 46.5,6.16667 46.5,5.5C 47.9613,4.31434 49.2946,4.31434 50.5,5.5 Z"/></g>
<g><path style="opacity:1" fill="#651914" d="M 59.5,14.5 C 59.3542,18.619 57.3542,21.619 53.5,23.5C 53.1667,22.8333 52.8333,22.1667 52.5,21.5C 53.5314,19.6178 54.3647,17.6178 55,15.5C 56.3561,14.6198 57.8561,14.2865 59.5,14.5 Z"/></g>
<g><path style="opacity:0.796" fill="#6f2d22" d="M 28.5,15.5 C 29.5,15.5 30.5,15.5 31.5,15.5C 33.1004,17.5713 33.6004,19.9047 33,22.5C 31.9887,23.3366 30.8221,23.67 29.5,23.5C 29.33,22.1779 29.6634,21.0113 30.5,20C 26.0233,19.8355 24.5233,22.0022 26,26.5C 26.7247,27.0585 27.5581,27.3918 28.5,27.5C 33.603,25.2825 38.9363,24.2825 44.5,24.5C 45.8333,26.1667 47.1667,27.8333 48.5,29.5C 47.8333,29.8333 47.1667,30.1667 46.5,30.5C 43.8131,26.2649 40.1464,25.4316 35.5,28C 34.2089,29.2917 34.2089,30.4583 35.5,31.5C 32.1066,33.6104 28.4399,35.2771 24.5,36.5C 26.1436,34.5193 27.8103,32.5193 29.5,30.5C 23.634,28.7431 22.134,25.0765 25,19.5C 26.6268,18.4677 27.7934,17.1344 28.5,15.5 Z"/></g>
<g><path style="opacity:0.206" fill="#7d5a41" d="M 46.5,30.5 C 42.7307,30.244 39.0641,30.5773 35.5,31.5C 34.2089,30.4583 34.2089,29.2917 35.5,28C 40.1464,25.4316 43.8131,26.2649 46.5,30.5 Z"/></g>
<g><path style="opacity:0.047" fill="#876146" d="M 28.5,15.5 C 27.7934,17.1344 26.6268,18.4677 25,19.5C 22.134,25.0765 23.634,28.7431 29.5,30.5C 27.8103,32.5193 26.1436,34.5193 24.5,36.5C 22.6675,37.2485 21.0009,38.2485 19.5,39.5C 14.6724,39.6148 13.3391,37.4481 15.5,33C 15.8333,32.8333 16.1667,32.6667 16.5,32.5C 17.4287,33.6888 17.762,35.0222 17.5,36.5C 18.5,36.5 19.5,36.5 20.5,36.5C 20.702,34.0504 20.3686,31.717 19.5,29.5C 20.4916,29.6716 21.1583,29.3382 21.5,28.5C 21.8333,28.5 22.1667,28.5 22.5,28.5C 22.0074,26.1944 21.6741,23.861 21.5,21.5C 23.2014,20.7886 24.2014,19.4553 24.5,17.5C 25.8333,16.8333 27.1667,16.1667 28.5,15.5 Z"/></g>
<g><path style="opacity:0.22" fill="#815a41" d="M 63.5,32.5 C 59.8333,31.8333 56.1667,31.1667 52.5,30.5C 56.0796,25.5527 60.2463,25.2193 65,29.5C 65.7252,31.1575 65.2252,32.1575 63.5,32.5 Z"/></g>
<g><path style="opacity:0.839" fill="#6e2e23" d="M 72.5,34.5 C 71.7354,34.9234 70.9021,35.2568 70,35.5C 67.8523,34.2698 65.6856,33.2698 63.5,32.5C 65.2252,32.1575 65.7252,31.1575 65,29.5C 60.2463,25.2193 56.0796,25.5527 52.5,30.5C 50.901,30.7678 49.5676,30.4345 48.5,29.5C 50.9324,28.2498 53.2657,26.7498 55.5,25C 57.4727,24.5045 59.4727,24.3379 61.5,24.5C 64.5742,26.4711 67.9075,27.3044 71.5,27C 74.5628,22.755 73.5628,19.9217 68.5,18.5C 68.4208,19.9305 68.7542,21.2638 69.5,22.5C 67.1923,23.9483 65.859,23.2817 65.5,20.5C 68.3366,15.4269 71.5033,15.4269 75,20.5C 76.4267,25.5835 74.5933,28.9168 69.5,30.5C 70.5244,31.8518 71.5244,33.1851 72.5,34.5 Z"/></g>
<g><path style="opacity:0.943" fill="#723225" d="M 19.5,29.5 C 20.3686,31.717 20.702,34.0504 20.5,36.5C 19.5,36.5 18.5,36.5 17.5,36.5C 17.762,35.0222 17.4287,33.6888 16.5,32.5C 16.1667,32.6667 15.8333,32.8333 15.5,33C 13.3391,37.4481 14.6724,39.6148 19.5,39.5C 18.1667,40.1667 16.8333,40.8333 15.5,41.5C 13.8305,39.4079 12.1638,37.4079 10.5,35.5C 10.8333,34.1667 11.1667,32.8333 11.5,31.5C 12.1667,31.5 12.5,31.1667 12.5,30.5C 14.717,29.6314 17.0504,29.298 19.5,29.5 Z"/></g>
<g><path style="opacity:1" fill="#92664f" d="M 72.5,48.5 C 72.5,48.1667 72.5,47.8333 72.5,47.5C 73.1667,47.5 73.8333,47.5 74.5,47.5C 77.2329,47.703 79.5662,48.703 81.5,50.5C 82.6697,52.2785 84.3364,53.2785 86.5,53.5C 87.1098,54.391 87.4431,55.391 87.5,56.5C 86.5,56.5 85.5,56.5 84.5,56.5C 84.5,58.5 84.5,60.5 84.5,62.5C 84.1667,62.5 83.8333,62.5 83.5,62.5C 83.627,58.7145 82.4604,55.3811 80,52.5C 79.1841,51.1772 78.0174,50.5106 76.5,50.5C 75.4863,49.3263 74.153,48.6596 72.5,48.5 Z"/></g>
<g><path style="opacity:1" fill="#6b541c" d="M 18.5,44.5 C 15.5886,50.2839 14.9219,56.2839 16.5,62.5C 16.189,63.4778 15.5223,64.1445 14.5,64.5C 11.422,62.2331 8.08869,61.8997 4.5,63.5C 4.55688,62.391 4.89022,61.391 5.5,60.5C 8.40938,53.9323 12.7427,48.599 18.5,44.5 Z"/></g>
<g><path style="opacity:1" fill="#a08e55" d="M 25.5,39.5 C 25.8927,44.5307 28.226,48.1973 32.5,50.5C 32.1667,51.1667 31.8333,51.8333 31.5,52.5C 30.6554,53.6715 29.9887,55.0048 29.5,56.5C 28.5084,56.3284 27.8417,56.6618 27.5,57.5C 25.1489,59.0696 22.4823,59.9029 19.5,60C 18.6266,61.045 17.6266,61.8783 16.5,62.5C 14.9219,56.2839 15.5886,50.2839 18.5,44.5C 20.2964,42.1 22.6298,40.4333 25.5,39.5 Z"/></g>
<g><path style="opacity:1" fill="#50040c" d="M 66.5,59.5 C 66.6309,60.3764 66.2975,61.0431 65.5,61.5C 64.4822,60.8075 63.4822,60.1408 62.5,59.5C 60.4236,57.4159 58.0903,55.7492 55.5,54.5C 61.0693,52.5392 66.736,52.2059 72.5,53.5C 69.9135,54.48 67.2469,54.8134 64.5,54.5C 64.1201,56.698 64.7868,58.3646 66.5,59.5 Z"/></g>
<g><path style="opacity:1" fill="#834254" d="M 57.5,47.5 C 62.5,47.5 67.5,47.5 72.5,47.5C 72.5,47.8333 72.5,48.1667 72.5,48.5C 62.1474,47.29 53.314,50.29 46,57.5C 45.5172,58.448 45.3505,59.448 45.5,60.5C 43.9255,62.5475 42.9255,64.8808 42.5,67.5C 41.1054,69.0544 40.4387,68.721 40.5,66.5C 42.1058,64.4096 42.6058,62.0762 42,59.5C 40.4573,62.4191 38.9573,62.7524 37.5,60.5C 38.0998,59.1001 39.0998,58.1001 40.5,57.5C 41.2625,56.7321 42.2625,56.2321 43.5,56C 44.2524,55.3292 44.5858,54.4959 44.5,53.5C 44.8333,53.5 45.1667,53.5 45.5,53.5C 49.7866,52.0234 53.7866,50.0234 57.5,47.5 Z"/></g>
<g><path style="opacity:1" fill="#3a0308" d="M 55.5,54.5 C 58.0903,55.7492 60.4236,57.4159 62.5,59.5C 61.3473,60.3132 61.3473,61.3132 62.5,62.5C 60.6565,62.7552 58.6565,62.9219 56.5,63C 57.7112,63.8928 57.7112,64.7261 56.5,65.5C 54.2466,64.7469 52.4133,63.4136 51,61.5C 50.5357,62.0944 50.369,62.7611 50.5,63.5C 49.8333,62.8333 49.1667,62.1667 48.5,61.5C 48.6716,60.5084 48.3382,59.8417 47.5,59.5C 47.8333,58.5 48.5,57.8333 49.5,57.5C 51.5,56.5 53.5,55.5 55.5,54.5 Z"/></g>
<g><path style="opacity:1" fill="#354c06" d="M 87.5,56.5 C 90.1101,59.6324 91.7767,63.299 92.5,67.5C 90.5,67.5 89.5,68.5 89.5,70.5C 89.8308,72.3224 90.4975,73.9891 91.5,75.5C 90.5655,76.5676 90.2322,77.901 90.5,79.5C 88.5853,79.7845 86.9187,79.4511 85.5,78.5C 85.3573,76.7376 85.6906,75.0709 86.5,73.5C 84.0221,71.5637 84.0221,69.5637 86.5,67.5C 85.9724,65.6639 85.3058,63.9972 84.5,62.5C 84.5,60.5 84.5,58.5 84.5,56.5C 85.5,56.5 86.5,56.5 87.5,56.5 Z"/></g>
<g><path style="opacity:1" fill="#7b5853" d="M 31.5,52.5 C 31.8212,54.0481 32.8212,54.7148 34.5,54.5C 36.8795,53.4331 37.8795,54.4331 37.5,57.5C 38.5,57.5 39.5,57.5 40.5,57.5C 39.0998,58.1001 38.0998,59.1001 37.5,60.5C 37.8397,65.1333 36.5064,69.1333 33.5,72.5C 33.6633,70.1432 33.4966,67.8098 33,65.5C 32.2828,66.0442 31.7828,66.7109 31.5,67.5C 30.8333,63.8333 30.1667,60.1667 29.5,56.5C 29.9887,55.0048 30.6554,53.6715 31.5,52.5 Z"/></g>
<g><path style="opacity:1" fill="#19060a" d="M 77.5,64.5 C 77.4431,63.391 77.1098,62.391 76.5,61.5C 75.6521,59.9069 74.3187,58.7403 72.5,58C 71.552,57.5172 70.552,57.3505 69.5,57.5C 69.505,60.5318 69.8384,63.5318 70.5,66.5C 69.4999,68.8461 68.1666,71.0128 66.5,73C 66.7591,74.2613 67.4258,75.2613 68.5,76C 65.9453,78.1986 65.9453,79.3652 68.5,79.5C 68.5,81.1667 68.5,82.8333 68.5,84.5C 67.8333,84.5 67.1667,84.5 66.5,84.5C 64.5,83.5 62.5,82.5 60.5,81.5C 58.0521,80.5269 55.3854,80.1936 52.5,80.5C 50.8564,80.8102 49.8564,81.8102 49.5,83.5C 47.8333,83.5 46.1667,83.5 44.5,83.5C 41.1626,83.1868 38.8293,84.5201 37.5,87.5C 37.5,87.8333 37.5,88.1667 37.5,88.5C 36.5084,88.3284 35.8417,88.6618 35.5,89.5C 33.302,90.0671 30.9686,90.0671 28.5,89.5C 23.7725,91.445 22.7725,90.445 25.5,86.5C 26.1667,86.5 26.8333,86.5 27.5,86.5C 30.1873,86.6641 32.854,86.4974 35.5,86C 40.4794,80.9026 42.8127,74.736 42.5,67.5C 42.9255,64.8808 43.9255,62.5475 45.5,60.5C 46.1667,60.1667 46.8333,59.8333 47.5,59.5C 48.3382,59.8417 48.6716,60.5084 48.5,61.5C 45.817,63.9079 45.1504,66.9079 46.5,70.5C 49.0691,71.5032 51.0691,70.6699 52.5,68C 51.5862,66.5936 50.9195,65.0936 50.5,63.5C 50.369,62.7611 50.5357,62.0944 51,61.5C 52.4133,63.4136 54.2466,64.7469 56.5,65.5C 57.7112,64.7261 57.7112,63.8928 56.5,63C 58.6565,62.9219 60.6565,62.7552 62.5,62.5C 61.3473,61.3132 61.3473,60.3132 62.5,59.5C 63.4822,60.1408 64.4822,60.8075 65.5,61.5C 66.2975,61.0431 66.6309,60.3764 66.5,59.5C 66.5,58.1667 66.5,56.8333 66.5,55.5C 69.8499,55.335 73.1832,55.5017 76.5,56C 79.4767,58.9081 79.81,61.7415 77.5,64.5 Z"/></g>
<g><path style="opacity:1" fill="#b49d95" d="M 48.5,61.5 C 49.1667,62.1667 49.8333,62.8333 50.5,63.5C 50.9195,65.0936 51.5862,66.5936 52.5,68C 51.0691,70.6699 49.0691,71.5032 46.5,70.5C 45.1504,66.9079 45.817,63.9079 48.5,61.5 Z"/></g>
<g><path style="opacity:1" fill="#c09334" d="M 92.5,67.5 C 93.3382,67.8417 93.6716,68.5084 93.5,69.5C 93.6309,70.3764 93.2975,71.0431 92.5,71.5C 91.5832,70.8728 90.5832,70.5394 89.5,70.5C 89.5,68.5 90.5,67.5 92.5,67.5 Z"/></g>
<g><path style="opacity:1" fill="#4c1b28" d="M 76.5,50.5 C 78.0174,50.5106 79.1841,51.1772 80,52.5C 82.4604,55.3811 83.627,58.7145 83.5,62.5C 82.4885,65.2521 81.4885,67.9188 80.5,70.5C 80.44,69.9569 80.1067,69.6236 79.5,69.5C 78.0986,70.5207 76.7653,71.5207 75.5,72.5C 74.209,72.2627 73.209,72.596 72.5,73.5C 72.0713,76.1473 70.7379,78.1473 68.5,79.5C 65.9453,79.3652 65.9453,78.1986 68.5,76C 67.4258,75.2613 66.7591,74.2613 66.5,73C 68.1666,71.0128 69.4999,68.8461 70.5,66.5C 69.8384,63.5318 69.505,60.5318 69.5,57.5C 70.552,57.3505 71.552,57.5172 72.5,58C 74.3187,58.7403 75.6521,59.9069 76.5,61.5C 74.0274,61.0882 72.6941,62.0882 72.5,64.5C 71.5386,66.2646 71.2053,68.2646 71.5,70.5C 73.2915,70.634 74.9582,70.3007 76.5,69.5C 77.4511,68.0813 77.7845,66.4147 77.5,64.5C 79.81,61.7415 79.4767,58.9081 76.5,56C 73.1832,55.5017 69.8499,55.335 66.5,55.5C 66.5,56.8333 66.5,58.1667 66.5,59.5C 64.7868,58.3646 64.1201,56.698 64.5,54.5C 67.2469,54.8134 69.9135,54.48 72.5,53.5C 66.736,52.2059 61.0693,52.5392 55.5,54.5C 53.5,55.5 51.5,56.5 49.5,57.5C 52.0969,54.4394 55.4302,52.2727 59.5,51C 65.1569,50.5006 70.8236,50.3339 76.5,50.5 Z"/></g>
<g><path style="opacity:1" fill="#7d6b69" d="M 76.5,61.5 C 77.1098,62.391 77.4431,63.391 77.5,64.5C 77.7845,66.4147 77.4511,68.0813 76.5,69.5C 76.5,69.1667 76.5,68.8333 76.5,68.5C 76.5,66.8333 76.5,65.1667 76.5,63.5C 75.209,63.2627 74.209,63.596 73.5,64.5C 73.1667,64.5 72.8333,64.5 72.5,64.5C 72.6941,62.0882 74.0274,61.0882 76.5,61.5 Z"/></g>
<g><path style="opacity:1" fill="#a98669" d="M 72.5,64.5 C 72.8333,64.5 73.1667,64.5 73.5,64.5C 73.5544,66.632 74.5544,67.9653 76.5,68.5C 76.5,68.8333 76.5,69.1667 76.5,69.5C 74.9582,70.3007 73.2915,70.634 71.5,70.5C 71.2053,68.2646 71.5386,66.2646 72.5,64.5 Z"/></g>
<g><path style="opacity:1" fill="#cfc6c5" d="M 76.5,68.5 C 74.5544,67.9653 73.5544,66.632 73.5,64.5C 74.209,63.596 75.209,63.2627 76.5,63.5C 76.5,65.1667 76.5,66.8333 76.5,68.5 Z"/></g>
<g><path style="opacity:1" fill="#7e5e6a" d="M 27.5,57.5 C 28.8333,61.8333 28.8333,66.1667 27.5,70.5C 26.4036,72.1032 25.0703,73.6032 23.5,75C 21.272,75.8201 19.272,75.4868 17.5,74C 19.9739,73.9633 21.9739,73.13 23.5,71.5C 24.1667,71.5 24.5,71.1667 24.5,70.5C 27.7592,66.5409 27.0926,63.5409 22.5,61.5C 18.2205,62.4473 16.2205,65.114 16.5,69.5C 14.1331,68.8363 12.1331,67.503 10.5,65.5C 9.61432,66.325 9.28099,67.325 9.5,68.5C 9.5,69.8333 9.5,71.1667 9.5,72.5C 8.5,72.5 7.5,72.5 6.5,72.5C 6.30591,69.6703 5.63925,67.0037 4.5,64.5C 4.5,64.1667 4.5,63.8333 4.5,63.5C 8.08869,61.8997 11.422,62.2331 14.5,64.5C 15.5223,64.1445 16.189,63.4778 16.5,62.5C 17.6266,61.8783 18.6266,61.045 19.5,60C 22.4823,59.9029 25.1489,59.0696 27.5,57.5 Z"/></g>
<g><path style="opacity:1" fill="#402038" d="M 24.5,70.5 C 24.5,69.1667 24.5,67.8333 24.5,66.5C 23.4228,63.028 21.7561,62.6947 19.5,65.5C 18.4265,66.2506 18.2599,67.2506 19,68.5C 20.3997,69.748 21.8997,70.748 23.5,71.5C 21.9739,73.13 19.9739,73.9633 17.5,74C 19.272,75.4868 21.272,75.8201 23.5,75C 25.0703,73.6032 26.4036,72.1032 27.5,70.5C 28.5735,71.2506 28.7401,72.2506 28,73.5C 25.7607,76.962 22.594,78.2954 18.5,77.5C 17.828,76.7326 16.9947,76.0659 16,75.5C 15.7996,77.3197 14.9663,78.653 13.5,79.5C 13.5,78.8333 13.5,78.1667 13.5,77.5C 13.5,76.8333 13.5,76.1667 13.5,75.5C 14.525,75.1034 14.6917,74.4368 14,73.5C 12.483,71.7605 10.983,70.0938 9.5,68.5C 9.28099,67.325 9.61432,66.325 10.5,65.5C 12.1331,67.503 14.1331,68.8363 16.5,69.5C 16.2205,65.114 18.2205,62.4473 22.5,61.5C 27.0926,63.5409 27.7592,66.5409 24.5,70.5 Z"/></g>
<g><path style="opacity:1" fill="#341b1c" d="M 19.5,65.5 C 20.771,65.7948 22.4377,66.1282 24.5,66.5C 24.5,67.8333 24.5,69.1667 24.5,70.5C 24.5,71.1667 24.1667,71.5 23.5,71.5C 21.8997,70.748 20.3997,69.748 19,68.5C 18.2599,67.2506 18.4265,66.2506 19.5,65.5 Z"/></g>
<g><path style="opacity:1" fill="#afa0a0" d="M 24.5,66.5 C 22.4377,66.1282 20.771,65.7948 19.5,65.5C 21.7561,62.6947 23.4228,63.028 24.5,66.5 Z"/></g>
<g><path style="opacity:1" fill="#1a0f14" d="M 9.5,68.5 C 10.983,70.0938 12.483,71.7605 14,73.5C 14.6917,74.4368 14.525,75.1034 13.5,75.5C 12.5637,74.0256 11.2303,73.0256 9.5,72.5C 9.5,71.1667 9.5,69.8333 9.5,68.5 Z"/></g>
<g><path style="opacity:1" fill="#884f0b" d="M 93.5,69.5 C 94.4511,70.9187 94.7845,72.5853 94.5,74.5C 93.391,74.5569 92.391,74.8902 91.5,75.5C 90.4975,73.9891 89.8308,72.3224 89.5,70.5C 90.5832,70.5394 91.5832,70.8728 92.5,71.5C 93.2975,71.0431 93.6309,70.3764 93.5,69.5 Z"/></g>
<g><path style="opacity:1" fill="#512229" d="M 33.5,72.5 C 33.5,74.8333 33.5,77.1667 33.5,79.5C 31.6165,81.136 29.6165,81.4693 27.5,80.5C 29.6289,76.4443 30.9623,72.111 31.5,67.5C 31.7828,66.7109 32.2828,66.0442 33,65.5C 33.4966,67.8098 33.6633,70.1432 33.5,72.5 Z"/></g>
<g><path style="opacity:1" fill="#5b372d" d="M 4.5,64.5 C 5.63925,67.0037 6.30591,69.6703 6.5,72.5C 7.5,72.5 8.5,72.5 9.5,72.5C 11.2303,73.0256 12.5637,74.0256 13.5,75.5C 13.5,76.1667 13.5,76.8333 13.5,77.5C 9.41051,77.4119 6.74384,75.4119 5.5,71.5C 5.15829,70.6618 4.49162,70.3284 3.5,70.5C 3.20528,68.2646 3.53862,66.2646 4.5,64.5 Z"/></g>
<g><path style="opacity:1" fill="#6d454b" d="M 29.5,56.5 C 30.1667,60.1667 30.8333,63.8333 31.5,67.5C 30.9623,72.111 29.6289,76.4443 27.5,80.5C 29.6165,81.4693 31.6165,81.136 33.5,79.5C 35.6456,79.6964 35.8122,80.6964 34,82.5C 31.6987,83.7599 29.5321,85.0933 27.5,86.5C 26.8333,86.5 26.1667,86.5 25.5,86.5C 24.2946,85.3143 22.9613,85.3143 21.5,86.5C 21.1583,85.6618 20.4916,85.3284 19.5,85.5C 20.6475,83.4237 21.9808,81.4237 23.5,79.5C 21.7086,78.8302 20.0419,78.1635 18.5,77.5C 22.594,78.2954 25.7607,76.962 28,73.5C 28.7401,72.2506 28.5735,71.2506 27.5,70.5C 28.8333,66.1667 28.8333,61.8333 27.5,57.5C 27.8417,56.6618 28.5084,56.3284 29.5,56.5 Z"/></g>
<g><path style="opacity:1" fill="#14180d" d="M 83.5,62.5 C 83.8333,62.5 84.1667,62.5 84.5,62.5C 85.3058,63.9972 85.9724,65.6639 86.5,67.5C 84.0221,69.5637 84.0221,71.5637 86.5,73.5C 85.6906,75.0709 85.3573,76.7376 85.5,78.5C 83.8333,78.5 82.1667,78.5 80.5,78.5C 81.3715,75.9382 81.3715,73.2716 80.5,70.5C 81.4885,67.9188 82.4885,65.2521 83.5,62.5 Z"/></g>
<g><path style="opacity:1" fill="#1a0b0e" d="M 5.5,71.5 C 6.74384,75.4119 9.41051,77.4119 13.5,77.5C 13.5,78.1667 13.5,78.8333 13.5,79.5C 12.5,80.1667 11.5,80.8333 10.5,81.5C 9.83333,81.8333 9.16667,82.1667 8.5,82.5C 7.83333,82.5 7.5,82.1667 7.5,81.5C 8.77056,78.5475 7.77056,76.5475 4.5,75.5C 4.23219,73.901 4.56552,72.5676 5.5,71.5 Z"/></g>
<g><path style="opacity:1" fill="#c0a848" d="M 94.5,74.5 C 94.5,76.1667 94.5,77.8333 94.5,79.5C 93.5,79.5 92.5,79.5 91.5,79.5C 91.5,78.1667 91.5,76.8333 91.5,75.5C 92.391,74.8902 93.391,74.5569 94.5,74.5 Z"/></g>
<g><path style="opacity:1" fill="#573d07" d="M 4.5,75.5 C 7.77056,76.5475 8.77056,78.5475 7.5,81.5C 6.10008,80.9002 5.10008,79.9002 4.5,78.5C 4.5,77.5 4.5,76.5 4.5,75.5 Z"/></g>
<g><path style="opacity:1" fill="#5f2331" d="M 42.5,67.5 C 42.8127,74.736 40.4794,80.9026 35.5,86C 32.854,86.4974 30.1873,86.6641 27.5,86.5C 29.5321,85.0933 31.6987,83.7599 34,82.5C 35.8122,80.6964 35.6456,79.6964 33.5,79.5C 33.5,77.1667 33.5,74.8333 33.5,72.5C 36.5064,69.1333 37.8397,65.1333 37.5,60.5C 38.9573,62.7524 40.4573,62.4191 42,59.5C 42.6058,62.0762 42.1058,64.4096 40.5,66.5C 40.4387,68.721 41.1054,69.0544 42.5,67.5 Z"/></g>
<g><path style="opacity:1" fill="#876076" d="M 18.5,77.5 C 20.0419,78.1635 21.7086,78.8302 23.5,79.5C 21.9808,81.4237 20.6475,83.4237 19.5,85.5C 19.44,86.0431 19.1067,86.3764 18.5,86.5C 17.0955,83.9292 15.7621,83.9292 14.5,86.5C 13.1667,86.5 11.8333,86.5 10.5,86.5C 10.5,84.8333 10.5,83.1667 10.5,81.5C 11.5,80.8333 12.5,80.1667 13.5,79.5C 14.9663,78.653 15.7996,77.3197 16,75.5C 16.9947,76.0659 17.828,76.7326 18.5,77.5 Z"/></g>
<g><path style="opacity:1" fill="#969289" d="M 80.5,70.5 C 81.3715,73.2716 81.3715,75.9382 80.5,78.5C 82.1667,78.5 83.8333,78.5 85.5,78.5C 86.9187,79.4511 88.5853,79.7845 90.5,79.5C 91.1098,80.391 91.4431,81.391 91.5,82.5C 87.1667,83.1667 82.8333,83.8333 78.5,84.5C 77.8501,84.1961 77.1835,83.8627 76.5,83.5C 75.5108,79.8927 75.1774,76.226 75.5,72.5C 76.7653,71.5207 78.0986,70.5207 79.5,69.5C 80.1067,69.6236 80.44,69.9569 80.5,70.5 Z"/></g>
<g><path style="opacity:1" fill="#8a6513" d="M 91.5,75.5 C 91.5,76.8333 91.5,78.1667 91.5,79.5C 92.5,79.5 93.5,79.5 94.5,79.5C 94.5,80.5 94.5,81.5 94.5,82.5C 93.5,82.5 92.5,82.5 91.5,82.5C 91.4431,81.391 91.1098,80.391 90.5,79.5C 90.2322,77.901 90.5655,76.5676 91.5,75.5 Z"/></g>
<g><path style="opacity:1" fill="#9d5548" d="M 52.5,80.5 C 55.3854,80.1936 58.0521,80.5269 60.5,81.5C 59.375,82.3478 59.375,83.3478 60.5,84.5C 57.2459,84.2064 54.5792,82.873 52.5,80.5 Z"/></g>
<g><path style="opacity:1" fill="#8c7b36" d="M 72.5,73.5 C 73.2389,73.369 73.9056,73.5357 74.5,74C 73.5442,77.3936 73.2108,80.8936 73.5,84.5C 72.0011,85.494 70.3344,85.494 68.5,84.5C 68.5,82.8333 68.5,81.1667 68.5,79.5C 70.7379,78.1473 72.0713,76.1473 72.5,73.5 Z"/></g>
<g><path style="opacity:1" fill="#7a715c" d="M 72.5,73.5 C 73.209,72.596 74.209,72.2627 75.5,72.5C 75.1774,76.226 75.5108,79.8927 76.5,83.5C 77.1835,83.8627 77.8501,84.1961 78.5,84.5C 78.1583,85.3382 77.4916,85.6716 76.5,85.5C 75.791,84.596 74.791,84.2627 73.5,84.5C 73.2108,80.8936 73.5442,77.3936 74.5,74C 73.9056,73.5357 73.2389,73.369 72.5,73.5 Z"/></g>
<g><path style="opacity:1" fill="#4e2510" d="M 4.5,78.5 C 5.10008,79.9002 6.10008,80.9002 7.5,81.5C 7.5,82.1667 7.83333,82.5 8.5,82.5C 8.78193,85.9097 9.4486,89.243 10.5,92.5C 10.3764,93.1067 10.0431,93.44 9.5,93.5C 7.72157,90.4342 6.0549,87.4342 4.5,84.5C 4.5,82.5 4.5,80.5 4.5,78.5 Z"/></g>
<g><path style="opacity:1" fill="#6a271f" d="M 44.5,83.5 C 43.5,84.8333 42.5,86.1667 41.5,87.5C 40.1667,87.5 38.8333,87.5 37.5,87.5C 38.8293,84.5201 41.1626,83.1868 44.5,83.5 Z"/></g>
<g><path style="opacity:1" fill="#9f262d" d="M 52.5,80.5 C 54.5792,82.873 57.2459,84.2064 60.5,84.5C 59.8763,86.754 58.543,88.4206 56.5,89.5C 55.7095,88.5987 54.7095,87.9321 53.5,87.5C 52.4726,85.8058 51.1392,84.4725 49.5,83.5C 49.8564,81.8102 50.8564,80.8102 52.5,80.5 Z"/></g>
<g><path style="opacity:1" fill="#b27464" d="M 44.5,83.5 C 46.1667,83.5 47.8333,83.5 49.5,83.5C 51.1392,84.4725 52.4726,85.8058 53.5,87.5C 51.369,88.3138 49.0356,88.8138 46.5,89C 47.8331,90.8402 47.6665,91.3402 46,90.5C 45.5065,92.1341 45.3398,93.8008 45.5,95.5C 43.901,95.7678 42.5676,95.4345 41.5,94.5C 44.6822,93.8597 45.0155,92.8597 42.5,91.5C 42.6107,90.8826 42.944,90.3826 43.5,90C 42.244,89.5831 41.5774,88.7498 41.5,87.5C 42.5,86.1667 43.5,84.8333 44.5,83.5 Z"/></g>
<g><path style="opacity:1" fill="#cd4640" d="M 60.5,81.5 C 62.5,82.5 64.5,83.5 66.5,84.5C 67.925,85.922 68.925,87.5887 69.5,89.5C 68.9033,89.7352 68.5699,90.2352 68.5,91C 69.5,92.6667 70.5,94.3333 71.5,96C 70.4843,98.1762 68.8176,99.3429 66.5,99.5C 65.8444,98.7222 65.0111,98.0556 64,97.5C 60.9741,97.7131 58.4741,98.7131 56.5,100.5C 55.5655,101.568 55.2322,102.901 55.5,104.5C 54.1667,104.5 52.8333,104.5 51.5,104.5C 50.1394,102.473 48.4727,100.806 46.5,99.5C 49.0046,99.9802 51.3379,100.98 53.5,102.5C 54.6808,100.865 54.6808,99.198 53.5,97.5C 57.2348,96.8473 60.9015,96.0139 64.5,95C 66.2446,93.308 66.5779,91.4747 65.5,89.5C 60.6908,94.3678 55.3575,94.7011 49.5,90.5C 51.9162,90.3745 54.2496,90.0411 56.5,89.5C 58.543,88.4206 59.8763,86.754 60.5,84.5C 59.375,83.3478 59.375,82.3478 60.5,81.5 Z"/></g>
<g><path style="opacity:1" fill="#8a5860" d="M 66.5,84.5 C 67.1667,84.5 67.8333,84.5 68.5,84.5C 70.3344,85.494 72.0011,85.494 73.5,84.5C 74.791,84.2627 75.791,84.596 76.5,85.5C 73.9017,86.4722 73.9017,87.4722 76.5,88.5C 77.3897,90.7819 77.5564,93.1152 77,95.5C 74.9357,97.3011 73.1023,99.3011 71.5,101.5C 71.1667,101.5 70.8333,101.5 70.5,101.5C 71.5,99.5 72.5,97.5 73.5,95.5C 74.6291,93.3718 74.7958,91.0385 74,88.5C 72.9887,87.6634 71.8221,87.33 70.5,87.5C 70.5,88.5 70.5,89.5 70.5,90.5C 69.8333,90.5 69.5,90.1667 69.5,89.5C 68.925,87.5887 67.925,85.922 66.5,84.5 Z"/></g>
<g><path style="opacity:0.514" fill="#775b41" d="M 92.5,57.5 C 93.4959,57.4142 94.3292,57.7476 95,58.5C 95.374,60.8671 96.5407,62.7005 98.5,64C 100.487,72.7251 100.987,81.5584 100,90.5C 97.8993,102.272 92.0659,111.772 82.5,119C 76.7624,121.589 71.429,124.756 66.5,128.5C 66.1667,128.5 65.8333,128.5 65.5,128.5C 65.1961,127.85 64.8627,127.183 64.5,126.5C 66.1836,125.85 67.5169,124.85 68.5,123.5C 95.1105,108.277 103.11,86.2773 92.5,57.5 Z"/></g>
<g><path style="opacity:1" fill="#d7c0b1" d="M 73.5,95.5 C 72.6923,93.7798 71.6923,92.1131 70.5,90.5C 70.5,89.5 70.5,88.5 70.5,87.5C 71.8221,87.33 72.9887,87.6634 74,88.5C 74.7958,91.0385 74.6291,93.3718 73.5,95.5 Z"/></g>
<g><path style="opacity:1" fill="#b54c41" d="M 37.5,87.5 C 38.8333,87.5 40.1667,87.5 41.5,87.5C 41.5774,88.7498 42.244,89.5831 43.5,90C 42.944,90.3826 42.6107,90.8826 42.5,91.5C 40.2719,91.2231 38.6053,90.2231 37.5,88.5C 37.5,88.1667 37.5,87.8333 37.5,87.5 Z"/></g>
<g><path style="opacity:1" fill="#a38297" d="M 91.5,82.5 C 92.5,82.5 93.5,82.5 94.5,82.5C 94.7062,85.4951 94.0395,88.1617 92.5,90.5C 91.8478,89.2749 90.6811,88.6083 89,88.5C 87.8333,88.8333 86.6667,89.1667 85.5,89.5C 83.8481,94.4065 82.5148,99.4065 81.5,104.5C 80.5,104.5 79.5,104.5 78.5,104.5C 79.4171,101.995 79.4171,99.6618 78.5,97.5C 78.6641,94.8127 78.4974,92.146 78,89.5C 77.6174,88.944 77.1174,88.6107 76.5,88.5C 73.9017,87.4722 73.9017,86.4722 76.5,85.5C 77.4916,85.6716 78.1583,85.3382 78.5,84.5C 82.8333,83.8333 87.1667,83.1667 91.5,82.5 Z"/></g>
<g><path style="opacity:1" fill="#442649" d="M 19.5,85.5 C 20.4916,85.3284 21.1583,85.6618 21.5,86.5C 20.1667,88.1667 20.1667,89.8333 21.5,91.5C 20.6618,91.8417 20.3284,92.5084 20.5,93.5C 18.5434,90.9409 16.8767,91.2742 15.5,94.5C 14.7611,94.631 14.0944,94.4643 13.5,94C 16.3149,91.4794 15.9816,89.8127 12.5,89C 13.3805,88.2917 14.0472,87.4584 14.5,86.5C 15.7621,83.9292 17.0955,83.9292 18.5,86.5C 19.1067,86.3764 19.44,86.0431 19.5,85.5 Z"/></g>
<g><path style="opacity:1" fill="#bb8c69" d="M 37.5,88.5 C 38.6053,90.2231 40.2719,91.2231 42.5,91.5C 41.8902,92.391 41.5569,93.391 41.5,94.5C 40.609,93.8902 39.609,93.5569 38.5,93.5C 37.1224,92.4549 36.1224,91.1216 35.5,89.5C 35.8417,88.6618 36.5084,88.3284 37.5,88.5 Z"/></g>
<g><path style="opacity:1" fill="#8f4c58" d="M 28.5,89.5 C 30.9686,90.0671 33.302,90.0671 35.5,89.5C 36.1224,91.1216 37.1224,92.4549 38.5,93.5C 39.6005,94.6049 40.2671,95.9382 40.5,97.5C 36.9098,94.3607 32.9098,91.694 28.5,89.5 Z"/></g>
<g><path style="opacity:1" fill="#62383a" d="M 10.5,81.5 C 10.5,83.1667 10.5,84.8333 10.5,86.5C 11.8333,86.5 13.1667,86.5 14.5,86.5C 14.0472,87.4584 13.3805,88.2917 12.5,89C 15.9816,89.8127 16.3149,91.4794 13.5,94C 14.0944,94.4643 14.7611,94.631 15.5,94.5C 17.1344,95.2066 18.4677,96.3732 19.5,98C 19.1667,98.3333 18.8333,98.6667 18.5,99C 19.7932,99.49 21.1266,99.6567 22.5,99.5C 20.3718,100.629 18.0385,100.796 15.5,100C 13.2826,97.8399 11.2826,95.6732 9.5,93.5C 10.0431,93.44 10.3764,93.1067 10.5,92.5C 9.4486,89.243 8.78193,85.9097 8.5,82.5C 9.16667,82.1667 9.83333,81.8333 10.5,81.5 Z"/></g>
<g><path style="opacity:1" fill="#bb8f93" d="M 25.5,86.5 C 22.7725,90.445 23.7725,91.445 28.5,89.5C 32.9098,91.694 36.9098,94.3607 40.5,97.5C 41.1667,97.5 41.8333,97.5 42.5,97.5C 42.8333,98.1667 43.1667,98.8333 43.5,99.5C 41.8828,98.962 40.2161,98.6287 38.5,98.5C 38.5,99.5 38.5,100.5 38.5,101.5C 35.1091,98.6147 31.7758,95.448 28.5,92C 26.1902,91.5034 23.8568,91.3367 21.5,91.5C 20.1667,89.8333 20.1667,88.1667 21.5,86.5C 22.9613,85.3143 24.2946,85.3143 25.5,86.5 Z"/></g>
<g><path style="opacity:1" fill="#eee7e1" d="M 42.5,91.5 C 45.0155,92.8597 44.6822,93.8597 41.5,94.5C 41.5569,93.391 41.8902,92.391 42.5,91.5 Z"/></g>
<g><path style="opacity:1" fill="#853f4f" d="M 21.5,91.5 C 23.8568,91.3367 26.1902,91.5034 28.5,92C 31.7758,95.448 35.1091,98.6147 38.5,101.5C 39.6253,103.129 40.9586,104.629 42.5,106C 44.6526,106.099 46.3192,106.933 47.5,108.5C 45.8828,107.962 44.2161,107.629 42.5,107.5C 41.609,106.89 40.609,106.557 39.5,106.5C 36.2171,102.879 32.8838,99.2125 29.5,95.5C 27.1601,93.3206 24.4934,91.9873 21.5,91.5 Z"/></g>
<g><path style="opacity:1" fill="#743115" d="M 38.5,93.5 C 39.609,93.5569 40.609,93.8902 41.5,94.5C 42.5676,95.4345 43.901,95.7678 45.5,95.5C 45.5,96.5 45.5,97.5 45.5,98.5C 44.609,97.8902 43.609,97.5569 42.5,97.5C 41.8333,97.5 41.1667,97.5 40.5,97.5C 40.2671,95.9382 39.6005,94.6049 38.5,93.5 Z"/></g>
<g><path style="opacity:1" fill="#1d1016" d="M 4.5,84.5 C 6.0549,87.4342 7.72157,90.4342 9.5,93.5C 11.2826,95.6732 13.2826,97.8399 15.5,100C 18.0385,100.796 20.3718,100.629 22.5,99.5C 24.8984,99.2594 26.8984,99.9261 28.5,101.5C 27.0646,102.096 25.398,102.096 23.5,101.5C 20.7018,102.65 18.0352,103.983 15.5,105.5C 13.901,105.232 12.5676,105.566 11.5,106.5C 10.8826,106.389 10.3826,106.056 10,105.5C 9.80224,102.298 8.9689,99.2979 7.5,96.5C 5.89828,97.55 5.06495,96.8833 5,94.5C 4.50166,91.1832 4.33499,87.8499 4.5,84.5 Z"/></g>
<g><path style="opacity:1" fill="#d56b60" d="M 53.5,87.5 C 54.7095,87.9321 55.7095,88.5987 56.5,89.5C 54.2496,90.0411 51.9162,90.3745 49.5,90.5C 55.3575,94.7011 60.6908,94.3678 65.5,89.5C 66.5779,91.4747 66.2446,93.308 64.5,95C 60.9015,96.0139 57.2348,96.8473 53.5,97.5C 54.6808,99.198 54.6808,100.865 53.5,102.5C 51.3379,100.98 49.0046,99.9802 46.5,99.5C 45.8333,99.5 45.5,99.1667 45.5,98.5C 45.5,97.5 45.5,96.5 45.5,95.5C 45.3398,93.8008 45.5065,92.1341 46,90.5C 47.6665,91.3402 47.8331,90.8402 46.5,89C 49.0356,88.8138 51.369,88.3138 53.5,87.5 Z"/></g>
<g><path style="opacity:1" fill="#8a6288" d="M 92.5,90.5 C 91.9518,92.6264 91.2852,94.6264 90.5,96.5C 89.595,94.1925 88.2617,94.1925 86.5,96.5C 84.7711,98.8511 84.1044,101.518 84.5,104.5C 83.5,104.5 82.5,104.5 81.5,104.5C 82.5148,99.4065 83.8481,94.4065 85.5,89.5C 86.6667,89.1667 87.8333,88.8333 89,88.5C 90.6811,88.6083 91.8478,89.2749 92.5,90.5 Z"/></g>
<g><path style="opacity:1" fill="#835c74" d="M 20.5,93.5 C 23.5327,94.85 26.5327,96.35 29.5,98C 30.2524,98.6708 30.5858,99.5041 30.5,100.5C 30.1583,101.338 29.4916,101.672 28.5,101.5C 26.8984,99.9261 24.8984,99.2594 22.5,99.5C 21.1266,99.6567 19.7932,99.49 18.5,99C 18.8333,98.6667 19.1667,98.3333 19.5,98C 18.4677,96.3732 17.1344,95.2066 15.5,94.5C 16.8767,91.2742 18.5434,90.9409 20.5,93.5 Z"/></g>
<g><path style="opacity:1" fill="#b999a4" d="M 90.5,96.5 C 88.1618,100.537 85.8285,104.537 83.5,108.5C 81.8958,107.713 81.2291,106.38 81.5,104.5C 82.5,104.5 83.5,104.5 84.5,104.5C 84.1044,101.518 84.7711,98.8511 86.5,96.5C 88.2617,94.1925 89.595,94.1925 90.5,96.5 Z"/></g>
<g><path style="opacity:1" fill="#d7c0b5" d="M 66.5,99.5 C 66.5,100.167 66.5,100.833 66.5,101.5C 64.5471,102.999 62.8804,102.665 61.5,100.5C 59.7118,103.109 58.0452,103.109 56.5,100.5C 58.4741,98.7131 60.9741,97.7131 64,97.5C 65.0111,98.0556 65.8444,98.7222 66.5,99.5 Z"/></g>
<g><path style="opacity:1" fill="#821e19" d="M 69.5,89.5 C 69.5,90.1667 69.8333,90.5 70.5,90.5C 71.6923,92.1131 72.6923,93.7798 73.5,95.5C 72.5,97.5 71.5,99.5 70.5,101.5C 69.609,102.11 68.609,102.443 67.5,102.5C 66.8333,102.5 66.5,102.167 66.5,101.5C 66.5,100.833 66.5,100.167 66.5,99.5C 68.8176,99.3429 70.4843,98.1762 71.5,96C 70.5,94.3333 69.5,92.6667 68.5,91C 68.5699,90.2352 68.9033,89.7352 69.5,89.5 Z"/></g>
<g><path style="opacity:1" fill="#a4586f" d="M 42.5,97.5 C 43.609,97.5569 44.609,97.8902 45.5,98.5C 45.5,99.1667 45.8333,99.5 46.5,99.5C 48.4727,100.806 50.1394,102.473 51.5,104.5C 48.7868,102.828 46.1202,101.162 43.5,99.5C 43.1667,98.8333 42.8333,98.1667 42.5,97.5 Z"/></g>
<g><path style="opacity:1" fill="#464166" d="M 30.5,100.5 C 32.5869,101.585 33.9202,103.251 34.5,105.5C 31.4781,105.196 28.4781,104.696 25.5,104C 24.244,103.583 23.5774,102.75 23.5,101.5C 25.398,102.096 27.0646,102.096 28.5,101.5C 29.4916,101.672 30.1583,101.338 30.5,100.5 Z"/></g>
<g><path style="opacity:1" fill="#16131b" d="M 21.5,91.5 C 24.4934,91.9873 27.1601,93.3206 29.5,95.5C 32.8838,99.2125 36.2171,102.879 39.5,106.5C 41.7596,109.635 44.7596,111.802 48.5,113C 53.8333,113.667 59.1667,113.667 64.5,113C 65.5707,112.148 66.5707,111.315 67.5,110.5C 70.9892,109.523 73.8225,107.523 76,104.5C 76.4643,105.094 76.631,105.761 76.5,106.5C 75.8333,107.5 75.1667,108.5 74.5,109.5C 72.1838,110.806 69.8505,112.139 67.5,113.5C 65.9731,113.427 64.9731,114.094 64.5,115.5C 58.4638,115.64 52.4638,115.307 46.5,114.5C 43.5634,113.197 40.8968,111.53 38.5,109.5C 37.5,107.833 36.1667,106.5 34.5,105.5C 33.9202,103.251 32.5869,101.585 30.5,100.5C 30.5858,99.5041 30.2524,98.6708 29.5,98C 26.5327,96.35 23.5327,94.85 20.5,93.5C 20.3284,92.5084 20.6618,91.8417 21.5,91.5 Z"/></g>
<g><path style="opacity:1" fill="#c097a5" d="M 76.5,88.5 C 77.1174,88.6107 77.6174,88.944 78,89.5C 78.4974,92.146 78.6641,94.8127 78.5,97.5C 70.5438,107.742 60.2104,111.409 47.5,108.5C 46.3192,106.933 44.6526,106.099 42.5,106C 40.9586,104.629 39.6253,103.129 38.5,101.5C 42.195,103.797 46.195,105.63 50.5,107C 52.3869,107.78 54.0536,107.613 55.5,106.5C 61.7658,107.276 67.0992,105.609 71.5,101.5C 73.1023,99.3011 74.9357,97.3011 77,95.5C 77.5564,93.1152 77.3897,90.7819 76.5,88.5 Z"/></g>
<g><path style="opacity:1" fill="#dabdbf" d="M 43.5,99.5 C 46.1202,101.162 48.7868,102.828 51.5,104.5C 52.8333,105.167 54.1667,105.833 55.5,106.5C 54.0536,107.613 52.3869,107.78 50.5,107C 46.195,105.63 42.195,103.797 38.5,101.5C 38.5,100.5 38.5,99.5 38.5,98.5C 40.2161,98.6287 41.8828,98.962 43.5,99.5 Z"/></g>
<g><path style="opacity:1" fill="#743e29" d="M 56.5,100.5 C 58.0452,103.109 59.7118,103.109 61.5,100.5C 62.8804,102.665 64.5471,102.999 66.5,101.5C 66.5,102.167 66.8333,102.5 67.5,102.5C 67.3893,103.117 67.056,103.617 66.5,104C 62.7962,105.321 59.1295,105.487 55.5,104.5C 55.2322,102.901 55.5655,101.568 56.5,100.5 Z"/></g>
<g><path style="opacity:1" fill="#1e2656" d="M 23.5,101.5 C 23.5774,102.75 24.244,103.583 25.5,104C 28.4781,104.696 31.4781,105.196 34.5,105.5C 36.1667,106.5 37.5,107.833 38.5,109.5C 33.8394,108.503 29.1727,107.503 24.5,106.5C 21.7131,105.523 18.7131,105.19 15.5,105.5C 18.0352,103.983 20.7018,102.65 23.5,101.5 Z"/></g>
<g><path style="opacity:1" fill="#b86f78" d="M 70.5,101.5 C 70.8333,101.5 71.1667,101.5 71.5,101.5C 67.0992,105.609 61.7658,107.276 55.5,106.5C 54.1667,105.833 52.8333,105.167 51.5,104.5C 52.8333,104.5 54.1667,104.5 55.5,104.5C 59.1295,105.487 62.7962,105.321 66.5,104C 67.056,103.617 67.3893,103.117 67.5,102.5C 68.609,102.443 69.609,102.11 70.5,101.5 Z"/></g>
<g><path style="opacity:1" fill="#d3d8dc" d="M 17.5,106.5 C 24.0346,107.964 30.7013,109.464 37.5,111C 38.6091,112.813 37.9424,113.646 35.5,113.5C 29.1893,111.683 22.856,109.85 16.5,108C 15.2881,106.893 15.6214,106.393 17.5,106.5 Z"/></g>
<g><path style="opacity:1" fill="#86a2a1" d="M 15.5,105.5 C 18.7131,105.19 21.7131,105.523 24.5,106.5C 22.1667,106.5 19.8333,106.5 17.5,106.5C 15.6214,106.393 15.2881,106.893 16.5,108C 22.856,109.85 29.1893,111.683 35.5,113.5C 36.8333,114.833 38.1667,116.167 39.5,117.5C 38.8333,117.5 38.1667,117.5 37.5,117.5C 34.7428,116.488 32.0761,115.488 29.5,114.5C 24.2955,112.838 18.9622,111.171 13.5,109.5C 12.8333,108.5 12.1667,107.5 11.5,106.5C 12.5676,105.566 13.901,105.232 15.5,105.5 Z"/></g>
<g><path style="opacity:1" fill="#7b476d" d="M 78.5,97.5 C 79.4171,99.6618 79.4171,101.995 78.5,104.5C 79.5,104.5 80.5,104.5 81.5,104.5C 81.2291,106.38 81.8958,107.713 83.5,108.5C 83.1583,109.338 82.4916,109.672 81.5,109.5C 80.5994,107.273 78.9328,106.273 76.5,106.5C 76.631,105.761 76.4643,105.094 76,104.5C 73.8225,107.523 70.9892,109.523 67.5,110.5C 60.5117,111.721 53.5117,111.721 46.5,110.5C 44.8164,109.85 43.4831,108.85 42.5,107.5C 44.2161,107.629 45.8828,107.962 47.5,108.5C 60.2104,111.409 70.5438,107.742 78.5,97.5 Z"/></g>
<g><path style="opacity:1" fill="#ab8a94" d="M 76.5,106.5 C 78.9328,106.273 80.5994,107.273 81.5,109.5C 81.1898,111.144 80.1898,112.144 78.5,112.5C 76.4727,112.662 74.4727,112.495 72.5,112C 73.3805,111.292 74.0472,110.458 74.5,109.5C 75.1667,108.5 75.8333,107.5 76.5,106.5 Z"/></g>
<g><path style="opacity:1" fill="#51685f" d="M 13.5,109.5 C 18.9622,111.171 24.2955,112.838 29.5,114.5C 25.8648,113.886 22.1981,113.552 18.5,113.5C 16.2512,112.92 14.5846,111.587 13.5,109.5 Z"/></g>
<g><path style="opacity:1" fill="#533e54" d="M 39.5,106.5 C 40.609,106.557 41.609,106.89 42.5,107.5C 43.4831,108.85 44.8164,109.85 46.5,110.5C 53.5117,111.721 60.5117,111.721 67.5,110.5C 66.5707,111.315 65.5707,112.148 64.5,113C 59.1667,113.667 53.8333,113.667 48.5,113C 44.7596,111.802 41.7596,109.635 39.5,106.5 Z"/></g>
<g><path style="opacity:1" fill="#796889" d="M 74.5,109.5 C 74.0472,110.458 73.3805,111.292 72.5,112C 74.4727,112.495 76.4727,112.662 78.5,112.5C 77.8333,113.833 76.8333,114.833 75.5,115.5C 72.8333,114.833 70.1667,114.167 67.5,113.5C 69.8505,112.139 72.1838,110.806 74.5,109.5 Z"/></g>
<g><path style="opacity:1" fill="#65211c" d="M 4.5,58.5 C 4.32842,59.4916 4.66175,60.1583 5.5,60.5C 4.89022,61.391 4.55688,62.391 4.5,63.5C 4.5,63.8333 4.5,64.1667 4.5,64.5C 3.53862,66.2646 3.20528,68.2646 3.5,70.5C 4.49162,70.3284 5.15829,70.6618 5.5,71.5C 4.56552,72.5676 4.23219,73.901 4.5,75.5C 4.5,76.5 4.5,77.5 4.5,78.5C 4.5,80.5 4.5,82.5 4.5,84.5C 4.33499,87.8499 4.50166,91.1832 5,94.5C 5.06495,96.8833 5.89828,97.55 7.5,96.5C 8.9689,99.2979 9.80224,102.298 10,105.5C 10.3826,106.056 10.8826,106.389 11.5,106.5C 12.1667,107.5 12.8333,108.5 13.5,109.5C 14.5846,111.587 16.2512,112.92 18.5,113.5C 18.8333,114.5 19.5,115.167 20.5,115.5C 23.9193,118.875 27.9193,121.208 32.5,122.5C 30.3023,122.409 29.9689,123.075 31.5,124.5C 27.9471,123.483 24.6138,121.983 21.5,120C 9.83179,111.184 2.49845,99.6844 -0.5,85.5C -0.5,81.1667 -0.5,76.8333 -0.5,72.5C 0.589325,67.6491 2.25599,62.9825 4.5,58.5 Z"/></g>
<g><path style="opacity:1" fill="#bd555f" d="M 3.5,70.5 C 3.66621,76.8421 3.49954,83.1754 3,89.5C 1.96277,85.9222 1.46277,82.2556 1.5,78.5C 1.52168,75.4098 2.18834,72.7432 3.5,70.5 Z"/></g>
<g><path style="opacity:1" fill="#302f71" d="M 67.5,113.5 C 70.1667,114.167 72.8333,114.833 75.5,115.5C 75.5,116.167 75.1667,116.5 74.5,116.5C 71.3752,115.521 68.0419,115.187 64.5,115.5C 64.9731,114.094 65.9731,113.427 67.5,113.5 Z"/></g>
<g><path style="opacity:1" fill="#516877" d="M 46.5,114.5 C 52.4638,115.307 58.4638,115.64 64.5,115.5C 68.0419,115.187 71.3752,115.521 74.5,116.5C 74.1667,116.5 73.8333,116.5 73.5,116.5C 65.16,116.666 56.8267,116.5 48.5,116C 47.5842,115.722 46.9175,115.222 46.5,114.5 Z"/></g>
<g><path style="opacity:1" fill="#a2bec1" d="M 17.5,106.5 C 19.8333,106.5 22.1667,106.5 24.5,106.5C 29.1727,107.503 33.8394,108.503 38.5,109.5C 40.8968,111.53 43.5634,113.197 46.5,114.5C 46.9175,115.222 47.5842,115.722 48.5,116C 56.8267,116.5 65.16,116.666 73.5,116.5C 73.1667,117.5 72.5,118.167 71.5,118.5C 65.3471,117.347 59.0137,117.18 52.5,118C 56.514,118.837 60.514,119.671 64.5,120.5C 64.5,121.167 64.1667,121.5 63.5,121.5C 61.8333,121.5 60.1667,121.5 58.5,121.5C 58.0825,120.778 57.4158,120.278 56.5,120C 50.7935,119.358 45.1268,118.525 39.5,117.5C 38.1667,116.167 36.8333,114.833 35.5,113.5C 37.9424,113.646 38.6091,112.813 37.5,111C 30.7013,109.464 24.0346,107.964 17.5,106.5 Z"/></g>
<g><path style="opacity:1" fill="#134447" d="M 18.5,113.5 C 22.1981,113.552 25.8648,113.886 29.5,114.5C 32.0761,115.488 34.7428,116.488 37.5,117.5C 37.1583,118.338 36.4916,118.672 35.5,118.5C 30.5482,117.187 25.5482,116.187 20.5,115.5C 19.5,115.167 18.8333,114.5 18.5,113.5 Z"/></g>
<g><path style="opacity:1" fill="#67a1ad" d="M 39.5,117.5 C 45.1268,118.525 50.7935,119.358 56.5,120C 57.4158,120.278 58.0825,120.778 58.5,121.5C 51.8061,121.367 45.4728,120.034 39.5,117.5 Z"/></g>
<g><path style="opacity:1" fill="#d6e2e5" d="M 71.5,118.5 C 69.2543,119.455 66.921,120.122 64.5,120.5C 60.514,119.671 56.514,118.837 52.5,118C 59.0137,117.18 65.3471,117.347 71.5,118.5 Z"/></g>
<g><path style="opacity:1" fill="#74a5a1" d="M 20.5,115.5 C 25.5482,116.187 30.5482,117.187 35.5,118.5C 41.2347,121.342 47.2347,123.342 53.5,124.5C 46.3344,124.95 39.3344,124.283 32.5,122.5C 27.9193,121.208 23.9193,118.875 20.5,115.5 Z"/></g>
<g><path style="opacity:1" fill="#2d6d76" d="M 37.5,117.5 C 38.1667,117.5 38.8333,117.5 39.5,117.5C 45.4728,120.034 51.8061,121.367 58.5,121.5C 60.1667,121.5 61.8333,121.5 63.5,121.5C 60.4172,123.025 57.0839,124.025 53.5,124.5C 47.2347,123.342 41.2347,121.342 35.5,118.5C 36.4916,118.672 37.1583,118.338 37.5,117.5 Z"/></g>
<g><path style="opacity:1" fill="#641814" d="M 48.5,29.5 C 49.5676,30.4345 50.901,30.7678 52.5,30.5C 56.1667,31.1667 59.8333,31.8333 63.5,32.5C 65.6856,33.2698 67.8523,34.2698 70,35.5C 70.9021,35.2568 71.7354,34.9234 72.5,34.5C 74.3386,35.5077 75.6719,37.0077 76.5,39C 81.8353,40.1667 84.1686,38.0001 83.5,32.5C 82.5,32.5 81.5,32.5 80.5,32.5C 80.5,33.5 80.5,34.5 80.5,35.5C 79.5,35.5 78.5,35.5 77.5,35.5C 77.2865,33.8561 77.6198,32.3561 78.5,31C 84.5017,30.0069 86.6683,32.5069 85,38.5C 83.6632,39.9045 82.4965,41.4045 81.5,43C 86.5008,46.8872 90.1675,51.7205 92.5,57.5C 103.11,86.2773 95.1105,108.277 68.5,123.5C 57.7879,127.421 46.7879,128.421 35.5,126.5C 35.5,127.833 35.5,129.167 35.5,130.5C 37.1667,130.5 38.8333,130.5 40.5,130.5C 41.4916,130.328 42.1583,130.662 42.5,131.5C 41.3709,133.628 41.2042,135.961 42,138.5C 43.9773,141.312 46.144,143.978 48.5,146.5C 51.3243,143.542 54.1576,140.542 57,137.5C 57.7796,135.613 57.6129,133.946 56.5,132.5C 58.5,131.833 60.5,131.167 62.5,130.5C 63.2223,129.449 64.2223,128.782 65.5,128.5C 65.8333,128.5 66.1667,128.5 66.5,128.5C 66.5,129.167 66.5,129.833 66.5,130.5C 64.3899,133.723 63.3899,137.39 63.5,141.5C 61.0509,140.943 58.7175,140.943 56.5,141.5C 58.1045,143.179 58.7711,145.179 58.5,147.5C 56.7376,147.643 55.0709,147.309 53.5,146.5C 53.2448,148.343 53.0781,150.343 53,152.5C 51.2802,153.384 50.1135,154.717 49.5,156.5C 45.3691,154.712 44.0357,151.712 45.5,147.5C 43.5879,147.512 41.5879,147.179 39.5,146.5C 38.5713,145.311 38.238,143.978 38.5,142.5C 37.1779,142.67 36.0113,142.337 35,141.5C 34.48,137.929 33.6466,134.429 32.5,131C 32.6032,129.439 32.9366,127.939 33.5,126.5C 33.1445,125.478 32.4778,124.811 31.5,124.5C 29.9689,123.075 30.3023,122.409 32.5,122.5C 39.3344,124.283 46.3344,124.95 53.5,124.5C 57.0839,124.025 60.4172,123.025 63.5,121.5C 64.1667,121.5 64.5,121.167 64.5,120.5C 66.921,120.122 69.2543,119.455 71.5,118.5C 72.5,118.167 73.1667,117.5 73.5,116.5C 73.8333,116.5 74.1667,116.5 74.5,116.5C 75.1667,116.5 75.5,116.167 75.5,115.5C 76.8333,114.833 77.8333,113.833 78.5,112.5C 80.1898,112.144 81.1898,111.144 81.5,109.5C 82.4916,109.672 83.1583,109.338 83.5,108.5C 85.8285,104.537 88.1618,100.537 90.5,96.5C 91.2852,94.6264 91.9518,92.6264 92.5,90.5C 94.0395,88.1617 94.7062,85.4951 94.5,82.5C 94.5,81.5 94.5,80.5 94.5,79.5C 94.5,77.8333 94.5,76.1667 94.5,74.5C 94.7845,72.5853 94.4511,70.9187 93.5,69.5C 93.6716,68.5084 93.3382,67.8417 92.5,67.5C 91.7767,63.299 90.1101,59.6324 87.5,56.5C 87.4431,55.391 87.1098,54.391 86.5,53.5C 84.9228,50.9501 82.9228,48.9501 80.5,47.5C 80.5,46.8333 80.1667,46.5 79.5,46.5C 78.135,44.1402 76.135,42.4735 73.5,41.5C 72.2318,39.953 70.5652,38.953 68.5,38.5C 67.5,37.8333 66.5,37.1667 65.5,36.5C 64.5,36.5 63.5,36.5 62.5,36.5C 57.7945,34.6778 52.7945,33.6778 47.5,33.5C 40.7309,33.3192 34.3976,34.6526 28.5,37.5C 26.9731,37.427 25.9731,38.0937 25.5,39.5C 22.6298,40.4333 20.2964,42.1 18.5,44.5C 12.7427,48.599 8.40938,53.9323 5.5,60.5C 4.66175,60.1583 4.32842,59.4916 4.5,58.5C 7.41928,52.3225 11.0859,46.6559 15.5,41.5C 16.8333,40.8333 18.1667,40.1667 19.5,39.5C 21.0009,38.2485 22.6675,37.2485 24.5,36.5C 28.4399,35.2771 32.1066,33.6104 35.5,31.5C 39.0641,30.5773 42.7307,30.244 46.5,30.5C 47.1667,30.1667 47.8333,29.8333 48.5,29.5 Z"/></g>
<g><path style="opacity:1" fill="#af8a9a" d="M 45.5,43.5 C 45.8333,43.5 46.1667,43.5 46.5,43.5C 46.5,44.5 46.5,45.5 46.5,46.5C 47.8333,46.5 49.1667,46.5 50.5,46.5C 48.6455,47.6896 46.8121,49.0229 45,50.5C 44.5172,51.448 44.3505,52.448 44.5,53.5C 44.5858,54.4959 44.2524,55.3292 43.5,56C 42.2625,56.2321 41.2625,56.7321 40.5,57.5C 39.5,57.5 38.5,57.5 37.5,57.5C 37.8795,54.4331 36.8795,53.4331 34.5,54.5C 37.1728,49.8272 40.8395,46.1605 45.5,43.5 Z"/></g>
<g><path style="opacity:1" fill="#682330" d="M 72.5,48.5 C 74.153,48.6596 75.4863,49.3263 76.5,50.5C 70.8236,50.3339 65.1569,50.5006 59.5,51C 55.4302,52.2727 52.0969,54.4394 49.5,57.5C 48.5,57.8333 47.8333,58.5 47.5,59.5C 46.8333,59.8333 46.1667,60.1667 45.5,60.5C 45.3505,59.448 45.5172,58.448 46,57.5C 53.314,50.29 62.1474,47.29 72.5,48.5 Z"/></g>
<g><path style="opacity:1" fill="#281616" d="M 80.5,47.5 C 82.9228,48.9501 84.9228,50.9501 86.5,53.5C 84.3364,53.2785 82.6697,52.2785 81.5,50.5C 81.4431,49.391 81.1098,48.391 80.5,47.5 Z"/></g>
<g><path style="opacity:1" fill="#b7563e" d="M 53.5,47.5 C 54.8333,47.5 56.1667,47.5 57.5,47.5C 53.7866,50.0234 49.7866,52.0234 45.5,53.5C 47.8003,51.016 50.4669,49.016 53.5,47.5 Z"/></g>
<g><path style="opacity:1" fill="#b99a99" d="M 45.5,43.5 C 40.8395,46.1605 37.1728,49.8272 34.5,54.5C 32.8212,54.7148 31.8212,54.0481 31.5,52.5C 31.8333,51.8333 32.1667,51.1667 32.5,50.5C 32.8333,49.8333 33.1667,49.1667 33.5,48.5C 36.7906,45.1896 40.7906,43.523 45.5,43.5 Z"/></g>
<g><path style="opacity:1" fill="#907d2e" d="M 28.5,37.5 C 29.2146,41.6624 30.8813,45.329 33.5,48.5C 33.1667,49.1667 32.8333,49.8333 32.5,50.5C 28.226,48.1973 25.8927,44.5307 25.5,39.5C 25.9731,38.0937 26.9731,37.427 28.5,37.5 Z"/></g>
<g><path style="opacity:1" fill="#6d3e48" d="M 73.5,41.5 C 76.135,42.4735 78.135,44.1402 79.5,46.5C 75.8079,46.6757 73.8079,45.0091 73.5,41.5 Z"/></g>
<g><path style="opacity:1" fill="#c99fa6" d="M 68.5,38.5 C 70.5652,38.953 72.2318,39.953 73.5,41.5C 73.8079,45.0091 75.8079,46.6757 79.5,46.5C 80.1667,46.5 80.5,46.8333 80.5,47.5C 81.1098,48.391 81.4431,49.391 81.5,50.5C 79.5662,48.703 77.2329,47.703 74.5,47.5C 72.4924,45.0728 69.8257,44.0728 66.5,44.5C 62.4827,44.8596 58.4827,45.3596 54.5,46C 53.944,46.3826 53.6107,46.8826 53.5,47.5C 50.4669,49.016 47.8003,51.016 45.5,53.5C 45.1667,53.5 44.8333,53.5 44.5,53.5C 44.3505,52.448 44.5172,51.448 45,50.5C 46.8121,49.0229 48.6455,47.6896 50.5,46.5C 51.842,45.207 53.5087,44.3736 55.5,44C 60.5,43.6667 65.5,43.3333 70.5,43C 68.8934,41.951 68.2267,40.451 68.5,38.5 Z"/></g>
<g><path style="opacity:1" fill="#c58568" d="M 74.5,47.5 C 73.8333,47.5 73.1667,47.5 72.5,47.5C 67.5,47.5 62.5,47.5 57.5,47.5C 56.1667,47.5 54.8333,47.5 53.5,47.5C 53.6107,46.8826 53.944,46.3826 54.5,46C 58.4827,45.3596 62.4827,44.8596 66.5,44.5C 69.8257,44.0728 72.4924,45.0728 74.5,47.5 Z"/></g>
<g><path style="opacity:1" fill="#846083" d="M 65.5,36.5 C 66.5,37.1667 67.5,37.8333 68.5,38.5C 68.2267,40.451 68.8934,41.951 70.5,43C 65.5,43.3333 60.5,43.6667 55.5,44C 53.5087,44.3736 51.842,45.207 50.5,46.5C 49.1667,46.5 47.8333,46.5 46.5,46.5C 46.5,45.5 46.5,44.5 46.5,43.5C 48.6208,43.6747 50.6208,43.3414 52.5,42.5C 55.0895,42.6038 57.4229,41.9371 59.5,40.5C 64.2516,43.7713 66.2516,42.4379 65.5,36.5 Z"/></g>
<g><path style="opacity:1" fill="#665c1f" d="M 47.5,33.5 C 52.7945,33.6778 57.7945,34.6778 62.5,36.5C 60.4839,38.0133 58.1506,38.8466 55.5,39C 54.2899,40.0391 53.2899,41.2058 52.5,42.5C 50.6208,43.3414 48.6208,43.6747 46.5,43.5C 46.1667,43.5 45.8333,43.5 45.5,43.5C 40.7906,43.523 36.7906,45.1896 33.5,48.5C 30.8813,45.329 29.2146,41.6624 28.5,37.5C 30.4008,37.5668 32.2341,37.2335 34,36.5C 35.6595,37.8291 37.4929,38.8291 39.5,39.5C 42.0963,38.7871 44.7629,38.7871 47.5,39.5C 47.5,37.5 47.5,35.5 47.5,33.5 Z"/></g>
<g><path style="opacity:1" fill="#b0989d" d="M 62.5,36.5 C 63.5,36.5 64.5,36.5 65.5,36.5C 66.2516,42.4379 64.2516,43.7713 59.5,40.5C 57.4229,41.9371 55.0895,42.6038 52.5,42.5C 53.2899,41.2058 54.2899,40.0391 55.5,39C 58.1506,38.8466 60.4839,38.0133 62.5,36.5 Z"/></g>
<g><path style="opacity:1" fill="#4c420f" d="M 47.5,33.5 C 47.5,35.5 47.5,37.5 47.5,39.5C 44.7629,38.7871 42.0963,38.7871 39.5,39.5C 37.4929,38.8291 35.6595,37.8291 34,36.5C 32.2341,37.2335 30.4008,37.5668 28.5,37.5C 34.3976,34.6526 40.7309,33.3192 47.5,33.5 Z"/></g>
<g><path style="opacity:0.99" fill="#6c3024" d="M 62.5,130.5 C 60.5,131.167 58.5,131.833 56.5,132.5C 55.3478,131.375 54.3478,131.375 53.5,132.5C 50.8333,132.5 48.1667,132.5 45.5,132.5C 46.0764,130.217 45.0764,129.883 42.5,131.5C 42.1583,130.662 41.4916,130.328 40.5,130.5C 41.624,129.191 43.124,128.525 45,128.5C 50.9666,128.061 56.8,128.727 62.5,130.5 Z"/></g>
<g><path style="opacity:0.886" fill="#714b37" d="M 68.5,123.5 C 67.5169,124.85 66.1836,125.85 64.5,126.5C 64.8627,127.183 65.1961,127.85 65.5,128.5C 64.2223,128.782 63.2223,129.449 62.5,130.5C 56.8,128.727 50.9666,128.061 45,128.5C 43.124,128.525 41.624,129.191 40.5,130.5C 38.8333,130.5 37.1667,130.5 35.5,130.5C 35.5,129.167 35.5,127.833 35.5,126.5C 46.7879,128.421 57.7879,127.421 68.5,123.5 Z"/></g>
<g><path style="opacity:0.784" fill="#734f39" d="M 45.5,132.5 C 43.7274,133.314 43.2274,134.648 44,136.5C 45.314,138.812 46.9806,140.812 49,142.5C 52.7883,139.966 54.2883,136.633 53.5,132.5C 54.3478,131.375 55.3478,131.375 56.5,132.5C 57.6129,133.946 57.7796,135.613 57,137.5C 54.1576,140.542 51.3243,143.542 48.5,146.5C 46.144,143.978 43.9773,141.312 42,138.5C 41.2042,135.961 41.3709,133.628 42.5,131.5C 45.0764,129.883 46.0764,130.217 45.5,132.5 Z"/></g>
<g><path style="opacity:1" fill="#621310" d="M 45.5,132.5 C 48.1667,132.5 50.8333,132.5 53.5,132.5C 54.2883,136.633 52.7883,139.966 49,142.5C 46.9806,140.812 45.314,138.812 44,136.5C 43.2274,134.648 43.7274,133.314 45.5,132.5 Z"/></g>
<g><path style="opacity:0.4" fill="#6f4d38" d="M 66.5,130.5 C 67.9468,131.134 68.6134,132.301 68.5,134C 65.9736,136.584 64.9736,139.75 65.5,143.5C 63.8333,143.5 62.1667,143.5 60.5,143.5C 61.5749,147.938 59.9083,149.938 55.5,149.5C 56.4177,154.495 54.4177,156.828 49.5,156.5C 50.1135,154.717 51.2802,153.384 53,152.5C 53.0781,150.343 53.2448,148.343 53.5,146.5C 55.0709,147.309 56.7376,147.643 58.5,147.5C 58.7711,145.179 58.1045,143.179 56.5,141.5C 58.7175,140.943 61.0509,140.943 63.5,141.5C 63.3899,137.39 64.3899,133.723 66.5,130.5 Z"/></g>
</svg>
