<?xml version="1.0" encoding="UTF-8"?>
<!DOCTYPE svg PUBLIC "-//W3C//DTD SVG 1.1//EN" "http://www.w3.org/Graphics/SVG/1.1/DTD/svg11.dtd">
<svg xmlns="http://www.w3.org/2000/svg" version="1.1" width="105px" height="161px" style="shape-rendering:geometricPrecision; text-rendering:geometricPrecision; image-rendering:optimizeQuality; fill-rule:evenodd; clip-rule:evenodd" xmlns:xlink="http://www.w3.org/1999/xlink">
<g><path style="opacity:0.007" fill="#906d4f" d="M 33.5,-0.5 C 57.1667,-0.5 80.8333,-0.5 104.5,-0.5C 104.5,19.8333 104.5,40.1667 104.5,60.5C 103.07,60.5792 101.736,60.2458 100.5,59.5C 100.167,60.3333 99.8333,61.1667 99.5,62C 100.832,66.3312 102.165,70.6645 103.5,75C 102.66,81.4299 102.326,87.9299 102.5,94.5C 102.747,95.7133 103.414,96.38 104.5,96.5C 104.5,97.1667 104.5,97.8333 104.5,98.5C 103.173,99.8001 101.84,101.133 100.5,102.5C 98.9273,107.804 95.594,111.637 90.5,114C 85.313,120.014 79.313,125.18 72.5,129.5C 71.1638,134.712 69.9971,139.712 69,144.5C 65.4454,147.302 62.1121,150.302 59,153.5C 58.5899,154.901 58.0899,156.234 57.5,157.5C 57.2089,158.649 56.3756,159.316 55,159.5C 54.1667,159.167 53.3333,158.833 52.5,158.5C 56.2105,153.169 60.5438,148.503 65.5,144.5C 67.3505,139.769 67.6839,135.103 66.5,130.5C 66.5,129.833 66.5,129.167 66.5,128.5C 70.5106,128.038 74.1772,126.538 77.5,124C 82.3129,118.856 87.4795,114.023 93,109.5C 102.538,91.2463 102.872,72.9129 94,54.5C 92.9887,53.6634 91.8221,53.33 90.5,53.5C 87.9015,49.562 84.9015,45.8953 81.5,42.5C 85.7927,39.2425 86.4594,35.4091 83.5,31C 79.0826,29.4315 77.0826,30.9315 77.5,35.5C 78.5,35.5 79.5,35.5 80.5,35.5C 80.5,34.5 80.5,33.5 80.5,32.5C 81.5,32.5 82.5,32.5 83.5,32.5C 83.6602,34.1992 83.4935,35.8659 83,37.5C 81.5881,39.0646 80.4214,40.7313 79.5,42.5C 78.8333,42.1667 78.1667,41.8333 77.5,41.5C 77.1667,40.8333 76.8333,40.1667 76.5,39.5C 74.5727,36.2327 72.2394,33.2327 69.5,30.5C 74.5933,28.9168 76.4267,25.5835 75,20.5C 71.5033,15.4269 68.3366,15.4269 65.5,20.5C 65.859,23.2817 67.1923,23.9483 69.5,22.5C 68.7542,21.2638 68.4208,19.9305 68.5,18.5C 73.5628,19.9217 74.5628,22.755 71.5,27C 67.9075,27.3044 64.5742,26.4711 61.5,24.5C 63.25,20.5818 62.5834,17.2485 59.5,14.5C 58.4324,13.5655 57.099,13.2322 55.5,13.5C 55.7271,11.0672 54.7271,9.40058 52.5,8.5C 52.573,6.97306 51.9063,5.97306 50.5,5.5C 49.2946,4.31434 47.9613,4.31434 46.5,5.5C 46.5654,5.06178 46.3988,4.72845 46,4.5C 44.8129,6.04442 44.4795,7.71109 45,9.5C 45.2784,8.5842 45.7784,7.91753 46.5,7.5C 46.8426,12.0411 46.8426,16.3744 46.5,20.5C 45.3882,17.0536 43.0548,15.0536 39.5,14.5C 39.3398,16.1992 39.5065,17.8659 40,19.5C 41.6667,20.7332 43.1667,22.0665 44.5,23.5C 44.5,23.8333 44.5,24.1667 44.5,24.5C 38.9363,24.2825 33.603,25.2825 28.5,27.5C 27.5581,27.3918 26.7247,27.0585 26,26.5C 24.5233,22.0022 26.0233,19.8355 30.5,20C 29.6634,21.0113 29.33,22.1779 29.5,23.5C 30.8221,23.67 31.9887,23.3366 33,22.5C 33.6004,19.9047 33.1004,17.5713 31.5,15.5C 33.5,16.8333 35.5,18.1667 37.5,19.5C 37.3253,17.3792 37.6586,15.3792 38.5,13.5C 37.5041,13.4142 36.6708,13.7476 36,14.5C 35.2613,13.4258 34.2613,12.7591 33,12.5C 30.5,13.3333 28,14.1667 25.5,15C 24.7476,15.6708 24.4142,16.5041 24.5,17.5C 22.0882,17.6941 21.0882,19.0274 21.5,21.5C 20.2437,23.7257 20.2437,26.059 21.5,28.5C 19.2181,27.6103 16.8848,27.4436 14.5,28C 13.244,28.4169 12.5774,29.2502 12.5,30.5C 11.8333,30.5 11.5,30.8333 11.5,31.5C 7.9303,33.8966 7.59696,36.8966 10.5,40.5C 10.9569,41.2975 11.6236,41.6309 12.5,41.5C 11.2702,39.7028 10.6036,37.7028 10.5,35.5C 12.3652,37.513 14.0319,39.8464 15.5,42.5C 13.8103,44.5193 12.1436,46.5193 10.5,48.5C 4.64753,55.5358 0.980862,63.5358 -0.5,72.5C -0.5,69.8333 -0.5,67.1667 -0.5,64.5C 1.07394,62.8984 1.74061,60.8984 1.5,58.5C 0.833333,58.8333 0.166667,59.1667 -0.5,59.5C -0.5,43.1667 -0.5,26.8333 -0.5,10.5C 10.8333,10.5 22.1667,10.5 33.5,10.5C 33.5,6.83333 33.5,3.16667 33.5,-0.5 Z M 46.5,5.5 C 46.5,6.16667 46.5,6.83333 46.5,7.5C 45.7784,7.91753 45.2784,8.5842 45,9.5C 44.4795,7.71109 44.8129,6.04442 46,4.5C 46.3988,4.72845 46.5654,5.06178 46.5,5.5 Z M 38.5,13.5 C 37.6586,15.3792 37.3253,17.3792 37.5,19.5C 35.5,18.1667 33.5,16.8333 31.5,15.5C 30.5,15.5 29.5,15.5 28.5,15.5C 27.1667,16.1667 25.8333,16.8333 24.5,17.5C 24.4142,16.5041 24.7476,15.6708 25.5,15C 28,14.1667 30.5,13.3333 33,12.5C 34.2613,12.7591 35.2613,13.4258 36,14.5C 36.6708,13.7476 37.5041,13.4142 38.5,13.5 Z M 89.5,31.5 C 86.3,30.1604 82.6333,28.9937 78.5,28C 79.1667,27.3333 79.8333,26.6667 80.5,26C 78.5322,22.0401 75.8655,18.7068 72.5,16C 70.5273,15.5045 68.5273,15.3379 66.5,15.5C 71.1988,12.4272 76.1988,12.0938 81.5,14.5C 84.1806,18.3572 86.6806,22.3572 89,26.5C 89.4935,28.1341 89.6602,29.8008 89.5,31.5 Z M 24.5,17.5 C 24.2014,19.4553 23.2014,20.7886 21.5,21.5C 21.0882,19.0274 22.0882,17.6941 24.5,17.5 Z M 21.5,21.5 C 21.6741,23.861 22.0074,26.1944 22.5,28.5C 22.1667,28.5 21.8333,28.5 21.5,28.5C 20.2437,26.059 20.2437,23.7257 21.5,21.5 Z M 21.5,28.5 C 21.1583,29.3382 20.4916,29.6716 19.5,29.5C 17.0504,29.298 14.717,29.6314 12.5,30.5C 12.5774,29.2502 13.244,28.4169 14.5,28C 16.8848,27.4436 19.2181,27.6103 21.5,28.5 Z M 11.5,31.5 C 11.1667,32.8333 10.8333,34.1667 10.5,35.5C 10.6036,37.7028 11.2702,39.7028 12.5,41.5C 11.6236,41.6309 10.9569,41.2975 10.5,40.5C 7.59696,36.8966 7.9303,33.8966 11.5,31.5 Z M 89.5,31.5 C 92.3903,31.278 95.057,31.9447 97.5,33.5C 98.8104,38.8799 99.1437,44.2133 98.5,49.5C 96.1305,49.8511 93.7972,50.0178 91.5,50C 90.7433,48.4878 89.7433,47.1545 88.5,46C 89.9125,42.2958 90.9125,38.4624 91.5,34.5C 90.8075,33.4822 90.1408,32.4822 89.5,31.5 Z M 12.5,43.5 C 12.1667,44.5 11.5,45.1667 10.5,45.5C 10.5,44.1667 11.1667,43.5 12.5,43.5 Z M 4.5,53.5 C 4.46141,52.2438 4.96141,51.2438 6,50.5C 6.5847,51.9976 6.0847,52.9976 4.5,53.5 Z M 4.5,53.5 C 4.25027,55.674 3.25027,57.3406 1.5,58.5C 1.2729,56.0672 2.2729,54.4006 4.5,53.5 Z"/></g>
<g><path style="opacity:0.996" fill="#62100e" d="M 50.5,5.5 C 51.9063,5.97306 52.573,6.97306 52.5,8.5C 52.9693,12.9104 51.9693,16.9104 49.5,20.5C 47.7191,15.972 47.2191,11.3053 48,6.5C 48.6708,5.74756 49.5041,5.41423 50.5,5.5 Z"/></g>
<g><path style="opacity:0.936" fill="#6c2a20" d="M 28.5,15.5 C 29.5,15.5 30.5,15.5 31.5,15.5C 33.1004,17.5713 33.6004,19.9047 33,22.5C 31.9887,23.3366 30.8221,23.67 29.5,23.5C 29.33,22.1779 29.6634,21.0113 30.5,20C 26.0233,19.8355 24.5233,22.0022 26,26.5C 26.7247,27.0585 27.5581,27.3918 28.5,27.5C 33.603,25.2825 38.9363,24.2825 44.5,24.5C 45.8121,26.4788 47.4788,28.1455 49.5,29.5C 52.5763,25.6288 56.5763,23.9621 61.5,24.5C 64.5742,26.4711 67.9075,27.3044 71.5,27C 74.5628,22.755 73.5628,19.9217 68.5,18.5C 68.4208,19.9305 68.7542,21.2638 69.5,22.5C 67.1923,23.9483 65.859,23.2817 65.5,20.5C 68.3366,15.4269 71.5033,15.4269 75,20.5C 76.4267,25.5835 74.5933,28.9168 69.5,30.5C 72.2394,33.2327 74.5727,36.2327 76.5,39.5C 75.391,39.4431 74.391,39.1098 73.5,38.5C 70.9678,35.7711 67.9678,33.7711 64.5,32.5C 65.7467,29.8246 64.7467,27.9912 61.5,27C 57.356,25.6655 54.356,26.8322 52.5,30.5C 51.8333,30.5 51.1667,30.5 50.5,30.5C 49.1667,30.5 47.8333,30.5 46.5,30.5C 44.644,26.8322 41.644,25.6655 37.5,27C 34.6059,27.8686 33.4392,29.7019 34,32.5C 35.9643,30.3123 37.4643,30.3123 38.5,32.5C 31.4236,33.6995 26.0903,37.3661 22.5,43.5C 19.9108,44.4194 17.9108,46.086 16.5,48.5C 16.1667,48.5 15.8333,48.5 15.5,48.5C 14.609,49.1098 13.609,49.4431 12.5,49.5C 12.1583,48.6618 11.4916,48.3284 10.5,48.5C 12.1436,46.5193 13.8103,44.5193 15.5,42.5C 14.0319,39.8464 12.3652,37.513 10.5,35.5C 10.8333,34.1667 11.1667,32.8333 11.5,31.5C 12.1667,31.5 12.5,31.1667 12.5,30.5C 14.717,29.6314 17.0504,29.298 19.5,29.5C 20.3686,31.717 20.702,34.0504 20.5,36.5C 19.5,36.5 18.5,36.5 17.5,36.5C 17.762,35.0222 17.4287,33.6888 16.5,32.5C 14.5539,34.0437 14.0539,36.0437 15,38.5C 18.1283,39.942 20.9616,39.442 23.5,37C 25.684,34.9835 27.684,32.8169 29.5,30.5C 23.634,28.7431 22.134,25.0765 25,19.5C 26.6268,18.4677 27.7934,17.1344 28.5,15.5 Z"/></g>
<g><path style="opacity:1" fill="#651c16" d="M 46.5,20.5 C 46.4142,21.4959 46.7476,22.3292 47.5,23C 46.552,23.4828 45.552,23.6495 44.5,23.5C 43.1667,22.0665 41.6667,20.7332 40,19.5C 39.5065,17.8659 39.3398,16.1992 39.5,14.5C 43.0548,15.0536 45.3882,17.0536 46.5,20.5 Z"/></g>
<g><path style="opacity:0.44" fill="#79513b" d="M 50.5,5.5 C 49.5041,5.41423 48.6708,5.74756 48,6.5C 47.2191,11.3053 47.7191,15.972 49.5,20.5C 51.9693,16.9104 52.9693,12.9104 52.5,8.5C 54.7271,9.40058 55.7271,11.0672 55.5,13.5C 57.099,13.2322 58.4324,13.5655 59.5,14.5C 62.5834,17.2485 63.25,20.5818 61.5,24.5C 56.5763,23.9621 52.5763,25.6288 49.5,29.5C 47.4788,28.1455 45.8121,26.4788 44.5,24.5C 44.5,24.1667 44.5,23.8333 44.5,23.5C 45.552,23.6495 46.552,23.4828 47.5,23C 46.7476,22.3292 46.4142,21.4959 46.5,20.5C 46.8426,16.3744 46.8426,12.0411 46.5,7.5C 46.5,6.83333 46.5,6.16667 46.5,5.5C 47.9613,4.31434 49.2946,4.31434 50.5,5.5 Z"/></g>
<g><path style="opacity:1" fill="#651914" d="M 59.5,14.5 C 59.3542,18.619 57.3542,21.619 53.5,23.5C 53.1667,22.8333 52.8333,22.1667 52.5,21.5C 53.5314,19.6178 54.3647,17.6178 55,15.5C 56.3561,14.6198 57.8561,14.2865 59.5,14.5 Z"/></g>
<g><path style="opacity:0.206" fill="#7d5b44" d="M 46.5,30.5 C 43.5825,30.3651 40.9158,31.0318 38.5,32.5C 37.4643,30.3123 35.9643,30.3123 34,32.5C 33.4392,29.7019 34.6059,27.8686 37.5,27C 41.644,25.6655 44.644,26.8322 46.5,30.5 Z"/></g>
<g><path style="opacity:0.047" fill="#876146" d="M 28.5,15.5 C 27.7934,17.1344 26.6268,18.4677 25,19.5C 22.134,25.0765 23.634,28.7431 29.5,30.5C 27.684,32.8169 25.684,34.9835 23.5,37C 20.9616,39.442 18.1283,39.942 15,38.5C 14.0539,36.0437 14.5539,34.0437 16.5,32.5C 17.4287,33.6888 17.762,35.0222 17.5,36.5C 18.5,36.5 19.5,36.5 20.5,36.5C 20.702,34.0504 20.3686,31.717 19.5,29.5C 20.4916,29.6716 21.1583,29.3382 21.5,28.5C 21.8333,28.5 22.1667,28.5 22.5,28.5C 22.0074,26.1944 21.6741,23.861 21.5,21.5C 23.2014,20.7886 24.2014,19.4553 24.5,17.5C 25.8333,16.8333 27.1667,16.1667 28.5,15.5 Z"/></g>
<g><path style="opacity:0.324" fill="#825f45" d="M 64.5,32.5 C 60.6742,31.0003 56.6742,30.3336 52.5,30.5C 54.356,26.8322 57.356,25.6655 61.5,27C 64.7467,27.9912 65.7467,29.8246 64.5,32.5 Z"/></g>
<g><path style="opacity:1" fill="#436a7a" d="M 50.5,30.5 C 51.1667,30.5 51.8333,30.5 52.5,30.5C 52.6107,31.1174 52.944,31.6174 53.5,32C 56.0356,32.1862 58.369,32.6862 60.5,33.5C 57.4816,33.6646 54.4816,33.498 51.5,33C 50.7476,32.3292 50.4142,31.4959 50.5,30.5 Z"/></g>
<g><path style="opacity:0.839" fill="#443a3c" d="M 52.5,30.5 C 56.6742,30.3336 60.6742,31.0003 64.5,32.5C 67.9678,33.7711 70.9678,35.7711 73.5,38.5C 72.0413,38.5674 70.7079,38.2341 69.5,37.5C 67.9505,36.5592 66.2838,35.8925 64.5,35.5C 63.4863,34.3263 62.153,33.6596 60.5,33.5C 58.369,32.6862 56.0356,32.1862 53.5,32C 52.944,31.6174 52.6107,31.1174 52.5,30.5 Z"/></g>
<g><path style="opacity:1" fill="#b7d2dd" d="M 64.5,35.5 C 66.2838,35.8925 67.9505,36.5592 69.5,37.5C 70.5361,39.3911 70.5361,41.2245 69.5,43C 66.9792,42.2704 64.3126,41.7704 61.5,41.5C 56.2861,40.0315 50.9528,39.3649 45.5,39.5C 39.8067,40.3843 38.8067,39.2176 42.5,36C 44.7221,35.3054 46.8887,34.4721 49,33.5C 54.0569,35.0063 59.2235,35.673 64.5,35.5 Z"/></g>
<g><path style="opacity:1" fill="#97b8c5" d="M 46.5,30.5 C 47.8333,30.5 49.1667,30.5 50.5,30.5C 50.4142,31.4959 50.7476,32.3292 51.5,33C 54.4816,33.498 57.4816,33.6646 60.5,33.5C 62.153,33.6596 63.4863,34.3263 64.5,35.5C 59.2235,35.673 54.0569,35.0063 49,33.5C 46.8887,34.4721 44.7221,35.3054 42.5,36C 38.8067,39.2176 39.8067,40.3843 45.5,39.5C 43.1561,39.9397 41.1561,40.9397 39.5,42.5C 38.0695,42.4208 36.7362,42.7542 35.5,43.5C 33.2985,41.9435 33.2985,40.7768 35.5,40C 34.2068,39.51 32.8734,39.3433 31.5,39.5C 32.6002,38.4415 33.9336,37.6082 35.5,37C 33.4325,36.3131 31.4325,36.4798 29.5,37.5C 28.2267,38.2565 28.2267,38.9232 29.5,39.5C 27.3374,41.0828 25.0041,42.4161 22.5,43.5C 26.0903,37.3661 31.4236,33.6995 38.5,32.5C 40.9158,31.0318 43.5825,30.3651 46.5,30.5 Z"/></g>
<g><path style="opacity:1" fill="#39616e" d="M 31.5,39.5 C 30.8333,39.5 30.1667,39.5 29.5,39.5C 28.2267,38.9232 28.2267,38.2565 29.5,37.5C 31.4325,36.4798 33.4325,36.3131 35.5,37C 33.9336,37.6082 32.6002,38.4415 31.5,39.5 Z"/></g>
<g><path style="opacity:1" fill="#537580" d="M 45.5,39.5 C 50.9528,39.3649 56.2861,40.0315 61.5,41.5C 61.5,41.8333 61.5,42.1667 61.5,42.5C 60.7611,42.369 60.0944,42.5357 59.5,43C 60.7375,43.2321 61.7375,43.7321 62.5,44.5C 55.0443,42.6934 47.3777,42.0267 39.5,42.5C 41.1561,40.9397 43.1561,39.9397 45.5,39.5 Z"/></g>
<g><path style="opacity:1" fill="#b3ced8" d="M 29.5,39.5 C 30.1667,39.5 30.8333,39.5 31.5,39.5C 32.8734,39.3433 34.2068,39.51 35.5,40C 33.2985,40.7768 33.2985,41.9435 35.5,43.5C 36.7362,42.7542 38.0695,42.4208 39.5,42.5C 47.3777,42.0267 55.0443,42.6934 62.5,44.5C 65.7012,45.3786 68.3678,47.0453 70.5,49.5C 70.5,50.5 70.5,51.5 70.5,52.5C 66.216,52.5314 62.216,51.5314 58.5,49.5C 54.059,47.8926 49.3923,47.2259 44.5,47.5C 43.4855,46.2353 41.9855,45.5687 40,45.5C 34.2526,46.8254 28.4193,47.6587 22.5,48C 20.4127,48.7922 18.5793,49.9588 17,51.5C 16.5172,50.552 16.3505,49.552 16.5,48.5C 17.9108,46.086 19.9108,44.4194 22.5,43.5C 25.0041,42.4161 27.3374,41.0828 29.5,39.5 Z"/></g>
<g><path style="opacity:1" fill="#1f383e" d="M 61.5,42.5 C 69.1485,43.8676 74.1485,47.8676 76.5,54.5C 75.8165,54.1373 75.1499,53.8039 74.5,53.5C 74.0432,51.2273 72.7099,49.894 70.5,49.5C 68.3678,47.0453 65.7012,45.3786 62.5,44.5C 61.7375,43.7321 60.7375,43.2321 59.5,43C 60.0944,42.5357 60.7611,42.369 61.5,42.5 Z"/></g>
<g><path style="opacity:1" fill="#6a8993" d="M 44.5,47.5 C 39.4195,47.2497 34.4195,47.7497 29.5,49C 28.7476,49.6708 28.4142,50.5041 28.5,51.5C 28.1667,51.5 27.8333,51.5 27.5,51.5C 26.8333,51.5 26.1667,51.5 25.5,51.5C 24.3991,50.4017 23.0657,50.235 21.5,51C 19.34,52.332 17.34,53.832 15.5,55.5C 15.5,53.1667 15.5,50.8333 15.5,48.5C 15.8333,48.5 16.1667,48.5 16.5,48.5C 16.3505,49.552 16.5172,50.552 17,51.5C 18.5793,49.9588 20.4127,48.7922 22.5,48C 28.4193,47.6587 34.2526,46.8254 40,45.5C 41.9855,45.5687 43.4855,46.2353 44.5,47.5 Z"/></g>
<g><path style="opacity:1" fill="#87614d" d="M 45.5,50.5 C 48.7473,51.2515 52.0806,51.7515 55.5,52C 56.056,52.3826 56.3893,52.8826 56.5,53.5C 52.9581,53.1872 49.6248,53.5206 46.5,54.5C 45.6236,54.6309 44.9569,54.2975 44.5,53.5C 45.1272,52.5832 45.4606,51.5832 45.5,50.5 Z"/></g>
<g><path style="opacity:1" fill="#2e352f" d="M 44.5,47.5 C 49.3923,47.2259 54.059,47.8926 58.5,49.5C 62.5498,52.2629 66.8831,54.7629 71.5,57C 73.0414,58.3712 74.3747,59.8712 75.5,61.5C 77.697,65.7993 80.697,66.466 84.5,63.5C 87.1048,66.0544 89.7714,66.0544 92.5,63.5C 92.1667,65.5 91.8333,67.5 91.5,69.5C 89.9582,68.6993 88.2915,68.366 86.5,68.5C 86.189,67.5222 85.5223,66.8555 84.5,66.5C 84.223,70.8091 82.223,72.1424 78.5,70.5C 77.469,69.7515 76.3024,69.0848 75,68.5C 74.9964,65.2084 73.8297,62.5418 71.5,60.5C 70.3951,59.3995 69.0618,58.7329 67.5,58.5C 66.7095,57.5987 65.7095,56.9321 64.5,56.5C 62.3826,54.3455 59.716,53.3455 56.5,53.5C 56.3893,52.8826 56.056,52.3826 55.5,52C 52.0806,51.7515 48.7473,51.2515 45.5,50.5C 43.7103,49.0027 41.5437,48.336 39,48.5C 35.5368,48.8524 32.3701,49.8524 29.5,51.5C 29.1667,51.5 28.8333,51.5 28.5,51.5C 28.4142,50.5041 28.7476,49.6708 29.5,49C 34.4195,47.7497 39.4195,47.2497 44.5,47.5 Z"/></g>
<g><path style="opacity:1" fill="#63553b" d="M 45.5,50.5 C 41.9581,50.1872 38.6248,50.5206 35.5,51.5C 33.5,51.5 31.5,51.5 29.5,51.5C 32.3701,49.8524 35.5368,48.8524 39,48.5C 41.5437,48.336 43.7103,49.0027 45.5,50.5 Z"/></g>
<g><path style="opacity:1" fill="#62554e" d="M 25.5,51.5 C 26.1667,51.5 26.8333,51.5 27.5,51.5C 27.1667,52.1667 26.8333,52.8333 26.5,53.5C 21.9119,55.4259 18.2452,58.4259 15.5,62.5C 15.5,61.8333 15.5,61.1667 15.5,60.5C 17.7662,56.2865 21.0996,53.2865 25.5,51.5 Z"/></g>
<g><path style="opacity:1" fill="#2a4d57" d="M 79.5,48.5 C 81.8123,51.4789 84.4789,54.1456 87.5,56.5C 86.1515,57.9093 84.8181,59.2426 83.5,60.5C 82.8215,57.4862 81.3215,54.8196 79,52.5C 78.235,50.9343 78.4017,49.6009 79.5,48.5 Z"/></g>
<g><path style="opacity:1" fill="#a1bac2" d="M 25.5,51.5 C 21.0996,53.2865 17.7662,56.2865 15.5,60.5C 13.2512,61.0798 11.5846,62.4131 10.5,64.5C 9.83333,64.1667 9.16667,63.8333 8.5,63.5C 10.1691,60.1697 12.5025,57.5031 15.5,55.5C 17.34,53.832 19.34,52.332 21.5,51C 23.0657,50.235 24.3991,50.4017 25.5,51.5 Z"/></g>
<g><path style="opacity:1" fill="#e6d3c6" d="M 64.5,56.5 C 65.7095,56.9321 66.7095,57.5987 67.5,58.5C 67.6495,59.552 67.4828,60.552 67,61.5C 64.2408,60.6766 61.4074,60.0099 58.5,59.5C 56.9623,59.4534 55.9623,60.1201 55.5,61.5C 53.5648,62.1495 51.5648,62.4828 49.5,62.5C 48.9084,59.8728 48.5751,57.2062 48.5,54.5C 53.9911,54.1497 59.3245,54.8164 64.5,56.5 Z"/></g>
<g><path style="opacity:1" fill="#60312a" d="M 15.5,48.5 C 15.5,50.8333 15.5,53.1667 15.5,55.5C 12.5025,57.5031 10.1691,60.1697 8.5,63.5C 7.83333,63.5 7.16667,63.5 6.5,63.5C 7.40308,58.3608 9.40308,53.6941 12.5,49.5C 13.609,49.4431 14.609,49.1098 15.5,48.5 Z"/></g>
<g><path style="opacity:1" fill="#cc9a7d" d="M 27.5,51.5 C 27.8333,51.5 28.1667,51.5 28.5,51.5C 28.8333,51.5 29.1667,51.5 29.5,51.5C 31.5,51.5 33.5,51.5 35.5,51.5C 39.2969,53.7448 41.6303,57.0781 42.5,61.5C 40.3001,59.6222 38.6335,57.2889 37.5,54.5C 33.9904,52.3031 30.3237,51.9698 26.5,53.5C 26.8333,52.8333 27.1667,52.1667 27.5,51.5 Z"/></g>
<g><path style="opacity:1" fill="#8ca2ab" d="M 58.5,49.5 C 62.216,51.5314 66.216,52.5314 70.5,52.5C 70.5,51.5 70.5,50.5 70.5,49.5C 72.7099,49.894 74.0432,51.2273 74.5,53.5C 75.3905,57.2647 77.5572,58.5981 81,57.5C 81.49,58.7932 81.6567,60.1266 81.5,61.5C 79.5,61.5 77.5,61.5 75.5,61.5C 74.3747,59.8712 73.0414,58.3712 71.5,57C 66.8831,54.7629 62.5498,52.2629 58.5,49.5 Z"/></g>
<g><path style="opacity:1" fill="#cbb68b" d="M 35.5,51.5 C 38.6248,50.5206 41.9581,50.1872 45.5,50.5C 45.4606,51.5832 45.1272,52.5832 44.5,53.5C 44.9569,54.2975 45.6236,54.6309 46.5,54.5C 46.9347,57.8375 46.2681,60.8375 44.5,63.5C 43.5,63.1667 42.8333,62.5 42.5,61.5C 41.6303,57.0781 39.2969,53.7448 35.5,51.5 Z"/></g>
<g><path style="opacity:1" fill="#b07256" d="M 32.5,60.5 C 33.7401,61.973 34.7401,63.6396 35.5,65.5C 35.1667,65.8333 34.8333,66.1667 34.5,66.5C 32.6112,64.568 30.6112,62.7347 28.5,61C 26.9343,60.235 25.6009,60.4017 24.5,61.5C 21.8333,63.5 19.1667,65.5 16.5,67.5C 15.4937,67.0623 15.4937,66.3957 16.5,65.5C 18.6877,62.819 21.3544,60.6523 24.5,59C 27.4376,58.2879 30.1043,58.7879 32.5,60.5 Z"/></g>
<g><path style="opacity:1" fill="#6b878e" d="M 69.5,37.5 C 70.7079,38.2341 72.0413,38.5674 73.5,38.5C 74.391,39.1098 75.391,39.4431 76.5,39.5C 76.8333,40.1667 77.1667,40.8333 77.5,41.5C 78.0147,43.8945 78.6814,46.2278 79.5,48.5C 78.4017,49.6009 78.235,50.9343 79,52.5C 81.3215,54.8196 82.8215,57.4862 83.5,60.5C 83.5569,61.609 83.8902,62.609 84.5,63.5C 80.697,66.466 77.697,65.7993 75.5,61.5C 77.5,61.5 79.5,61.5 81.5,61.5C 81.6567,60.1266 81.49,58.7932 81,57.5C 77.5572,58.5981 75.3905,57.2647 74.5,53.5C 75.1499,53.8039 75.8165,54.1373 76.5,54.5C 74.1485,47.8676 69.1485,43.8676 61.5,42.5C 61.5,42.1667 61.5,41.8333 61.5,41.5C 64.3126,41.7704 66.9792,42.2704 69.5,43C 70.5361,41.2245 70.5361,39.3911 69.5,37.5 Z"/></g>
<g><path style="opacity:1" fill="#93b2ba" d="M 77.5,41.5 C 78.1667,41.8333 78.8333,42.1667 79.5,42.5C 84.2866,47.7755 88.4532,53.4422 92,59.5C 92.49,60.7932 92.6567,62.1266 92.5,63.5C 89.7714,66.0544 87.1048,66.0544 84.5,63.5C 83.8902,62.609 83.5569,61.609 83.5,60.5C 84.8181,59.2426 86.1515,57.9093 87.5,56.5C 84.4789,54.1456 81.8123,51.4789 79.5,48.5C 78.6814,46.2278 78.0147,43.8945 77.5,41.5 Z"/></g>
<g><path style="opacity:1" fill="#72847d" d="M 15.5,60.5 C 15.5,61.1667 15.5,61.8333 15.5,62.5C 13.8546,63.4787 12.5213,64.812 11.5,66.5C 10.7025,66.0431 10.3691,65.3764 10.5,64.5C 11.5846,62.4131 13.2512,61.0798 15.5,60.5 Z"/></g>
<g><path style="opacity:1" fill="#905a42" d="M 55.5,61.5 C 62.3426,59.8133 67.3426,61.98 70.5,68C 70.3333,68.5 70.1667,69 70,69.5C 69.0513,67.9069 67.8846,66.5736 66.5,65.5C 66.3893,64.8826 66.056,64.3826 65.5,64C 59.828,63.338 55.1613,65.1714 51.5,69.5C 50.6236,69.6309 49.9569,69.2975 49.5,68.5C 51.2812,65.9088 53.2812,63.5755 55.5,61.5 Z"/></g>
<g><path style="opacity:1" fill="#ecd8c8" d="M 42.5,61.5 C 42.8333,62.5 43.5,63.1667 44.5,63.5C 49.0664,68.2219 48.3997,71.8885 42.5,74.5C 40.5,74.8333 38.5,75.1667 36.5,75.5C 34.7354,74.5386 32.7354,74.2053 30.5,74.5C 30.5,73.5 30.5,72.5 30.5,71.5C 32.9118,71.3059 33.9118,69.9726 33.5,67.5C 34.5,67.5 35.5,67.5 36.5,67.5C 36.7989,65.396 36.4656,63.396 35.5,61.5C 34.5832,60.8728 33.5832,60.5394 32.5,60.5C 30.1043,58.7879 27.4376,58.2879 24.5,59C 21.3544,60.6523 18.6877,62.819 16.5,65.5C 15.596,64.791 15.2627,63.791 15.5,62.5C 18.2452,58.4259 21.9119,55.4259 26.5,53.5C 30.3237,51.9698 33.9904,52.3031 37.5,54.5C 38.6335,57.2889 40.3001,59.6222 42.5,61.5 Z"/></g>
<g><path style="opacity:1" fill="#4d3525" d="M 86.5,68.5 C 85.2993,70.9095 83.6326,72.9095 81.5,74.5C 79.7376,73.7377 78.7376,72.4044 78.5,70.5C 82.223,72.1424 84.223,70.8091 84.5,66.5C 85.5223,66.8555 86.189,67.5222 86.5,68.5 Z"/></g>
<g><path style="opacity:1" fill="#d9b5a4" d="M 15.5,62.5 C 15.2627,63.791 15.596,64.791 16.5,65.5C 15.4937,66.3957 15.4937,67.0623 16.5,67.5C 14.6051,69.2413 12.2718,70.2413 9.5,70.5C 9.61071,69.8826 9.94404,69.3826 10.5,69C 8.80081,68.6068 7.30081,69.1068 6,70.5C 4.97008,70.1639 4.47008,69.4972 4.5,68.5C 4.36534,66.4458 5.03201,64.7791 6.5,63.5C 7.16667,63.5 7.83333,63.5 8.5,63.5C 9.16667,63.8333 9.83333,64.1667 10.5,64.5C 10.3691,65.3764 10.7025,66.0431 11.5,66.5C 12.5213,64.812 13.8546,63.4787 15.5,62.5 Z"/></g>
<g><path style="opacity:1" fill="#b99681" d="M 56.5,53.5 C 59.716,53.3455 62.3826,54.3455 64.5,56.5C 59.3245,54.8164 53.9911,54.1497 48.5,54.5C 48.5751,57.2062 48.9084,59.8728 49.5,62.5C 51.5648,62.4828 53.5648,62.1495 55.5,61.5C 53.2812,63.5755 51.2812,65.9088 49.5,68.5C 49.9569,69.2975 50.6236,69.6309 51.5,69.5C 54.0708,70.7621 54.0708,72.0955 51.5,73.5C 52.9492,74.1719 54.2825,74.8386 55.5,75.5C 51.1578,75.2605 46.8244,74.9272 42.5,74.5C 48.3997,71.8885 49.0664,68.2219 44.5,63.5C 46.2681,60.8375 46.9347,57.8375 46.5,54.5C 49.6248,53.5206 52.9581,53.1872 56.5,53.5 Z"/></g>
<g><path style="opacity:1" fill="#78a3ae" d="M 86.5,68.5 C 88.2915,68.366 89.9582,68.6993 91.5,69.5C 92.4577,70.9616 93.6244,72.2949 95,73.5C 95.4955,75.4727 95.6621,77.4727 95.5,79.5C 92.8333,78.1667 90.1667,78.1667 87.5,79.5C 87.1558,82.5623 86.4891,85.5623 85.5,88.5C 84.457,85.5556 83.1237,82.889 81.5,80.5C 81.5,80.1667 81.5,79.8333 81.5,79.5C 81.5,77.8333 81.5,76.1667 81.5,74.5C 83.6326,72.9095 85.2993,70.9095 86.5,68.5 Z"/></g>
<g><path style="opacity:1" fill="#eed7ca" d="M 24.5,61.5 C 25.5,61.5 26.5,61.5 27.5,61.5C 27.719,62.675 27.3857,63.675 26.5,64.5C 16.9576,68.0517 17.2909,69.2183 27.5,68C 25.9262,69.8259 25.0929,71.9925 25,74.5C 23.1551,77.183 20.6551,78.8497 17.5,79.5C 16.9415,82.2846 15.6082,84.6179 13.5,86.5C 12.5745,85.3595 11.7412,85.3595 11,86.5C 9.37426,85.0445 8.2076,83.3779 7.5,81.5C 8.16667,77.8333 8.83333,74.1667 9.5,70.5C 12.2718,70.2413 14.6051,69.2413 16.5,67.5C 19.1667,65.5 21.8333,63.5 24.5,61.5 Z"/></g>
<g><path style="opacity:1" fill="#a26b55" d="M 30.5,71.5 C 30.5,72.5 30.5,73.5 30.5,74.5C 32.7354,74.2053 34.7354,74.5386 36.5,75.5C 34.6203,75.2291 33.287,75.8958 32.5,77.5C 31.5178,76.8592 30.5178,76.1925 29.5,75.5C 27.8287,77.5098 27.162,79.8431 27.5,82.5C 26.8826,82.6107 26.3826,82.944 26,83.5C 25.5045,81.5273 25.3379,79.5273 25.5,77.5C 26.0862,73.9496 27.7528,71.9496 30.5,71.5 Z"/></g>
<g><path style="opacity:1" fill="#8f705b" d="M 71.5,60.5 C 73.8297,62.5418 74.9964,65.2084 75,68.5C 76.3024,69.0848 77.469,69.7515 78.5,70.5C 77.8354,72.3691 77.1687,74.3691 76.5,76.5C 75.914,76.2907 75.414,75.9574 75,75.5C 74.0383,70.3623 72.8716,65.3623 71.5,60.5 Z"/></g>
<g><path style="opacity:1" fill="#7c4e38" d="M 42.5,74.5 C 46.8244,74.9272 51.1578,75.2605 55.5,75.5C 56.4614,77.2646 56.7947,79.2646 56.5,81.5C 55.1667,81.5 53.8333,81.5 52.5,81.5C 50.1667,81.5 47.8333,81.5 45.5,81.5C 44.3281,80.2947 42.9948,80.2947 41.5,81.5C 38.6125,79.7093 35.6125,78.376 32.5,77.5C 33.287,75.8958 34.6203,75.2291 36.5,75.5C 38.5,75.1667 40.5,74.8333 42.5,74.5 Z"/></g>
<g><path style="opacity:1" fill="#e2bead" d="M 32.5,77.5 C 35.6125,78.376 38.6125,79.7093 41.5,81.5C 42.9948,80.2947 44.3281,80.2947 45.5,81.5C 44.4479,83.256 42.7812,83.9227 40.5,83.5C 37.3124,81.9437 34.979,82.9437 33.5,86.5C 32.2101,87.0577 31.3768,88.0577 31,89.5C 31,87.5 31,85.5 31,83.5C 30.6667,83.1667 30.3333,82.8333 30,82.5C 29.7679,83.7375 29.2679,84.7375 28.5,85.5C 27.7611,85.631 27.0944,85.4643 26.5,85C 27.2524,84.3292 27.5858,83.4959 27.5,82.5C 27.162,79.8431 27.8287,77.5098 29.5,75.5C 30.5178,76.1925 31.5178,76.8592 32.5,77.5 Z"/></g>
<g><path style="opacity:1" fill="#8b5541" d="M 4.5,68.5 C 4.47008,69.4972 4.97008,70.1639 6,70.5C 7.30081,69.1068 8.80081,68.6068 10.5,69C 9.94404,69.3826 9.61071,69.8826 9.5,70.5C 6.91098,74.6448 5.91098,79.3114 6.5,84.5C 5.5,84.5 4.5,84.5 3.5,84.5C 3.17859,78.9738 3.51192,73.6405 4.5,68.5 Z"/></g>
<g><path style="opacity:1" fill="#d8baa9" d="M 24.5,61.5 C 25.6009,60.4017 26.9343,60.235 28.5,61C 30.6112,62.7347 32.6112,64.568 34.5,66.5C 34.8333,66.1667 35.1667,65.8333 35.5,65.5C 34.7401,63.6396 33.7401,61.973 32.5,60.5C 33.5832,60.5394 34.5832,60.8728 35.5,61.5C 36.4656,63.396 36.7989,65.396 36.5,67.5C 35.5,67.5 34.5,67.5 33.5,67.5C 33.9118,69.9726 32.9118,71.3059 30.5,71.5C 27.7528,71.9496 26.0862,73.9496 25.5,77.5C 24.6981,78.9516 24.1981,80.6183 24,82.5C 21.3564,86.0368 18.8564,89.7034 16.5,93.5C 11.8837,90.5716 8.88369,86.5716 7.5,81.5C 8.2076,83.3779 9.37426,85.0445 11,86.5C 11.7412,85.3595 12.5745,85.3595 13.5,86.5C 15.6082,84.6179 16.9415,82.2846 17.5,79.5C 20.6551,78.8497 23.1551,77.183 25,74.5C 25.0929,71.9925 25.9262,69.8259 27.5,68C 17.2909,69.2183 16.9576,68.0517 26.5,64.5C 27.3857,63.675 27.719,62.675 27.5,61.5C 26.5,61.5 25.5,61.5 24.5,61.5 Z"/></g>
<g><path style="opacity:1" fill="#8e3a1b" d="M 40.5,83.5 C 48.4666,82.7999 52.1333,86.4666 51.5,94.5C 50.8333,94.8333 50.1667,95.1667 49.5,95.5C 49.6573,85.7018 44.9906,82.7018 35.5,86.5C 35.1445,87.5223 34.4778,88.189 33.5,88.5C 33.5,87.8333 33.5,87.1667 33.5,86.5C 34.979,82.9437 37.3124,81.9437 40.5,83.5 Z"/></g>
<g><path style="opacity:1" fill="#be8974" d="M 9.5,70.5 C 8.83333,74.1667 8.16667,77.8333 7.5,81.5C 8.88369,86.5716 11.8837,90.5716 16.5,93.5C 17.0147,95.8945 17.6814,98.2278 18.5,100.5C 17.8333,100.5 17.1667,100.5 16.5,100.5C 16.5086,98.6916 16.0086,97.0249 15,95.5C 11.8231,93.4891 9.32311,90.8224 7.5,87.5C 6.67504,86.6143 5.67504,86.281 4.5,86.5C 4.16667,85.8333 3.83333,85.1667 3.5,84.5C 4.5,84.5 5.5,84.5 6.5,84.5C 5.91098,79.3114 6.91098,74.6448 9.5,70.5 Z"/></g>
<g><path style="opacity:1" fill="#0b0301" d="M 49.5,95.5 C 48.7101,96.7942 47.7101,97.9609 46.5,99C 43.5184,99.498 40.5184,99.6646 37.5,99.5C 33.9906,96.7609 32.6572,93.0943 33.5,88.5C 34.4778,88.189 35.1445,87.5223 35.5,86.5C 44.9906,82.7018 49.6573,85.7018 49.5,95.5 Z"/></g>
<g><path style="opacity:1" fill="#ba8b72" d="M 45.5,81.5 C 47.8333,81.5 50.1667,81.5 52.5,81.5C 53.0229,84.0277 54.0229,86.361 55.5,88.5C 54.8308,91.852 54.1642,95.1854 53.5,98.5C 53.1667,98.5 52.8333,98.5 52.5,98.5C 52.5,97.8333 52.1667,97.5 51.5,97.5C 51.5,96.5 51.5,95.5 51.5,94.5C 52.1333,86.4666 48.4666,82.7999 40.5,83.5C 42.7812,83.9227 44.4479,83.256 45.5,81.5 Z"/></g>
<g><path style="opacity:1" fill="#c7a795" d="M 67.5,58.5 C 69.0618,58.7329 70.3951,59.3995 71.5,60.5C 72.8716,65.3623 74.0383,70.3623 75,75.5C 75.414,75.9574 75.914,76.2907 76.5,76.5C 77.1687,74.3691 77.8354,72.3691 78.5,70.5C 78.7376,72.4044 79.7376,73.7377 81.5,74.5C 81.5,76.1667 81.5,77.8333 81.5,79.5C 80.5,79.5 79.5,79.5 78.5,79.5C 78.2471,81.8273 78.9137,83.8273 80.5,85.5C 77.7846,88.0571 75.6179,91.0571 74,94.5C 70.5271,95.7994 68.3605,98.1327 67.5,101.5C 64.3019,100.964 61.6353,101.631 59.5,103.5C 56.8553,106.824 53.5219,107.824 49.5,106.5C 50.1272,105.583 50.4606,104.583 50.5,103.5C 50.8925,101.716 51.5592,100.05 52.5,98.5C 52.8333,98.5 53.1667,98.5 53.5,98.5C 53.5,99.8333 53.5,101.167 53.5,102.5C 57.2252,101.105 59.5585,98.4382 60.5,94.5C 61.675,94.719 62.675,94.3857 63.5,93.5C 64.7057,91.2062 65.7057,88.8728 66.5,86.5C 68.4672,86.2606 70.3005,86.5939 72,87.5C 72.1313,83.9443 73.298,80.9443 75.5,78.5C 71.0161,77.1845 66.3494,76.3511 61.5,76C 60.8333,75.3333 60.1667,74.6667 59.5,74C 63.5296,74.3628 67.5296,74.1961 71.5,73.5C 67.9771,72.8582 64.6438,71.6916 61.5,70C 63.5767,69.8078 65.5767,69.3078 67.5,68.5C 66.8728,67.5832 66.5394,66.5832 66.5,65.5C 67.8846,66.5736 69.0513,67.9069 70,69.5C 70.1667,69 70.3333,68.5 70.5,68C 67.3426,61.98 62.3426,59.8133 55.5,61.5C 55.9623,60.1201 56.9623,59.4534 58.5,59.5C 61.4074,60.0099 64.2408,60.6766 67,61.5C 67.4828,60.552 67.6495,59.552 67.5,58.5 Z"/></g>
<g><path style="opacity:1" fill="#1f2b29" d="M 87.5,89.5 C 88.8333,89.5 90.1667,89.5 91.5,89.5C 92.5,89.5 93.5,89.5 94.5,89.5C 93.8902,90.391 93.5569,91.391 93.5,92.5C 89.6065,92.8902 85.9398,92.2235 82.5,90.5C 84.0453,89.5481 85.712,89.2148 87.5,89.5 Z"/></g>
<g><path style="opacity:1" fill="#cbb0a2" d="M 4.5,86.5 C 5.67504,86.281 6.67504,86.6143 7.5,87.5C 9.32311,90.8224 11.8231,93.4891 15,95.5C 16.0086,97.0249 16.5086,98.6916 16.5,100.5C 16.646,103.554 15.3126,105.554 12.5,106.5C 7.68674,100.734 5.02007,94.0671 4.5,86.5 Z"/></g>
<g><path style="opacity:1" fill="#e0c5b4" d="M 66.5,65.5 C 66.5394,66.5832 66.8728,67.5832 67.5,68.5C 65.5767,69.3078 63.5767,69.8078 61.5,70C 64.6438,71.6916 67.9771,72.8582 71.5,73.5C 67.5296,74.1961 63.5296,74.3628 59.5,74C 60.1667,74.6667 60.8333,75.3333 61.5,76C 66.3494,76.3511 71.0161,77.1845 75.5,78.5C 73.298,80.9443 72.1313,83.9443 72,87.5C 70.3005,86.5939 68.4672,86.2606 66.5,86.5C 65.7057,88.8728 64.7057,91.2062 63.5,93.5C 62.675,94.3857 61.675,94.719 60.5,94.5C 59.5585,98.4382 57.2252,101.105 53.5,102.5C 53.5,101.167 53.5,99.8333 53.5,98.5C 54.1642,95.1854 54.8308,91.852 55.5,88.5C 54.0229,86.361 53.0229,84.0277 52.5,81.5C 53.8333,81.5 55.1667,81.5 56.5,81.5C 56.7947,79.2646 56.4614,77.2646 55.5,75.5C 54.2825,74.8386 52.9492,74.1719 51.5,73.5C 54.0708,72.0955 54.0708,70.7621 51.5,69.5C 55.1613,65.1714 59.828,63.338 65.5,64C 66.056,64.3826 66.3893,64.8826 66.5,65.5 Z"/></g>
<g><path style="opacity:1" fill="#516569" d="M 95.5,79.5 C 95.6576,82.9023 95.3242,86.2356 94.5,89.5C 93.5,89.5 92.5,89.5 91.5,89.5C 94.1402,87.5346 94.1402,85.5346 91.5,83.5C 90.7189,84.7287 90.2189,86.062 90,87.5C 89.6827,85.6992 89.016,85.3659 88,86.5C 87.5172,87.448 87.3505,88.448 87.5,89.5C 85.712,89.2148 84.0453,89.5481 82.5,90.5C 85.9398,92.2235 89.6065,92.8902 93.5,92.5C 93.6716,93.4916 93.3382,94.1583 92.5,94.5C 90.7116,93.3775 88.7116,93.2109 86.5,94C 80.4972,106.669 71.1639,116.003 58.5,122C 54.8485,120.492 52.5152,121.659 51.5,125.5C 51.1667,125.5 50.8333,125.5 50.5,125.5C 50.3057,121.657 52.139,119.324 56,118.5C 56.8732,118.735 57.7065,119.069 58.5,119.5C 60.7069,117.317 63.3736,115.984 66.5,115.5C 68.708,113.667 70.708,111.667 72.5,109.5C 76.1229,106.708 79.2895,103.374 82,99.5C 82.2326,97.2199 83.066,95.2199 84.5,93.5C 83.675,92.6143 82.675,92.281 81.5,92.5C 81.9789,88.5656 81.3122,84.8989 79.5,81.5C 79.9569,80.7025 80.6236,80.3691 81.5,80.5C 83.1237,82.889 84.457,85.5556 85.5,88.5C 86.4891,85.5623 87.1558,82.5623 87.5,79.5C 90.1667,78.1667 92.8333,78.1667 95.5,79.5 Z"/></g>
<g><path style="opacity:1" fill="#89b3c2" d="M 91.5,89.5 C 90.1667,89.5 88.8333,89.5 87.5,89.5C 87.3505,88.448 87.5172,87.448 88,86.5C 89.016,85.3659 89.6827,85.6992 90,87.5C 90.2189,86.062 90.7189,84.7287 91.5,83.5C 94.1402,85.5346 94.1402,87.5346 91.5,89.5 Z"/></g>
<g><path style="opacity:1" fill="#8a4018" d="M 33.5,88.5 C 32.6572,93.0943 33.9906,96.7609 37.5,99.5C 36.8333,99.5 36.1667,99.5 35.5,99.5C 34.2101,98.9423 33.3768,97.9423 33,96.5C 32.1993,93.633 32.3659,90.9664 33.5,88.5 Z"/></g>
<g><path style="opacity:0.998" fill="#681c17" d="M 10.5,48.5 C 11.4916,48.3284 12.1583,48.6618 12.5,49.5C 9.40308,53.6941 7.40308,58.3608 6.5,63.5C 5.03201,64.7791 4.36534,66.4458 4.5,68.5C 3.51192,73.6405 3.17859,78.9738 3.5,84.5C 3.83333,85.1667 4.16667,85.8333 4.5,86.5C 5.02007,94.0671 7.68674,100.734 12.5,106.5C 13.2623,108.262 14.5956,109.262 16.5,109.5C 17.7976,114.131 20.7976,117.131 25.5,118.5C 30.2398,122.859 35.9065,124.859 42.5,124.5C 43.1667,124.833 43.8333,125.167 44.5,125.5C 46.5,125.5 48.5,125.5 50.5,125.5C 50.8333,125.5 51.1667,125.5 51.5,125.5C 53.5,125.5 55.5,125.5 57.5,125.5C 58.791,125.263 59.791,125.596 60.5,126.5C 58.2646,126.205 56.2646,126.539 54.5,127.5C 44.1463,127.774 34.1463,126.108 24.5,122.5C 11.6964,113.057 3.36305,100.724 -0.5,85.5C -0.5,81.1667 -0.5,76.8333 -0.5,72.5C 0.980862,63.5358 4.64753,55.5358 10.5,48.5 Z"/></g>
<g><path style="opacity:1" fill="#c79a7e" d="M 33.5,86.5 C 33.5,87.1667 33.5,87.8333 33.5,88.5C 32.3659,90.9664 32.1993,93.633 33,96.5C 33.3768,97.9423 34.2101,98.9423 35.5,99.5C 35.8333,100.167 36.1667,100.833 36.5,101.5C 35.5,101.5 34.5,101.5 33.5,101.5C 32.8333,102.5 32.1667,103.5 31.5,104.5C 29.0316,101.097 27.6983,97.0972 27.5,92.5C 27.56,90.0788 27.8934,87.7455 28.5,85.5C 29.2679,84.7375 29.7679,83.7375 30,82.5C 30.3333,82.8333 30.6667,83.1667 31,83.5C 31,85.5 31,87.5 31,89.5C 31.3768,88.0577 32.2101,87.0577 33.5,86.5 Z"/></g>
<g><path style="opacity:0.009" fill="#916e50" d="M -0.5,85.5 C 3.36305,100.724 11.6964,113.057 24.5,122.5C 26.1634,124.49 28.1634,126.157 30.5,127.5C 31.1687,129.631 31.8354,131.631 32.5,133.5C 34.0493,135.829 34.8827,138.496 35,141.5C 36.0113,142.337 37.1779,142.67 38.5,142.5C 38.238,143.978 38.5713,145.311 39.5,146.5C 41.5879,147.179 43.5879,147.512 45.5,147.5C 45.0133,148.446 44.6799,149.446 44.5,150.5C 45.5186,152.511 46.5186,154.511 47.5,156.5C 47.8039,157.15 48.1373,157.817 48.5,158.5C 32.1803,159.499 15.8469,159.833 -0.5,159.5C -0.5,138.167 -0.5,116.833 -0.5,95.5C 0.833333,95.1667 0.833333,94.8333 -0.5,94.5C -0.5,91.5 -0.5,88.5 -0.5,85.5 Z M 32.5,145.5 C 33.1174,145.611 33.6174,145.944 34,146.5C 34.6667,148.833 34.6667,151.167 34,153.5C 33.7674,151.22 32.934,149.22 31.5,147.5C 31.8627,146.817 32.1961,146.15 32.5,145.5 Z"/></g>
<g><path style="opacity:1" fill="#bea390" d="M 25.5,77.5 C 25.3379,79.5273 25.5045,81.5273 26,83.5C 26.3826,82.944 26.8826,82.6107 27.5,82.5C 27.5858,83.4959 27.2524,84.3292 26.5,85C 27.0944,85.4643 27.7611,85.631 28.5,85.5C 27.8934,87.7455 27.56,90.0788 27.5,92.5C 27.6983,97.0972 29.0316,101.097 31.5,104.5C 28.6377,105.681 25.6377,105.681 22.5,104.5C 21.5084,104.672 20.8417,104.338 20.5,103.5C 20.573,101.973 19.9063,100.973 18.5,100.5C 17.6814,98.2278 17.0147,95.8945 16.5,93.5C 18.8564,89.7034 21.3564,86.0368 24,82.5C 24.1981,80.6183 24.6981,78.9516 25.5,77.5 Z"/></g>
<g><path style="opacity:0.349" fill="#806247" d="M 90.5,53.5 C 91.8221,53.33 92.9887,53.6634 94,54.5C 102.872,72.9129 102.538,91.2463 93,109.5C 87.4795,114.023 82.3129,118.856 77.5,124C 74.1772,126.538 70.5106,128.038 66.5,128.5C 66.1667,128.5 65.8333,128.5 65.5,128.5C 65.4142,127.504 65.7476,126.671 66.5,126C 80.1844,120.983 90.0177,111.816 96,98.5C 99.4063,89.0002 100.073,79.3336 98,69.5C 97.6174,68.944 97.1174,68.6107 96.5,68.5C 95.2582,63.2021 93.2582,58.2021 90.5,53.5 Z"/></g>
<g><path style="opacity:1" fill="#cd854b" d="M 51.5,94.5 C 51.5,95.5 51.5,96.5 51.5,97.5C 50.3747,99.1288 49.0414,100.629 47.5,102C 43.6425,102.81 39.9758,102.643 36.5,101.5C 36.1667,100.833 35.8333,100.167 35.5,99.5C 36.1667,99.5 36.8333,99.5 37.5,99.5C 40.5184,99.6646 43.5184,99.498 46.5,99C 47.7101,97.9609 48.7101,96.7942 49.5,95.5C 50.1667,95.1667 50.8333,94.8333 51.5,94.5 Z"/></g>
<g><path style="opacity:1" fill="#817b75" d="M 81.5,92.5 C 82.675,92.281 83.675,92.6143 84.5,93.5C 83.066,95.2199 82.2326,97.2199 82,99.5C 79.2895,103.374 76.1229,106.708 72.5,109.5C 71.8333,109.5 71.1667,109.5 70.5,109.5C 73.9415,107.388 76.2748,104.388 77.5,100.5C 78.8239,97.8522 80.1572,95.1855 81.5,92.5 Z"/></g>
<g><path style="opacity:1" fill="#997866" d="M 81.5,79.5 C 81.5,79.8333 81.5,80.1667 81.5,80.5C 80.6236,80.3691 79.9569,80.7025 79.5,81.5C 81.3122,84.8989 81.9789,88.5656 81.5,92.5C 77.7306,95.428 74.0639,98.5946 70.5,102C 66.7481,102.24 63.0814,102.74 59.5,103.5C 61.6353,101.631 64.3019,100.964 67.5,101.5C 68.3605,98.1327 70.5271,95.7994 74,94.5C 75.6179,91.0571 77.7846,88.0571 80.5,85.5C 78.9137,83.8273 78.2471,81.8273 78.5,79.5C 79.5,79.5 80.5,79.5 81.5,79.5 Z"/></g>
<g><path style="opacity:1" fill="#5c3320" d="M 51.5,97.5 C 52.1667,97.5 52.5,97.8333 52.5,98.5C 51.5592,100.05 50.8925,101.716 50.5,103.5C 48.5214,105.168 46.188,105.834 43.5,105.5C 42.1667,105.5 40.8333,105.5 39.5,105.5C 37.7354,104.539 35.7354,104.205 33.5,104.5C 33.5,103.5 33.5,102.5 33.5,101.5C 34.5,101.5 35.5,101.5 36.5,101.5C 39.9758,102.643 43.6425,102.81 47.5,102C 49.0414,100.629 50.3747,99.1288 51.5,97.5 Z"/></g>
<g><path style="opacity:1" fill="#7d5d47" d="M 81.5,92.5 C 80.1572,95.1855 78.8239,97.8522 77.5,100.5C 75.3702,102.127 73.3702,103.96 71.5,106C 64.1594,107.12 56.826,108.287 49.5,109.5C 47.5789,109.86 45.9122,110.694 44.5,112C 41.9615,112.796 39.6282,112.629 37.5,111.5C 40.1667,111.167 42.8333,110.833 45.5,110.5C 45.6085,108.486 44.9418,106.82 43.5,105.5C 46.188,105.834 48.5214,105.168 50.5,103.5C 50.4606,104.583 50.1272,105.583 49.5,106.5C 53.5219,107.824 56.8553,106.824 59.5,103.5C 63.0814,102.74 66.7481,102.24 70.5,102C 74.0639,98.5946 77.7306,95.428 81.5,92.5 Z"/></g>
<g><path style="opacity:1" fill="#835e48" d="M 16.5,100.5 C 17.1667,100.5 17.8333,100.5 18.5,100.5C 19.9063,100.973 20.573,101.973 20.5,103.5C 18.2704,104.775 16.937,106.775 16.5,109.5C 14.5956,109.262 13.2623,108.262 12.5,106.5C 15.3126,105.554 16.646,103.554 16.5,100.5 Z"/></g>
<g><path style="opacity:1" fill="#895f48" d="M 33.5,101.5 C 33.5,102.5 33.5,103.5 33.5,104.5C 35.7354,104.205 37.7354,104.539 39.5,105.5C 39.1667,105.5 38.8333,105.5 38.5,105.5C 37.5,105.5 36.5,105.5 35.5,105.5C 34.5655,106.568 34.2322,107.901 34.5,109.5C 31.3324,108.136 27.9991,107.303 24.5,107C 23.6195,106.292 22.9528,105.458 22.5,104.5C 25.6377,105.681 28.6377,105.681 31.5,104.5C 32.1667,103.5 32.8333,102.5 33.5,101.5 Z"/></g>
<g><path style="opacity:0.78" fill="#6c513b" d="M 96.5,68.5 C 97.1174,68.6107 97.6174,68.944 98,69.5C 100.073,79.3336 99.4063,89.0002 96,98.5C 90.0177,111.816 80.1844,120.983 66.5,126C 65.7476,126.671 65.4142,127.504 65.5,128.5C 62.3416,130.593 59.0083,130.926 55.5,129.5C 55.1667,128.833 54.8333,128.167 54.5,127.5C 56.2646,126.539 58.2646,126.205 60.5,126.5C 80.0584,120.441 92.2251,107.441 97,87.5C 97.7511,81.1163 97.5844,74.783 96.5,68.5 Z"/></g>
<g><path style="opacity:1" fill="#513321" d="M 77.5,100.5 C 76.2748,104.388 73.9415,107.388 70.5,109.5C 69.4863,110.674 68.153,111.34 66.5,111.5C 62.5742,110.692 59.0742,111.692 56,114.5C 50.9082,113.023 45.9082,113.356 41,115.5C 39.415,114.956 37.915,114.289 36.5,113.5C 32.5709,112.588 28.5709,112.588 24.5,113.5C 24.366,115.292 24.6993,116.958 25.5,118.5C 20.7976,117.131 17.7976,114.131 16.5,109.5C 16.937,106.775 18.2704,104.775 20.5,103.5C 20.8417,104.338 21.5084,104.672 22.5,104.5C 22.9528,105.458 23.6195,106.292 24.5,107C 27.9991,107.303 31.3324,108.136 34.5,109.5C 34.9731,110.906 35.9731,111.573 37.5,111.5C 39.6282,112.629 41.9615,112.796 44.5,112C 45.9122,110.694 47.5789,109.86 49.5,109.5C 56.826,108.287 64.1594,107.12 71.5,106C 73.3702,103.96 75.3702,102.127 77.5,100.5 Z"/></g>
<g><path style="opacity:1" fill="#ae8e7d" d="M 35.5,105.5 C 35.0101,107.948 35.8434,109.615 38,110.5C 45.0164,109.367 45.183,107.7 38.5,105.5C 38.8333,105.5 39.1667,105.5 39.5,105.5C 40.8333,105.5 42.1667,105.5 43.5,105.5C 44.9418,106.82 45.6085,108.486 45.5,110.5C 42.8333,110.833 40.1667,111.167 37.5,111.5C 35.9731,111.573 34.9731,110.906 34.5,109.5C 34.2322,107.901 34.5655,106.568 35.5,105.5 Z"/></g>
<g><path style="opacity:1" fill="#dec7bb" d="M 35.5,105.5 C 36.5,105.5 37.5,105.5 38.5,105.5C 45.183,107.7 45.0164,109.367 38,110.5C 35.8434,109.615 35.0101,107.948 35.5,105.5 Z"/></g>
<g><path style="opacity:0.004" fill="#926f50" d="M 104.5,113.5 C 104.5,128.833 104.5,144.167 104.5,159.5C 92.6547,159.828 80.988,159.495 69.5,158.5C 70.4511,157.081 70.7845,155.415 70.5,153.5C 71.8333,153.5 73.1667,153.5 74.5,153.5C 74.2837,151.319 75.117,149.653 77,148.5C 76.5335,142.36 78.3668,137.194 82.5,133C 84.1667,132.667 85.8333,132.333 87.5,132C 90.378,127.144 94.378,123.644 99.5,121.5C 100.31,119.202 101.144,116.868 102,114.5C 102.671,113.748 103.504,113.414 104.5,113.5 Z"/></g>
<g><path style="opacity:1" fill="#9aabb5" d="M 92.5,94.5 C 86.1679,110.831 74.5013,121.164 57.5,125.5C 55.5,125.5 53.5,125.5 51.5,125.5C 52.5152,121.659 54.8485,120.492 58.5,122C 71.1639,116.003 80.4972,106.669 86.5,94C 88.7116,93.2109 90.7116,93.3775 92.5,94.5 Z"/></g>
<g><path style="opacity:1" fill="#87644f" d="M 66.5,111.5 C 65.5475,113.61 63.8808,114.777 61.5,115C 57.5138,115.499 53.5138,115.666 49.5,115.5C 48.3661,119.101 46.6994,122.435 44.5,125.5C 43.8333,125.167 43.1667,124.833 42.5,124.5C 41.1591,122.88 39.3258,121.88 37,121.5C 36.8726,120.223 37.3726,119.057 38.5,118C 37.5862,116.594 36.9195,115.094 36.5,113.5C 37.915,114.289 39.415,114.956 41,115.5C 45.9082,113.356 50.9082,113.023 56,114.5C 59.0742,111.692 62.5742,110.692 66.5,111.5 Z"/></g>
<g><path style="opacity:1" fill="#9a8e7c" d="M 70.5,109.5 C 71.1667,109.5 71.8333,109.5 72.5,109.5C 70.708,111.667 68.708,113.667 66.5,115.5C 63.3736,115.984 60.7069,117.317 58.5,119.5C 57.7065,119.069 56.8732,118.735 56,118.5C 52.139,119.324 50.3057,121.657 50.5,125.5C 48.5,125.5 46.5,125.5 44.5,125.5C 46.6994,122.435 48.3661,119.101 49.5,115.5C 53.5138,115.666 57.5138,115.499 61.5,115C 63.8808,114.777 65.5475,113.61 66.5,111.5C 68.153,111.34 69.4863,110.674 70.5,109.5 Z"/></g>
<g><path style="opacity:1" fill="#aa8770" d="M 36.5,113.5 C 36.9195,115.094 37.5862,116.594 38.5,118C 37.3726,119.057 36.8726,120.223 37,121.5C 39.3258,121.88 41.1591,122.88 42.5,124.5C 35.9065,124.859 30.2398,122.859 25.5,118.5C 24.6993,116.958 24.366,115.292 24.5,113.5C 28.5709,112.588 32.5709,112.588 36.5,113.5 Z"/></g>
<g><path style="opacity:0.98" fill="#6b3830" d="M 90.5,53.5 C 93.2582,58.2021 95.2582,63.2021 96.5,68.5C 97.5844,74.783 97.7511,81.1163 97,87.5C 92.2251,107.441 80.0584,120.441 60.5,126.5C 59.791,125.596 58.791,125.263 57.5,125.5C 74.5013,121.164 86.1679,110.831 92.5,94.5C 93.3382,94.1583 93.6716,93.4916 93.5,92.5C 93.5569,91.391 93.8902,90.391 94.5,89.5C 95.3242,86.2356 95.6576,82.9023 95.5,79.5C 95.6621,77.4727 95.4955,75.4727 95,73.5C 93.6244,72.2949 92.4577,70.9616 91.5,69.5C 91.8333,67.5 92.1667,65.5 92.5,63.5C 92.6567,62.1266 92.49,60.7932 92,59.5C 88.4532,53.4422 84.2866,47.7755 79.5,42.5C 80.4214,40.7313 81.5881,39.0646 83,37.5C 83.4935,35.8659 83.6602,34.1992 83.5,32.5C 82.5,32.5 81.5,32.5 80.5,32.5C 80.5,33.5 80.5,34.5 80.5,35.5C 79.5,35.5 78.5,35.5 77.5,35.5C 77.0826,30.9315 79.0826,29.4315 83.5,31C 86.4594,35.4091 85.7927,39.2425 81.5,42.5C 84.9015,45.8953 87.9015,49.562 90.5,53.5 Z"/></g>
<g><path style="opacity:1" fill="#641712" d="M 55.5,129.5 C 59.0083,130.926 62.3416,130.593 65.5,128.5C 65.8333,128.5 66.1667,128.5 66.5,128.5C 66.5,129.167 66.5,129.833 66.5,130.5C 66.7709,132.38 66.1042,133.713 64.5,134.5C 63.5318,136.607 63.1984,138.941 63.5,141.5C 61.0509,140.943 58.7175,140.943 56.5,141.5C 58.1045,143.179 58.7711,145.179 58.5,147.5C 56.7376,147.643 55.0709,147.309 53.5,146.5C 52.9478,148.003 52.9478,149.669 53.5,151.5C 51.7726,153.567 49.7726,155.233 47.5,156.5C 46.5186,154.511 45.5186,152.511 44.5,150.5C 44.6799,149.446 45.0133,148.446 45.5,147.5C 43.5879,147.512 41.5879,147.179 39.5,146.5C 38.5713,145.311 38.238,143.978 38.5,142.5C 37.1779,142.67 36.0113,142.337 35,141.5C 34.8827,138.496 34.0493,135.829 32.5,133.5C 32.2011,131.396 32.5344,129.396 33.5,127.5C 34.6131,129.031 36.1131,130.031 38,130.5C 40.3333,129.833 42.6667,129.167 45,128.5C 47.2906,130.061 49.7906,131.228 52.5,132C 53.8045,132.804 54.4712,133.971 54.5,135.5C 53.14,138.228 51.3066,140.561 49,142.5C 46.4054,140.57 44.572,138.07 43.5,135C 44.1007,133.395 45.1007,132.062 46.5,131C 43.1858,130.166 41.5192,131.499 41.5,135C 42.9083,139.302 45.2416,143.135 48.5,146.5C 51.3243,143.542 54.1576,140.542 57,137.5C 57.8597,133.147 56.0264,130.647 51.5,130C 52.7932,129.51 54.1266,129.343 55.5,129.5 Z"/></g>
<g><path style="opacity:0.835" fill="#724b37" d="M 24.5,122.5 C 34.1463,126.108 44.1463,127.774 54.5,127.5C 54.8333,128.167 55.1667,128.833 55.5,129.5C 54.1266,129.343 52.7932,129.51 51.5,130C 56.0264,130.647 57.8597,133.147 57,137.5C 54.1576,140.542 51.3243,143.542 48.5,146.5C 45.2416,143.135 42.9083,139.302 41.5,135C 41.5192,131.499 43.1858,130.166 46.5,131C 45.1007,132.062 44.1007,133.395 43.5,135C 44.572,138.07 46.4054,140.57 49,142.5C 51.3066,140.561 53.14,138.228 54.5,135.5C 54.4712,133.971 53.8045,132.804 52.5,132C 49.7906,131.228 47.2906,130.061 45,128.5C 42.6667,129.167 40.3333,129.833 38,130.5C 36.1131,130.031 34.6131,129.031 33.5,127.5C 32.5344,129.396 32.2011,131.396 32.5,133.5C 31.8354,131.631 31.1687,129.631 30.5,127.5C 28.1634,126.157 26.1634,124.49 24.5,122.5 Z"/></g>
<g><path style="opacity:0.4" fill="#6f4936" d="M 64.5,134.5 C 64.5,137.5 64.5,140.5 64.5,143.5C 63.1667,143.5 61.8333,143.5 60.5,143.5C 60.6602,145.199 60.4935,146.866 60,148.5C 57.6252,149.129 55.4586,150.129 53.5,151.5C 52.9478,149.669 52.9478,148.003 53.5,146.5C 55.0709,147.309 56.7376,147.643 58.5,147.5C 58.7711,145.179 58.1045,143.179 56.5,141.5C 58.7175,140.943 61.0509,140.943 63.5,141.5C 63.1984,138.941 63.5318,136.607 64.5,134.5 Z"/></g>
<g><path style="opacity:0.038" fill="#7f6349" d="M 66.5,130.5 C 67.6839,135.103 67.3505,139.769 65.5,144.5C 60.5438,148.503 56.2105,153.169 52.5,158.5C 53.3333,158.833 54.1667,159.167 55,159.5C 56.3756,159.316 57.2089,158.649 57.5,157.5C 61.3998,158.43 65.3998,158.763 69.5,158.5C 80.988,159.495 92.6547,159.828 104.5,159.5C 104.5,159.833 104.5,160.167 104.5,160.5C 69.5,160.5 34.5,160.5 -0.5,160.5C -0.5,160.167 -0.5,159.833 -0.5,159.5C 15.8469,159.833 32.1803,159.499 48.5,158.5C 48.1373,157.817 47.8039,157.15 47.5,156.5C 49.7726,155.233 51.7726,153.567 53.5,151.5C 55.4586,150.129 57.6252,149.129 60,148.5C 60.4935,146.866 60.6602,145.199 60.5,143.5C 61.8333,143.5 63.1667,143.5 64.5,143.5C 64.5,140.5 64.5,137.5 64.5,134.5C 66.1042,133.713 66.7709,132.38 66.5,130.5 Z"/></g>
</svg>
