<?xml version="1.0" encoding="UTF-8"?>
<!DOCTYPE svg PUBLIC "-//W3C//DTD SVG 1.1//EN" "http://www.w3.org/Graphics/SVG/1.1/DTD/svg11.dtd">
<svg xmlns="http://www.w3.org/2000/svg" version="1.1" width="105px" height="161px" style="shape-rendering:geometricPrecision; text-rendering:geometricPrecision; image-rendering:optimizeQuality; fill-rule:evenodd; clip-rule:evenodd" xmlns:xlink="http://www.w3.org/1999/xlink">
<g><path style="opacity:0.007" fill="#926f50" d="M 33.5,-0.5 C 57.1667,-0.5 80.8333,-0.5 104.5,-0.5C 104.5,19.8333 104.5,40.1667 104.5,60.5C 103.07,60.5792 101.736,60.2458 100.5,59.5C 100.167,60.3333 99.8333,61.1667 99.5,62C 100.832,66.3312 102.165,70.6645 103.5,75C 103.011,76.1385 102.678,77.3052 102.5,78.5C 101.833,77.8333 101.167,77.1667 100.5,76.5C 100.993,70.7826 99.4926,65.7826 96,61.5C 95.5709,57.3196 94.0709,53.6529 91.5,50.5C 93.8056,50.0074 96.139,49.6741 98.5,49.5C 99.1437,44.2133 98.8104,38.8799 97.5,33.5C 95.057,31.9447 92.3903,31.278 89.5,31.5C 89.6602,29.8008 89.4935,28.1341 89,26.5C 86.6806,22.3572 84.1806,18.3572 81.5,14.5C 76.1988,12.0938 71.1988,12.4272 66.5,15.5C 65.8333,15.5 65.5,15.8333 65.5,16.5C 65.5,17.1667 65.5,17.8333 65.5,18.5C 65.5,19.8333 65.5,21.1667 65.5,22.5C 65.5,22.8333 65.5,23.1667 65.5,23.5C 64.8333,23.5 64.5,23.8333 64.5,24.5C 63.8333,24.5 63.1667,24.5 62.5,24.5C 62.1667,24.5 61.8333,24.5 61.5,24.5C 63.25,20.5818 62.5834,17.2485 59.5,14.5C 58.4324,13.5655 57.099,13.2322 55.5,13.5C 55.7271,11.0672 54.7271,9.40058 52.5,8.5C 52.573,6.97306 51.9063,5.97306 50.5,5.5C 49.2946,4.31434 47.9613,4.31434 46.5,5.5C 46.5654,5.06178 46.3988,4.72845 46,4.5C 44.8129,6.04442 44.4795,7.71109 45,9.5C 45.2784,8.5842 45.7784,7.91753 46.5,7.5C 46.8426,12.0411 46.8426,16.3744 46.5,20.5C 45.5849,18.2459 44.2516,16.2459 42.5,14.5C 42.1667,13.8333 41.8333,13.1667 41.5,12.5C 41.7151,11.266 41.0484,11.266 39.5,12.5C 38.8333,12.5 38.5,12.8333 38.5,13.5C 37.5041,13.4142 36.6708,13.7476 36,14.5C 35.2613,13.4258 34.2613,12.7591 33,12.5C 30.5,13.3333 28,14.1667 25.5,15C 24.7476,15.6708 24.4142,16.5041 24.5,17.5C 22.0882,17.6941 21.0882,19.0274 21.5,21.5C 20.2437,23.7257 20.2437,26.059 21.5,28.5C 19.2181,27.6103 16.8848,27.4436 14.5,28C 13.244,28.4169 12.5774,29.2502 12.5,30.5C 11.8333,30.5 11.5,30.8333 11.5,31.5C 7.9303,33.8966 7.59696,36.8966 10.5,40.5C 10.9569,41.2975 11.6236,41.6309 12.5,41.5C 11.2702,39.7028 10.6036,37.7028 10.5,35.5C 12.3652,37.513 14.0319,39.8464 15.5,42.5C 7.02464,50.9364 1.6913,60.9364 -0.5,72.5C -0.5,69.8333 -0.5,67.1667 -0.5,64.5C 1.07394,62.8984 1.74061,60.8984 1.5,58.5C 0.833333,58.8333 0.166667,59.1667 -0.5,59.5C -0.5,43.1667 -0.5,26.8333 -0.5,10.5C 10.8333,10.5 22.1667,10.5 33.5,10.5C 33.5,6.83333 33.5,3.16667 33.5,-0.5 Z M 46.5,5.5 C 46.5,6.16667 46.5,6.83333 46.5,7.5C 45.7784,7.91753 45.2784,8.5842 45,9.5C 44.4795,7.71109 44.8129,6.04442 46,4.5C 46.3988,4.72845 46.5654,5.06178 46.5,5.5 Z M 38.5,13.5 C 37.6586,15.3792 37.3253,17.3792 37.5,19.5C 35.5,18.1667 33.5,16.8333 31.5,15.5C 30.5,15.5 29.5,15.5 28.5,15.5C 27.1667,16.1667 25.8333,16.8333 24.5,17.5C 24.4142,16.5041 24.7476,15.6708 25.5,15C 28,14.1667 30.5,13.3333 33,12.5C 34.2613,12.7591 35.2613,13.4258 36,14.5C 36.6708,13.7476 37.5041,13.4142 38.5,13.5 Z M 89.5,31.5 C 86.3,30.1604 82.6333,28.9937 78.5,28C 79.1667,27.3333 79.8333,26.6667 80.5,26C 78.5322,22.0401 75.8655,18.7068 72.5,16C 70.5273,15.5045 68.5273,15.3379 66.5,15.5C 71.1988,12.4272 76.1988,12.0938 81.5,14.5C 84.1806,18.3572 86.6806,22.3572 89,26.5C 89.4935,28.1341 89.6602,29.8008 89.5,31.5 Z M 24.5,17.5 C 24.2014,19.4553 23.2014,20.7886 21.5,21.5C 21.0882,19.0274 22.0882,17.6941 24.5,17.5 Z M 21.5,21.5 C 21.6741,23.861 22.0074,26.1944 22.5,28.5C 22.1667,28.5 21.8333,28.5 21.5,28.5C 20.2437,26.059 20.2437,23.7257 21.5,21.5 Z M 21.5,28.5 C 21.1583,29.3382 20.4916,29.6716 19.5,29.5C 17.0504,29.298 14.717,29.6314 12.5,30.5C 12.5774,29.2502 13.244,28.4169 14.5,28C 16.8848,27.4436 19.2181,27.6103 21.5,28.5 Z M 11.5,31.5 C 11.1667,32.8333 10.8333,34.1667 10.5,35.5C 10.6036,37.7028 11.2702,39.7028 12.5,41.5C 11.6236,41.6309 10.9569,41.2975 10.5,40.5C 7.59696,36.8966 7.9303,33.8966 11.5,31.5 Z M 89.5,31.5 C 92.3903,31.278 95.057,31.9447 97.5,33.5C 98.8104,38.8799 99.1437,44.2133 98.5,49.5C 96.139,49.6741 93.8056,50.0074 91.5,50.5C 90.8825,48.7708 89.8825,47.2708 88.5,46C 89.9125,42.2958 90.9125,38.4624 91.5,34.5C 90.8075,33.4822 90.1408,32.4822 89.5,31.5 Z M 12.5,43.5 C 12.1667,44.5 11.5,45.1667 10.5,45.5C 10.5,44.1667 11.1667,43.5 12.5,43.5 Z M 4.5,53.5 C 4.46141,52.2438 4.96141,51.2438 6,50.5C 6.5847,51.9976 6.0847,52.9976 4.5,53.5 Z M 4.5,53.5 C 4.25027,55.674 3.25027,57.3406 1.5,58.5C 1.2729,56.0672 2.2729,54.4006 4.5,53.5 Z"/></g>
<g><path style="opacity:0.996" fill="#62100e" d="M 50.5,5.5 C 51.9063,5.97306 52.573,6.97306 52.5,8.5C 52.9693,12.9104 51.9693,16.9104 49.5,20.5C 47.7191,15.972 47.2191,11.3053 48,6.5C 48.6708,5.74756 49.5041,5.41423 50.5,5.5 Z"/></g>
<g><path style="opacity:0.936" fill="#6f2d22" d="M 28.5,15.5 C 29.5,15.5 30.5,15.5 31.5,15.5C 32.1465,17.1561 32.8131,18.8228 33.5,20.5C 33.2811,22.9153 31.9477,23.9153 29.5,23.5C 30.994,19.1466 29.8273,18.4799 26,21.5C 25.3333,23.1667 25.3333,24.8333 26,26.5C 26.7247,27.0585 27.5581,27.3918 28.5,27.5C 33.603,25.2825 38.9363,24.2825 44.5,24.5C 45.8121,26.4788 47.4788,28.1455 49.5,29.5C 52.5763,25.6288 56.5763,23.9621 61.5,24.5C 61.8333,24.5 62.1667,24.5 62.5,24.5C 65.8259,27.55 69.3259,27.8834 73,25.5C 73.7049,21.7114 72.2049,19.3781 68.5,18.5C 68.4208,19.9305 68.7542,21.2638 69.5,22.5C 68.1916,23.6256 66.8583,23.6256 65.5,22.5C 65.5,21.1667 65.5,19.8333 65.5,18.5C 68.7046,15.9036 71.7046,16.2369 74.5,19.5C 76.8617,24.9871 75.195,28.6538 69.5,30.5C 71.5,32.8333 73.5,35.1667 75.5,37.5C 81.1289,40.8915 83.7956,39.2248 83.5,32.5C 82.5,32.5 81.5,32.5 80.5,32.5C 80.5,33.5 80.5,34.5 80.5,35.5C 79.5,35.5 78.5,35.5 77.5,35.5C 76.83,32.4096 77.9967,30.743 81,30.5C 84.0705,30.7378 85.5705,32.4044 85.5,35.5C 84.8138,40.4851 82.1471,42.4851 77.5,41.5C 74.3044,38.4036 70.6377,36.0702 66.5,34.5C 65.6127,28.0495 61.9461,25.5495 55.5,27C 53.9371,27.7589 52.9371,28.9256 52.5,30.5C 50.8333,30.5 49.1667,30.5 47.5,30.5C 47.1667,30.5 46.8333,30.5 46.5,30.5C 42.9204,25.5527 38.7537,25.2193 34,29.5C 33.51,30.7932 33.3433,32.1266 33.5,33.5C 32.0048,33.9887 30.6715,34.6554 29.5,35.5C 24.8859,38.1173 20.5526,41.1173 16.5,44.5C 15.1667,45.1667 14.1667,46.1667 13.5,47.5C 12.6618,47.8417 12.3284,48.5084 12.5,49.5C 10.7376,50.2623 9.73758,51.5956 9.5,53.5C 6.79891,56.2353 5.13224,59.5686 4.5,63.5C 3.77842,63.9175 3.27842,64.5842 3,65.5C 0.855928,74.0254 1.02259,82.3587 3.5,90.5C 3.5,91.1667 3.5,91.8333 3.5,92.5C 3.64945,93.552 3.48278,94.552 3,95.5C 2.43381,93.2774 1.60047,91.2774 0.5,89.5C 0.767809,87.901 0.434475,86.5676 -0.5,85.5C -0.5,81.1667 -0.5,76.8333 -0.5,72.5C 1.6913,60.9364 7.02464,50.9364 15.5,42.5C 14.0319,39.8464 12.3652,37.513 10.5,35.5C 10.8333,34.1667 11.1667,32.8333 11.5,31.5C 12.1667,31.5 12.5,31.1667 12.5,30.5C 14.717,29.6314 17.0504,29.298 19.5,29.5C 20.3686,31.717 20.702,34.0504 20.5,36.5C 19.5,36.5 18.5,36.5 17.5,36.5C 17.1008,31.3771 16.1008,31.2104 14.5,36C 14.2606,38.259 15.2606,39.4257 17.5,39.5C 22.6295,38.0412 26.6295,35.0412 29.5,30.5C 23.634,28.7431 22.134,25.0765 25,19.5C 26.6268,18.4677 27.7934,17.1344 28.5,15.5 Z"/></g>
<g><path style="opacity:1" fill="#651c16" d="M 42.5,14.5 C 44.2516,16.2459 45.5849,18.2459 46.5,20.5C 46.4142,21.4959 46.7476,22.3292 47.5,23C 46.552,23.4828 45.552,23.6495 44.5,23.5C 43.1667,22.0665 41.6667,20.7332 40,19.5C 39.5065,17.8659 39.3398,16.1992 39.5,14.5C 40.5,14.5 41.5,14.5 42.5,14.5 Z"/></g>
<g><path style="opacity:0.169" fill="#7e5a41" d="M 62.5,24.5 C 63.1667,24.5 63.8333,24.5 64.5,24.5C 65.1667,24.5 65.5,24.1667 65.5,23.5C 65.5,23.1667 65.5,22.8333 65.5,22.5C 66.8583,23.6256 68.1916,23.6256 69.5,22.5C 68.7542,21.2638 68.4208,19.9305 68.5,18.5C 72.2049,19.3781 73.7049,21.7114 73,25.5C 69.3259,27.8834 65.8259,27.55 62.5,24.5 Z"/></g>
<g><path style="opacity:0.035" fill="#876147" d="M 39.5,12.5 C 40.1667,12.5 40.8333,12.5 41.5,12.5C 41.8333,13.1667 42.1667,13.8333 42.5,14.5C 41.5,14.5 40.5,14.5 39.5,14.5C 39.3398,16.1992 39.5065,17.8659 40,19.5C 41.6667,20.7332 43.1667,22.0665 44.5,23.5C 44.5,23.8333 44.5,24.1667 44.5,24.5C 38.9363,24.2825 33.603,25.2825 28.5,27.5C 27.5581,27.3918 26.7247,27.0585 26,26.5C 25.3333,24.8333 25.3333,23.1667 26,21.5C 29.8273,18.4799 30.994,19.1466 29.5,23.5C 31.9477,23.9153 33.2811,22.9153 33.5,20.5C 32.8131,18.8228 32.1465,17.1561 31.5,15.5C 33.5,16.8333 35.5,18.1667 37.5,19.5C 37.3253,17.3792 37.6586,15.3792 38.5,13.5C 39.1667,13.5 39.5,13.1667 39.5,12.5 Z"/></g>
<g><path style="opacity:0.44" fill="#79513b" d="M 50.5,5.5 C 49.5041,5.41423 48.6708,5.74756 48,6.5C 47.2191,11.3053 47.7191,15.972 49.5,20.5C 51.9693,16.9104 52.9693,12.9104 52.5,8.5C 54.7271,9.40058 55.7271,11.0672 55.5,13.5C 57.099,13.2322 58.4324,13.5655 59.5,14.5C 62.5834,17.2485 63.25,20.5818 61.5,24.5C 56.5763,23.9621 52.5763,25.6288 49.5,29.5C 47.4788,28.1455 45.8121,26.4788 44.5,24.5C 44.5,24.1667 44.5,23.8333 44.5,23.5C 45.552,23.6495 46.552,23.4828 47.5,23C 46.7476,22.3292 46.4142,21.4959 46.5,20.5C 46.8426,16.3744 46.8426,12.0411 46.5,7.5C 46.5,6.83333 46.5,6.16667 46.5,5.5C 47.9613,4.31434 49.2946,4.31434 50.5,5.5 Z"/></g>
<g><path style="opacity:1" fill="#651914" d="M 59.5,14.5 C 59.3542,18.619 57.3542,21.619 53.5,23.5C 53.1667,22.8333 52.8333,22.1667 52.5,21.5C 53.5314,19.6178 54.3647,17.6178 55,15.5C 56.3561,14.6198 57.8561,14.2865 59.5,14.5 Z"/></g>
<g><path style="opacity:0.206" fill="#7c5740" d="M 46.5,30.5 C 42.1585,30.5532 38.1585,31.5532 34.5,33.5C 34.1667,33.5 33.8333,33.5 33.5,33.5C 33.3433,32.1266 33.51,30.7932 34,29.5C 38.7537,25.2193 42.9204,25.5527 46.5,30.5 Z"/></g>
<g><path style="opacity:0.047" fill="#876147" d="M 28.5,15.5 C 27.7934,17.1344 26.6268,18.4677 25,19.5C 22.134,25.0765 23.634,28.7431 29.5,30.5C 26.6295,35.0412 22.6295,38.0412 17.5,39.5C 15.2606,39.4257 14.2606,38.259 14.5,36C 16.1008,31.2104 17.1008,31.3771 17.5,36.5C 18.5,36.5 19.5,36.5 20.5,36.5C 20.702,34.0504 20.3686,31.717 19.5,29.5C 20.4916,29.6716 21.1583,29.3382 21.5,28.5C 21.8333,28.5 22.1667,28.5 22.5,28.5C 22.0074,26.1944 21.6741,23.861 21.5,21.5C 23.2014,20.7886 24.2014,19.4553 24.5,17.5C 25.8333,16.8333 27.1667,16.1667 28.5,15.5 Z"/></g>
<g><path style="opacity:0.22" fill="#845e46" d="M 66.5,34.5 C 65.1667,34.1667 63.8333,33.8333 62.5,33.5C 61.0047,33.5852 60.0047,32.9185 59.5,31.5C 57.2573,30.5258 54.924,30.1924 52.5,30.5C 52.9371,28.9256 53.9371,27.7589 55.5,27C 61.9461,25.5495 65.6127,28.0495 66.5,34.5 Z"/></g>
<g><path style="opacity:1" fill="#9c8a79" d="M 46.5,30.5 C 46.8333,30.5 47.1667,30.5 47.5,30.5C 47.631,31.2389 47.4643,31.9056 47,32.5C 45.6976,33.0848 44.531,33.7515 43.5,34.5C 40.4824,34.2962 37.4824,33.9629 34.5,33.5C 38.1585,31.5532 42.1585,30.5532 46.5,30.5 Z"/></g>
<g><path style="opacity:1" fill="#c5b8a6" d="M 47.5,30.5 C 49.1667,30.5 50.8333,30.5 52.5,30.5C 54.924,30.1924 57.2573,30.5258 59.5,31.5C 60.0047,32.9185 61.0047,33.5852 62.5,33.5C 61.9517,36.0838 60.285,37.0838 57.5,36.5C 57.5614,38.5922 58.5614,40.0922 60.5,41C 57.9557,42.7748 57.9557,44.6082 60.5,46.5C 60,46.8333 59.5,47.1667 59,47.5C 57.6667,46.8333 56.3333,46.1667 55,45.5C 51.1929,47.8968 47.0262,49.2301 42.5,49.5C 42.719,48.325 42.3857,47.325 41.5,46.5C 39.2062,45.2943 36.8728,44.2943 34.5,43.5C 34.5,42.1667 34.5,40.8333 34.5,39.5C 36.1667,39.5 37.8333,39.5 39.5,39.5C 39.5,38.1667 39.5,36.8333 39.5,35.5C 41.099,35.7678 42.4324,35.4345 43.5,34.5C 44.531,33.7515 45.6976,33.0848 47,32.5C 47.4643,31.9056 47.631,31.2389 47.5,30.5 Z"/></g>
<g><path style="opacity:1" fill="#a89d8c" d="M 29.5,35.5 C 28.6993,37.0418 28.366,38.7085 28.5,40.5C 29.8333,40.5 31.1667,40.5 32.5,40.5C 32.4809,42.0603 32.1476,43.5603 31.5,45C 32.4611,48.4107 33.7944,51.5774 35.5,54.5C 34.0907,56.4169 32.424,58.2502 30.5,60C 25.4759,60.6648 20.4759,60.4982 15.5,59.5C 7.60575,60.7476 4.27241,65.4142 5.5,73.5C 4.52056,70.3752 4.18723,67.0419 4.5,63.5C 7.89311,61.927 9.22644,59.2604 8.5,55.5C 9.83333,55.5 11.1667,55.5 12.5,55.5C 12.5,56.5 12.5,57.5 12.5,58.5C 18.8627,58.593 25.1961,58.2597 31.5,57.5C 31.5498,52.4482 31.0498,47.4482 30,42.5C 29.3292,43.2524 28.4959,43.5858 27.5,43.5C 27.3059,41.0882 25.9726,40.0882 23.5,40.5C 22.2676,45.0197 19.6009,48.353 15.5,50.5C 14.791,49.596 13.791,49.2627 12.5,49.5C 12.3284,48.5084 12.6618,47.8417 13.5,47.5C 14.9354,48.0965 16.602,48.0965 18.5,47.5C 18.7148,45.8212 18.0481,44.8212 16.5,44.5C 20.5526,41.1173 24.8859,38.1173 29.5,35.5 Z"/></g>
<g><path style="opacity:1" fill="#d6c8b4" d="M 16.5,44.5 C 18.0481,44.8212 18.7148,45.8212 18.5,47.5C 16.602,48.0965 14.9354,48.0965 13.5,47.5C 14.1667,46.1667 15.1667,45.1667 16.5,44.5 Z"/></g>
<g><path style="opacity:1" fill="#c9bfaf" d="M 27.5,43.5 C 26.7222,44.1556 26.0556,44.9889 25.5,46C 28.0455,47.3151 28.7122,49.1485 27.5,51.5C 25.1491,53.7442 22.4824,54.0775 19.5,52.5C 17.5168,52.8432 16.1834,52.1765 15.5,50.5C 19.6009,48.353 22.2676,45.0197 23.5,40.5C 25.9726,40.0882 27.3059,41.0882 27.5,43.5 Z"/></g>
<g><path style="opacity:1" fill="#b8ac99" d="M 33.5,33.5 C 33.8333,33.5 34.1667,33.5 34.5,33.5C 37.4824,33.9629 40.4824,34.2962 43.5,34.5C 42.4324,35.4345 41.099,35.7678 39.5,35.5C 39.5,36.8333 39.5,38.1667 39.5,39.5C 37.8333,39.5 36.1667,39.5 34.5,39.5C 34.5,40.8333 34.5,42.1667 34.5,43.5C 36.8728,44.2943 39.2062,45.2943 41.5,46.5C 42.3857,47.325 42.719,48.325 42.5,49.5C 47.0262,49.2301 51.1929,47.8968 55,45.5C 56.3333,46.1667 57.6667,46.8333 59,47.5C 59.5,47.1667 60,46.8333 60.5,46.5C 57.9557,44.6082 57.9557,42.7748 60.5,41C 58.5614,40.0922 57.5614,38.5922 57.5,36.5C 60.285,37.0838 61.9517,36.0838 62.5,33.5C 63.8333,33.8333 65.1667,34.1667 66.5,34.5C 70.6377,36.0702 74.3044,38.4036 77.5,41.5C 77.1667,42.5 76.5,43.1667 75.5,43.5C 74.4755,41.7988 72.9755,40.4655 71,39.5C 68.9264,40.0717 67.7598,41.405 67.5,43.5C 65.6977,44.3155 64.6977,45.8155 64.5,48C 65.3479,50.7695 65.6813,53.6029 65.5,56.5C 56.0305,50.4913 46.0305,49.8246 35.5,54.5C 33.7944,51.5774 32.4611,48.4107 31.5,45C 32.1476,43.5603 32.4809,42.0603 32.5,40.5C 31.1667,40.5 29.8333,40.5 28.5,40.5C 28.366,38.7085 28.6993,37.0418 29.5,35.5C 30.6715,34.6554 32.0048,33.9887 33.5,33.5 Z"/></g>
<g><path style="opacity:1" fill="#cabead" d="M 75.5,43.5 C 76.3402,45.7856 77.8402,46.119 80,44.5C 81.9812,44.8985 83.4812,45.8985 84.5,47.5C 83.1667,47.5 81.8333,47.5 80.5,47.5C 80.5,49.1667 80.5,50.8333 80.5,52.5C 79.1667,52.5 77.8333,52.5 76.5,52.5C 74.0314,51.6829 71.3647,51.1829 68.5,51C 67.3384,49.1731 67.6718,47.5064 69.5,46C 69.3613,44.699 68.6946,43.8656 67.5,43.5C 67.7598,41.405 68.9264,40.0717 71,39.5C 72.9755,40.4655 74.4755,41.7988 75.5,43.5 Z"/></g>
<g><path style="opacity:1" fill="#1b1512" d="M 84.5,48.5 C 86.7727,48.9568 88.106,50.2901 88.5,52.5C 85.7892,52.8151 83.4559,52.1484 81.5,50.5C 81.8212,48.9519 82.8212,48.2852 84.5,48.5 Z"/></g>
<g><path style="opacity:1" fill="#888272" d="M 84.5,47.5 C 84.5,47.8333 84.5,48.1667 84.5,48.5C 82.8212,48.2852 81.8212,48.9519 81.5,50.5C 81.5,51.5 81.5,52.5 81.5,53.5C 79.8333,53.5 78.1667,53.5 76.5,53.5C 76.5,53.1667 76.5,52.8333 76.5,52.5C 77.8333,52.5 79.1667,52.5 80.5,52.5C 80.5,50.8333 80.5,49.1667 80.5,47.5C 81.8333,47.5 83.1667,47.5 84.5,47.5 Z"/></g>
<g><path style="opacity:1" fill="#2d2620" d="M 12.5,49.5 C 13.791,49.2627 14.791,49.596 15.5,50.5C 14.596,51.209 14.2627,52.209 14.5,53.5C 12.8333,53.5 11.1667,53.5 9.5,53.5C 9.73758,51.5956 10.7376,50.2623 12.5,49.5 Z"/></g>
<g><path style="opacity:1" fill="#504d41" d="M 81.5,50.5 C 83.4559,52.1484 85.7892,52.8151 88.5,52.5C 88.5,52.8333 88.5,53.1667 88.5,53.5C 85.2118,53.0156 82.5452,54.0156 80.5,56.5C 79.5525,55.0221 78.2191,54.0221 76.5,53.5C 78.1667,53.5 79.8333,53.5 81.5,53.5C 81.5,52.5 81.5,51.5 81.5,50.5 Z"/></g>
<g><path style="opacity:1" fill="#2b2316" d="M 76.5,52.5 C 76.5,52.8333 76.5,53.1667 76.5,53.5C 78.2191,54.0221 79.5525,55.0221 80.5,56.5C 78.3037,56.41 76.137,56.0767 74,55.5C 72.6244,55.3158 71.7911,54.6491 71.5,53.5C 73.1172,52.962 74.7839,52.6287 76.5,52.5 Z"/></g>
<g><path style="opacity:1" fill="#807a6a" d="M 4.5,63.5 C 5.13224,59.5686 6.79891,56.2353 9.5,53.5C 11.1667,53.5 12.8333,53.5 14.5,53.5C 14.2627,52.209 14.596,51.209 15.5,50.5C 16.1834,52.1765 17.5168,52.8432 19.5,52.5C 18.2825,53.1614 16.9492,53.8281 15.5,54.5C 15.8333,54.8333 16.1667,55.1667 16.5,55.5C 19.773,56.5851 23.1064,56.7517 26.5,56C 27.7282,55.221 28.7282,54.221 29.5,53C 29.1639,51.9701 28.4972,51.4701 27.5,51.5C 28.7122,49.1485 28.0455,47.3151 25.5,46C 26.0556,44.9889 26.7222,44.1556 27.5,43.5C 28.4959,43.5858 29.3292,43.2524 30,42.5C 31.0498,47.4482 31.5498,52.4482 31.5,57.5C 25.1961,58.2597 18.8627,58.593 12.5,58.5C 12.5,57.5 12.5,56.5 12.5,55.5C 11.1667,55.5 9.83333,55.5 8.5,55.5C 9.22644,59.2604 7.89311,61.927 4.5,63.5 Z"/></g>
<g><path style="opacity:1" fill="#3e3727" d="M 27.5,51.5 C 28.4972,51.4701 29.1639,51.9701 29.5,53C 28.7282,54.221 27.7282,55.221 26.5,56C 23.1064,56.7517 19.773,56.5851 16.5,55.5C 16.1667,55.1667 15.8333,54.8333 15.5,54.5C 16.9492,53.8281 18.2825,53.1614 19.5,52.5C 22.4824,54.0775 25.1491,53.7442 27.5,51.5 Z"/></g>
<g><path style="opacity:1" fill="#8d8173" d="M 67.5,43.5 C 68.6946,43.8656 69.3613,44.699 69.5,46C 67.6718,47.5064 67.3384,49.1731 68.5,51C 71.3647,51.1829 74.0314,51.6829 76.5,52.5C 74.7839,52.6287 73.1172,52.962 71.5,53.5C 69.4508,53.7058 69.1175,54.5391 70.5,56C 73,56.5 75.5,57 78,57.5C 79.0698,57.472 79.9032,57.1386 80.5,56.5C 82.5452,54.0156 85.2118,53.0156 88.5,53.5C 88.5,53.8333 88.5,54.1667 88.5,54.5C 85.4779,54.3419 83.4779,55.6752 82.5,58.5C 76.7515,58.3927 71.0848,57.726 65.5,56.5C 65.6813,53.6029 65.3479,50.7695 64.5,48C 64.6977,45.8155 65.6977,44.3155 67.5,43.5 Z"/></g>
<g><path style="opacity:1" fill="#544d40" d="M 71.5,53.5 C 71.7911,54.6491 72.6244,55.3158 74,55.5C 76.137,56.0767 78.3037,56.41 80.5,56.5C 79.9032,57.1386 79.0698,57.472 78,57.5C 75.5,57 73,56.5 70.5,56C 69.1175,54.5391 69.4508,53.7058 71.5,53.5 Z"/></g>
<g><path style="opacity:1" fill="#baaf9f" d="M 65.5,56.5 C 71.0848,57.726 76.7515,58.3927 82.5,58.5C 86.9125,58.9659 89.9125,61.2993 91.5,65.5C 88.5812,66.9318 87.2479,65.9318 87.5,62.5C 83.2984,62.1832 79.2984,62.5166 75.5,63.5C 74.9569,63.44 74.6236,63.1067 74.5,62.5C 78.4592,61.6735 82.4592,61.1735 86.5,61C 79.8846,59.9524 73.2179,59.1191 66.5,58.5C 66.1373,57.8165 65.8039,57.1499 65.5,56.5 Z"/></g>
<g><path style="opacity:1" fill="#978b7a" d="M 68.5,69.5 C 68.2648,70.0967 67.7648,70.4301 67,70.5C 64.9062,66.8246 63.0729,66.8246 61.5,70.5C 62.8333,71.1667 64.1667,71.8333 65.5,72.5C 63.5787,73.641 61.5787,73.8077 59.5,73C 58.3318,71.5944 58.6652,70.4277 60.5,69.5C 59.0508,68.8281 57.7175,68.1614 56.5,67.5C 61.1357,63.1606 65.1357,63.8272 68.5,69.5 Z"/></g>
<g><path style="opacity:1" fill="#cbc0af" d="M 65.5,56.5 C 65.8039,57.1499 66.1373,57.8165 66.5,58.5C 73.2179,59.1191 79.8846,59.9524 86.5,61C 82.4592,61.1735 78.4592,61.6735 74.5,62.5C 74.6236,63.1067 74.9569,63.44 75.5,63.5C 75.8333,64.5 76.5,65.1667 77.5,65.5C 78.8502,66.6499 78.6836,67.3166 77,67.5C 75.3745,66.7113 73.8745,65.7113 72.5,64.5C 71.5481,66.0453 71.2148,67.712 71.5,69.5C 72.5,69.5 73.5,69.5 74.5,69.5C 74.5,70.5 74.5,71.5 74.5,72.5C 72.0532,72.385 70.0532,71.385 68.5,69.5C 65.1357,63.8272 61.1357,63.1606 56.5,67.5C 55.609,68.1098 54.609,68.4431 53.5,68.5C 49.9016,65.9012 46.2349,65.9012 42.5,68.5C 41.0186,67.5197 39.6853,66.353 38.5,65C 37.1667,64.3333 35.8333,64.3333 34.5,65C 20.2704,74.49 21.2704,77.3233 37.5,73.5C 38.2975,73.9569 38.6309,74.6236 38.5,75.5C 37.5272,77.1494 36.5272,78.816 35.5,80.5C 33.6716,81.7945 31.6716,82.7945 29.5,83.5C 29.762,82.0222 29.4287,80.6888 28.5,79.5C 27.1936,80.9122 26.3603,82.5789 26,84.5C 24.8904,86.0368 23.3904,86.7035 21.5,86.5C 21.3067,83.6915 20.64,81.0248 19.5,78.5C 20.3007,76.9582 20.634,75.2915 20.5,73.5C 19.1779,73.33 18.0113,73.6634 17,74.5C 16.5045,76.4727 16.3379,78.4727 16.5,80.5C 17.8333,81.8333 17.8333,83.1667 16.5,84.5C 16.5,85.8333 15.8333,86.5 14.5,86.5C 13.5489,85.0813 13.2155,83.4147 13.5,81.5C 14.5319,78.866 14.1986,76.1993 12.5,73.5C 11.0392,75.4699 9.37253,77.1365 7.5,78.5C 8.01172,74.7335 10.0117,72.0669 13.5,70.5C 13.8333,71.1667 14.1667,71.8333 14.5,72.5C 17.216,70.4796 20.216,70.1463 23.5,71.5C 23.5,70.1667 23.5,68.8333 23.5,67.5C 24.404,66.791 24.7373,65.791 24.5,64.5C 22.1305,64.1489 19.7972,63.9822 17.5,64C 15.3333,65.8333 13.1667,67.6667 11,69.5C 11.6059,66.5397 13.4392,64.373 16.5,63C 12.835,62.613 10.0016,64.113 8,67.5C 8.03019,70.3615 7.19686,72.6948 5.5,74.5C 5.5,74.1667 5.5,73.8333 5.5,73.5C 4.27241,65.4142 7.60575,60.7476 15.5,59.5C 20.4759,60.4982 25.4759,60.6648 30.5,60C 32.424,58.2502 34.0907,56.4169 35.5,54.5C 46.0305,49.8246 56.0305,50.4913 65.5,56.5 Z"/></g>
<g><path style="opacity:1" fill="#b4a794" d="M 53.5,68.5 C 54.2485,70.3325 55.2485,71.9991 56.5,73.5C 55.2652,73.7214 54.2652,74.3881 53.5,75.5C 48.5801,75.1506 43.5801,75.1506 38.5,75.5C 38.6309,74.6236 38.2975,73.9569 37.5,73.5C 21.2704,77.3233 20.2704,74.49 34.5,65C 35.8333,64.3333 37.1667,64.3333 38.5,65C 39.6853,66.353 41.0186,67.5197 42.5,68.5C 46.2349,65.9012 49.9016,65.9012 53.5,68.5 Z"/></g>
<g><path style="opacity:1" fill="#79685d" d="M 4.5,63.5 C 4.18723,67.0419 4.52056,70.3752 5.5,73.5C 5.5,73.8333 5.5,74.1667 5.5,74.5C 5.5,74.8333 5.5,75.1667 5.5,75.5C 4.88258,75.3893 4.38258,75.056 4,74.5C 3.22039,76.3869 3.38705,78.0536 4.5,79.5C 3.85917,80.4822 3.19251,81.4822 2.5,82.5C 3.16667,83.1667 3.83333,83.8333 4.5,84.5C 3.65178,86.4086 3.31845,88.4086 3.5,90.5C 1.02259,82.3587 0.855928,74.0254 3,65.5C 3.27842,64.5842 3.77842,63.9175 4.5,63.5 Z"/></g>
<g><path style="opacity:1" fill="#b0a595" d="M 23.5,67.5 C 23.5,68.8333 23.5,70.1667 23.5,71.5C 20.216,70.1463 17.216,70.4796 14.5,72.5C 14.1667,71.8333 13.8333,71.1667 13.5,70.5C 10.0117,72.0669 8.01172,74.7335 7.5,78.5C 6.59872,77.7095 5.93205,76.7095 5.5,75.5C 5.5,75.1667 5.5,74.8333 5.5,74.5C 7.19686,72.6948 8.03019,70.3615 8,67.5C 10.0016,64.113 12.835,62.613 16.5,63C 13.4392,64.373 11.6059,66.5397 11,69.5C 13.1667,67.6667 15.3333,65.8333 17.5,64C 19.7972,63.9822 22.1305,64.1489 24.5,64.5C 24.7373,65.791 24.404,66.791 23.5,67.5 Z"/></g>
<g><path style="opacity:1" fill="#7c6f5f" d="M 23.5,67.5 C 16.6575,70.3489 16.1575,69.6822 22,65.5C 23.0299,65.8361 23.5299,66.5028 23.5,67.5 Z"/></g>
<g><path style="opacity:1" fill="#a49a8a" d="M 13.5,81.5 C 13.5,80.5 13.5,79.5 13.5,78.5C 12.5,78.5 11.5,78.5 10.5,78.5C 10.2825,82.0595 9.28252,82.0595 7.5,78.5C 9.37253,77.1365 11.0392,75.4699 12.5,73.5C 14.1986,76.1993 14.5319,78.866 13.5,81.5 Z"/></g>
<g><path style="opacity:1" fill="#867c69" d="M 19.5,78.5 C 18.7777,79.5511 17.7777,80.2178 16.5,80.5C 16.3379,78.4727 16.5045,76.4727 17,74.5C 18.0113,73.6634 19.1779,73.33 20.5,73.5C 20.634,75.2915 20.3007,76.9582 19.5,78.5 Z"/></g>
<g><path style="opacity:1" fill="#867765" d="M 56.5,73.5 C 56.2733,76.438 57.2733,78.7713 59.5,80.5C 59.5,81.1667 59.1667,81.5 58.5,81.5C 57.7109,81.2172 57.0442,80.7172 56.5,80C 50.4724,79.1697 44.4724,79.3364 38.5,80.5C 37.8283,82.5295 37.1616,84.5295 36.5,86.5C 34.8235,85.8166 34.1568,84.4832 34.5,82.5C 34.8333,81.8333 35.1667,81.1667 35.5,80.5C 36.5272,78.816 37.5272,77.1494 38.5,75.5C 43.5801,75.1506 48.5801,75.1506 53.5,75.5C 54.2652,74.3881 55.2652,73.7214 56.5,73.5 Z"/></g>
<g><path style="opacity:1" fill="#413125" d="M 49.5,75.5 C 51.5891,75.8567 53.5891,76.5233 55.5,77.5C 51.2047,78.6609 46.8713,78.8275 42.5,78C 44.8329,76.957 47.1663,76.1237 49.5,75.5 Z"/></g>
<g><path style="opacity:1" fill="#a29584" d="M 88.5,54.5 C 91.3239,56.7996 93.1572,59.7996 94,63.5C 94.7955,67.3121 95.6288,70.9788 96.5,74.5C 97.1435,84.2442 95.1435,93.2442 90.5,101.5C 90.5,100.5 90.5,99.5 90.5,98.5C 85.51,100.96 80.51,103.293 75.5,105.5C 78.5571,102.115 81.5571,98.7819 84.5,95.5C 86.9483,93.7155 89.615,92.3822 92.5,91.5C 92.5,90.5 92.5,89.5 92.5,88.5C 91.1266,88.3433 89.7932,88.51 88.5,89C 87.8366,90.5185 86.8366,91.6851 85.5,92.5C 84.5028,92.5299 83.8361,92.0299 83.5,91C 85.7058,89.7498 87.0391,87.9165 87.5,85.5C 85.5,85.5 83.5,85.5 81.5,85.5C 81.6495,84.448 81.4828,83.448 81,82.5C 80.5448,85.8536 80.0448,89.1869 79.5,92.5C 77.0684,93.9933 75.0684,95.9933 73.5,98.5C 70.9159,99.3928 68.2492,99.7261 65.5,99.5C 65.6567,98.1266 65.49,96.7932 65,95.5C 64.6667,95.8333 64.3333,96.1667 64,96.5C 63.8195,98.4884 63.9862,100.488 64.5,102.5C 63.1779,102.33 62.0113,102.663 61,103.5C 60.3076,102.975 59.8076,102.308 59.5,101.5C 60.6182,98.1884 60.6182,94.8551 59.5,91.5C 59.2865,89.8561 59.6198,88.3561 60.5,87C 59.6721,86.0853 58.6721,85.4186 57.5,85C 58.3366,83.9887 58.67,82.8221 58.5,81.5C 59.1667,81.5 59.5,81.1667 59.5,80.5C 63.2819,84.3527 67.9486,86.3527 73.5,86.5C 75.0879,85.9904 76.2545,84.9904 77,83.5C 77.3201,80.4601 77.3201,77.4601 77,74.5C 78.1096,72.9632 79.6096,72.2965 81.5,72.5C 81.1924,74.924 81.5258,77.2573 82.5,79.5C 84.7687,77.2009 85.102,74.5342 83.5,71.5C 84.868,70.4063 86.0347,70.7397 87,72.5C 87.4974,75.146 87.6641,77.8127 87.5,80.5C 84.5,80.1667 83.1667,81.5 83.5,84.5C 85.9496,84.702 88.283,84.3686 90.5,83.5C 90.5173,85.0281 91.184,85.5281 92.5,85C 93.2401,83.2151 93.9067,81.3817 94.5,79.5C 93.9984,78.479 93.3317,78.3123 92.5,79C 91.9152,80.3024 91.2485,81.469 90.5,82.5C 90.5,80.8333 90.5,79.1667 90.5,77.5C 91.5,77.5 92.5,77.5 93.5,77.5C 93.6399,75.8762 92.9733,74.7096 91.5,74C 92.448,73.5172 93.448,73.3505 94.5,73.5C 94.5,72.1667 94.5,70.8333 94.5,69.5C 92.5165,69.3832 90.8498,70.0499 89.5,71.5C 88.6184,70.2402 87.6184,69.0736 86.5,68C 83.3754,67.4562 80.3754,66.6229 77.5,65.5C 76.5,65.1667 75.8333,64.5 75.5,63.5C 79.2984,62.5166 83.2984,62.1832 87.5,62.5C 87.2479,65.9318 88.5812,66.9318 91.5,65.5C 89.9125,61.2993 86.9125,58.9659 82.5,58.5C 83.4779,55.6752 85.4779,54.3419 88.5,54.5 Z"/></g>
<g><path style="opacity:1" fill="#625a4d" d="M 5.5,75.5 C 5.93205,76.7095 6.59872,77.7095 7.5,78.5C 9.28252,82.0595 10.2825,82.0595 10.5,78.5C 11.5,78.5 12.5,78.5 13.5,78.5C 13.5,79.5 13.5,80.5 13.5,81.5C 12.8333,83.1667 12.1667,84.8333 11.5,86.5C 9.03917,84.3136 6.70583,81.9803 4.5,79.5C 3.38705,78.0536 3.22039,76.3869 4,74.5C 4.38258,75.056 4.88258,75.3893 5.5,75.5 Z"/></g>
<g><path style="opacity:1" fill="#726453" d="M 90.5,83.5 C 90.5,83.1667 90.5,82.8333 90.5,82.5C 91.2485,81.469 91.9152,80.3024 92.5,79C 93.3317,78.3123 93.9984,78.479 94.5,79.5C 93.9067,81.3817 93.2401,83.2151 92.5,85C 91.184,85.5281 90.5173,85.0281 90.5,83.5 Z"/></g>
<g><path style="opacity:1" fill="#beb1a0" d="M 77.5,65.5 C 80.3754,66.6229 83.3754,67.4562 86.5,68C 87.6184,69.0736 88.6184,70.2402 89.5,71.5C 90.8498,70.0499 92.5165,69.3832 94.5,69.5C 94.5,70.8333 94.5,72.1667 94.5,73.5C 93.448,73.3505 92.448,73.5172 91.5,74C 92.9733,74.7096 93.6399,75.8762 93.5,77.5C 92.5,77.5 91.5,77.5 90.5,77.5C 90.5,79.1667 90.5,80.8333 90.5,82.5C 90.5,82.8333 90.5,83.1667 90.5,83.5C 88.283,84.3686 85.9496,84.702 83.5,84.5C 83.1667,81.5 84.5,80.1667 87.5,80.5C 87.6641,77.8127 87.4974,75.146 87,72.5C 86.0347,70.7397 84.868,70.4063 83.5,71.5C 85.102,74.5342 84.7687,77.2009 82.5,79.5C 81.5258,77.2573 81.1924,74.924 81.5,72.5C 79.6096,72.2965 78.1096,72.9632 77,74.5C 77.3201,77.4601 77.3201,80.4601 77,83.5C 76.2545,84.9904 75.0879,85.9904 73.5,86.5C 67.9486,86.3527 63.2819,84.3527 59.5,80.5C 57.2733,78.7713 56.2733,76.438 56.5,73.5C 55.2485,71.9991 54.2485,70.3325 53.5,68.5C 54.609,68.4431 55.609,68.1098 56.5,67.5C 57.7175,68.1614 59.0508,68.8281 60.5,69.5C 58.6652,70.4277 58.3318,71.5944 59.5,73C 61.5787,73.8077 63.5787,73.641 65.5,72.5C 64.1667,71.8333 62.8333,71.1667 61.5,70.5C 63.0729,66.8246 64.9062,66.8246 67,70.5C 67.7648,70.4301 68.2648,70.0967 68.5,69.5C 70.0532,71.385 72.0532,72.385 74.5,72.5C 74.5,71.5 74.5,70.5 74.5,69.5C 73.5,69.5 72.5,69.5 71.5,69.5C 71.2148,67.712 71.5481,66.0453 72.5,64.5C 73.8745,65.7113 75.3745,66.7113 77,67.5C 78.6836,67.3166 78.8502,66.6499 77.5,65.5 Z"/></g>
<g><path style="opacity:1" fill="#b6a994" d="M 58.5,81.5 C 58.67,82.8221 58.3366,83.9887 57.5,85C 58.6721,85.4186 59.6721,86.0853 60.5,87C 59.6198,88.3561 59.2865,89.8561 59.5,91.5C 58.1411,90.9935 57.1411,89.9935 56.5,88.5C 56.1667,88.8333 55.8333,89.1667 55.5,89.5C 58.1216,94.3047 58.1216,98.9713 55.5,103.5C 55.631,102.761 55.4643,102.094 55,101.5C 54.2917,102.381 53.4584,103.047 52.5,103.5C 52.427,101.973 53.0937,100.973 54.5,100.5C 55.1524,99.5514 55.4857,98.3847 55.5,97C 55.6932,94.9919 55.0265,93.4919 53.5,92.5C 51.6086,89.8283 48.9419,88.8283 45.5,89.5C 47.3691,88.8354 49.3691,88.1687 51.5,87.5C 51.2907,86.914 50.9574,86.414 50.5,86C 45.0618,85.0675 41.2284,87.2342 39,92.5C 38.6911,95.9669 39.5244,96.3002 41.5,93.5C 41.3379,95.5273 41.5045,97.5273 42,99.5C 43.3848,100.551 44.3848,101.884 45,103.5C 46.6995,104.406 48.5328,104.739 50.5,104.5C 48.8333,105.167 47.1667,105.833 45.5,106.5C 42.5211,104.188 39.8544,101.521 37.5,98.5C 35.6696,100.027 34.6696,99.5269 34.5,97C 36.1342,93.7474 36.8008,90.2474 36.5,86.5C 37.1616,84.5295 37.8283,82.5295 38.5,80.5C 44.4724,79.3364 50.4724,79.1697 56.5,80C 57.0442,80.7172 57.7109,81.2172 58.5,81.5 Z"/></g>
<g><path style="opacity:1" fill="#b2a693" d="M 19.5,78.5 C 20.64,81.0248 21.3067,83.6915 21.5,86.5C 23.3904,86.7035 24.8904,86.0368 26,84.5C 26.3603,82.5789 27.1936,80.9122 28.5,79.5C 29.4287,80.6888 29.762,82.0222 29.5,83.5C 31.6716,82.7945 33.6716,81.7945 35.5,80.5C 35.1667,81.1667 34.8333,81.8333 34.5,82.5C 33.8333,84.8333 33.1667,87.1667 32.5,89.5C 30.1561,90.6716 27.8228,90.6716 25.5,89.5C 24.6721,90.4147 23.6721,91.0814 22.5,91.5C 20.7392,90.6595 19.0725,89.6595 17.5,88.5C 18.8532,87.4763 19.5198,86.143 19.5,84.5C 18.5,84.5 17.5,84.5 16.5,84.5C 17.8333,83.1667 17.8333,81.8333 16.5,80.5C 17.7777,80.2178 18.7777,79.5511 19.5,78.5 Z"/></g>
<g><path style="opacity:1" fill="#9d9587" d="M 4.5,79.5 C 6.70583,81.9803 9.03917,84.3136 11.5,86.5C 12.2142,88.7461 12.0475,91.0794 11,93.5C 10.6667,93.1667 10.3333,92.8333 10,92.5C 9.82226,97.0162 11.4889,98.0162 15,95.5C 15.7648,95.5699 16.2648,95.9033 16.5,96.5C 14.4252,97.6196 12.2585,98.6196 10,99.5C 9.83333,99.8333 9.66667,100.167 9.5,100.5C 10.6888,101.429 12.0222,101.762 13.5,101.5C 13.69,103.959 12.69,105.626 10.5,106.5C 7.09133,102.349 4.758,97.6827 3.5,92.5C 3.5,91.8333 3.5,91.1667 3.5,90.5C 3.31845,88.4086 3.65178,86.4086 4.5,84.5C 3.83333,83.8333 3.16667,83.1667 2.5,82.5C 3.19251,81.4822 3.85917,80.4822 4.5,79.5 Z"/></g>
<g><path style="opacity:0.009" fill="#916e50" d="M 100.5,76.5 C 101.167,77.1667 101.833,77.8333 102.5,78.5C 102.552,83.7836 102.552,89.117 102.5,94.5C 102.747,95.7133 103.414,96.38 104.5,96.5C 104.5,97.1667 104.5,97.8333 104.5,98.5C 103.173,99.8001 101.84,101.133 100.5,102.5C 98.9273,107.804 95.594,111.637 90.5,114C 85.313,120.014 79.313,125.18 72.5,129.5C 71.1638,134.712 69.9971,139.712 69,144.5C 65.4454,147.302 62.1121,150.302 59,153.5C 58.6905,154.766 58.1905,155.933 57.5,157C 61.6346,158.431 65.968,158.931 70.5,158.5C 70.5,156.833 70.5,155.167 70.5,153.5C 71.8333,153.5 73.1667,153.5 74.5,153.5C 74.2837,151.319 75.117,149.653 77,148.5C 76.5335,142.36 78.3668,137.194 82.5,133C 84.1667,132.667 85.8333,132.333 87.5,132C 90.378,127.144 94.378,123.644 99.5,121.5C 100.31,119.202 101.144,116.868 102,114.5C 102.671,113.748 103.504,113.414 104.5,113.5C 104.5,129.167 104.5,144.833 104.5,160.5C 69.5,160.5 34.5,160.5 -0.5,160.5C -0.5,138.833 -0.5,117.167 -0.5,95.5C 0.833333,95.1667 0.833333,94.8333 -0.5,94.5C -0.5,91.5 -0.5,88.5 -0.5,85.5C 0.434475,86.5676 0.767809,87.901 0.5,89.5C 3.56234,102.303 10.5623,112.303 21.5,119.5C 24.4706,121.99 27.8039,123.99 31.5,125.5C 32.2975,125.957 32.6309,126.624 32.5,127.5C 32.5775,131.877 33.0775,136.21 34,140.5C 35.1096,142.037 36.6096,142.703 38.5,142.5C 38.238,143.978 38.5713,145.311 39.5,146.5C 41.5879,147.179 43.5879,147.512 45.5,147.5C 44.0357,151.712 45.3691,154.712 49.5,156.5C 54.4177,156.828 56.4177,154.495 55.5,149.5C 59.9083,149.938 61.5749,147.938 60.5,143.5C 62.1667,143.5 63.8333,143.5 65.5,143.5C 64.9736,139.75 65.9736,136.584 68.5,134C 68.3517,132.744 68.0184,131.577 67.5,130.5C 74.7994,126.394 81.466,121.227 87.5,115C 97.2501,104.018 101.583,91.1851 100.5,76.5 Z M 32.5,145.5 C 33.1174,145.611 33.6174,145.944 34,146.5C 34.6667,148.833 34.6667,151.167 34,153.5C 33.7674,151.22 32.934,149.22 31.5,147.5C 31.8627,146.817 32.1961,146.15 32.5,145.5 Z"/></g>
<g><path style="opacity:1" fill="#45392f" d="M 84.5,95.5 C 83.7611,95.631 83.0944,95.4643 82.5,95C 83.5707,94.1482 84.5707,93.3149 85.5,92.5C 86.8366,91.6851 87.8366,90.5185 88.5,89C 89.7932,88.51 91.1266,88.3433 92.5,88.5C 92.5,89.5 92.5,90.5 92.5,91.5C 89.615,92.3822 86.9483,93.7155 84.5,95.5 Z"/></g>
<g><path style="opacity:1" fill="#dbcfb7" d="M 45.5,89.5 C 43.8333,90.5 42.5,91.8333 41.5,93.5C 39.5244,96.3002 38.6911,95.9669 39,92.5C 41.2284,87.2342 45.0618,85.0675 50.5,86C 50.9574,86.414 51.2907,86.914 51.5,87.5C 49.3691,88.1687 47.3691,88.8354 45.5,89.5 Z"/></g>
<g><path style="opacity:1" fill="#928570" d="M 13.5,81.5 C 13.2155,83.4147 13.5489,85.0813 14.5,86.5C 16.0956,88.8867 17.2622,91.5534 18,94.5C 20.394,95.951 22.5607,95.6176 24.5,93.5C 29.9682,97.1561 32.6348,95.8227 32.5,89.5C 33.1667,87.1667 33.8333,84.8333 34.5,82.5C 34.1568,84.4832 34.8235,85.8166 36.5,86.5C 36.8008,90.2474 36.1342,93.7474 34.5,97C 34.6696,99.5269 35.6696,100.027 37.5,98.5C 39.8544,101.521 42.5211,104.188 45.5,106.5C 49.5638,108.259 52.8971,107.259 55.5,103.5C 58.1216,98.9713 58.1216,94.3047 55.5,89.5C 55.8333,89.1667 56.1667,88.8333 56.5,88.5C 57.1411,89.9935 58.1411,90.9935 59.5,91.5C 60.6182,94.8551 60.6182,98.1884 59.5,101.5C 59.8076,102.308 60.3076,102.975 61,103.5C 62.0113,102.663 63.1779,102.33 64.5,102.5C 63.9862,100.488 63.8195,98.4884 64,96.5C 64.3333,96.1667 64.6667,95.8333 65,95.5C 65.49,96.7932 65.6567,98.1266 65.5,99.5C 68.2492,99.7261 70.9159,99.3928 73.5,98.5C 75.0684,95.9933 77.0684,93.9933 79.5,92.5C 79.0639,94.7463 78.3972,96.9129 77.5,99C 74.9906,100.421 72.6572,102.088 70.5,104C 62.9963,102.974 57.3297,105.474 53.5,111.5C 50.1667,111.5 46.8333,111.5 43.5,111.5C 41.1996,109.363 39.0329,107.03 37,104.5C 36.5172,103.552 36.3505,102.552 36.5,101.5C 30.7775,103.384 25.4442,102.717 20.5,99.5C 19.7025,99.9569 19.3691,100.624 19.5,101.5C 19.1667,101.5 18.8333,101.5 18.5,101.5C 18.5979,99.4471 17.9313,97.7804 16.5,96.5C 16.2648,95.9033 15.7648,95.5699 15,95.5C 11.4889,98.0162 9.82226,97.0162 10,92.5C 10.3333,92.8333 10.6667,93.1667 11,93.5C 12.0475,91.0794 12.2142,88.7461 11.5,86.5C 12.1667,84.8333 12.8333,83.1667 13.5,81.5 Z"/></g>
<g><path style="opacity:1" fill="#5f5854" d="M 53.5,92.5 C 55.0265,93.4919 55.6932,94.9919 55.5,97C 55.4857,98.3847 55.1524,99.5514 54.5,100.5C 54.5987,97.7628 54.2653,95.0961 53.5,92.5 Z"/></g>
<g><path style="opacity:1" fill="#171414" d="M 45.5,89.5 C 48.9419,88.8283 51.6086,89.8283 53.5,92.5C 54.2653,95.0961 54.5987,97.7628 54.5,100.5C 53.0937,100.973 52.427,101.973 52.5,103.5C 51.8333,103.5 51.1667,103.5 50.5,103.5C 50.5,103.833 50.5,104.167 50.5,104.5C 48.5328,104.739 46.6995,104.406 45,103.5C 44.3848,101.884 43.3848,100.551 42,99.5C 41.5045,97.5273 41.3379,95.5273 41.5,93.5C 42.5,91.8333 43.8333,90.5 45.5,89.5 Z"/></g>
<g><path style="opacity:1" fill="#010917" d="M 50.5,103.5 C 44.5133,101.701 43.18,98.2009 46.5,93C 49.9011,91.8649 51.9011,93.0316 52.5,96.5C 51.8178,98.8409 51.1511,101.174 50.5,103.5 Z"/></g>
<g><path style="opacity:1" fill="#a49985" d="M 16.5,84.5 C 17.5,84.5 18.5,84.5 19.5,84.5C 19.5198,86.143 18.8532,87.4763 17.5,88.5C 19.0725,89.6595 20.7392,90.6595 22.5,91.5C 23.6721,91.0814 24.6721,90.4147 25.5,89.5C 27.8228,90.6716 30.1561,90.6716 32.5,89.5C 32.6348,95.8227 29.9682,97.1561 24.5,93.5C 22.5607,95.6176 20.394,95.951 18,94.5C 17.2622,91.5534 16.0956,88.8867 14.5,86.5C 15.8333,86.5 16.5,85.8333 16.5,84.5 Z"/></g>
<g><path style="opacity:0.349" fill="#836348" d="M 66.5,15.5 C 68.5273,15.3379 70.5273,15.5045 72.5,16C 75.8655,18.7068 78.5322,22.0401 80.5,26C 79.8333,26.6667 79.1667,27.3333 78.5,28C 82.6333,28.9937 86.3,30.1604 89.5,31.5C 90.1408,32.4822 90.8075,33.4822 91.5,34.5C 90.9125,38.4624 89.9125,42.2958 88.5,46C 89.8825,47.2708 90.8825,48.7708 91.5,50.5C 94.0709,53.6529 95.5709,57.3196 96,61.5C 99.4926,65.7826 100.993,70.7826 100.5,76.5C 101.583,91.1851 97.2501,104.018 87.5,115C 81.466,121.227 74.7994,126.394 67.5,130.5C 67.1667,130.5 66.8333,130.5 66.5,130.5C 66.5,129.833 66.5,129.167 66.5,128.5C 74.744,123.096 82.5773,117.096 90,110.5C 91.4772,106.212 93.4772,102.212 96,98.5C 98.7759,89.2149 99.1092,79.8816 97,70.5C 96.51,71.7932 96.3433,73.1266 96.5,74.5C 95.6288,70.9788 94.7955,67.3121 94,63.5C 93.1572,59.7996 91.3239,56.7996 88.5,54.5C 88.5,54.1667 88.5,53.8333 88.5,53.5C 88.5,53.1667 88.5,52.8333 88.5,52.5C 88.106,50.2901 86.7727,48.9568 84.5,48.5C 84.5,48.1667 84.5,47.8333 84.5,47.5C 83.4812,45.8985 81.9812,44.8985 80,44.5C 77.8402,46.119 76.3402,45.7856 75.5,43.5C 76.5,43.1667 77.1667,42.5 77.5,41.5C 82.1471,42.4851 84.8138,40.4851 85.5,35.5C 85.5705,32.4044 84.0705,30.7378 81,30.5C 77.9967,30.743 76.83,32.4096 77.5,35.5C 78.5,35.5 79.5,35.5 80.5,35.5C 80.5,34.5 80.5,33.5 80.5,32.5C 81.5,32.5 82.5,32.5 83.5,32.5C 83.7956,39.2248 81.1289,40.8915 75.5,37.5C 73.5,35.1667 71.5,32.8333 69.5,30.5C 75.195,28.6538 76.8617,24.9871 74.5,19.5C 71.7046,16.2369 68.7046,15.9036 65.5,18.5C 65.5,17.8333 65.5,17.1667 65.5,16.5C 66.1667,16.5 66.5,16.1667 66.5,15.5 Z"/></g>
<g><path style="opacity:0.831" fill="#70513d" d="M 66.5,128.5 C 62.9426,130.427 59.276,130.761 55.5,129.5C 55.1667,128.833 54.8333,128.167 54.5,127.5C 55.8333,127.5 56.5,126.833 56.5,125.5C 60.5339,125.483 64.2006,124.483 67.5,122.5C 77.961,118.596 85.6276,111.596 90.5,101.5C 95.1435,93.2442 97.1435,84.2442 96.5,74.5C 96.3433,73.1266 96.51,71.7932 97,70.5C 99.1092,79.8816 98.7759,89.2149 96,98.5C 93.4772,102.212 91.4772,106.212 90,110.5C 82.5773,117.096 74.744,123.096 66.5,128.5 Z"/></g>
<g><path style="opacity:1" fill="#605343" d="M 85.5,92.5 C 84.5707,93.3149 83.5707,94.1482 82.5,95C 83.0944,95.4643 83.7611,95.631 84.5,95.5C 81.5571,98.7819 78.5571,102.115 75.5,105.5C 73.8042,105.685 72.4709,106.519 71.5,108C 65.2193,107.434 59.886,109.267 55.5,113.5C 55.5,112.167 54.8333,111.5 53.5,111.5C 57.3297,105.474 62.9963,102.974 70.5,104C 72.6572,102.088 74.9906,100.421 77.5,99C 78.3972,96.9129 79.0639,94.7463 79.5,92.5C 80.0448,89.1869 80.5448,85.8536 81,82.5C 81.4828,83.448 81.6495,84.448 81.5,85.5C 83.5,85.5 85.5,85.5 87.5,85.5C 87.0391,87.9165 85.7058,89.7498 83.5,91C 83.8361,92.0299 84.5028,92.5299 85.5,92.5 Z"/></g>
<g><path style="opacity:1" fill="#6f604e" d="M 43.5,111.5 C 42.6618,111.842 42.3284,112.508 42.5,113.5C 40.329,111.5 37.9957,109.666 35.5,108C 33.5273,107.505 31.5273,107.338 29.5,107.5C 25.9112,106.034 22.5779,104.034 19.5,101.5C 19.3691,100.624 19.7025,99.9569 20.5,99.5C 25.4442,102.717 30.7775,103.384 36.5,101.5C 36.3505,102.552 36.5172,103.552 37,104.5C 39.0329,107.03 41.1996,109.363 43.5,111.5 Z"/></g>
<g><path style="opacity:1" fill="#bfb1a1" d="M 16.5,96.5 C 17.9313,97.7804 18.5979,99.4471 18.5,101.5C 18.8719,105.76 17.2052,108.76 13.5,110.5C 12.5116,109.205 11.5116,107.872 10.5,106.5C 12.69,105.626 13.69,103.959 13.5,101.5C 12.0222,101.762 10.6888,101.429 9.5,100.5C 9.66667,100.167 9.83333,99.8333 10,99.5C 12.2585,98.6196 14.4252,97.6196 16.5,96.5 Z"/></g>
<g><path style="opacity:1" fill="#e4dccb" d="M 55.5,103.5 C 52.8971,107.259 49.5638,108.259 45.5,106.5C 47.1667,105.833 48.8333,105.167 50.5,104.5C 50.5,104.167 50.5,103.833 50.5,103.5C 51.1667,103.5 51.8333,103.5 52.5,103.5C 53.4584,103.047 54.2917,102.381 55,101.5C 55.4643,102.094 55.631,102.761 55.5,103.5 Z"/></g>
<g><path style="opacity:1" fill="#9f8f7c" d="M 18.5,101.5 C 18.8333,101.5 19.1667,101.5 19.5,101.5C 22.5779,104.034 25.9112,106.034 29.5,107.5C 28.0222,107.238 26.6888,107.571 25.5,108.5C 24.2217,110.722 23.2217,113.056 22.5,115.5C 22.5565,116.737 23.0565,117.737 24,118.5C 25.1628,116.715 25.8295,114.715 26,112.5C 27.1855,110.441 28.3521,110.274 29.5,112C 27.3252,115.397 27.3252,118.897 29.5,122.5C 27.3131,121.242 24.9798,120.242 22.5,119.5C 19.1667,116.833 16.1667,113.833 13.5,110.5C 17.2052,108.76 18.8719,105.76 18.5,101.5 Z"/></g>
<g><path style="opacity:1" fill="#513e2f" d="M 43.5,111.5 C 46.8333,111.5 50.1667,111.5 53.5,111.5C 50.8411,111.917 48.5078,112.917 46.5,114.5C 45.5,114.5 44.5,114.5 43.5,114.5C 42.8333,114.5 42.5,114.167 42.5,113.5C 42.3284,112.508 42.6618,111.842 43.5,111.5 Z"/></g>
<g><path style="opacity:0.792" fill="#763b30" d="M 0.5,89.5 C 1.60047,91.2774 2.43381,93.2774 3,95.5C 3.48278,94.552 3.64945,93.552 3.5,92.5C 4.758,97.6827 7.09133,102.349 10.5,106.5C 11.5116,107.872 12.5116,109.205 13.5,110.5C 16.1667,113.833 19.1667,116.833 22.5,119.5C 22.1667,119.5 21.8333,119.5 21.5,119.5C 10.5623,112.303 3.56234,102.303 0.5,89.5 Z"/></g>
<g><path style="opacity:1" fill="#2f2013" d="M 53.5,111.5 C 54.8333,111.5 55.5,112.167 55.5,113.5C 54.8333,113.5 54.5,113.833 54.5,114.5C 51.7444,115.254 49.0777,115.254 46.5,114.5C 48.5078,112.917 50.8411,111.917 53.5,111.5 Z"/></g>
<g><path style="opacity:1" fill="#9f8d73" d="M 67.5,122.5 C 64.2006,124.483 60.5339,125.483 56.5,125.5C 55.6377,118.708 58.3043,114.041 64.5,111.5C 64.6213,114.002 64.7879,116.668 65,119.5C 65.8518,120.571 66.6851,121.571 67.5,122.5 Z"/></g>
<g><path style="opacity:1" fill="#af9d85" d="M 29.5,107.5 C 31.5273,107.338 33.5273,107.505 35.5,108C 37.9957,109.666 40.329,111.5 42.5,113.5C 42.5,114.167 42.8333,114.5 43.5,114.5C 45.5994,115.612 47.9327,116.279 50.5,116.5C 50.5,117.5 50.5,118.5 50.5,119.5C 51.5,119.5 52.5,119.5 53.5,119.5C 53.5,121.5 53.5,123.5 53.5,125.5C 54.5,125.5 55.5,125.5 56.5,125.5C 56.5,126.833 55.8333,127.5 54.5,127.5C 45.5087,128.403 37.1754,126.737 29.5,122.5C 27.3252,118.897 27.3252,115.397 29.5,112C 28.3521,110.274 27.1855,110.441 26,112.5C 25.8295,114.715 25.1628,116.715 24,118.5C 23.0565,117.737 22.5565,116.737 22.5,115.5C 23.2217,113.056 24.2217,110.722 25.5,108.5C 26.6888,107.571 28.0222,107.238 29.5,107.5 Z"/></g>
<g><path style="opacity:1" fill="#72614c" d="M 43.5,114.5 C 44.5,114.5 45.5,114.5 46.5,114.5C 49.0777,115.254 51.7444,115.254 54.5,114.5C 53.3285,115.345 51.9952,116.011 50.5,116.5C 47.9327,116.279 45.5994,115.612 43.5,114.5 Z"/></g>
<g><path style="opacity:1" fill="#b7a791" d="M 90.5,101.5 C 85.6276,111.596 77.961,118.596 67.5,122.5C 66.6851,121.571 65.8518,120.571 65,119.5C 64.7879,116.668 64.6213,114.002 64.5,111.5C 58.3043,114.041 55.6377,118.708 56.5,125.5C 55.5,125.5 54.5,125.5 53.5,125.5C 53.5,123.5 53.5,121.5 53.5,119.5C 52.5,119.5 51.5,119.5 50.5,119.5C 50.5,118.5 50.5,117.5 50.5,116.5C 51.9952,116.011 53.3285,115.345 54.5,114.5C 54.5,113.833 54.8333,113.5 55.5,113.5C 59.886,109.267 65.2193,107.434 71.5,108C 72.4709,106.519 73.8042,105.685 75.5,105.5C 80.51,103.293 85.51,100.96 90.5,98.5C 90.5,99.5 90.5,100.5 90.5,101.5 Z"/></g>
<g><path style="opacity:1" fill="#641712" d="M 32.5,127.5 C 33.5,127.5 34.5,127.5 35.5,127.5C 35.5,128.5 35.5,129.5 35.5,130.5C 38.8212,130.536 41.9879,129.869 45,128.5C 48.0203,130.17 51.0203,131.836 54,133.5C 53.7357,137.141 52.069,140.141 49,142.5C 46.4054,140.57 44.572,138.07 43.5,135C 44.1007,133.395 45.1007,132.062 46.5,131C 45.1011,130.405 43.7678,130.572 42.5,131.5C 41.3526,133.765 41.1859,136.098 42,138.5C 43.9773,141.312 46.144,143.978 48.5,146.5C 51.3243,143.542 54.1576,140.542 57,137.5C 57.8597,133.147 56.0264,130.647 51.5,130C 52.7932,129.51 54.1266,129.343 55.5,129.5C 59.276,130.761 62.9426,130.427 66.5,128.5C 66.5,129.167 66.5,129.833 66.5,130.5C 64.3899,133.723 63.3899,137.39 63.5,141.5C 61.0509,140.943 58.7175,140.943 56.5,141.5C 58.1045,143.179 58.7711,145.179 58.5,147.5C 56.7376,147.643 55.0709,147.309 53.5,146.5C 53.2448,148.343 53.0781,150.343 53,152.5C 51.2802,153.384 50.1135,154.717 49.5,156.5C 45.3691,154.712 44.0357,151.712 45.5,147.5C 43.5879,147.512 41.5879,147.179 39.5,146.5C 38.5713,145.311 38.238,143.978 38.5,142.5C 36.6096,142.703 35.1096,142.037 34,140.5C 33.0775,136.21 32.5775,131.877 32.5,127.5 Z"/></g>
<g><path style="opacity:0.835" fill="#724b37" d="M 21.5,119.5 C 21.8333,119.5 22.1667,119.5 22.5,119.5C 24.9798,120.242 27.3131,121.242 29.5,122.5C 37.1754,126.737 45.5087,128.403 54.5,127.5C 54.8333,128.167 55.1667,128.833 55.5,129.5C 54.1266,129.343 52.7932,129.51 51.5,130C 56.0264,130.647 57.8597,133.147 57,137.5C 54.1576,140.542 51.3243,143.542 48.5,146.5C 46.144,143.978 43.9773,141.312 42,138.5C 41.1859,136.098 41.3526,133.765 42.5,131.5C 43.7678,130.572 45.1011,130.405 46.5,131C 45.1007,132.062 44.1007,133.395 43.5,135C 44.572,138.07 46.4054,140.57 49,142.5C 52.069,140.141 53.7357,137.141 54,133.5C 51.0203,131.836 48.0203,130.17 45,128.5C 41.9879,129.869 38.8212,130.536 35.5,130.5C 35.5,129.5 35.5,128.5 35.5,127.5C 34.5,127.5 33.5,127.5 32.5,127.5C 32.6309,126.624 32.2975,125.957 31.5,125.5C 27.8039,123.99 24.4706,121.99 21.5,119.5 Z"/></g>
<g><path style="opacity:0.4" fill="#6f4d38" d="M 66.5,130.5 C 66.8333,130.5 67.1667,130.5 67.5,130.5C 68.0184,131.577 68.3517,132.744 68.5,134C 65.9736,136.584 64.9736,139.75 65.5,143.5C 63.8333,143.5 62.1667,143.5 60.5,143.5C 61.5749,147.938 59.9083,149.938 55.5,149.5C 56.4177,154.495 54.4177,156.828 49.5,156.5C 50.1135,154.717 51.2802,153.384 53,152.5C 53.0781,150.343 53.2448,148.343 53.5,146.5C 55.0709,147.309 56.7376,147.643 58.5,147.5C 58.7711,145.179 58.1045,143.179 56.5,141.5C 58.7175,140.943 61.0509,140.943 63.5,141.5C 63.3899,137.39 64.3899,133.723 66.5,130.5 Z"/></g>
</svg>
