<?xml version="1.0" encoding="UTF-8"?>
<!DOCTYPE svg PUBLIC "-//W3C//DTD SVG 1.1//EN" "http://www.w3.org/Graphics/SVG/1.1/DTD/svg11.dtd">
<svg xmlns="http://www.w3.org/2000/svg" version="1.1" width="105px" height="161px" style="shape-rendering:geometricPrecision; text-rendering:geometricPrecision; image-rendering:optimizeQuality; fill-rule:evenodd; clip-rule:evenodd" xmlns:xlink="http://www.w3.org/1999/xlink">
<g><path style="opacity:0.007" fill="#906d4f" d="M 33.5,-0.5 C 57.1667,-0.5 80.8333,-0.5 104.5,-0.5C 104.5,19.8333 104.5,40.1667 104.5,60.5C 103.07,60.5792 101.736,60.2458 100.5,59.5C 100.167,60.3333 99.8333,61.1667 99.5,62C 100.832,66.3312 102.165,70.6645 103.5,75C 102.66,81.4299 102.326,87.9299 102.5,94.5C 102.747,95.7133 103.414,96.38 104.5,96.5C 104.5,97.1667 104.5,97.8333 104.5,98.5C 103.173,99.8001 101.84,101.133 100.5,102.5C 98.9273,107.804 95.594,111.637 90.5,114C 85.313,120.014 79.313,125.18 72.5,129.5C 71.1638,134.712 69.9971,139.712 69,144.5C 65.4454,147.302 62.1121,150.302 59,153.5C 58.6905,154.766 58.1905,155.933 57.5,157C 61.6346,158.431 65.968,158.931 70.5,158.5C 70.5,156.833 70.5,155.167 70.5,153.5C 71.8333,153.5 73.1667,153.5 74.5,153.5C 74.2837,151.319 75.117,149.653 77,148.5C 76.5335,142.36 78.3668,137.194 82.5,133C 84.1667,132.667 85.8333,132.333 87.5,132C 90.378,127.144 94.378,123.644 99.5,121.5C 100.31,119.202 101.144,116.868 102,114.5C 102.671,113.748 103.504,113.414 104.5,113.5C 104.5,129.167 104.5,144.833 104.5,160.5C 69.5,160.5 34.5,160.5 -0.5,160.5C -0.5,138.833 -0.5,117.167 -0.5,95.5C 0.833333,95.1667 0.833333,94.8333 -0.5,94.5C -0.5,91.5 -0.5,88.5 -0.5,85.5C 2.93947,100.837 11.2728,113.003 24.5,122C 26.1545,122.608 27.8211,123.108 29.5,123.5C 31.0414,124.667 32.3748,126 33.5,127.5C 32.8476,128.449 32.5143,129.615 32.5,131C 33.6466,134.429 34.48,137.929 35,141.5C 36.0113,142.337 37.1779,142.67 38.5,142.5C 38.238,143.978 38.5713,145.311 39.5,146.5C 41.5879,147.179 43.5879,147.512 45.5,147.5C 44.0357,151.712 45.3691,154.712 49.5,156.5C 54.4177,156.828 56.4177,154.495 55.5,149.5C 59.9083,149.938 61.5749,147.938 60.5,143.5C 62.1667,143.5 63.8333,143.5 65.5,143.5C 64.9736,139.75 65.9736,136.584 68.5,134C 68.6134,132.301 67.9468,131.134 66.5,130.5C 66.5,129.833 66.5,129.167 66.5,128.5C 79.5124,121.654 89.3457,111.654 96,98.5C 98.5384,89.8064 99.0384,81.1398 97.5,72.5C 95.3196,60.8052 89.9863,50.8052 81.5,42.5C 85.7927,39.2425 86.4594,35.4091 83.5,31C 79.0826,29.4315 77.0826,30.9315 77.5,35.5C 78.5,35.5 79.5,35.5 80.5,35.5C 80.5,34.5 80.5,33.5 80.5,32.5C 81.5,32.5 82.5,32.5 83.5,32.5C 84.1686,38.0001 81.8353,40.1667 76.5,39C 74.3555,36.0211 72.0222,33.1878 69.5,30.5C 74.5933,28.9168 76.4267,25.5835 75,20.5C 71.5033,15.4269 68.3366,15.4269 65.5,20.5C 65.859,23.2817 67.1923,23.9483 69.5,22.5C 68.7542,21.2638 68.4208,19.9305 68.5,18.5C 73.5628,19.9217 74.5628,22.755 71.5,27C 67.9075,27.3044 64.5742,26.4711 61.5,24.5C 63.25,20.5818 62.5834,17.2485 59.5,14.5C 58.4324,13.5655 57.099,13.2322 55.5,13.5C 55.7271,11.0672 54.7271,9.40058 52.5,8.5C 52.573,6.97306 51.9063,5.97306 50.5,5.5C 49.2946,4.31434 47.9613,4.31434 46.5,5.5C 46.5654,5.06178 46.3988,4.72845 46,4.5C 44.8129,6.04442 44.4795,7.71109 45,9.5C 45.2784,8.5842 45.7784,7.91753 46.5,7.5C 46.8426,12.0411 46.8426,16.3744 46.5,20.5C 45.3882,17.0536 43.0548,15.0536 39.5,14.5C 39.3398,16.1992 39.5065,17.8659 40,19.5C 41.6667,20.7332 43.1667,22.0665 44.5,23.5C 44.5,23.8333 44.5,24.1667 44.5,24.5C 38.9363,24.2825 33.603,25.2825 28.5,27.5C 27.5581,27.3918 26.7247,27.0585 26,26.5C 24.5233,22.0022 26.0233,19.8355 30.5,20C 29.6634,21.0113 29.33,22.1779 29.5,23.5C 30.8221,23.67 31.9887,23.3366 33,22.5C 33.6004,19.9047 33.1004,17.5713 31.5,15.5C 33.5,16.8333 35.5,18.1667 37.5,19.5C 37.3253,17.3792 37.6586,15.3792 38.5,13.5C 37.5041,13.4142 36.6708,13.7476 36,14.5C 35.2613,13.4258 34.2613,12.7591 33,12.5C 30.5,13.3333 28,14.1667 25.5,15C 24.7476,15.6708 24.4142,16.5041 24.5,17.5C 22.0882,17.6941 21.0882,19.0274 21.5,21.5C 20.2437,23.7257 20.2437,26.059 21.5,28.5C 19.2181,27.6103 16.8848,27.4436 14.5,28C 13.244,28.4169 12.5774,29.2502 12.5,30.5C 11.8333,30.5 11.5,30.8333 11.5,31.5C 7.9303,33.8966 7.59696,36.8966 10.5,40.5C 10.9569,41.2975 11.6236,41.6309 12.5,41.5C 11.2702,39.7028 10.6036,37.7028 10.5,35.5C 12.1638,37.4079 13.8305,39.4079 15.5,41.5C 11.5271,46.092 8.02706,51.092 5,56.5C 2.80822,61.8456 0.97489,67.179 -0.5,72.5C -0.5,69.8333 -0.5,67.1667 -0.5,64.5C 1.07394,62.8984 1.74061,60.8984 1.5,58.5C 0.833333,58.8333 0.166667,59.1667 -0.5,59.5C -0.5,43.1667 -0.5,26.8333 -0.5,10.5C 10.8333,10.5 22.1667,10.5 33.5,10.5C 33.5,6.83333 33.5,3.16667 33.5,-0.5 Z M 46.5,5.5 C 46.5,6.16667 46.5,6.83333 46.5,7.5C 45.7784,7.91753 45.2784,8.5842 45,9.5C 44.4795,7.71109 44.8129,6.04442 46,4.5C 46.3988,4.72845 46.5654,5.06178 46.5,5.5 Z M 38.5,13.5 C 37.6586,15.3792 37.3253,17.3792 37.5,19.5C 35.5,18.1667 33.5,16.8333 31.5,15.5C 30.5,15.5 29.5,15.5 28.5,15.5C 27.1667,16.1667 25.8333,16.8333 24.5,17.5C 24.4142,16.5041 24.7476,15.6708 25.5,15C 28,14.1667 30.5,13.3333 33,12.5C 34.2613,12.7591 35.2613,13.4258 36,14.5C 36.6708,13.7476 37.5041,13.4142 38.5,13.5 Z M 89.5,31.5 C 86.3,30.1604 82.6333,28.9937 78.5,28C 79.1667,27.3333 79.8333,26.6667 80.5,26C 78.5322,22.0401 75.8655,18.7068 72.5,16C 70.5273,15.5045 68.5273,15.3379 66.5,15.5C 71.1988,12.4272 76.1988,12.0938 81.5,14.5C 84.1806,18.3572 86.6806,22.3572 89,26.5C 89.4935,28.1341 89.6602,29.8008 89.5,31.5 Z M 24.5,17.5 C 24.2014,19.4553 23.2014,20.7886 21.5,21.5C 21.0882,19.0274 22.0882,17.6941 24.5,17.5 Z M 21.5,21.5 C 21.6741,23.861 22.0074,26.1944 22.5,28.5C 22.1667,28.5 21.8333,28.5 21.5,28.5C 20.2437,26.059 20.2437,23.7257 21.5,21.5 Z M 21.5,28.5 C 21.1583,29.3382 20.4916,29.6716 19.5,29.5C 17.0504,29.298 14.717,29.6314 12.5,30.5C 12.5774,29.2502 13.244,28.4169 14.5,28C 16.8848,27.4436 19.2181,27.6103 21.5,28.5 Z M 11.5,31.5 C 11.1667,32.8333 10.8333,34.1667 10.5,35.5C 10.6036,37.7028 11.2702,39.7028 12.5,41.5C 11.6236,41.6309 10.9569,41.2975 10.5,40.5C 7.59696,36.8966 7.9303,33.8966 11.5,31.5 Z M 89.5,31.5 C 92.3903,31.278 95.057,31.9447 97.5,33.5C 98.8104,38.8799 99.1437,44.2133 98.5,49.5C 96.1305,49.8511 93.7972,50.0178 91.5,50C 90.7433,48.4878 89.7433,47.1545 88.5,46C 89.9125,42.2958 90.9125,38.4624 91.5,34.5C 90.8075,33.4822 90.1408,32.4822 89.5,31.5 Z M 12.5,43.5 C 12.1667,44.5 11.5,45.1667 10.5,45.5C 10.5,44.1667 11.1667,43.5 12.5,43.5 Z M 4.5,53.5 C 4.46141,52.2438 4.96141,51.2438 6,50.5C 6.5847,51.9976 6.0847,52.9976 4.5,53.5 Z M 4.5,53.5 C 4.25027,55.674 3.25027,57.3406 1.5,58.5C 1.2729,56.0672 2.2729,54.4006 4.5,53.5 Z M 32.5,145.5 C 33.1174,145.611 33.6174,145.944 34,146.5C 34.6667,148.833 34.6667,151.167 34,153.5C 33.7674,151.22 32.934,149.22 31.5,147.5C 31.8627,146.817 32.1961,146.15 32.5,145.5 Z"/></g>
<g><path style="opacity:0.996" fill="#62100e" d="M 50.5,5.5 C 51.9063,5.97306 52.573,6.97306 52.5,8.5C 52.9693,12.9104 51.9693,16.9104 49.5,20.5C 47.7191,15.972 47.2191,11.3053 48,6.5C 48.6708,5.74756 49.5041,5.41423 50.5,5.5 Z"/></g>
<g><path style="opacity:1" fill="#651c16" d="M 46.5,20.5 C 46.4142,21.4959 46.7476,22.3292 47.5,23C 46.552,23.4828 45.552,23.6495 44.5,23.5C 43.1667,22.0665 41.6667,20.7332 40,19.5C 39.5065,17.8659 39.3398,16.1992 39.5,14.5C 43.0548,15.0536 45.3882,17.0536 46.5,20.5 Z"/></g>
<g><path style="opacity:0.44" fill="#79513b" d="M 50.5,5.5 C 49.5041,5.41423 48.6708,5.74756 48,6.5C 47.2191,11.3053 47.7191,15.972 49.5,20.5C 51.9693,16.9104 52.9693,12.9104 52.5,8.5C 54.7271,9.40058 55.7271,11.0672 55.5,13.5C 57.099,13.2322 58.4324,13.5655 59.5,14.5C 62.5834,17.2485 63.25,20.5818 61.5,24.5C 56.5763,23.9621 52.5763,25.6288 49.5,29.5C 47.4788,28.1455 45.8121,26.4788 44.5,24.5C 44.5,24.1667 44.5,23.8333 44.5,23.5C 45.552,23.6495 46.552,23.4828 47.5,23C 46.7476,22.3292 46.4142,21.4959 46.5,20.5C 46.8426,16.3744 46.8426,12.0411 46.5,7.5C 46.5,6.83333 46.5,6.16667 46.5,5.5C 47.9613,4.31434 49.2946,4.31434 50.5,5.5 Z"/></g>
<g><path style="opacity:1" fill="#651914" d="M 59.5,14.5 C 59.3542,18.619 57.3542,21.619 53.5,23.5C 53.1667,22.8333 52.8333,22.1667 52.5,21.5C 53.5314,19.6178 54.3647,17.6178 55,15.5C 56.3561,14.6198 57.8561,14.2865 59.5,14.5 Z"/></g>
<g><path style="opacity:0.047" fill="#876146" d="M 28.5,15.5 C 27.7934,17.1344 26.6268,18.4677 25,19.5C 22.134,25.0765 23.634,28.7431 29.5,30.5C 27.4773,32.8528 25.4773,35.1862 23.5,37.5C 21.9382,37.7329 20.6049,38.3995 19.5,39.5C 14.6724,39.6148 13.3391,37.4481 15.5,33C 15.8333,32.8333 16.1667,32.6667 16.5,32.5C 17.4287,33.6888 17.762,35.0222 17.5,36.5C 18.5,36.5 19.5,36.5 20.5,36.5C 20.702,34.0504 20.3686,31.717 19.5,29.5C 20.4916,29.6716 21.1583,29.3382 21.5,28.5C 21.8333,28.5 22.1667,28.5 22.5,28.5C 22.0074,26.1944 21.6741,23.861 21.5,21.5C 23.2014,20.7886 24.2014,19.4553 24.5,17.5C 25.8333,16.8333 27.1667,16.1667 28.5,15.5 Z"/></g>
<g><path style="opacity:0.914" fill="#67271e" d="M 28.5,15.5 C 29.5,15.5 30.5,15.5 31.5,15.5C 33.1004,17.5713 33.6004,19.9047 33,22.5C 31.9887,23.3366 30.8221,23.67 29.5,23.5C 29.33,22.1779 29.6634,21.0113 30.5,20C 26.0233,19.8355 24.5233,22.0022 26,26.5C 26.7247,27.0585 27.5581,27.3918 28.5,27.5C 33.603,25.2825 38.9363,24.2825 44.5,24.5C 45.8121,26.4788 47.4788,28.1455 49.5,29.5C 52.5763,25.6288 56.5763,23.9621 61.5,24.5C 64.5742,26.4711 67.9075,27.3044 71.5,27C 74.5628,22.755 73.5628,19.9217 68.5,18.5C 68.4208,19.9305 68.7542,21.2638 69.5,22.5C 67.1923,23.9483 65.859,23.2817 65.5,20.5C 68.3366,15.4269 71.5033,15.4269 75,20.5C 76.4267,25.5835 74.5933,28.9168 69.5,30.5C 72.0222,33.1878 74.3555,36.0211 76.5,39C 81.8353,40.1667 84.1686,38.0001 83.5,32.5C 82.5,32.5 81.5,32.5 80.5,32.5C 80.5,33.5 80.5,34.5 80.5,35.5C 79.5,35.5 78.5,35.5 77.5,35.5C 77.0826,30.9315 79.0826,29.4315 83.5,31C 86.4594,35.4091 85.7927,39.2425 81.5,42.5C 89.9863,50.8052 95.3196,60.8052 97.5,72.5C 97.9914,91.3526 90.9914,106.853 76.5,119C 71.5256,122.047 66.1922,124.214 60.5,125.5C 59.4324,124.566 58.099,124.232 56.5,124.5C 65.9932,122.585 74.3265,118.252 81.5,111.5C 83.3264,109.853 84.6597,107.853 85.5,105.5C 91.0919,98.1949 94.4252,89.8616 95.5,80.5C 95.6747,78.3792 95.3414,76.3792 94.5,74.5C 93.7636,60.8609 88.097,49.6942 77.5,41C 72.894,37.7741 68.2273,34.9408 63.5,32.5C 52.4676,30.4064 41.8009,31.4064 31.5,35.5C 31.0831,34.8761 30.4164,34.5427 29.5,34.5C 27.4893,35.5186 25.4893,36.5186 23.5,37.5C 25.4773,35.1862 27.4773,32.8528 29.5,30.5C 23.634,28.7431 22.134,25.0765 25,19.5C 26.6268,18.4677 27.7934,17.1344 28.5,15.5 Z"/></g>
<g><path style="opacity:0.22" fill="#825f45" d="M 63.5,32.5 C 63.3893,31.8826 63.056,31.3826 62.5,31C 59.1182,30.8236 55.7848,30.3236 52.5,29.5C 56.6293,25.545 60.796,25.545 65,29.5C 65.7252,31.1575 65.2252,32.1575 63.5,32.5 Z"/></g>
<g><path style="opacity:0.206" fill="#7d5a41" d="M 37.5,26.5 C 41.0798,25.9228 44.0798,26.9228 46.5,29.5C 42.8261,30.2325 39.1594,30.8992 35.5,31.5C 34.4173,30.635 34.2506,29.635 35,28.5C 35.9947,27.9341 36.828,27.2674 37.5,26.5 Z"/></g>
<g><path style="opacity:0.943" fill="#723225" d="M 19.5,29.5 C 20.3686,31.717 20.702,34.0504 20.5,36.5C 19.5,36.5 18.5,36.5 17.5,36.5C 17.762,35.0222 17.4287,33.6888 16.5,32.5C 16.1667,32.6667 15.8333,32.8333 15.5,33C 13.3391,37.4481 14.6724,39.6148 19.5,39.5C 18.1667,40.1667 16.8333,40.8333 15.5,41.5C 13.8305,39.4079 12.1638,37.4079 10.5,35.5C 10.8333,34.1667 11.1667,32.8333 11.5,31.5C 12.1667,31.5 12.5,31.1667 12.5,30.5C 14.717,29.6314 17.0504,29.298 19.5,29.5 Z"/></g>
<g><path style="opacity:1" fill="#322318" d="M 63.5,32.5 C 68.2273,34.9408 72.894,37.7741 77.5,41C 88.097,49.6942 93.7636,60.8609 94.5,74.5C 93.1667,73.5 91.8333,72.5 90.5,71.5C 89.743,68.0101 88.743,64.6767 87.5,61.5C 84.2899,58.4551 82.1232,54.7884 81,50.5C 79.1951,48.1743 77.0284,46.5077 74.5,45.5C 74.5299,44.5028 74.0299,43.8361 73,43.5C 68.1745,42.0039 63.6745,39.8372 59.5,37C 53.8333,36.3333 48.1667,36.3333 42.5,37C 38.7301,37.7217 35.3968,39.2217 32.5,41.5C 30.8333,42.1667 29.1667,42.8333 27.5,43.5C 22.0134,44.3941 18.3467,47.3941 16.5,52.5C 16.1667,53.1667 15.8333,53.8333 15.5,54.5C 12.4752,55.0332 11.1419,56.8665 11.5,60C 11.8266,61.8133 12.4933,63.48 13.5,65C 13.4301,65.7648 13.0967,66.2648 12.5,66.5C 10.0672,66.2729 8.40058,67.2729 7.5,69.5C 6.66175,69.8417 6.32842,70.5084 6.5,71.5C 6.16667,72.5 5.5,73.1667 4.5,73.5C 6.5933,55.7665 15.5933,43.0998 31.5,35.5C 41.8009,31.4064 52.4676,30.4064 63.5,32.5 Z"/></g>
<g><path style="opacity:1" fill="#814f27" d="M 62.5,46.5 C 58.6286,46.185 54.9619,46.5184 51.5,47.5C 50.1805,48.9418 48.5138,49.6085 46.5,49.5C 46.5,50.5 46.5,51.5 46.5,52.5C 46.0377,53.8799 45.0377,54.5466 43.5,54.5C 41.5775,53.9076 39.9108,52.9076 38.5,51.5C 38.6168,49.5165 37.9501,47.8498 36.5,46.5C 33.1204,47.0873 30.1204,48.4206 27.5,50.5C 26.5615,48.0897 26.5615,45.7564 27.5,43.5C 29.1667,42.8333 30.8333,42.1667 32.5,41.5C 35.7659,41.3706 38.7659,40.3706 41.5,38.5C 47.1152,39.2891 52.7818,39.7891 58.5,40C 59.6526,41.883 61.3193,42.7163 63.5,42.5C 63.5674,43.9587 63.2341,45.2921 62.5,46.5 Z"/></g>
<g><path style="opacity:1" fill="#a26b31" d="M 46.5,40.5 C 50.7032,40.0761 54.7032,40.5761 58.5,42C 55.1536,43.7363 51.8203,45.5696 48.5,47.5C 47.8333,47.1667 47.1667,46.8333 46.5,46.5C 45.5344,48.396 45.2011,50.396 45.5,52.5C 39.6829,51.9997 38.0162,48.9997 40.5,43.5C 41.1924,44.0253 41.6924,44.6919 42,45.5C 43.7073,43.9625 45.2073,42.2959 46.5,40.5 Z"/></g>
<g><path style="opacity:1" fill="#633a1c" d="M 74.5,45.5 C 72.516,44.8443 70.516,44.1776 68.5,43.5C 66.8405,44.1716 65.5072,45.1716 64.5,46.5C 63.8333,46.5 63.1667,46.5 62.5,46.5C 63.2341,45.2921 63.5674,43.9587 63.5,42.5C 61.3193,42.7163 59.6526,41.883 58.5,40C 52.7818,39.7891 47.1152,39.2891 41.5,38.5C 38.7659,40.3706 35.7659,41.3706 32.5,41.5C 35.3968,39.2217 38.7301,37.7217 42.5,37C 48.1667,36.3333 53.8333,36.3333 59.5,37C 63.6745,39.8372 68.1745,42.0039 73,43.5C 74.0299,43.8361 74.5299,44.5028 74.5,45.5 Z"/></g>
<g><path style="opacity:1" fill="#61371a" d="M 27.5,43.5 C 26.5615,45.7564 26.5615,48.0897 27.5,50.5C 26.5,50.5 25.5,50.5 24.5,50.5C 24.6882,52.1033 24.1882,53.4366 23,54.5C 22.7902,53.1971 22.9569,51.8638 23.5,50.5C 22.8773,48.1858 22.544,48.5192 22.5,51.5C 20.3792,51.3253 18.3792,51.6586 16.5,52.5C 18.3467,47.3941 22.0134,44.3941 27.5,43.5 Z"/></g>
<g><path style="opacity:1" fill="#8d5928" d="M 74.5,45.5 C 77.0284,46.5077 79.1951,48.1743 81,50.5C 82.1232,54.7884 84.2899,58.4551 87.5,61.5C 86.893,65.3807 85.2263,68.714 82.5,71.5C 82.665,68.1501 82.4983,64.8168 82,61.5C 79.1271,58.5578 76.7938,55.2245 75,51.5C 74.6924,52.3081 74.1924,52.9747 73.5,53.5C 70.2198,51.3797 67.2198,49.0464 64.5,46.5C 65.5072,45.1716 66.8405,44.1716 68.5,43.5C 70.516,44.1776 72.516,44.8443 74.5,45.5 Z"/></g>
<g><path style="opacity:1" fill="#ab826b" d="M 38.5,51.5 C 35.9407,51.1984 33.6074,51.5318 31.5,52.5C 29.5328,52.2606 27.6995,52.5939 26,53.5C 25.7613,52.212 26.2613,51.212 27.5,50.5C 30.1204,48.4206 33.1204,47.0873 36.5,46.5C 37.9501,47.8498 38.6168,49.5165 38.5,51.5 Z"/></g>
<g><path style="opacity:1" fill="#c59a82" d="M 51.5,47.5 C 55.5138,47.3345 59.5138,47.5012 63.5,48C 67.7927,52.0512 66.7927,53.5512 60.5,52.5C 60.5299,51.5028 60.0299,50.8361 59,50.5C 54.7877,51.1355 50.6211,51.8022 46.5,52.5C 46.5,51.5 46.5,50.5 46.5,49.5C 48.5138,49.6085 50.1805,48.9418 51.5,47.5 Z"/></g>
<g><path style="opacity:1" fill="#82502b" d="M 27.5,50.5 C 26.2613,51.212 25.7613,52.212 26,53.5C 27.6995,52.5939 29.5328,52.2606 31.5,52.5C 34.3437,53.3103 37.0103,54.6436 39.5,56.5C 39.6309,57.3764 39.2975,58.0431 38.5,58.5C 29.3798,52.9 23.7131,55.2334 21.5,65.5C 19.2573,66.4742 16.924,66.8076 14.5,66.5C 14.7239,64.2133 15.3906,62.0466 16.5,60C 15.2254,58.0922 14.8921,56.2589 15.5,54.5C 15.8333,53.8333 16.1667,53.1667 16.5,52.5C 18.3792,51.6586 20.3792,51.3253 22.5,51.5C 22.544,48.5192 22.8773,48.1858 23.5,50.5C 22.9569,51.8638 22.7902,53.1971 23,54.5C 24.1882,53.4366 24.6882,52.1033 24.5,50.5C 25.5,50.5 26.5,50.5 27.5,50.5 Z"/></g>
<g><path style="opacity:1" fill="#a47553" d="M 51.5,47.5 C 54.9619,46.5184 58.6286,46.185 62.5,46.5C 63.1667,46.5 63.8333,46.5 64.5,46.5C 67.2198,49.0464 70.2198,51.3797 73.5,53.5C 74.1924,52.9747 74.6924,52.3081 75,51.5C 76.7938,55.2245 79.1271,58.5578 82,61.5C 82.4983,64.8168 82.665,68.1501 82.5,71.5C 82.5,72.1667 82.5,72.8333 82.5,73.5C 79.7891,71.7248 77.7891,69.3915 76.5,66.5C 76.5402,63.5755 75.7068,60.9088 74,58.5C 72.9505,59.5171 71.7839,59.6838 70.5,59C 67.8372,54.6677 64.1705,53.501 59.5,55.5C 58.1851,56.4756 56.8518,57.4756 55.5,58.5C 54.7025,58.0431 54.3691,57.3764 54.5,56.5C 56.2228,54.7819 58.2228,53.4486 60.5,52.5C 66.7927,53.5512 67.7927,52.0512 63.5,48C 59.5138,47.5012 55.5138,47.3345 51.5,47.5 Z"/></g>
<g><path style="opacity:1" fill="#603519" d="M 15.5,54.5 C 14.8921,56.2589 15.2254,58.0922 16.5,60C 15.3906,62.0466 14.7239,64.2133 14.5,66.5C 15.1667,67.1667 15.8333,67.8333 16.5,68.5C 16.6309,69.3764 16.2975,70.0431 15.5,70.5C 14.4756,69.1482 13.4756,67.8149 12.5,66.5C 13.0967,66.2648 13.4301,65.7648 13.5,65C 12.4933,63.48 11.8266,61.8133 11.5,60C 11.1419,56.8665 12.4752,55.0332 15.5,54.5 Z"/></g>
<g><path style="opacity:0.996" fill="#631512" d="M 31.5,35.5 C 15.5933,43.0998 6.5933,55.7665 4.5,73.5C 4.5,75.1667 4.5,76.8333 4.5,78.5C 4.31712,85.9414 6.31712,92.608 10.5,98.5C 10.2322,100.099 10.5655,101.432 11.5,102.5C 15.8874,110.554 22.2207,116.554 30.5,120.5C 31.5137,121.674 32.847,122.34 34.5,122.5C 41.7144,124.182 49.0477,124.848 56.5,124.5C 58.099,124.232 59.4324,124.566 60.5,125.5C 50.0568,128.438 39.7234,127.771 29.5,123.5C 27.8211,123.108 26.1545,122.608 24.5,122C 11.2728,113.003 2.93947,100.837 -0.5,85.5C -0.5,81.1667 -0.5,76.8333 -0.5,72.5C 0.97489,67.179 2.80822,61.8456 5,56.5C 8.02706,51.092 11.5271,46.092 15.5,41.5C 16.8333,40.8333 18.1667,40.1667 19.5,39.5C 20.6049,38.3995 21.9382,37.7329 23.5,37.5C 25.4893,36.5186 27.4893,35.5186 29.5,34.5C 30.4164,34.5427 31.0831,34.8761 31.5,35.5 Z"/></g>
<g><path style="opacity:1" fill="#d5ac93" d="M 60.5,52.5 C 58.2228,53.4486 56.2228,54.7819 54.5,56.5C 53.1715,58.7984 51.8382,61.1317 50.5,63.5C 49.2209,62.032 47.5542,61.3653 45.5,61.5C 46.7834,58.6224 45.9501,57.9557 43,59.5C 41.8261,58.4558 40.6594,57.4558 39.5,56.5C 37.0103,54.6436 34.3437,53.3103 31.5,52.5C 33.6074,51.5318 35.9407,51.1984 38.5,51.5C 39.9108,52.9076 41.5775,53.9076 43.5,54.5C 45.0377,54.5466 46.0377,53.8799 46.5,52.5C 50.6211,51.8022 54.7877,51.1355 59,50.5C 60.0299,50.8361 60.5299,51.5028 60.5,52.5 Z"/></g>
<g><path style="opacity:1" fill="#d7b29b" d="M 76.5,66.5 C 75.1411,65.9935 74.1411,64.9935 73.5,63.5C 72.6143,64.325 72.281,65.325 72.5,66.5C 69.779,66.9628 67.1123,67.6295 64.5,68.5C 62.6203,68.7709 61.287,68.1042 60.5,66.5C 65.6393,65.0593 65.6393,64.0593 60.5,63.5C 60.62,62.4138 61.2867,61.7472 62.5,61.5C 64.8838,62.0124 67.2172,62.6791 69.5,63.5C 69.8333,63.1667 70.1667,62.8333 70.5,62.5C 66.972,59.5777 63.3054,57.2444 59.5,55.5C 64.1705,53.501 67.8372,54.6677 70.5,59C 71.7839,59.6838 72.9505,59.5171 74,58.5C 75.7068,60.9088 76.5402,63.5755 76.5,66.5 Z"/></g>
<g><path style="opacity:1" fill="#949291" d="M 60.5,63.5 C 65.6393,64.0593 65.6393,65.0593 60.5,66.5C 59.1667,65.5 59.1667,64.5 60.5,63.5 Z"/></g>
<g><path style="opacity:1" fill="#edccb6" d="M 45.5,61.5 C 47.5542,61.3653 49.2209,62.032 50.5,63.5C 51.5,63.8333 52.1667,64.5 52.5,65.5C 50.3647,67.369 47.6981,68.0356 44.5,67.5C 41.8248,65.1536 42.1581,63.1536 45.5,61.5 Z"/></g>
<g><path style="opacity:1" fill="#bf8b6d" d="M 59.5,55.5 C 63.3054,57.2444 66.972,59.5777 70.5,62.5C 70.1667,62.8333 69.8333,63.1667 69.5,63.5C 67.2172,62.6791 64.8838,62.0124 62.5,61.5C 61.2867,61.7472 60.62,62.4138 60.5,63.5C 59.1667,64.5 59.1667,65.5 60.5,66.5C 61.287,68.1042 62.6203,68.7709 64.5,68.5C 64.8333,69.1667 65.1667,69.8333 65.5,70.5C 60.8195,69.8272 56.4861,68.1605 52.5,65.5C 52.1667,64.5 51.5,63.8333 50.5,63.5C 51.8382,61.1317 53.1715,58.7984 54.5,56.5C 54.3691,57.3764 54.7025,58.0431 55.5,58.5C 56.8518,57.4756 58.1851,56.4756 59.5,55.5 Z"/></g>
<g><path style="opacity:1" fill="#af7b5d" d="M 39.5,56.5 C 40.6594,57.4558 41.8261,58.4558 43,59.5C 45.9501,57.9557 46.7834,58.6224 45.5,61.5C 42.1581,63.1536 41.8248,65.1536 44.5,67.5C 47.3054,68.3195 50.3054,68.8195 53.5,69C 55.019,70.3513 56.3523,71.8513 57.5,73.5C 56.3333,73.8333 55.1667,74.1667 54,74.5C 51.0423,73.1411 47.8757,72.4744 44.5,72.5C 44.5,71.5 44.5,70.5 44.5,69.5C 43.448,69.3505 42.448,69.5172 41.5,70C 39.3365,71.4908 37.3365,72.9908 35.5,74.5C 34.9851,72.2488 33.9851,70.2488 32.5,68.5C 34.2922,67.6909 36.2922,67.1909 38.5,67C 39.7054,64.7658 39.0387,63.0992 36.5,62C 35.3333,61.8333 34.1667,61.6667 33,61.5C 31.3189,61.6083 30.1522,62.2749 29.5,63.5C 27.9519,63.8212 27.2852,64.8212 27.5,66.5C 27.5,66.8333 27.5,67.1667 27.5,67.5C 23.2946,67.6932 19.9612,69.3598 17.5,72.5C 17.7678,70.901 17.4345,69.5676 16.5,68.5C 15.8333,67.8333 15.1667,67.1667 14.5,66.5C 16.924,66.8076 19.2573,66.4742 21.5,65.5C 23.7131,55.2334 29.3798,52.9 38.5,58.5C 39.2975,58.0431 39.6309,57.3764 39.5,56.5 Z"/></g>
<g><path style="opacity:1" fill="#dbbba8" d="M 32.5,68.5 C 30.7839,68.3713 29.1172,68.038 27.5,67.5C 27.5,67.1667 27.5,66.8333 27.5,66.5C 29.1667,66.5 30.8333,66.5 32.5,66.5C 32.5,65.5 32.5,64.5 32.5,63.5C 31.5,63.5 30.5,63.5 29.5,63.5C 30.1522,62.2749 31.3189,61.6083 33,61.5C 34.1667,61.6667 35.3333,61.8333 36.5,62C 39.0387,63.0992 39.7054,64.7658 38.5,67C 36.2922,67.1909 34.2922,67.6909 32.5,68.5 Z"/></g>
<g><path style="opacity:1" fill="#8e8885" d="M 29.5,63.5 C 30.5,63.5 31.5,63.5 32.5,63.5C 32.5,64.5 32.5,65.5 32.5,66.5C 30.8333,66.5 29.1667,66.5 27.5,66.5C 27.2852,64.8212 27.9519,63.8212 29.5,63.5 Z"/></g>
<g><path style="opacity:1" fill="#eaba9e" d="M 52.5,65.5 C 56.4861,68.1605 60.8195,69.8272 65.5,70.5C 68.4686,69.6713 71.4686,69.5046 74.5,70C 77.2862,72.0214 76.9528,73.5214 73.5,74.5C 74.9501,75.8498 75.6168,77.5165 75.5,79.5C 72.9333,79.8545 70.4333,80.5212 68,81.5C 63.8504,80.3963 60.0171,80.3963 56.5,81.5C 56.4894,79.9826 55.8228,78.8159 54.5,78C 53.0997,76.5619 51.433,75.7286 49.5,75.5C 47.7078,74.6909 45.7078,74.1909 43.5,74C 44.056,73.6174 44.3893,73.1174 44.5,72.5C 47.8757,72.4744 51.0423,73.1411 54,74.5C 55.1667,74.1667 56.3333,73.8333 57.5,73.5C 56.3523,71.8513 55.019,70.3513 53.5,69C 50.3054,68.8195 47.3054,68.3195 44.5,67.5C 47.6981,68.0356 50.3647,67.369 52.5,65.5 Z"/></g>
<g><path style="opacity:1" fill="#804527" d="M 44.5,72.5 C 42.4456,73.6086 40.2789,74.6086 38,75.5C 37.0979,75.2568 36.2646,74.9234 35.5,74.5C 37.3365,72.9908 39.3365,71.4908 41.5,70C 42.448,69.5172 43.448,69.3505 44.5,69.5C 44.5,70.5 44.5,71.5 44.5,72.5 Z"/></g>
<g><path style="opacity:1" fill="#d9957a" d="M 27.5,67.5 C 29.1172,68.038 30.7839,68.3713 32.5,68.5C 33.9851,70.2488 34.9851,72.2488 35.5,74.5C 36.2646,74.9234 37.0979,75.2568 38,75.5C 40.2789,74.6086 42.4456,73.6086 44.5,72.5C 44.3893,73.1174 44.056,73.6174 43.5,74C 45.7078,74.1909 47.7078,74.6909 49.5,75.5C 43.2822,74.1622 39.9488,76.4955 39.5,82.5C 39.5,84.1667 39.5,85.8333 39.5,87.5C 38.7321,86.7375 38.2321,85.7375 38,84.5C 37.5172,85.448 37.3505,86.448 37.5,87.5C 36.5269,85.0521 36.1936,82.3854 36.5,79.5C 36.8333,78.8333 37.1667,78.1667 37.5,77.5C 36.7375,76.7321 35.7375,76.2321 34.5,76C 33.9152,74.6976 33.2485,73.531 32.5,72.5C 32.0472,71.5416 31.3805,70.7083 30.5,70C 27.7728,69.1816 25.1062,69.3483 22.5,70.5C 22.1667,71.1667 21.8333,71.8333 21.5,72.5C 22.122,75.3704 22.7887,78.2037 23.5,81C 21.6022,82.417 19.9355,83.917 18.5,85.5C 17.2132,84.1286 16.5465,82.2953 16.5,80C 16.6249,77.4494 16.9582,74.9494 17.5,72.5C 19.9612,69.3598 23.2946,67.6932 27.5,67.5 Z"/></g>
<g><path style="opacity:1" fill="#f9c8b1" d="M 32.5,72.5 C 33.2485,73.531 33.9152,74.6976 34.5,76C 35.7375,76.2321 36.7375,76.7321 37.5,77.5C 36.4168,77.5394 35.4168,77.8728 34.5,78.5C 32.1897,76.5876 29.523,75.5876 26.5,75.5C 26.2606,77.4672 26.5939,79.3005 27.5,81C 29.8098,81.4966 32.1432,81.6633 34.5,81.5C 34.1583,82.3382 33.4916,82.6716 32.5,82.5C 30.4727,82.6621 28.4727,82.4955 26.5,82C 24.3806,79.7313 23.714,77.2313 24.5,74.5C 27.3056,73.8324 29.9723,73.1657 32.5,72.5 Z"/></g>
<g><path style="opacity:1" fill="#fbdeca" d="M 37.5,77.5 C 37.1667,78.1667 36.8333,78.8333 36.5,79.5C 35.8333,80.1667 35.1667,80.8333 34.5,81.5C 32.1432,81.6633 29.8098,81.4966 27.5,81C 26.5939,79.3005 26.2606,77.4672 26.5,75.5C 29.523,75.5876 32.1897,76.5876 34.5,78.5C 35.4168,77.8728 36.4168,77.5394 37.5,77.5 Z"/></g>
<g><path style="opacity:1" fill="#983e27" d="M 49.5,75.5 C 51.433,75.7286 53.0997,76.5619 54.5,78C 55.8228,78.8159 56.4894,79.9826 56.5,81.5C 56.5,83.1667 56.5,84.8333 56.5,86.5C 56.5,87.1667 56.1667,87.5 55.5,87.5C 55.6633,85.1432 55.4966,82.8098 55,80.5C 50.7288,78.5044 46.2288,78.0044 41.5,79C 40.6634,80.0113 40.33,81.1779 40.5,82.5C 40.1667,82.5 39.8333,82.5 39.5,82.5C 39.9488,76.4955 43.2822,74.1622 49.5,75.5 Z"/></g>
<g><path style="opacity:1" fill="#754629" d="M 87.5,61.5 C 88.743,64.6767 89.743,68.0101 90.5,71.5C 86.8622,70.7366 85.3622,72.0699 86,75.5C 87.5553,73.4848 89.3886,73.1515 91.5,74.5C 90.675,75.3857 89.675,75.719 88.5,75.5C 89.64,78.0248 90.3067,80.6915 90.5,83.5C 89.5,83.5 88.5,83.5 87.5,83.5C 87.9754,80.6874 86.9754,78.6874 84.5,77.5C 83.8333,76.1667 83.1667,74.8333 82.5,73.5C 82.5,72.8333 82.5,72.1667 82.5,71.5C 85.2263,68.714 86.893,65.3807 87.5,61.5 Z"/></g>
<g><path style="opacity:1" fill="#73442e" d="M 7.5,69.5 C 13.8564,69.6315 15.1897,72.4648 11.5,78C 13.0066,85.4402 14.0066,92.9402 14.5,100.5C 13.5041,100.586 12.6708,100.252 12,99.5C 11.5172,100.448 11.3505,101.448 11.5,102.5C 10.5655,101.432 10.2322,100.099 10.5,98.5C 12.4065,95.8438 12.9065,92.8438 12,89.5C 10.5084,88.0797 9.00842,86.7464 7.5,85.5C 8.5,85.5 9.5,85.5 10.5,85.5C 10.7711,83.1789 10.1045,81.1789 8.5,79.5C 8.83333,78.8333 9.16667,78.1667 9.5,77.5C 8.13763,75.5732 7.13763,73.5732 6.5,71.5C 6.32842,70.5084 6.66175,69.8417 7.5,69.5 Z"/></g>
<g><path style="opacity:1" fill="#641e13" d="M 55.5,87.5 C 55.5,88.1667 55.1667,88.5 54.5,88.5C 54.606,80.1229 50.606,77.2896 42.5,80C 41.9341,80.9947 41.2674,81.828 40.5,82.5C 40.33,81.1779 40.6634,80.0113 41.5,79C 46.2288,78.0044 50.7288,78.5044 55,80.5C 55.4966,82.8098 55.6633,85.1432 55.5,87.5 Z"/></g>
<g><path style="opacity:1" fill="#d79d83" d="M 76.5,66.5 C 77.7891,69.3915 79.7891,71.7248 82.5,73.5C 83.1667,74.8333 83.8333,76.1667 84.5,77.5C 84.5777,80.7768 83.2443,83.2768 80.5,85C 76.9279,86.4049 73.2613,86.7383 69.5,86C 67.4809,84.1339 65.1476,82.9673 62.5,82.5C 61.5,82.8333 60.5,83.1667 59.5,83.5C 59.0057,85.0255 58.339,86.3588 57.5,87.5C 57.5,86.8333 57.1667,86.5 56.5,86.5C 56.5,84.8333 56.5,83.1667 56.5,81.5C 60.0171,80.3963 63.8504,80.3963 68,81.5C 70.4333,80.5212 72.9333,79.8545 75.5,79.5C 75.6168,77.5165 74.9501,75.8498 73.5,74.5C 76.9528,73.5214 77.2862,72.0214 74.5,70C 71.4686,69.5046 68.4686,69.6713 65.5,70.5C 65.1667,69.8333 64.8333,69.1667 64.5,68.5C 67.1123,67.6295 69.779,66.9628 72.5,66.5C 72.281,65.325 72.6143,64.325 73.5,63.5C 74.1411,64.9935 75.1411,65.9935 76.5,66.5 Z"/></g>
<g><path style="opacity:1" fill="#a47461" d="M 6.5,71.5 C 7.13763,73.5732 8.13763,75.5732 9.5,77.5C 9.16667,78.1667 8.83333,78.8333 8.5,79.5C 10.1045,81.1789 10.7711,83.1789 10.5,85.5C 9.5,85.5 8.5,85.5 7.5,85.5C 6.13107,83.2677 5.13107,80.9344 4.5,78.5C 4.5,76.8333 4.5,75.1667 4.5,73.5C 5.5,73.1667 6.16667,72.5 6.5,71.5 Z"/></g>
<g><path style="opacity:1" fill="#1e1210" d="M 54.5,88.5 C 51.4497,91.3535 47.7831,92.1868 43.5,91C 41.6763,90.34 40.343,89.1733 39.5,87.5C 39.5,85.8333 39.5,84.1667 39.5,82.5C 39.8333,82.5 40.1667,82.5 40.5,82.5C 41.2674,81.828 41.9341,80.9947 42.5,80C 50.606,77.2896 54.606,80.1229 54.5,88.5 Z"/></g>
<g><path style="opacity:1" fill="#e9b18e" d="M 32.5,72.5 C 29.9723,73.1657 27.3056,73.8324 24.5,74.5C 23.714,77.2313 24.3806,79.7313 26.5,82C 28.4727,82.4955 30.4727,82.6621 32.5,82.5C 30.5152,85.1209 29.5152,88.1209 29.5,91.5C 29.8432,93.4832 29.1765,94.8166 27.5,95.5C 23.1014,93.4342 20.1014,90.1009 18.5,85.5C 19.9355,83.917 21.6022,82.417 23.5,81C 22.7887,78.2037 22.122,75.3704 21.5,72.5C 21.8333,71.8333 22.1667,71.1667 22.5,70.5C 25.1062,69.3483 27.7728,69.1816 30.5,70C 31.3805,70.7083 32.0472,71.5416 32.5,72.5 Z"/></g>
<g><path style="opacity:1" fill="#32221a" d="M 4.5,78.5 C 5.13107,80.9344 6.13107,83.2677 7.5,85.5C 9.00842,86.7464 10.5084,88.0797 12,89.5C 12.9065,92.8438 12.4065,95.8438 10.5,98.5C 6.31712,92.608 4.31712,85.9414 4.5,78.5 Z"/></g>
<g><path style="opacity:1" fill="#eebfa6" d="M 39.5,87.5 C 40.343,89.1733 41.6763,90.34 43.5,91C 47.7831,92.1868 51.4497,91.3535 54.5,88.5C 55.1667,88.5 55.5,88.1667 55.5,87.5C 56.1667,87.5 56.5,87.1667 56.5,86.5C 57.1667,86.5 57.5,86.8333 57.5,87.5C 57.5,87.8333 57.5,88.1667 57.5,88.5C 52.7168,93.4793 47.0502,94.646 40.5,92C 38.8588,90.871 37.8588,89.371 37.5,87.5C 37.3505,86.448 37.5172,85.448 38,84.5C 38.2321,85.7375 38.7321,86.7375 39.5,87.5 Z"/></g>
<g><path style="opacity:1" fill="#b6765a" d="M 17.5,72.5 C 16.9582,74.9494 16.6249,77.4494 16.5,80C 16.5465,82.2953 17.2132,84.1286 18.5,85.5C 20.1014,90.1009 23.1014,93.4342 27.5,95.5C 27.5,95.8333 27.5,96.1667 27.5,96.5C 21.6496,97.8639 17.8163,95.5306 16,89.5C 14.5076,84.5893 14.1743,79.5893 15,74.5C 15.7083,73.6195 16.5416,72.9528 17.5,72.5 Z"/></g>
<g><path style="opacity:1" fill="#995b3e" d="M 12.5,66.5 C 13.4756,67.8149 14.4756,69.1482 15.5,70.5C 16.2975,70.0431 16.6309,69.3764 16.5,68.5C 17.4345,69.5676 17.7678,70.901 17.5,72.5C 16.5416,72.9528 15.7083,73.6195 15,74.5C 14.1743,79.5893 14.5076,84.5893 16,89.5C 17.8163,95.5306 21.6496,97.8639 27.5,96.5C 29.964,97.5665 32.2974,98.8998 34.5,100.5C 37.1679,103.291 40.5012,104.958 44.5,105.5C 45.3279,104.585 46.3279,103.919 47.5,103.5C 51.2186,105.36 54.2186,104.693 56.5,101.5C 58.1992,101.66 59.8659,101.494 61.5,101C 64.1056,98.3846 67.2722,96.8846 71,96.5C 72.0299,96.8361 72.5299,97.5028 72.5,98.5C 68.3939,101.429 64.3939,104.596 60.5,108C 57.8608,108.653 55.5274,109.82 53.5,111.5C 48.1029,109.952 42.4362,108.452 36.5,107C 34.6308,105.456 32.7975,103.956 31,102.5C 30.5,102.667 30,102.833 29.5,103C 31.0414,104.371 32.3747,105.871 33.5,107.5C 30.7126,105.236 27.5459,103.569 24,102.5C 23.5,102.833 23,103.167 22.5,103.5C 24.9264,105.941 27.593,107.941 30.5,109.5C 27.1574,108.776 23.824,107.943 20.5,107C 18.6339,104.637 16.6339,102.47 14.5,100.5C 14.0066,92.9402 13.0066,85.4402 11.5,78C 15.1897,72.4648 13.8564,69.6315 7.5,69.5C 8.40058,67.2729 10.0672,66.2729 12.5,66.5 Z"/></g>
<g><path style="opacity:1" fill="#935738" d="M 36.5,79.5 C 36.1936,82.3854 36.5269,85.0521 37.5,87.5C 37.8588,89.371 38.8588,90.871 40.5,92C 47.0502,94.646 52.7168,93.4793 57.5,88.5C 58.9221,88.7496 59.9221,89.583 60.5,91C 53.6514,97.7984 45.9848,98.9651 37.5,94.5C 35.2018,92.5393 32.5351,91.5393 29.5,91.5C 29.5152,88.1209 30.5152,85.1209 32.5,82.5C 33.4916,82.6716 34.1583,82.3382 34.5,81.5C 35.1667,80.8333 35.8333,80.1667 36.5,79.5 Z"/></g>
<g><path style="opacity:1" fill="#ca9b82" d="M 29.5,91.5 C 32.5351,91.5393 35.2018,92.5393 37.5,94.5C 37.5,95.5 37.5,96.5 37.5,97.5C 40.1667,97.8333 42.8333,98.1667 45.5,98.5C 45.5,99.8333 45.5,101.167 45.5,102.5C 41.7674,102.13 38.1007,101.463 34.5,100.5C 32.2974,98.8998 29.964,97.5665 27.5,96.5C 27.5,96.1667 27.5,95.8333 27.5,95.5C 29.1765,94.8166 29.8432,93.4832 29.5,91.5 Z"/></g>
<g><path style="opacity:1" fill="#402119" d="M 95.5,80.5 C 94.4252,89.8616 91.0919,98.1949 85.5,105.5C 85.5,103.167 85.5,100.833 85.5,98.5C 85.0747,94.0168 86.7413,90.6834 90.5,88.5C 92.1626,85.8707 93.8293,83.204 95.5,80.5 Z"/></g>
<g><path style="opacity:1" fill="#bb8668" d="M 90.5,71.5 C 91.8333,72.5 93.1667,73.5 94.5,74.5C 95.3414,76.3792 95.6747,78.3792 95.5,80.5C 93.8293,83.204 92.1626,85.8707 90.5,88.5C 88.5328,88.7394 86.6995,88.4061 85,87.5C 82.9358,94.7284 78.7691,100.395 72.5,104.5C 70.4247,104.698 68.4247,104.865 66.5,105C 68.7059,102.963 70.7059,100.797 72.5,98.5C 72.5299,97.5028 72.0299,96.8361 71,96.5C 67.2722,96.8846 64.1056,98.3846 61.5,101C 59.8659,101.494 58.1992,101.66 56.5,101.5C 54.2186,104.693 51.2186,105.36 47.5,103.5C 46.3279,103.919 45.3279,104.585 44.5,105.5C 40.5012,104.958 37.1679,103.291 34.5,100.5C 38.1007,101.463 41.7674,102.13 45.5,102.5C 45.5,101.167 45.5,99.8333 45.5,98.5C 42.8333,98.1667 40.1667,97.8333 37.5,97.5C 37.5,96.5 37.5,95.5 37.5,94.5C 45.9848,98.9651 53.6514,97.7984 60.5,91C 59.9221,89.583 58.9221,88.7496 57.5,88.5C 57.5,88.1667 57.5,87.8333 57.5,87.5C 58.339,86.3588 59.0057,85.0255 59.5,83.5C 60.5,83.1667 61.5,82.8333 62.5,82.5C 65.1476,82.9673 67.4809,84.1339 69.5,86C 73.2613,86.7383 76.9279,86.4049 80.5,85C 83.2443,83.2768 84.5777,80.7768 84.5,77.5C 86.9754,78.6874 87.9754,80.6874 87.5,83.5C 88.5,83.5 89.5,83.5 90.5,83.5C 90.3067,80.6915 89.64,78.0248 88.5,75.5C 89.675,75.719 90.675,75.3857 91.5,74.5C 89.3886,73.1515 87.5553,73.4848 86,75.5C 85.3622,72.0699 86.8622,70.7366 90.5,71.5 Z"/></g>
<g><path style="opacity:1" fill="#ddb8a2" d="M 56.5,101.5 C 54.139,101.674 51.8056,102.007 49.5,102.5C 49.33,101.178 49.6634,100.011 50.5,99C 53.4677,97.7431 56.4677,96.5765 59.5,95.5C 61.0004,95.4528 62.0004,96.1195 62.5,97.5C 60.99,99.6895 58.99,101.023 56.5,101.5 Z"/></g>
<g><path style="opacity:1" fill="#aea197" d="M 14.5,100.5 C 18.3925,108.729 24.3925,115.062 32.5,119.5C 32.0431,120.298 31.3764,120.631 30.5,120.5C 22.2207,116.554 15.8874,110.554 11.5,102.5C 11.3505,101.448 11.5172,100.448 12,99.5C 12.6708,100.252 13.5041,100.586 14.5,100.5 Z"/></g>
<g><path style="opacity:1" fill="#aaaca9" d="M 85.5,98.5 C 85.5,100.833 85.5,103.167 85.5,105.5C 84.6597,107.853 83.3264,109.853 81.5,111.5C 80.9383,107.932 79.605,107.598 77.5,110.5C 79.6281,107.856 81.1281,104.856 82,101.5C 83.0391,100.29 84.2058,99.2899 85.5,98.5 Z"/></g>
<g><path style="opacity:1" fill="#d5cfc8" d="M 81.5,111.5 C 74.3265,118.252 65.9932,122.585 56.5,124.5C 49.0477,124.848 41.7144,124.182 34.5,122.5C 33.1501,121.176 33.3167,120.176 35,119.5C 39.5289,122.02 44.3623,123.186 49.5,123C 59.6733,120.629 69.0067,116.463 77.5,110.5C 79.605,107.598 80.9383,107.932 81.5,111.5 Z"/></g>
<g><path style="opacity:1" fill="#a67152" d="M 72.5,98.5 C 70.7059,100.797 68.7059,102.963 66.5,105C 68.4247,104.865 70.4247,104.698 72.5,104.5C 69.5035,105.678 66.5035,107.011 63.5,108.5C 65.7662,109.314 68.0995,109.814 70.5,110C 62.3559,112.747 54.0225,114.747 45.5,116C 43.3987,117.105 41.3987,118.271 39.5,119.5C 36.3208,117.745 32.9875,116.245 29.5,115C 32.8373,113.422 33.1706,111.588 30.5,109.5C 27.593,107.941 24.9264,105.941 22.5,103.5C 23,103.167 23.5,102.833 24,102.5C 27.5459,103.569 30.7126,105.236 33.5,107.5C 34.5736,108.885 35.9069,110.051 37.5,111C 42.8654,112.472 48.1987,112.639 53.5,111.5C 55.5274,109.82 57.8608,108.653 60.5,108C 64.3939,104.596 68.3939,101.429 72.5,98.5 Z"/></g>
<g><path style="opacity:1" fill="#8a583b" d="M 90.5,88.5 C 86.7413,90.6834 85.0747,94.0168 85.5,98.5C 84.2058,99.2899 83.0391,100.29 82,101.5C 81.1281,104.856 79.6281,107.856 77.5,110.5C 69.0067,116.463 59.6733,120.629 49.5,123C 44.3623,123.186 39.5289,122.02 35,119.5C 33.3167,120.176 33.1501,121.176 34.5,122.5C 32.847,122.34 31.5137,121.674 30.5,120.5C 31.3764,120.631 32.0431,120.298 32.5,119.5C 24.3925,115.062 18.3925,108.729 14.5,100.5C 16.6339,102.47 18.6339,104.637 20.5,107C 23.824,107.943 27.1574,108.776 30.5,109.5C 33.1706,111.588 32.8373,113.422 29.5,115C 32.9875,116.245 36.3208,117.745 39.5,119.5C 41.3987,118.271 43.3987,117.105 45.5,116C 54.0225,114.747 62.3559,112.747 70.5,110C 68.0995,109.814 65.7662,109.314 63.5,108.5C 66.5035,107.011 69.5035,105.678 72.5,104.5C 78.7691,100.395 82.9358,94.7284 85,87.5C 86.6995,88.4061 88.5328,88.7394 90.5,88.5 Z"/></g>
<g><path style="opacity:1" fill="#703b24" d="M 53.5,111.5 C 48.1987,112.639 42.8654,112.472 37.5,111C 35.9069,110.051 34.5736,108.885 33.5,107.5C 32.3747,105.871 31.0414,104.371 29.5,103C 30,102.833 30.5,102.667 31,102.5C 32.7975,103.956 34.6308,105.456 36.5,107C 42.4362,108.452 48.1029,109.952 53.5,111.5 Z"/></g>
<g><path style="opacity:0.886" fill="#6e4c38" d="M 97.5,72.5 C 99.0384,81.1398 98.5384,89.8064 96,98.5C 89.3457,111.654 79.5124,121.654 66.5,128.5C 64.8007,128.527 63.4674,129.194 62.5,130.5C 59.0855,130.739 55.9188,130.072 53,128.5C 50.3333,129.833 47.6667,129.833 45,128.5C 43.124,128.525 41.624,129.191 40.5,130.5C 37.562,130.727 35.2287,129.727 33.5,127.5C 32.3748,126 31.0414,124.667 29.5,123.5C 39.7234,127.771 50.0568,128.438 60.5,125.5C 66.1922,124.214 71.5256,122.047 76.5,119C 90.9914,106.853 97.9914,91.3526 97.5,72.5 Z"/></g>
<g><path style="opacity:0.999" fill="#631612" d="M 33.5,127.5 C 35.2287,129.727 37.562,130.727 40.5,130.5C 41.4916,130.328 42.1583,130.662 42.5,131.5C 41.3709,133.628 41.2042,135.961 42,138.5C 43.9773,141.312 46.144,143.978 48.5,146.5C 51.3243,143.542 54.1576,140.542 57,137.5C 57.7796,135.613 57.6129,133.946 56.5,132.5C 58.5,131.833 60.5,131.167 62.5,130.5C 63.4674,129.194 64.8007,128.527 66.5,128.5C 66.5,129.167 66.5,129.833 66.5,130.5C 64.3899,133.723 63.3899,137.39 63.5,141.5C 61.0509,140.943 58.7175,140.943 56.5,141.5C 58.1045,143.179 58.7711,145.179 58.5,147.5C 56.7376,147.643 55.0709,147.309 53.5,146.5C 53.2448,148.343 53.0781,150.343 53,152.5C 51.2802,153.384 50.1135,154.717 49.5,156.5C 45.3691,154.712 44.0357,151.712 45.5,147.5C 43.5879,147.512 41.5879,147.179 39.5,146.5C 38.5713,145.311 38.238,143.978 38.5,142.5C 37.1779,142.67 36.0113,142.337 35,141.5C 34.48,137.929 33.6466,134.429 32.5,131C 32.5143,129.615 32.8476,128.449 33.5,127.5 Z"/></g>
<g><path style="opacity:0.99" fill="#6c3024" d="M 62.5,130.5 C 60.5,131.167 58.5,131.833 56.5,132.5C 55.3478,131.375 54.3478,131.375 53.5,132.5C 50.8333,132.5 48.1667,132.5 45.5,132.5C 46.0764,130.217 45.0764,129.883 42.5,131.5C 42.1583,130.662 41.4916,130.328 40.5,130.5C 41.624,129.191 43.124,128.525 45,128.5C 47.6667,129.833 50.3333,129.833 53,128.5C 55.9188,130.072 59.0855,130.739 62.5,130.5 Z"/></g>
<g><path style="opacity:0.784" fill="#734f39" d="M 45.5,132.5 C 43.7274,133.314 43.2274,134.648 44,136.5C 45.314,138.812 46.9806,140.812 49,142.5C 52.7883,139.966 54.2883,136.633 53.5,132.5C 54.3478,131.375 55.3478,131.375 56.5,132.5C 57.6129,133.946 57.7796,135.613 57,137.5C 54.1576,140.542 51.3243,143.542 48.5,146.5C 46.144,143.978 43.9773,141.312 42,138.5C 41.2042,135.961 41.3709,133.628 42.5,131.5C 45.0764,129.883 46.0764,130.217 45.5,132.5 Z"/></g>
<g><path style="opacity:1" fill="#621310" d="M 45.5,132.5 C 48.1667,132.5 50.8333,132.5 53.5,132.5C 54.2883,136.633 52.7883,139.966 49,142.5C 46.9806,140.812 45.314,138.812 44,136.5C 43.2274,134.648 43.7274,133.314 45.5,132.5 Z"/></g>
<g><path style="opacity:0.4" fill="#6f4d38" d="M 66.5,130.5 C 67.9468,131.134 68.6134,132.301 68.5,134C 65.9736,136.584 64.9736,139.75 65.5,143.5C 63.8333,143.5 62.1667,143.5 60.5,143.5C 61.5749,147.938 59.9083,149.938 55.5,149.5C 56.4177,154.495 54.4177,156.828 49.5,156.5C 50.1135,154.717 51.2802,153.384 53,152.5C 53.0781,150.343 53.2448,148.343 53.5,146.5C 55.0709,147.309 56.7376,147.643 58.5,147.5C 58.7711,145.179 58.1045,143.179 56.5,141.5C 58.7175,140.943 61.0509,140.943 63.5,141.5C 63.3899,137.39 64.3899,133.723 66.5,130.5 Z"/></g>
</svg>
