<?xml version="1.0" encoding="UTF-8"?>
<!DOCTYPE svg PUBLIC "-//W3C//DTD SVG 1.1//EN" "http://www.w3.org/Graphics/SVG/1.1/DTD/svg11.dtd">
<svg xmlns="http://www.w3.org/2000/svg" version="1.1" width="105px" height="161px" style="shape-rendering:geometricPrecision; text-rendering:geometricPrecision; image-rendering:optimizeQuality; fill-rule:evenodd; clip-rule:evenodd" xmlns:xlink="http://www.w3.org/1999/xlink">
<g><path style="opacity:0.007" fill="#926f50" d="M 33.5,-0.5 C 57.1667,-0.5 80.8333,-0.5 104.5,-0.5C 104.5,19.8333 104.5,40.1667 104.5,60.5C 103.07,60.5792 101.736,60.2458 100.5,59.5C 100.167,60.3333 99.8333,61.1667 99.5,62C 100.832,66.3312 102.165,70.6645 103.5,75C 102.66,81.4299 102.326,87.9299 102.5,94.5C 102.747,95.7133 103.414,96.38 104.5,96.5C 104.5,97.1667 104.5,97.8333 104.5,98.5C 103.173,99.8001 101.84,101.133 100.5,102.5C 98.9273,107.804 95.594,111.637 90.5,114C 85.313,120.014 79.313,125.18 72.5,129.5C 71.1638,134.712 69.9971,139.712 69,144.5C 65.4454,147.302 62.1121,150.302 59,153.5C 58.5899,154.901 58.0899,156.234 57.5,157.5C 57.2089,158.649 56.3756,159.316 55,159.5C 52.4219,159.318 51.9219,158.318 53.5,156.5C 55.1484,154.544 55.8151,152.211 55.5,149.5C 59.9083,149.938 61.5749,147.938 60.5,143.5C 62.1667,143.5 63.8333,143.5 65.5,143.5C 64.9736,139.75 65.9736,136.584 68.5,134C 68.3517,132.744 68.0184,131.577 67.5,130.5C 75.2974,124.579 83.1307,118.245 91,111.5C 95.5611,105.144 98.5611,98.144 100,90.5C 100.667,83.5 100.667,76.5 100,69.5C 97.1053,63.2184 94.272,56.885 91.5,50.5C 93.8056,50.0074 96.139,49.6741 98.5,49.5C 99.1437,44.2133 98.8104,38.8799 97.5,33.5C 95.057,31.9447 92.3903,31.278 89.5,31.5C 89.6602,29.8008 89.4935,28.1341 89,26.5C 86.6806,22.3572 84.1806,18.3572 81.5,14.5C 76.1988,12.0938 71.1988,12.4272 66.5,15.5C 65.8333,15.5 65.5,15.8333 65.5,16.5C 65.5,17.1667 65.5,17.8333 65.5,18.5C 65.5,19.8333 65.5,21.1667 65.5,22.5C 65.5,22.8333 65.5,23.1667 65.5,23.5C 64.8333,23.5 64.5,23.8333 64.5,24.5C 63.8333,24.5 63.1667,24.5 62.5,24.5C 62.1667,24.5 61.8333,24.5 61.5,24.5C 63.25,20.5818 62.5834,17.2485 59.5,14.5C 58.4324,13.5655 57.099,13.2322 55.5,13.5C 55.7271,11.0672 54.7271,9.40058 52.5,8.5C 52.573,6.97306 51.9063,5.97306 50.5,5.5C 49.2946,4.31434 47.9613,4.31434 46.5,5.5C 46.5654,5.06178 46.3988,4.72845 46,4.5C 44.8129,6.04442 44.4795,7.71109 45,9.5C 45.2784,8.5842 45.7784,7.91753 46.5,7.5C 46.8426,12.0411 46.8426,16.3744 46.5,20.5C 45.5849,18.2459 44.2516,16.2459 42.5,14.5C 42.1667,13.8333 41.8333,13.1667 41.5,12.5C 41.7151,11.266 41.0484,11.266 39.5,12.5C 38.8333,12.5 38.5,12.8333 38.5,13.5C 37.5041,13.4142 36.6708,13.7476 36,14.5C 35.2613,13.4258 34.2613,12.7591 33,12.5C 30.5,13.3333 28,14.1667 25.5,15C 24.7476,15.6708 24.4142,16.5041 24.5,17.5C 22.0882,17.6941 21.0882,19.0274 21.5,21.5C 20.2437,23.7257 20.2437,26.059 21.5,28.5C 19.2181,27.6103 16.8848,27.4436 14.5,28C 13.244,28.4169 12.5774,29.2502 12.5,30.5C 11.8333,30.5 11.5,30.8333 11.5,31.5C 7.9303,33.8966 7.59696,36.8966 10.5,40.5C 10.9569,41.2975 11.6236,41.6309 12.5,41.5C 11.2702,39.7028 10.6036,37.7028 10.5,35.5C 12.1638,37.4079 13.8305,39.4079 15.5,41.5C 12.8581,45.1484 10.1914,48.8151 7.5,52.5C 7.16667,52.5 6.83333,52.5 6.5,52.5C 5.69871,50.2071 5.03204,50.5404 4.5,53.5C 2.2729,54.4006 1.2729,56.0672 1.5,58.5C 0.833333,58.8333 0.166667,59.1667 -0.5,59.5C -0.5,43.1667 -0.5,26.8333 -0.5,10.5C 10.8333,10.5 22.1667,10.5 33.5,10.5C 33.5,6.83333 33.5,3.16667 33.5,-0.5 Z M 46.5,5.5 C 46.5,6.16667 46.5,6.83333 46.5,7.5C 45.7784,7.91753 45.2784,8.5842 45,9.5C 44.4795,7.71109 44.8129,6.04442 46,4.5C 46.3988,4.72845 46.5654,5.06178 46.5,5.5 Z M 38.5,13.5 C 37.6586,15.3792 37.3253,17.3792 37.5,19.5C 35.5,18.1667 33.5,16.8333 31.5,15.5C 30.5,15.5 29.5,15.5 28.5,15.5C 27.1667,16.1667 25.8333,16.8333 24.5,17.5C 24.4142,16.5041 24.7476,15.6708 25.5,15C 28,14.1667 30.5,13.3333 33,12.5C 34.2613,12.7591 35.2613,13.4258 36,14.5C 36.6708,13.7476 37.5041,13.4142 38.5,13.5 Z M 89.5,31.5 C 86.3,30.1604 82.6333,28.9937 78.5,28C 79.1667,27.3333 79.8333,26.6667 80.5,26C 78.5322,22.0401 75.8655,18.7068 72.5,16C 70.5273,15.5045 68.5273,15.3379 66.5,15.5C 71.1988,12.4272 76.1988,12.0938 81.5,14.5C 84.1806,18.3572 86.6806,22.3572 89,26.5C 89.4935,28.1341 89.6602,29.8008 89.5,31.5 Z M 24.5,17.5 C 24.2014,19.4553 23.2014,20.7886 21.5,21.5C 21.0882,19.0274 22.0882,17.6941 24.5,17.5 Z M 21.5,21.5 C 21.6741,23.861 22.0074,26.1944 22.5,28.5C 22.1667,28.5 21.8333,28.5 21.5,28.5C 20.2437,26.059 20.2437,23.7257 21.5,21.5 Z M 21.5,28.5 C 21.1583,29.3382 20.4916,29.6716 19.5,29.5C 18.1667,29.5 16.8333,29.5 15.5,29.5C 14.391,29.5569 13.391,29.8902 12.5,30.5C 12.5774,29.2502 13.244,28.4169 14.5,28C 16.8848,27.4436 19.2181,27.6103 21.5,28.5 Z M 11.5,31.5 C 11.1667,32.8333 10.8333,34.1667 10.5,35.5C 10.6036,37.7028 11.2702,39.7028 12.5,41.5C 11.6236,41.6309 10.9569,41.2975 10.5,40.5C 7.59696,36.8966 7.9303,33.8966 11.5,31.5 Z M 89.5,31.5 C 92.3903,31.278 95.057,31.9447 97.5,33.5C 98.8104,38.8799 99.1437,44.2133 98.5,49.5C 96.139,49.6741 93.8056,50.0074 91.5,50.5C 90.8825,48.7708 89.8825,47.2708 88.5,46C 89.9125,42.2958 90.9125,38.4624 91.5,34.5C 90.8075,33.4822 90.1408,32.4822 89.5,31.5 Z M 12.5,43.5 C 12.1667,44.5 11.5,45.1667 10.5,45.5C 10.5,44.1667 11.1667,43.5 12.5,43.5 Z M 6.5,52.5 C 5.83333,52.8333 5.16667,53.1667 4.5,53.5C 5.03204,50.5404 5.69871,50.2071 6.5,52.5 Z M 4.5,53.5 C 4.25027,55.674 3.25027,57.3406 1.5,58.5C 1.2729,56.0672 2.2729,54.4006 4.5,53.5 Z"/></g>
<g><path style="opacity:0.996" fill="#62100e" d="M 50.5,5.5 C 51.9063,5.97306 52.573,6.97306 52.5,8.5C 52.5,10.8333 52.5,13.1667 52.5,15.5C 51.6963,17.1887 50.6963,18.8554 49.5,20.5C 47.7191,15.972 47.2191,11.3053 48,6.5C 48.6708,5.74756 49.5041,5.41423 50.5,5.5 Z"/></g>
<g><path style="opacity:0.761" fill="#73533d" d="M 52.5,8.5 C 54.7271,9.40058 55.7271,11.0672 55.5,13.5C 57.099,13.2322 58.4324,13.5655 59.5,14.5C 57.302,14.1201 55.6354,14.7868 54.5,16.5C 53.0755,18.0311 52.4088,17.6977 52.5,15.5C 52.5,13.1667 52.5,10.8333 52.5,8.5 Z"/></g>
<g><path style="opacity:1" fill="#651c16" d="M 42.5,14.5 C 44.2516,16.2459 45.5849,18.2459 46.5,20.5C 46.4142,21.4959 46.7476,22.3292 47.5,23C 46.552,23.4828 45.552,23.6495 44.5,23.5C 43.1667,22.0665 41.6667,20.7332 40,19.5C 39.5065,17.8659 39.3398,16.1992 39.5,14.5C 40.5,14.5 41.5,14.5 42.5,14.5 Z"/></g>
<g><path style="opacity:0.035" fill="#876147" d="M 39.5,12.5 C 40.1667,12.5 40.8333,12.5 41.5,12.5C 41.8333,13.1667 42.1667,13.8333 42.5,14.5C 41.5,14.5 40.5,14.5 39.5,14.5C 39.3398,16.1992 39.5065,17.8659 40,19.5C 41.6667,20.7332 43.1667,22.0665 44.5,23.5C 44.5,23.8333 44.5,24.1667 44.5,24.5C 38.9363,24.2825 33.603,25.2825 28.5,27.5C 27.5581,27.3918 26.7247,27.0585 26,26.5C 24.5233,22.0022 26.0233,19.8355 30.5,20C 29.6634,21.0113 29.33,22.1779 29.5,23.5C 30.8221,23.67 31.9887,23.3366 33,22.5C 33.6004,19.9047 33.1004,17.5713 31.5,15.5C 33.5,16.8333 35.5,18.1667 37.5,19.5C 37.3253,17.3792 37.6586,15.3792 38.5,13.5C 39.1667,13.5 39.5,13.1667 39.5,12.5 Z"/></g>
<g><path style="opacity:0.44" fill="#79513b" d="M 50.5,5.5 C 49.5041,5.41423 48.6708,5.74756 48,6.5C 47.2191,11.3053 47.7191,15.972 49.5,20.5C 50.6963,18.8554 51.6963,17.1887 52.5,15.5C 52.4088,17.6977 53.0755,18.0311 54.5,16.5C 51.4062,24.0102 52.7395,25.0102 58.5,19.5C 59.4519,17.9547 59.7852,16.288 59.5,14.5C 62.5834,17.2485 63.25,20.5818 61.5,24.5C 56.5763,23.9621 52.5763,25.6288 49.5,29.5C 47.4788,28.1455 45.8121,26.4788 44.5,24.5C 44.5,24.1667 44.5,23.8333 44.5,23.5C 45.552,23.6495 46.552,23.4828 47.5,23C 46.7476,22.3292 46.4142,21.4959 46.5,20.5C 46.8426,16.3744 46.8426,12.0411 46.5,7.5C 46.5,6.83333 46.5,6.16667 46.5,5.5C 47.9613,4.31434 49.2946,4.31434 50.5,5.5 Z"/></g>
<g><path style="opacity:1" fill="#651914" d="M 59.5,14.5 C 59.7852,16.288 59.4519,17.9547 58.5,19.5C 52.7395,25.0102 51.4062,24.0102 54.5,16.5C 55.6354,14.7868 57.302,14.1201 59.5,14.5 Z"/></g>
<g><path style="opacity:0.047" fill="#876146" d="M 28.5,15.5 C 27.7934,17.1344 26.6268,18.4677 25,19.5C 22.134,25.0765 23.634,28.7431 29.5,30.5C 27.8103,32.5193 26.1436,34.5193 24.5,36.5C 22.6675,37.2485 21.0009,38.2485 19.5,39.5C 15.0917,39.938 13.4251,37.938 14.5,33.5C 16.8795,32.4331 17.8795,33.4331 17.5,36.5C 18.5,36.5 19.5,36.5 20.5,36.5C 20.702,34.0504 20.3686,31.717 19.5,29.5C 20.4916,29.6716 21.1583,29.3382 21.5,28.5C 21.8333,28.5 22.1667,28.5 22.5,28.5C 22.0074,26.1944 21.6741,23.861 21.5,21.5C 23.2014,20.7886 24.2014,19.4553 24.5,17.5C 25.8333,16.8333 27.1667,16.1667 28.5,15.5 Z"/></g>
<g><path style="opacity:0.839" fill="#69291f" d="M 28.5,15.5 C 29.5,15.5 30.5,15.5 31.5,15.5C 33.1004,17.5713 33.6004,19.9047 33,22.5C 31.9887,23.3366 30.8221,23.67 29.5,23.5C 29.33,22.1779 29.6634,21.0113 30.5,20C 26.0233,19.8355 24.5233,22.0022 26,26.5C 26.7247,27.0585 27.5581,27.3918 28.5,27.5C 33.603,25.2825 38.9363,24.2825 44.5,24.5C 45.8121,26.4788 47.4788,28.1455 49.5,29.5C 52.5763,25.6288 56.5763,23.9621 61.5,24.5C 61.8333,24.5 62.1667,24.5 62.5,24.5C 65.8259,27.55 69.3259,27.8834 73,25.5C 73.7049,21.7114 72.2049,19.3781 68.5,18.5C 68.4208,19.9305 68.7542,21.2638 69.5,22.5C 68.1916,23.6256 66.8583,23.6256 65.5,22.5C 65.5,21.1667 65.5,19.8333 65.5,18.5C 68.7046,15.9036 71.7046,16.2369 74.5,19.5C 76.8617,24.9871 75.195,28.6538 69.5,30.5C 72.0222,33.1878 74.3555,36.0211 76.5,39C 81.8353,40.1667 84.1686,38.0001 83.5,32.5C 82.5,32.5 81.5,32.5 80.5,32.5C 80.5,33.5 80.5,34.5 80.5,35.5C 79.5,35.5 78.5,35.5 77.5,35.5C 77.0826,30.9315 79.0826,29.4315 83.5,31C 85.4439,33.1529 85.9439,35.6529 85,38.5C 83.3506,39.8845 82.1839,41.5512 81.5,43.5C 80.8333,43.5 80.1667,43.5 79.5,43.5C 77.4451,41.4453 75.1117,39.7787 72.5,38.5C 62.0802,32.1496 50.7468,29.983 38.5,32C 34.5885,33.7913 30.5885,35.2913 26.5,36.5C 25.8333,36.5 25.1667,36.5 24.5,36.5C 26.1436,34.5193 27.8103,32.5193 29.5,30.5C 23.634,28.7431 22.134,25.0765 25,19.5C 26.6268,18.4677 27.7934,17.1344 28.5,15.5 Z"/></g>
<g><path style="opacity:0.22" fill="#825f45" d="M 55.5,26.5 C 60.0218,25.6203 63.3552,27.1203 65.5,31C 65.1667,31.5 64.8333,32 64.5,32.5C 60.717,30.9763 56.717,29.9763 52.5,29.5C 53.7701,28.7124 54.7701,27.7124 55.5,26.5 Z"/></g>
<g><path style="opacity:0.206" fill="#7d5a41" d="M 37.5,26.5 C 41.0798,25.9228 44.0798,26.9228 46.5,29.5C 42.8261,30.2325 39.1594,30.8992 35.5,31.5C 34.4173,30.635 34.2506,29.635 35,28.5C 35.9947,27.9341 36.828,27.2674 37.5,26.5 Z"/></g>
<g><path style="opacity:0.169" fill="#7e5a41" d="M 62.5,24.5 C 63.1667,24.5 63.8333,24.5 64.5,24.5C 65.1667,24.5 65.5,24.1667 65.5,23.5C 65.5,23.1667 65.5,22.8333 65.5,22.5C 66.8583,23.6256 68.1916,23.6256 69.5,22.5C 68.7542,21.2638 68.4208,19.9305 68.5,18.5C 72.2049,19.3781 73.7049,21.7114 73,25.5C 69.3259,27.8834 65.8259,27.55 62.5,24.5 Z"/></g>
<g><path style="opacity:0.94" fill="#6b221b" d="M 15.5,29.5 C 16.8333,29.5 18.1667,29.5 19.5,29.5C 20.3686,31.717 20.702,34.0504 20.5,36.5C 19.5,36.5 18.5,36.5 17.5,36.5C 17.8795,33.4331 16.8795,32.4331 14.5,33.5C 14.8333,32.1667 15.1667,30.8333 15.5,29.5 Z"/></g>
<g><path style="opacity:1" fill="#150d04" d="M 62.5,43.5 C 60.4816,42.3775 58.4816,42.3775 56.5,43.5C 55.4718,41.4197 54.1385,41.0864 52.5,42.5C 47.911,38.7676 43.2443,38.7676 38.5,42.5C 38.1667,42.3333 37.8333,42.1667 37.5,42C 39.6157,40.8293 40.2824,39.3293 39.5,37.5C 37.3826,39.8308 34.716,40.9974 31.5,41C 29.8603,42.3946 28.3603,43.8946 27,45.5C 26.5831,44.244 25.7498,43.5774 24.5,43.5C 25.2279,41.2654 26.5612,39.4321 28.5,38C 32.058,36.6377 35.558,35.1377 39,33.5C 44.4517,34.0663 49.9517,34.0663 55.5,33.5C 55.281,34.675 55.6143,35.675 56.5,36.5C 57.6951,38.297 59.3618,39.297 61.5,39.5C 61.4326,40.9587 61.7659,42.2921 62.5,43.5 Z"/></g>
<g><path style="opacity:0.943" fill="#75382a" d="M 15.5,29.5 C 15.1667,30.8333 14.8333,32.1667 14.5,33.5C 13.4251,37.938 15.0917,39.938 19.5,39.5C 18.1667,40.1667 16.8333,40.8333 15.5,41.5C 13.8305,39.4079 12.1638,37.4079 10.5,35.5C 10.8333,34.1667 11.1667,32.8333 11.5,31.5C 12.1667,31.5 12.5,31.1667 12.5,30.5C 13.391,29.8902 14.391,29.5569 15.5,29.5 Z"/></g>
<g><path style="opacity:1" fill="#1c1106" d="M 72.5,38.5 C 75.1117,39.7787 77.4451,41.4453 79.5,43.5C 82.9653,46.6251 85.6319,50.2917 87.5,54.5C 85.9907,53.1405 85.324,53.6405 85.5,56C 86.0215,58.2101 86.6882,60.3768 87.5,62.5C 87.1217,64.7165 86.455,66.7165 85.5,68.5C 84.8694,64.1962 84.3694,59.8629 84,55.5C 82.9417,52.2742 80.7751,50.2742 77.5,49.5C 76.2825,48.8386 74.9492,48.1719 73.5,47.5C 72.6162,43.5321 70.9495,42.8654 68.5,45.5C 67.5423,44.0384 66.3756,42.7051 65,41.5C 64.5078,42.549 64.6744,43.549 65.5,44.5C 64.7435,45.7733 64.0768,45.7733 63.5,44.5C 63.5,44.1667 63.5,43.8333 63.5,43.5C 63.3377,40.3403 62.0043,37.8403 59.5,36C 63.0303,36.0272 66.3637,36.8606 69.5,38.5C 69.5,39.5 69.5,40.5 69.5,41.5C 70.5,41.5 71.5,41.5 72.5,41.5C 72.5,40.5 72.5,39.5 72.5,38.5 Z"/></g>
<g><path style="opacity:1" fill="#402711" d="M 62.5,43.5 C 62.8333,43.5 63.1667,43.5 63.5,43.5C 63.5,43.8333 63.5,44.1667 63.5,44.5C 61.7986,45.2114 60.7986,46.5447 60.5,48.5C 57.6354,48.0548 55.1354,48.7215 53,50.5C 52.516,48.8067 53.016,47.4733 54.5,46.5C 55.2891,46.2172 55.9558,45.7172 56.5,45C 54.1902,44.5034 51.8568,44.3367 49.5,44.5C 50.5,43.8333 51.5,43.1667 52.5,42.5C 54.1385,41.0864 55.4718,41.4197 56.5,43.5C 58.4816,42.3775 60.4816,42.3775 62.5,43.5 Z"/></g>
<g><path style="opacity:1" fill="#513819" d="M 49.5,44.5 C 51.8568,44.3367 54.1902,44.5034 56.5,45C 55.9558,45.7172 55.2891,46.2172 54.5,46.5C 54.1034,45.475 53.4368,45.3083 52.5,46C 49.7885,49.7671 46.6219,49.9338 43,46.5C 42.7645,48.1193 41.9311,49.1193 40.5,49.5C 39.3478,48.375 38.3478,48.375 37.5,49.5C 35.8333,48.1667 34.1667,48.1667 32.5,49.5C 31.5655,48.4324 31.2322,47.099 31.5,45.5C 32.9305,45.4208 34.2638,45.7542 35.5,46.5C 39.1667,45.1667 42.8333,43.8333 46.5,42.5C 46.8333,42.6667 47.1667,42.8333 47.5,43C 44.701,48.238 45.3676,48.738 49.5,44.5 Z"/></g>
<g><path style="opacity:1" fill="#0e0705" d="M 72.5,38.5 C 72.5,39.5 72.5,40.5 72.5,41.5C 71.5,41.5 70.5,41.5 69.5,41.5C 69.5,40.5 69.5,39.5 69.5,38.5C 66.3637,36.8606 63.0303,36.0272 59.5,36C 62.0043,37.8403 63.3377,40.3403 63.5,43.5C 63.1667,43.5 62.8333,43.5 62.5,43.5C 61.7659,42.2921 61.4326,40.9587 61.5,39.5C 59.3618,39.297 57.6951,38.297 56.5,36.5C 55.6143,35.675 55.281,34.675 55.5,33.5C 49.9517,34.0663 44.4517,34.0663 39,33.5C 35.558,35.1377 32.058,36.6377 28.5,38C 26.5612,39.4321 25.2279,41.2654 24.5,43.5C 23.0003,45.1786 21.167,46.5119 19,47.5C 16.3291,52.2105 14.4958,57.2105 13.5,62.5C 13.5195,63.7261 13.8529,64.7261 14.5,65.5C 15.625,66.6522 15.625,67.6522 14.5,68.5C 10.8254,68.5003 8.15871,70.167 6.5,73.5C 5.68052,76.3054 5.18052,79.3054 5,82.5C 4.32924,81.7476 3.4959,81.4142 2.5,81.5C 1.60541,73.9308 2.93875,66.9308 6.5,60.5C 7.46739,61.8062 8.80072,62.4729 10.5,62.5C 10.7244,58.8212 11.0578,55.1545 11.5,51.5C 15.5273,45.4727 20.5273,40.4727 26.5,36.5C 30.5885,35.2913 34.5885,33.7913 38.5,32C 50.7468,29.983 62.0802,32.1496 72.5,38.5 Z"/></g>
<g><path style="opacity:1" fill="#211507" d="M 52.5,42.5 C 51.5,43.1667 50.5,43.8333 49.5,44.5C 45.3676,48.738 44.701,48.238 47.5,43C 47.1667,42.8333 46.8333,42.6667 46.5,42.5C 42.8333,43.8333 39.1667,45.1667 35.5,46.5C 34.2638,45.7542 32.9305,45.4208 31.5,45.5C 31.2322,47.099 31.5655,48.4324 32.5,49.5C 32.5,50.1667 32.5,50.8333 32.5,51.5C 31.5,51.5 30.5,51.5 29.5,51.5C 29.5,50.1667 29.5,48.8333 29.5,47.5C 27.0268,47.736 25.3601,49.0693 24.5,51.5C 25.09,52.7989 26.09,53.6322 27.5,54C 25.0641,53.9466 22.7308,54.1133 20.5,54.5C 18.8148,57.048 19.1481,59.048 21.5,60.5C 22.1667,60.5 22.5,60.8333 22.5,61.5C 22.5,61.8333 22.5,62.1667 22.5,62.5C 21.8333,62.5 21.5,62.8333 21.5,63.5C 19.6469,66.0217 17.6469,66.0217 15.5,63.5C 14.7025,63.9569 14.3691,64.6236 14.5,65.5C 13.8529,64.7261 13.5195,63.7261 13.5,62.5C 14.4958,57.2105 16.3291,52.2105 19,47.5C 21.167,46.5119 23.0003,45.1786 24.5,43.5C 25.7498,43.5774 26.5831,44.244 27,45.5C 28.3603,43.8946 29.8603,42.3946 31.5,41C 34.716,40.9974 37.3826,39.8308 39.5,37.5C 40.2824,39.3293 39.6157,40.8293 37.5,42C 37.8333,42.1667 38.1667,42.3333 38.5,42.5C 43.2443,38.7676 47.911,38.7676 52.5,42.5 Z"/></g>
<g><path style="opacity:0.867" fill="#561613" d="M 79.5,43.5 C 80.1667,43.5 80.8333,43.5 81.5,43.5C 88.21,49.5413 92.8767,56.8746 95.5,65.5C 95.366,67.2915 95.6993,68.9582 96.5,70.5C 96.6231,77.5293 96.2897,84.5293 95.5,91.5C 94.8333,91.5 94.5,91.8333 94.5,92.5C 93.0001,93.6252 91.6668,94.9586 90.5,96.5C 91.1667,94.1667 91.8333,91.8333 92.5,89.5C 94.3818,88.779 94.7152,87.779 93.5,86.5C 95.0808,84.8583 95.7475,82.8583 95.5,80.5C 95.5,78.5 95.5,76.5 95.5,74.5C 95.2178,73.2223 94.5511,72.2223 93.5,71.5C 93.1647,65.111 91.1647,59.4443 87.5,54.5C 85.6319,50.2917 82.9653,46.6251 79.5,43.5 Z"/></g>
<g><path style="opacity:1" fill="#553b1b" d="M 68.5,45.5 C 70.3582,47.8831 71.6916,50.5498 72.5,53.5C 69.6272,51.6453 66.6272,51.312 63.5,52.5C 63.2624,50.5956 62.2624,49.2623 60.5,48.5C 60.7986,46.5447 61.7986,45.2114 63.5,44.5C 64.0768,45.7733 64.7435,45.7733 65.5,44.5C 64.6744,43.549 64.5078,42.549 65,41.5C 66.3756,42.7051 67.5423,44.0384 68.5,45.5 Z"/></g>
<g><path style="opacity:1" fill="#39230d" d="M 77.5,49.5 C 76.1529,50.1712 74.9862,50.1712 74,49.5C 73.8019,51.3817 73.3019,53.0484 72.5,54.5C 72.5,54.1667 72.5,53.8333 72.5,53.5C 71.6916,50.5498 70.3582,47.8831 68.5,45.5C 70.9495,42.8654 72.6162,43.5321 73.5,47.5C 74.9492,48.1719 76.2825,48.8386 77.5,49.5 Z"/></g>
<g><path style="opacity:1" fill="#98804c" d="M 40.5,49.5 C 42.1667,50.1667 43.8333,50.8333 45.5,51.5C 44.1266,51.3433 42.7932,51.51 41.5,52C 42.056,52.3826 42.3893,52.8826 42.5,53.5C 40.2512,52.9202 38.5846,51.5869 37.5,49.5C 38.3478,48.375 39.3478,48.375 40.5,49.5 Z"/></g>
<g><path style="opacity:1" fill="#7c5437" d="M 29.5,51.5 C 30.5,51.5 31.5,51.5 32.5,51.5C 34.099,51.2322 35.4324,51.5655 36.5,52.5C 33.3855,52.3939 30.7188,53.3939 28.5,55.5C 28.2322,53.901 28.5655,52.5676 29.5,51.5 Z"/></g>
<g><path style="opacity:1" fill="#7c5931" d="M 54.5,46.5 C 53.016,47.4733 52.516,48.8067 53,50.5C 55.1354,48.7215 57.6354,48.0548 60.5,48.5C 62.2624,49.2623 63.2624,50.5956 63.5,52.5C 62.5,52.5 61.5,52.5 60.5,52.5C 60.1667,52.5 59.8333,52.5 59.5,52.5C 57.9982,49.9781 56.6649,49.9781 55.5,52.5C 54.5,53.1667 53.5,53.8333 52.5,54.5C 52.2648,53.9033 51.7648,53.5699 51,53.5C 49.9889,54.0556 49.1556,54.7222 48.5,55.5C 48.2624,53.5956 47.2624,52.2623 45.5,51.5C 43.8333,50.8333 42.1667,50.1667 40.5,49.5C 41.9311,49.1193 42.7645,48.1193 43,46.5C 46.6219,49.9338 49.7885,49.7671 52.5,46C 53.4368,45.3083 54.1034,45.475 54.5,46.5 Z"/></g>
<g><path style="opacity:1" fill="#b08a74" d="M 59.5,52.5 C 58.1667,52.5 56.8333,52.5 55.5,52.5C 56.6649,49.9781 57.9982,49.9781 59.5,52.5 Z"/></g>
<g><path style="opacity:1" fill="#b5a37a" d="M 45.5,51.5 C 47.2624,52.2623 48.2624,53.5956 48.5,55.5C 46.3146,55.2964 44.3146,54.6298 42.5,53.5C 42.3893,52.8826 42.056,52.3826 41.5,52C 42.7932,51.51 44.1266,51.3433 45.5,51.5 Z"/></g>
<g><path style="opacity:1" fill="#59301a" d="M 37.5,49.5 C 38.5846,51.5869 40.2512,52.9202 42.5,53.5C 44.3146,54.6298 46.3146,55.2964 48.5,55.5C 49.1556,54.7222 49.9889,54.0556 51,53.5C 51.7648,53.5699 52.2648,53.9033 52.5,54.5C 52.5,54.8333 52.5,55.1667 52.5,55.5C 50.8439,56.1465 49.1772,56.8131 47.5,57.5C 46.4163,57.315 45.4163,56.9817 44.5,56.5C 43.5,56.5 42.5,56.5 41.5,56.5C 41.1583,55.6618 40.4916,55.3284 39.5,55.5C 38.8333,54.1667 37.8333,53.1667 36.5,52.5C 35.4324,51.5655 34.099,51.2322 32.5,51.5C 32.5,50.8333 32.5,50.1667 32.5,49.5C 34.1667,48.1667 35.8333,48.1667 37.5,49.5 Z"/></g>
<g><path style="opacity:1" fill="#a87c61" d="M 60.5,52.5 C 61.5,52.5 62.5,52.5 63.5,52.5C 64.1667,53.1667 64.8333,53.8333 65.5,54.5C 64.5,54.5 63.5,54.5 62.5,54.5C 61.5,54.1667 60.8333,53.5 60.5,52.5 Z"/></g>
<g><path style="opacity:1" fill="#7b532b" d="M 72.5,53.5 C 72.5,53.8333 72.5,54.1667 72.5,54.5C 72.5,54.8333 72.5,55.1667 72.5,55.5C 70.8828,56.038 69.2161,56.3713 67.5,56.5C 66.8333,55.8333 66.1667,55.1667 65.5,54.5C 64.8333,53.8333 64.1667,53.1667 63.5,52.5C 66.6272,51.312 69.6272,51.6453 72.5,53.5 Z"/></g>
<g><path style="opacity:1" fill="#3f2a13" d="M 77.5,49.5 C 80.7751,50.2742 82.9417,52.2742 84,55.5C 84.3694,59.8629 84.8694,64.1962 85.5,68.5C 85.5,69.1667 85.5,69.8333 85.5,70.5C 85.5,71.1667 85.1667,71.5 84.5,71.5C 84.0371,68.5176 83.7038,65.5176 83.5,62.5C 82.5266,60.5531 81.5266,58.5531 80.5,56.5C 78.5914,57.3482 76.5914,57.6816 74.5,57.5C 73.8333,56.8333 73.1667,56.1667 72.5,55.5C 72.5,55.1667 72.5,54.8333 72.5,54.5C 73.3019,53.0484 73.8019,51.3817 74,49.5C 74.9862,50.1712 76.1529,50.1712 77.5,49.5 Z"/></g>
<g><path style="opacity:1" fill="#271c10" d="M 11.5,51.5 C 11.0578,55.1545 10.7244,58.8212 10.5,62.5C 8.80072,62.4729 7.46739,61.8062 6.5,60.5C 7.77383,57.2402 9.4405,54.2402 11.5,51.5 Z"/></g>
<g><path style="opacity:1" fill="#3c2812" d="M 29.5,51.5 C 28.5655,52.5676 28.2322,53.901 28.5,55.5C 25.4765,55.5175 22.8099,56.5175 20.5,58.5C 20.8627,59.1835 21.1961,59.8501 21.5,60.5C 19.1481,59.048 18.8148,57.048 20.5,54.5C 22.7308,54.1133 25.0641,53.9466 27.5,54C 26.09,53.6322 25.09,52.7989 24.5,51.5C 25.3601,49.0693 27.0268,47.736 29.5,47.5C 29.5,48.8333 29.5,50.1667 29.5,51.5 Z"/></g>
<g><path style="opacity:1" fill="#d2c7cd" d="M 55.5,52.5 C 56.8333,52.5 58.1667,52.5 59.5,52.5C 59.8333,52.5 60.1667,52.5 60.5,52.5C 60.8333,53.5 61.5,54.1667 62.5,54.5C 63.3984,55.1577 64.3984,55.8243 65.5,56.5C 62.3442,58.9554 59.3442,58.9554 56.5,56.5C 54.8632,57.2178 53.1966,57.3845 51.5,57C 52.056,56.6174 52.3893,56.1174 52.5,55.5C 52.5,55.1667 52.5,54.8333 52.5,54.5C 53.5,53.8333 54.5,53.1667 55.5,52.5 Z"/></g>
<g><path style="opacity:1" fill="#caafa0" d="M 39.5,55.5 C 40.4916,55.3284 41.1583,55.6618 41.5,56.5C 39.712,56.2148 38.0453,56.5481 36.5,57.5C 37.9935,58.1411 38.9935,59.1411 39.5,60.5C 39.1667,60.5 38.8333,60.5 38.5,60.5C 35.7131,59.5233 32.7131,59.19 29.5,59.5C 30.8062,58.5326 31.4729,57.1993 31.5,55.5C 34.1667,55.5 36.8333,55.5 39.5,55.5 Z"/></g>
<g><path style="opacity:1" fill="#dccfd6" d="M 41.5,56.5 C 42.5,56.5 43.5,56.5 44.5,56.5C 43.7206,58.677 42.3873,60.3437 40.5,61.5C 39.8333,61.5 39.5,61.1667 39.5,60.5C 38.9935,59.1411 37.9935,58.1411 36.5,57.5C 38.0453,56.5481 39.712,56.2148 41.5,56.5 Z"/></g>
<g><path style="opacity:1" fill="#63401e" d="M 83.5,62.5 C 82.5041,62.4142 81.6708,62.7476 81,63.5C 80.6664,65.8473 80.833,68.1806 81.5,70.5C 79.6866,68.9468 77.8533,67.2801 76,65.5C 75.79,63.9419 75.29,62.6085 74.5,61.5C 74.5,60.1667 74.5,58.8333 74.5,57.5C 76.5914,57.6816 78.5914,57.3482 80.5,56.5C 81.5266,58.5531 82.5266,60.5531 83.5,62.5 Z"/></g>
<g><path style="opacity:1" fill="#cbaa92" d="M 52.5,55.5 C 52.3893,56.1174 52.056,56.6174 51.5,57C 53.1966,57.3845 54.8632,57.2178 56.5,56.5C 56.0629,58.0744 55.0629,59.2411 53.5,60C 50.8333,60.3333 48.1667,60.6667 45.5,61C 44.2264,61.9772 44.2264,62.8106 45.5,63.5C 45.9528,64.4584 46.6195,65.2917 47.5,66C 45.8925,65.9813 44.2259,65.8146 42.5,65.5C 42.5,64.8333 42.1667,64.5 41.5,64.5C 41.4431,63.391 41.1098,62.391 40.5,61.5C 42.3873,60.3437 43.7206,58.677 44.5,56.5C 45.4163,56.9817 46.4163,57.315 47.5,57.5C 49.1772,56.8131 50.8439,56.1465 52.5,55.5 Z"/></g>
<g><path style="opacity:1" fill="#9c7d67" d="M 72.5,55.5 C 73.1667,56.1667 73.8333,56.8333 74.5,57.5C 74.5,58.8333 74.5,60.1667 74.5,61.5C 72.6543,59.0836 70.3209,57.4169 67.5,56.5C 69.2161,56.3713 70.8828,56.038 72.5,55.5 Z"/></g>
<g><path style="opacity:1" fill="#7f583c" d="M 28.5,55.5 C 27.791,56.404 26.791,56.7373 25.5,56.5C 25.7271,58.9328 24.7271,60.5994 22.5,61.5C 22.5,60.8333 22.1667,60.5 21.5,60.5C 21.1961,59.8501 20.8627,59.1835 20.5,58.5C 22.8099,56.5175 25.4765,55.5175 28.5,55.5 Z"/></g>
<g><path style="opacity:1" fill="#ae8f80" d="M 36.5,52.5 C 37.8333,53.1667 38.8333,54.1667 39.5,55.5C 36.8333,55.5 34.1667,55.5 31.5,55.5C 31.4729,57.1993 30.8062,58.5326 29.5,59.5C 28.5,59.8333 27.8333,60.5 27.5,61.5C 25.6053,62.973 23.9387,64.6397 22.5,66.5C 22.5,65.1667 22.5,63.8333 22.5,62.5C 22.5,62.1667 22.5,61.8333 22.5,61.5C 24.7271,60.5994 25.7271,58.9328 25.5,56.5C 26.791,56.7373 27.791,56.404 28.5,55.5C 30.7188,53.3939 33.3855,52.3939 36.5,52.5 Z"/></g>
<g><path style="opacity:1" fill="#b1915e" d="M 29.5,59.5 C 32.7131,59.19 35.7131,59.5233 38.5,60.5C 35.9407,60.1984 33.6074,60.5318 31.5,61.5C 30.1667,61.5 28.8333,61.5 27.5,61.5C 27.8333,60.5 28.5,59.8333 29.5,59.5 Z"/></g>
<g><path style="opacity:1" fill="#a78a58" d="M 73.5,64.5 C 73.5,64.8333 73.5,65.1667 73.5,65.5C 69.2602,60.7104 63.9268,59.2104 57.5,61C 56.2949,62.3756 54.9616,63.5423 53.5,64.5C 55.0161,60.0648 58.1828,58.3982 63,59.5C 67.8739,58.4566 71.3739,60.1232 73.5,64.5 Z"/></g>
<g><path style="opacity:1" fill="#8a6733" d="M 31.5,61.5 C 33.6074,60.5318 35.9407,60.1984 38.5,60.5C 38.8333,60.5 39.1667,60.5 39.5,60.5C 39.5,61.1667 39.8333,61.5 40.5,61.5C 41.1098,62.391 41.4431,63.391 41.5,64.5C 40.3951,63.3995 39.0618,62.7329 37.5,62.5C 35.7354,61.5386 33.7354,61.2053 31.5,61.5 Z"/></g>
<g><path style="opacity:1" fill="#cdb0a3" d="M 62.5,54.5 C 63.5,54.5 64.5,54.5 65.5,54.5C 66.1667,55.1667 66.8333,55.8333 67.5,56.5C 70.3209,57.4169 72.6543,59.0836 74.5,61.5C 74.7373,62.791 74.404,63.791 73.5,64.5C 71.3739,60.1232 67.8739,58.4566 63,59.5C 58.1828,58.3982 55.0161,60.0648 53.5,64.5C 53.56,65.0431 53.8933,65.3764 54.5,65.5C 55.5178,64.8075 56.5178,64.1408 57.5,63.5C 58.8333,63.5 59.5,64.1667 59.5,65.5C 57.8333,66.5 56.5,67.8333 55.5,69.5C 53.0393,70.3049 50.706,69.9715 48.5,68.5C 52.6246,68.2774 53.2912,66.7774 50.5,64C 51.7414,62.5135 51.2414,61.6801 49,61.5C 47.3009,61.3866 46.1342,62.0532 45.5,63.5C 44.2264,62.8106 44.2264,61.9772 45.5,61C 48.1667,60.6667 50.8333,60.3333 53.5,60C 55.0629,59.2411 56.0629,58.0744 56.5,56.5C 59.3442,58.9554 62.3442,58.9554 65.5,56.5C 64.3984,55.8243 63.3984,55.1577 62.5,54.5 Z"/></g>
<g><path style="opacity:1" fill="#816335" d="M 27.5,61.5 C 28.8333,61.5 30.1667,61.5 31.5,61.5C 30.3915,62.29 29.0581,62.79 27.5,63C 26.7476,63.6708 26.4142,64.5041 26.5,65.5C 26.5,65.8333 26.5,66.1667 26.5,66.5C 25.3263,67.5137 24.6596,68.847 24.5,70.5C 23.8333,70.8333 23.1667,71.1667 22.5,71.5C 22.5,69.8333 22.5,68.1667 22.5,66.5C 23.9387,64.6397 25.6053,62.973 27.5,61.5 Z"/></g>
<g><path style="opacity:1" fill="#5f3518" d="M 31.5,61.5 C 33.7354,61.2053 35.7354,61.5386 37.5,62.5C 35.2188,62.0773 33.5521,62.744 32.5,64.5C 30.3792,64.3253 28.3792,64.6586 26.5,65.5C 26.4142,64.5041 26.7476,63.6708 27.5,63C 29.0581,62.79 30.3915,62.29 31.5,61.5 Z"/></g>
<g><path style="opacity:1" fill="#88492b" d="M 32.5,64.5 C 33.5,64.5 34.5,64.5 35.5,64.5C 36.5,65.1667 37.5,65.8333 38.5,66.5C 39.0906,67.1515 39.7573,67.8182 40.5,68.5C 40.0431,69.2975 39.3764,69.6309 38.5,69.5C 38.1667,68.5 37.5,67.8333 36.5,67.5C 34.7354,66.5386 32.7354,66.2053 30.5,66.5C 29.1667,66.5 27.8333,66.5 26.5,66.5C 26.5,66.1667 26.5,65.8333 26.5,65.5C 28.3792,64.6586 30.3792,64.3253 32.5,64.5 Z"/></g>
<g><path style="opacity:1" fill="#dfcfcf" d="M 48.5,68.5 C 45.6798,68.913 43.6798,67.913 42.5,65.5C 44.2259,65.8146 45.8925,65.9813 47.5,66C 46.6195,65.2917 45.9528,64.4584 45.5,63.5C 46.1342,62.0532 47.3009,61.3866 49,61.5C 51.2414,61.6801 51.7414,62.5135 50.5,64C 53.2912,66.7774 52.6246,68.2774 48.5,68.5 Z"/></g>
<g><path style="opacity:1" fill="#795231" d="M 73.5,65.5 C 73.5,66.1667 73.1667,66.5 72.5,66.5C 71.3734,65.8783 70.3734,65.045 69.5,64C 66.1392,63.6633 62.8058,63.1633 59.5,62.5C 58.5836,62.5427 57.9169,62.8761 57.5,63.5C 56.5178,64.1408 55.5178,64.8075 54.5,65.5C 53.8933,65.3764 53.56,65.0431 53.5,64.5C 54.9616,63.5423 56.2949,62.3756 57.5,61C 63.9268,59.2104 69.2602,60.7104 73.5,65.5 Z"/></g>
<g><path style="opacity:0.271" fill="#895c43" d="M 6.5,52.5 C 6.83333,52.5 7.16667,52.5 7.5,52.5C 3.61162,58.7637 0.944951,65.4303 -0.5,72.5C -0.5,69.8333 -0.5,67.1667 -0.5,64.5C 1.07394,62.8984 1.74061,60.8984 1.5,58.5C 3.25027,57.3406 4.25027,55.674 4.5,53.5C 5.16667,53.1667 5.83333,52.8333 6.5,52.5 Z"/></g>
<g><path style="opacity:1" fill="#482b18" d="M 21.5,63.5 C 21.5,64.5 21.5,65.5 21.5,66.5C 20.5,66.5 19.5,66.5 18.5,66.5C 17.5028,66.4701 16.8361,66.9701 16.5,68C 18.1109,70.2097 18.7776,72.7097 18.5,75.5C 17.4488,73.0713 16.1155,70.738 14.5,68.5C 15.625,67.6522 15.625,66.6522 14.5,65.5C 14.3691,64.6236 14.7025,63.9569 15.5,63.5C 17.6469,66.0217 19.6469,66.0217 21.5,63.5 Z"/></g>
<g><path style="opacity:1" fill="#a58e87" d="M 35.5,64.5 C 37.456,63.1988 39.1226,63.6988 40.5,66C 39.9056,66.4643 39.2389,66.631 38.5,66.5C 37.5,65.8333 36.5,65.1667 35.5,64.5 Z"/></g>
<g><path style="opacity:1" fill="#b88868" d="M 26.5,66.5 C 27.8333,66.5 29.1667,66.5 30.5,66.5C 28.8525,68.3264 26.8525,69.6597 24.5,70.5C 24.6596,68.847 25.3263,67.5137 26.5,66.5 Z"/></g>
<g><path style="opacity:1" fill="#8e6851" d="M 37.5,62.5 C 39.0618,62.7329 40.3951,63.3995 41.5,64.5C 41.9746,67.0821 41.3079,69.0821 39.5,70.5C 38.8333,70.5 38.5,70.1667 38.5,69.5C 39.3764,69.6309 40.0431,69.2975 40.5,68.5C 39.7573,67.8182 39.0906,67.1515 38.5,66.5C 39.2389,66.631 39.9056,66.4643 40.5,66C 39.1226,63.6988 37.456,63.1988 35.5,64.5C 34.5,64.5 33.5,64.5 32.5,64.5C 33.5521,62.744 35.2188,62.0773 37.5,62.5 Z"/></g>
<g><path style="opacity:1" fill="#954d27" d="M 59.5,65.5 C 61.9935,65.1307 62.6602,65.7973 61.5,67.5C 59.8333,68.5 58.5,69.8333 57.5,71.5C 56.1667,71.5 55.5,70.8333 55.5,69.5C 56.5,67.8333 57.8333,66.5 59.5,65.5 Z"/></g>
<g><path style="opacity:1" fill="#927058" d="M 74.5,61.5 C 75.29,62.6085 75.79,63.9419 76,65.5C 77.8533,67.2801 79.6866,68.9468 81.5,70.5C 81.5,71.5 81.5,72.5 81.5,73.5C 80.8333,73.5 80.5,73.8333 80.5,74.5C 78.1249,72.9339 76.9582,70.6006 77,67.5C 76.7508,68.624 76.2508,69.624 75.5,70.5C 74.8933,70.3764 74.56,70.0431 74.5,69.5C 73.8333,68.5 73.1667,67.5 72.5,66.5C 73.1667,66.5 73.5,66.1667 73.5,65.5C 73.5,65.1667 73.5,64.8333 73.5,64.5C 74.404,63.791 74.7373,62.791 74.5,61.5 Z"/></g>
<g><path style="opacity:1" fill="#100907" d="M 87.5,54.5 C 91.1647,59.4443 93.1647,65.111 93.5,71.5C 91.1216,69.2433 88.4549,68.91 85.5,70.5C 85.5,69.8333 85.5,69.1667 85.5,68.5C 86.455,66.7165 87.1217,64.7165 87.5,62.5C 86.6882,60.3768 86.0215,58.2101 85.5,56C 85.324,53.6405 85.9907,53.1405 87.5,54.5 Z"/></g>
<g><path style="opacity:1" fill="#eeebf2" d="M 33.5,68.5 C 34.209,67.596 35.209,67.2627 36.5,67.5C 36.4142,68.4959 36.7476,69.3292 37.5,70C 36.9056,70.4643 36.2389,70.631 35.5,70.5C 35.1667,69.5 34.5,68.8333 33.5,68.5 Z"/></g>
<g><path style="opacity:1" fill="#c6aca5" d="M 70.5,70.5 C 68.358,69.5371 66.358,69.8704 64.5,71.5C 63.1667,72.1667 63.1667,72.8333 64.5,73.5C 64.5,73.8333 64.5,74.1667 64.5,74.5C 63.6236,74.3691 62.9569,74.7025 62.5,75.5C 63.6016,76.1757 64.6016,76.8423 65.5,77.5C 64.1667,77.5 62.8333,77.5 61.5,77.5C 61.2865,75.8561 61.6198,74.3561 62.5,73C 60.7525,72.6481 59.0858,72.1481 57.5,71.5C 58.5,69.8333 59.8333,68.5 61.5,67.5C 63.7819,66.6103 66.1152,66.4436 68.5,67C 69.8228,67.8159 70.4894,68.9826 70.5,70.5 Z"/></g>
<g><path style="opacity:1" fill="#bb9376" d="M 57.5,63.5 C 57.9169,62.8761 58.5836,62.5427 59.5,62.5C 62.8058,63.1633 66.1392,63.6633 69.5,64C 70.3734,65.045 71.3734,65.8783 72.5,66.5C 73.1667,67.5 73.8333,68.5 74.5,69.5C 73.8333,69.5 73.5,69.8333 73.5,70.5C 72.8826,70.3893 72.3826,70.056 72,69.5C 71.7645,71.1193 70.9311,72.1193 69.5,72.5C 69.8333,71.8333 70.1667,71.1667 70.5,70.5C 70.4894,68.9826 69.8228,67.8159 68.5,67C 66.1152,66.4436 63.7819,66.6103 61.5,67.5C 62.6602,65.7973 61.9935,65.1307 59.5,65.5C 59.5,64.1667 58.8333,63.5 57.5,63.5 Z"/></g>
<g><path style="opacity:1" fill="#815535" d="M 18.5,66.5 C 20.7447,69.4622 20.7447,72.4622 18.5,75.5C 18.7776,72.7097 18.1109,70.2097 16.5,68C 16.8361,66.9701 17.5028,66.4701 18.5,66.5 Z"/></g>
<g><path style="opacity:1" fill="#c7ab9f" d="M 30.5,66.5 C 32.7354,66.2053 34.7354,66.5386 36.5,67.5C 35.209,67.2627 34.209,67.596 33.5,68.5C 33.1667,69.1667 32.8333,69.8333 32.5,70.5C 32.1667,70.5 31.8333,70.5 31.5,70.5C 29.7084,69.5272 28.375,70.1939 27.5,72.5C 26.8333,72.8333 26.1667,73.1667 25.5,73.5C 24.596,72.791 24.2627,71.791 24.5,70.5C 26.8525,69.6597 28.8525,68.3264 30.5,66.5 Z"/></g>
<g><path style="opacity:1" fill="#816433" d="M 83.5,62.5 C 83.7038,65.5176 84.0371,68.5176 84.5,71.5C 84.1667,72.8333 83.8333,74.1667 83.5,75.5C 82.8333,74.8333 82.1667,74.1667 81.5,73.5C 81.5,72.5 81.5,71.5 81.5,70.5C 80.833,68.1806 80.6664,65.8473 81,63.5C 81.6708,62.7476 82.5041,62.4142 83.5,62.5 Z"/></g>
<g><path style="opacity:1" fill="#ada4a8" d="M 33.5,68.5 C 34.5,68.8333 35.1667,69.5 35.5,70.5C 37.1478,72.8722 36.4811,74.2056 33.5,74.5C 33.5,73.8333 33.5,73.1667 33.5,72.5C 33.1667,71.8333 32.8333,71.1667 32.5,70.5C 32.8333,69.8333 33.1667,69.1667 33.5,68.5 Z"/></g>
<g><path style="opacity:1" fill="#86685b" d="M 22.5,62.5 C 22.5,63.8333 22.5,65.1667 22.5,66.5C 22.5,68.1667 22.5,69.8333 22.5,71.5C 21.369,74.2553 19.7024,76.5886 17.5,78.5C 17.5569,77.391 17.8902,76.391 18.5,75.5C 20.7447,72.4622 20.7447,69.4622 18.5,66.5C 19.5,66.5 20.5,66.5 21.5,66.5C 21.5,65.5 21.5,64.5 21.5,63.5C 21.5,62.8333 21.8333,62.5 22.5,62.5 Z"/></g>
<g><path style="opacity:1" fill="#be9279" d="M 41.5,64.5 C 42.1667,64.5 42.5,64.8333 42.5,65.5C 43.6798,67.913 45.6798,68.913 48.5,68.5C 50.706,69.9715 53.0393,70.3049 55.5,69.5C 55.5,70.8333 56.1667,71.5 57.5,71.5C 55.9458,72.9142 54.6125,74.5808 53.5,76.5C 54.9492,77.1719 56.2825,77.8386 57.5,78.5C 54.7628,78.5987 52.0961,78.2653 49.5,77.5C 49.8333,76.8333 50.1667,76.1667 50.5,75.5C 51.8284,74.0903 51.4951,72.9236 49.5,72C 47.4024,71.3224 45.4024,71.4891 43.5,72.5C 41.1423,75.1157 39.809,74.449 39.5,70.5C 41.3079,69.0821 41.9746,67.0821 41.5,64.5 Z"/></g>
<g><path style="opacity:1" fill="#8b6046" d="M 93.5,71.5 C 94.5511,72.2223 95.2178,73.2223 95.5,74.5C 94.0568,75.3351 93.0568,76.6684 92.5,78.5C 91.6376,77.2342 90.9709,75.9008 90.5,74.5C 91.7375,73.2566 91.4041,72.2566 89.5,71.5C 87.244,72.4209 86.244,74.0876 86.5,76.5C 85.209,76.7373 84.209,76.404 83.5,75.5C 83.8333,74.1667 84.1667,72.8333 84.5,71.5C 85.1667,71.5 85.5,71.1667 85.5,70.5C 88.4549,68.91 91.1216,69.2433 93.5,71.5 Z"/></g>
<g><path style="opacity:1" fill="#a17c69" d="M 31.5,70.5 C 28.9781,72.0018 28.9781,73.3351 31.5,74.5C 32.1667,74.5 32.8333,74.5 33.5,74.5C 33.5,74.8333 33.5,75.1667 33.5,75.5C 31.8333,75.5 30.1667,75.5 28.5,75.5C 28.7373,74.209 28.404,73.209 27.5,72.5C 28.375,70.1939 29.7084,69.5272 31.5,70.5 Z"/></g>
<g><path style="opacity:1" fill="#797a7f" d="M 31.5,70.5 C 31.8333,70.5 32.1667,70.5 32.5,70.5C 32.8333,71.1667 33.1667,71.8333 33.5,72.5C 32.1667,72.5 31.5,73.1667 31.5,74.5C 28.9781,73.3351 28.9781,72.0018 31.5,70.5 Z"/></g>
<g><path style="opacity:1" fill="#1c1a1c" d="M 33.5,72.5 C 33.5,73.1667 33.5,73.8333 33.5,74.5C 32.8333,74.5 32.1667,74.5 31.5,74.5C 31.5,73.1667 32.1667,72.5 33.5,72.5 Z"/></g>
<g><path style="opacity:1" fill="#dfd6d7" d="M 50.5,75.5 C 48.8008,75.6602 47.1341,75.4935 45.5,75C 44.244,74.5831 43.5774,73.7498 43.5,72.5C 45.4024,71.4891 47.4024,71.3224 49.5,72C 51.4951,72.9236 51.8284,74.0903 50.5,75.5 Z"/></g>
<g><path style="opacity:1" fill="#2d2726" d="M 64.5,71.5 C 68.5,72.1667 68.5,72.8333 64.5,73.5C 63.1667,72.8333 63.1667,72.1667 64.5,71.5 Z"/></g>
<g><path style="opacity:1" fill="#b07d5c" d="M 73.5,70.5 C 74.1145,72.7225 75.4478,74.3892 77.5,75.5C 77.0431,76.2975 76.3764,76.6309 75.5,76.5C 73.3736,75.9518 71.3736,75.2852 69.5,74.5C 69.5,73.8333 69.5,73.1667 69.5,72.5C 70.9311,72.1193 71.7645,71.1193 72,69.5C 72.3826,70.056 72.8826,70.3893 73.5,70.5 Z"/></g>
<g><path style="opacity:1" fill="#9a8d88" d="M 70.5,70.5 C 70.1667,71.1667 69.8333,71.8333 69.5,72.5C 69.5,73.1667 69.5,73.8333 69.5,74.5C 67.8333,74.5 66.1667,74.5 64.5,74.5C 64.5,74.1667 64.5,73.8333 64.5,73.5C 68.5,72.8333 68.5,72.1667 64.5,71.5C 66.358,69.8704 68.358,69.5371 70.5,70.5 Z"/></g>
<g><path style="opacity:1" fill="#a17259" d="M 14.5,68.5 C 16.1155,70.738 17.4488,73.0713 18.5,75.5C 17.8902,76.391 17.5569,77.391 17.5,78.5C 16.3684,79.3543 15.035,79.3543 13.5,78.5C 17.0435,72.5761 15.5435,70.5761 9,72.5C 8.33333,73.1667 8.33333,73.8333 9,74.5C 13.1023,72.8292 13.9357,73.4959 11.5,76.5C 10.8333,79.8333 10.1667,83.1667 9.5,86.5C 8.88258,86.3893 8.38258,86.056 8,85.5C 6.98465,81.5598 6.48465,77.5598 6.5,73.5C 8.15871,70.167 10.8254,68.5003 14.5,68.5 Z"/></g>
<g><path style="opacity:1" fill="#5b2e1e" d="M 13.5,78.5 C 13.1667,78.5 12.8333,78.5 12.5,78.5C 11.6618,78.1583 11.3284,77.4916 11.5,76.5C 13.9357,73.4959 13.1023,72.8292 9,74.5C 8.33333,73.8333 8.33333,73.1667 9,72.5C 15.5435,70.5761 17.0435,72.5761 13.5,78.5 Z"/></g>
<g><path style="opacity:1" fill="#b67b58" d="M 27.5,72.5 C 28.404,73.209 28.7373,74.209 28.5,75.5C 30.1667,75.5 31.8333,75.5 33.5,75.5C 34.3382,75.8417 34.6716,76.5084 34.5,77.5C 32.0504,77.702 29.717,77.3686 27.5,76.5C 26.7375,75.7321 25.7375,75.2321 24.5,75C 25.056,74.6174 25.3893,74.1174 25.5,73.5C 26.1667,73.1667 26.8333,72.8333 27.5,72.5 Z"/></g>
<g><path style="opacity:1" fill="#cca997" d="M 36.5,67.5 C 37.5,67.8333 38.1667,68.5 38.5,69.5C 38.5,70.1667 38.8333,70.5 39.5,70.5C 39.809,74.449 41.1423,75.1157 43.5,72.5C 43.5774,73.7498 44.244,74.5831 45.5,75C 47.1341,75.4935 48.8008,75.6602 50.5,75.5C 50.1667,76.1667 49.8333,76.8333 49.5,77.5C 47.2655,77.6199 45.0989,77.2865 43,76.5C 41.2725,76.899 39.7725,77.5657 38.5,78.5C 38.5,79.1667 38.5,79.8333 38.5,80.5C 38.1667,80.5 37.8333,80.5 37.5,80.5C 37.5,79.8333 37.5,79.1667 37.5,78.5C 36.791,77.596 35.791,77.2627 34.5,77.5C 34.6716,76.5084 34.3382,75.8417 33.5,75.5C 33.5,75.1667 33.5,74.8333 33.5,74.5C 36.4811,74.2056 37.1478,72.8722 35.5,70.5C 36.2389,70.631 36.9056,70.4643 37.5,70C 36.7476,69.3292 36.4142,68.4959 36.5,67.5 Z"/></g>
<g><path style="opacity:1" fill="#7d4926" d="M 81.5,73.5 C 82.1667,74.1667 82.8333,74.8333 83.5,75.5C 84.209,76.404 85.209,76.7373 86.5,76.5C 86.5,77.1667 86.5,77.8333 86.5,78.5C 85.5,78.5 84.5,78.5 83.5,78.5C 81.7376,77.7377 80.7376,76.4044 80.5,74.5C 80.5,73.8333 80.8333,73.5 81.5,73.5 Z"/></g>
<g><path style="opacity:1" fill="#5f301a" d="M 90.5,74.5 C 88.228,74.9114 87.8947,76.078 89.5,78C 89.1639,79.0299 88.4972,79.5299 87.5,79.5C 86.8333,79.5 86.5,79.1667 86.5,78.5C 86.5,77.8333 86.5,77.1667 86.5,76.5C 86.244,74.0876 87.244,72.4209 89.5,71.5C 91.4041,72.2566 91.7375,73.2566 90.5,74.5 Z"/></g>
<g><path style="opacity:0.87" fill="#653427" d="M 96.5,70.5 C 97.1644,73.1459 97.4978,75.9792 97.5,79C 97.6741,83.4422 97.0074,87.6089 95.5,91.5C 96.2897,84.5293 96.6231,77.5293 96.5,70.5 Z"/></g>
<g><path style="opacity:1" fill="#87563b" d="M 49.5,77.5 C 52.0961,78.2653 54.7628,78.5987 57.5,78.5C 57.5,78.8333 57.5,79.1667 57.5,79.5C 57.6716,80.4916 57.3382,81.1583 56.5,81.5C 56.5,80.1667 55.8333,79.5 54.5,79.5C 53.5,79.5 52.5,79.5 51.5,79.5C 49.5214,81.1675 47.188,81.8342 44.5,81.5C 44.1667,80.5 43.5,79.8333 42.5,79.5C 41.4324,78.5655 40.099,78.2322 38.5,78.5C 39.7725,77.5657 41.2725,76.899 43,76.5C 45.0989,77.2865 47.2655,77.6199 49.5,77.5 Z"/></g>
<g><path style="opacity:1" fill="#cca898" d="M 64.5,74.5 C 66.1667,74.5 67.8333,74.5 69.5,74.5C 71.3736,75.2852 73.3736,75.9518 75.5,76.5C 76.8484,77.6006 78.3484,78.6006 80,79.5C 80.4221,81.3553 80.9221,83.1886 81.5,85C 81.4301,85.7648 81.0967,86.2648 80.5,86.5C 80.3893,85.8826 80.056,85.3826 79.5,85C 76.5184,84.502 73.5184,84.3354 70.5,84.5C 69.8333,84.1667 69.1667,83.8333 68.5,83.5C 71.1411,82.7263 73.8078,82.393 76.5,82.5C 75.6533,81.1552 74.4866,80.1552 73,79.5C 72.5172,78.552 72.3505,77.552 72.5,76.5C 70.1944,76.9926 67.861,77.3259 65.5,77.5C 64.6016,76.8423 63.6016,76.1757 62.5,75.5C 62.9569,74.7025 63.6236,74.3691 64.5,74.5 Z"/></g>
<g><path style="opacity:1" fill="#b8907d" d="M 24.5,70.5 C 24.2627,71.791 24.596,72.791 25.5,73.5C 25.3893,74.1174 25.056,74.6174 24.5,75C 25.7375,75.2321 26.7375,75.7321 27.5,76.5C 24.3567,76.969 22.0233,78.6356 20.5,81.5C 19.596,82.209 19.2627,83.209 19.5,84.5C 18.609,85.1098 17.609,85.4431 16.5,85.5C 16.1667,85.5 15.8333,85.5 15.5,85.5C 14.7784,85.9175 14.2784,86.5842 14,87.5C 13.0467,84.5682 12.5467,81.5682 12.5,78.5C 12.8333,78.5 13.1667,78.5 13.5,78.5C 15.035,79.3543 16.3684,79.3543 17.5,78.5C 19.7024,76.5886 21.369,74.2553 22.5,71.5C 23.1667,71.1667 23.8333,70.8333 24.5,70.5 Z"/></g>
<g><path style="opacity:1" fill="#dabab4" d="M 27.5,76.5 C 29.717,77.3686 32.0504,77.702 34.5,77.5C 35.791,77.2627 36.791,77.596 37.5,78.5C 33.1822,79.9922 29.1822,81.9922 25.5,84.5C 23.9611,83.2329 22.2944,82.2329 20.5,81.5C 22.0233,78.6356 24.3567,76.969 27.5,76.5 Z"/></g>
<g><path style="opacity:1" fill="#ead6df" d="M 68.5,83.5 C 69.1667,83.8333 69.8333,84.1667 70.5,84.5C 70.6309,85.3764 70.2975,86.0431 69.5,86.5C 67.9713,85.2371 66.3046,84.2371 64.5,83.5C 62.5368,82.1798 60.5368,80.8465 58.5,79.5C 58.3691,78.6236 58.7025,77.9569 59.5,77.5C 63.0006,78.7742 66.0006,80.7742 68.5,83.5 Z"/></g>
<g><path style="opacity:1" fill="#ddc1b9" d="M 57.5,71.5 C 59.0858,72.1481 60.7525,72.6481 62.5,73C 61.6198,74.3561 61.2865,75.8561 61.5,77.5C 62.8333,77.5 64.1667,77.5 65.5,77.5C 67.861,77.3259 70.1944,76.9926 72.5,76.5C 72.3505,77.552 72.5172,78.552 73,79.5C 74.4866,80.1552 75.6533,81.1552 76.5,82.5C 73.8078,82.393 71.1411,82.7263 68.5,83.5C 66.0006,80.7742 63.0006,78.7742 59.5,77.5C 58.7025,77.9569 58.3691,78.6236 58.5,79.5C 58.1667,79.5 57.8333,79.5 57.5,79.5C 57.5,79.1667 57.5,78.8333 57.5,78.5C 56.2825,77.8386 54.9492,77.1719 53.5,76.5C 54.6125,74.5808 55.9458,72.9142 57.5,71.5 Z"/></g>
<g><path style="opacity:1" fill="#9d6f52" d="M 90.5,74.5 C 90.9709,75.9008 91.6376,77.2342 92.5,78.5C 93.0568,76.6684 94.0568,75.3351 95.5,74.5C 95.5,76.5 95.5,78.5 95.5,80.5C 93.8333,80.5 92.1667,80.5 90.5,80.5C 90.5668,82.4008 90.2335,84.2341 89.5,86C 89.8361,87.0299 90.5028,87.5299 91.5,87.5C 90.791,88.404 89.791,88.7373 88.5,88.5C 87.592,85.4153 87.2587,82.4153 87.5,79.5C 88.4972,79.5299 89.1639,79.0299 89.5,78C 87.8947,76.078 88.228,74.9114 90.5,74.5 Z"/></g>
<g><path style="opacity:1" fill="#e7d3dd" d="M 37.5,78.5 C 37.5,79.1667 37.5,79.8333 37.5,80.5C 37.5,81.1667 37.1667,81.5 36.5,81.5C 33.0791,83.3757 29.4124,84.3757 25.5,84.5C 29.1822,81.9922 33.1822,79.9922 37.5,78.5 Z"/></g>
<g><path style="opacity:1" fill="#6f391e" d="M 38.5,78.5 C 40.099,78.2322 41.4324,78.5655 42.5,79.5C 40.9719,79.5173 40.4719,80.184 41,81.5C 42.2917,82.7911 43.4583,82.7911 44.5,81.5C 47.188,81.8342 49.5214,81.1675 51.5,79.5C 52.5,82.1667 53.5,82.1667 54.5,79.5C 55.8333,79.5 56.5,80.1667 56.5,81.5C 54.1667,82.1667 51.8333,82.8333 49.5,83.5C 49.1667,83.5 48.8333,83.5 48.5,83.5C 45.8127,83.6641 43.146,83.4974 40.5,83C 39.6195,82.2917 38.9528,81.4584 38.5,80.5C 38.5,79.8333 38.5,79.1667 38.5,78.5 Z"/></g>
<g><path style="opacity:1" fill="#3f190c" d="M 42.5,79.5 C 43.5,79.8333 44.1667,80.5 44.5,81.5C 43.4583,82.7911 42.2917,82.7911 41,81.5C 40.4719,80.184 40.9719,79.5173 42.5,79.5 Z"/></g>
<g><path style="opacity:1" fill="#2c0c02" d="M 51.5,79.5 C 52.5,79.5 53.5,79.5 54.5,79.5C 53.5,82.1667 52.5,82.1667 51.5,79.5 Z"/></g>
<g><path style="opacity:1" fill="#b08d7e" d="M 95.5,80.5 C 95.7475,82.8583 95.0808,84.8583 93.5,86.5C 92.8333,86.8333 92.1667,87.1667 91.5,87.5C 90.5028,87.5299 89.8361,87.0299 89.5,86C 90.2335,84.2341 90.5668,82.4008 90.5,80.5C 92.1667,80.5 93.8333,80.5 95.5,80.5 Z"/></g>
<g><path style="opacity:1" fill="#c8a493" d="M 58.5,79.5 C 60.5368,80.8465 62.5368,82.1798 64.5,83.5C 65.5,85.5 66.5,87.5 67.5,89.5C 66.8333,89.5 66.1667,89.5 65.5,89.5C 64.1363,87.8089 62.803,86.1423 61.5,84.5C 59.31,83.6255 58.31,81.9589 58.5,79.5 Z"/></g>
<g><path style="opacity:1" fill="#d2a292" d="M 20.5,81.5 C 22.2944,82.2329 23.9611,83.2329 25.5,84.5C 29.4124,84.3757 33.0791,83.3757 36.5,81.5C 35.9101,82.766 35.4101,84.0993 35,85.5C 32.0984,87.511 29.5984,89.8443 27.5,92.5C 27.5,91.8333 27.5,91.1667 27.5,90.5C 27.7512,88.8297 28.4178,87.3297 29.5,86C 26.1464,85.5448 22.8131,85.0448 19.5,84.5C 19.2627,83.209 19.596,82.209 20.5,81.5 Z"/></g>
<g><path style="opacity:1" fill="#b29689" d="M 80.5,74.5 C 80.7376,76.4044 81.7376,77.7377 83.5,78.5C 85.2983,81.3447 86.2983,84.5113 86.5,88C 86.3333,89.8333 86.1667,91.6667 86,93.5C 85.6174,94.056 85.1174,94.3893 84.5,94.5C 84.7709,92.6203 84.1042,91.287 82.5,90.5C 82.6716,89.5084 82.3382,88.8417 81.5,88.5C 81.1667,87.8333 80.8333,87.1667 80.5,86.5C 81.0967,86.2648 81.4301,85.7648 81.5,85C 80.9221,83.1886 80.4221,81.3553 80,79.5C 78.3484,78.6006 76.8484,77.6006 75.5,76.5C 76.3764,76.6309 77.0431,76.2975 77.5,75.5C 75.4478,74.3892 74.1145,72.7225 73.5,70.5C 73.5,69.8333 73.8333,69.5 74.5,69.5C 74.56,70.0431 74.8933,70.3764 75.5,70.5C 76.2508,69.624 76.7508,68.624 77,67.5C 76.9582,70.6006 78.1249,72.9339 80.5,74.5 Z"/></g>
<g><path style="opacity:1" fill="#aa7a5f" d="M 61.5,84.5 C 62.803,86.1423 64.1363,87.8089 65.5,89.5C 66.6256,90.8583 66.6256,92.1916 65.5,93.5C 64.8933,93.3764 64.56,93.0431 64.5,92.5C 62.5975,90.3721 60.9308,88.0387 59.5,85.5C 59.9569,84.7025 60.6236,84.3691 61.5,84.5 Z"/></g>
<g><path style="opacity:1" fill="#d9a296" d="M 64.5,83.5 C 66.3046,84.2371 67.9713,85.2371 69.5,86.5C 70.2975,86.0431 70.6309,85.3764 70.5,84.5C 73.5184,84.3354 76.5184,84.502 79.5,85C 80.056,85.3826 80.3893,85.8826 80.5,86.5C 80.8333,87.1667 81.1667,87.8333 81.5,88.5C 80.5,88.5 79.5,88.5 78.5,88.5C 78.5,89.5 78.5,90.5 78.5,91.5C 76.3254,91.3178 74.3254,90.6511 72.5,89.5C 71.5836,89.5427 70.9169,89.8761 70.5,90.5C 69.391,90.4431 68.391,90.1098 67.5,89.5C 66.5,87.5 65.5,85.5 64.5,83.5 Z"/></g>
<g><path style="opacity:0.514" fill="#826247" d="M 66.5,15.5 C 68.5273,15.3379 70.5273,15.5045 72.5,16C 75.8655,18.7068 78.5322,22.0401 80.5,26C 79.8333,26.6667 79.1667,27.3333 78.5,28C 82.6333,28.9937 86.3,30.1604 89.5,31.5C 90.1408,32.4822 90.8075,33.4822 91.5,34.5C 90.9125,38.4624 89.9125,42.2958 88.5,46C 89.8825,47.2708 90.8825,48.7708 91.5,50.5C 94.272,56.885 97.1053,63.2184 100,69.5C 100.667,76.5 100.667,83.5 100,90.5C 98.5611,98.144 95.5611,105.144 91,111.5C 83.1307,118.245 75.2974,124.579 67.5,130.5C 67.1667,130.5 66.8333,130.5 66.5,130.5C 66.5,129.833 66.5,129.167 66.5,128.5C 74.72,123.127 82.5533,117.127 90,110.5C 91.4884,106.19 93.4884,102.19 96,98.5C 98.4063,88.9776 99.073,79.3109 98,69.5C 97.0656,68.1416 96.2323,66.8083 95.5,65.5C 92.8767,56.8746 88.21,49.5413 81.5,43.5C 82.1839,41.5512 83.3506,39.8845 85,38.5C 85.9439,35.6529 85.4439,33.1529 83.5,31C 79.0826,29.4315 77.0826,30.9315 77.5,35.5C 78.5,35.5 79.5,35.5 80.5,35.5C 80.5,34.5 80.5,33.5 80.5,32.5C 81.5,32.5 82.5,32.5 83.5,32.5C 84.1686,38.0001 81.8353,40.1667 76.5,39C 74.3555,36.0211 72.0222,33.1878 69.5,30.5C 75.195,28.6538 76.8617,24.9871 74.5,19.5C 71.7046,16.2369 68.7046,15.9036 65.5,18.5C 65.5,17.8333 65.5,17.1667 65.5,16.5C 66.1667,16.5 66.5,16.1667 66.5,15.5 Z"/></g>
<g><path style="opacity:1" fill="#956352" d="M 11.5,76.5 C 11.3284,77.4916 11.6618,78.1583 12.5,78.5C 12.5467,81.5682 13.0467,84.5682 14,87.5C 14.2784,86.5842 14.7784,85.9175 15.5,85.5C 15.2417,89.3669 15.9084,93.0336 17.5,96.5C 16.5655,97.5676 16.2322,98.901 16.5,100.5C 16.0276,98.4687 15.0276,96.8021 13.5,95.5C 13.4349,92.5718 12.7682,89.9052 11.5,87.5C 10.5084,87.6716 9.84171,87.3382 9.5,86.5C 10.1667,83.1667 10.8333,79.8333 11.5,76.5 Z"/></g>
<g><path style="opacity:1" fill="#d29183" d="M 19.5,84.5 C 22.8131,85.0448 26.1464,85.5448 29.5,86C 28.4178,87.3297 27.7512,88.8297 27.5,90.5C 26.2436,90.0962 25.0769,89.4295 24,88.5C 21.6813,89.8713 19.1813,90.5379 16.5,90.5C 16.5,88.8333 16.5,87.1667 16.5,85.5C 17.609,85.4431 18.609,85.1098 19.5,84.5 Z"/></g>
<g><path style="opacity:1" fill="#dbb6ad" d="M 48.5,84.5 C 51.2469,84.1866 53.9135,84.52 56.5,85.5C 55.731,88.6241 54.0644,89.2908 51.5,87.5C 50.5514,86.8476 49.3847,86.5143 48,86.5C 46.3189,86.6083 45.1522,87.2749 44.5,88.5C 43.5,88.8333 42.8333,89.5 42.5,90.5C 40.6583,92.1898 39.325,94.1898 38.5,96.5C 38.5,92.8333 38.5,89.1667 38.5,85.5C 41.8599,85.3841 45.1933,85.0508 48.5,84.5 Z"/></g>
<g><path style="opacity:1" fill="#996763" d="M 51.5,87.5 C 49.0504,87.298 46.717,87.6314 44.5,88.5C 45.1522,87.2749 46.3189,86.6083 48,86.5C 49.3847,86.5143 50.5514,86.8476 51.5,87.5 Z"/></g>
<g><path style="opacity:1" fill="#110c0c" d="M 51.5,87.5 C 54.9297,89.9354 56.5963,93.2687 56.5,97.5C 54.8333,98.5 53.5,99.8333 52.5,101.5C 52.1667,101.5 51.8333,101.5 51.5,101.5C 44.1245,101.802 41.1245,98.4686 42.5,91.5C 43.9063,91.0269 44.573,90.0269 44.5,88.5C 46.717,87.6314 49.0504,87.298 51.5,87.5 Z"/></g>
<g><path style="opacity:1" fill="#d0a597" d="M 48.5,84.5 C 48.5,84.1667 48.5,83.8333 48.5,83.5C 48.8333,83.5 49.1667,83.5 49.5,83.5C 52.1667,83.5 54.8333,83.5 57.5,83.5C 58.2295,88.1304 58.5628,92.7971 58.5,97.5C 58.7373,98.791 58.404,99.791 57.5,100.5C 57.7373,99.209 57.404,98.209 56.5,97.5C 56.5963,93.2687 54.9297,89.9354 51.5,87.5C 54.0644,89.2908 55.731,88.6241 56.5,85.5C 53.9135,84.52 51.2469,84.1866 48.5,84.5 Z"/></g>
<g><path style="opacity:1" fill="#0e0101" d="M 92.5,89.5 C 91.8333,91.8333 91.1667,94.1667 90.5,96.5C 89.5318,94.3926 89.1984,92.0593 89.5,89.5C 90.5,89.5 91.5,89.5 92.5,89.5 Z"/></g>
<g><path style="opacity:1" fill="#200c09" d="M 6.5,73.5 C 6.48465,77.5598 6.98465,81.5598 8,85.5C 8.38258,86.056 8.88258,86.3893 9.5,86.5C 9.84171,87.3382 10.5084,87.6716 11.5,87.5C 11.6633,89.8568 11.4966,92.1902 11,94.5C 9.98873,93.6634 8.82207,93.33 7.5,93.5C 6.83333,93.5 6.5,93.1667 6.5,92.5C 5.88972,90.5659 4.88972,88.8993 3.5,87.5C 2.65859,85.6208 2.32526,83.6208 2.5,81.5C 3.4959,81.4142 4.32924,81.7476 5,82.5C 5.18052,79.3054 5.68052,76.3054 6.5,73.5 Z"/></g>
<g><path style="opacity:1" fill="#b9886f" d="M 37.5,80.5 C 37.8333,80.5 38.1667,80.5 38.5,80.5C 38.9528,81.4584 39.6195,82.2917 40.5,83C 43.146,83.4974 45.8127,83.6641 48.5,83.5C 48.5,83.8333 48.5,84.1667 48.5,84.5C 45.1933,85.0508 41.8599,85.3841 38.5,85.5C 38.5,89.1667 38.5,92.8333 38.5,96.5C 37.3065,96.9704 36.6399,97.9704 36.5,99.5C 36.6667,100.5 36.8333,101.5 37,102.5C 38.7073,104.037 40.2073,105.704 41.5,107.5C 39.772,106.621 37.9386,105.954 36,105.5C 33.6405,105.324 33.1405,105.991 34.5,107.5C 32.8333,106.833 31.1667,106.167 29.5,105.5C 29.7118,103.616 30.7118,102.283 32.5,101.5C 34.8889,87.7471 33.2222,87.0804 27.5,99.5C 26.8333,99.8333 26.1667,100.167 25.5,100.5C 24.2867,100.253 23.62,99.5862 23.5,98.5C 25.7379,97.1473 27.0713,95.1473 27.5,92.5C 29.5984,89.8443 32.0984,87.511 35,85.5C 35.4101,84.0993 35.9101,82.766 36.5,81.5C 37.1667,81.5 37.5,81.1667 37.5,80.5 Z"/></g>
<g><path style="opacity:1" fill="#563734" d="M 44.5,88.5 C 44.573,90.0269 43.9063,91.0269 42.5,91.5C 42.5,91.1667 42.5,90.8333 42.5,90.5C 42.8333,89.5 43.5,88.8333 44.5,88.5 Z"/></g>
<g><path style="opacity:1" fill="#9b7d6c" d="M 83.5,78.5 C 84.5,78.5 85.5,78.5 86.5,78.5C 86.5,79.1667 86.8333,79.5 87.5,79.5C 87.2587,82.4153 87.592,85.4153 88.5,88.5C 89.3266,94.1529 87.9933,99.1529 84.5,103.5C 83.6236,103.631 82.9569,103.298 82.5,102.5C 83.7515,100.999 84.7515,99.3325 85.5,97.5C 85.3764,96.8933 85.0431,96.56 84.5,96.5C 84.5,95.8333 84.5,95.1667 84.5,94.5C 85.1174,94.3893 85.6174,94.056 86,93.5C 86.1667,91.6667 86.3333,89.8333 86.5,88C 86.2983,84.5113 85.2983,81.3447 83.5,78.5 Z"/></g>
<g><path style="opacity:1" fill="#50372c" d="M 3.5,87.5 C 4.88972,88.8993 5.88972,90.5659 6.5,92.5C 5.83333,92.1667 5.16667,91.8333 4.5,91.5C 3.56552,90.4324 3.23219,89.099 3.5,87.5 Z"/></g>
<g><path style="opacity:1" fill="#b28d7b" d="M 65.5,89.5 C 66.1667,89.5 66.8333,89.5 67.5,89.5C 68.391,90.1098 69.391,90.4431 70.5,90.5C 70.5,91.1667 70.5,91.8333 70.5,92.5C 70.366,94.2915 70.6993,95.9582 71.5,97.5C 69.139,97.6741 66.8056,98.0074 64.5,98.5C 64.1667,97.5 63.5,96.8333 62.5,96.5C 62.6716,95.5084 62.3382,94.8417 61.5,94.5C 61.3505,93.448 61.5172,92.448 62,91.5C 62.6708,92.2524 63.5041,92.5858 64.5,92.5C 64.56,93.0431 64.8933,93.3764 65.5,93.5C 66.6256,92.1916 66.6256,90.8583 65.5,89.5 Z"/></g>
<g><path style="opacity:1" fill="#c68f75" d="M 57.5,79.5 C 57.8333,79.5 58.1667,79.5 58.5,79.5C 58.31,81.9589 59.31,83.6255 61.5,84.5C 60.6236,84.3691 59.9569,84.7025 59.5,85.5C 60.9308,88.0387 62.5975,90.3721 64.5,92.5C 63.5041,92.5858 62.6708,92.2524 62,91.5C 61.5172,92.448 61.3505,93.448 61.5,94.5C 60.2719,95.3065 59.2719,96.3065 58.5,97.5C 58.5628,92.7971 58.2295,88.1304 57.5,83.5C 54.8333,83.5 52.1667,83.5 49.5,83.5C 51.8333,82.8333 54.1667,82.1667 56.5,81.5C 57.3382,81.1583 57.6716,80.4916 57.5,79.5 Z"/></g>
<g><path style="opacity:1" fill="#c38172" d="M 81.5,88.5 C 82.3382,88.8417 82.6716,89.5084 82.5,90.5C 82.5,92.1667 82.5,93.8333 82.5,95.5C 79.1401,95.6159 75.8067,95.9492 72.5,96.5C 72.7709,94.6203 72.1042,93.287 70.5,92.5C 70.5,91.8333 70.5,91.1667 70.5,90.5C 70.9169,89.8761 71.5836,89.5427 72.5,89.5C 74.3254,90.6511 76.3254,91.3178 78.5,91.5C 78.5,90.5 78.5,89.5 78.5,88.5C 79.5,88.5 80.5,88.5 81.5,88.5 Z"/></g>
<g><path style="opacity:1" fill="#331917" d="M 11.5,87.5 C 12.7682,89.9052 13.4349,92.5718 13.5,95.5C 13.3253,97.6208 13.6586,99.6208 14.5,101.5C 13.2702,103.297 12.6036,105.297 12.5,107.5C 11.8333,107.5 11.5,107.167 11.5,106.5C 10.9522,101.861 9.61883,97.5275 7.5,93.5C 8.82207,93.33 9.98873,93.6634 11,94.5C 11.4966,92.1902 11.6633,89.8568 11.5,87.5 Z"/></g>
<g><path style="opacity:1" fill="#b48070" d="M 82.5,90.5 C 84.1042,91.287 84.7709,92.6203 84.5,94.5C 84.5,95.1667 84.5,95.8333 84.5,96.5C 80.4537,98.7976 76.1204,99.131 71.5,97.5C 70.6993,95.9582 70.366,94.2915 70.5,92.5C 72.1042,93.287 72.7709,94.6203 72.5,96.5C 75.8067,95.9492 79.1401,95.6159 82.5,95.5C 82.5,93.8333 82.5,92.1667 82.5,90.5 Z"/></g>
<g><path style="opacity:1" fill="#be796a" d="M 15.5,85.5 C 15.8333,85.5 16.1667,85.5 16.5,85.5C 16.5,87.1667 16.5,88.8333 16.5,90.5C 19.1813,90.5379 21.6813,89.8713 24,88.5C 25.0769,89.4295 26.2436,90.0962 27.5,90.5C 27.5,91.1667 27.5,91.8333 27.5,92.5C 27.0713,95.1473 25.7379,97.1473 23.5,98.5C 22.1667,98.5 20.8333,98.5 19.5,98.5C 19.1667,97.5 18.5,96.8333 17.5,96.5C 15.9084,93.0336 15.2417,89.3669 15.5,85.5 Z"/></g>
<g><path style="opacity:1" fill="#bb9191" d="M 42.5,90.5 C 42.5,90.8333 42.5,91.1667 42.5,91.5C 41.1245,98.4686 44.1245,101.802 51.5,101.5C 47.3057,103.388 43.8057,102.388 41,98.5C 40.5172,99.448 40.3505,100.448 40.5,101.5C 39.4625,100.07 38.7959,98.403 38.5,96.5C 39.325,94.1898 40.6583,92.1898 42.5,90.5 Z"/></g>
<g><path style="opacity:0.009" fill="#916e50" d="M -0.5,85.5 C 2.98986,102.483 12.3232,115.149 27.5,123.5C 28.0065,124.859 29.0065,125.859 30.5,126.5C 31.0671,128.982 31.7337,131.316 32.5,133.5C 33.9348,136.028 34.9348,138.695 35.5,141.5C 36.209,142.404 37.209,142.737 38.5,142.5C 38.2322,144.099 38.5655,145.432 39.5,146.5C 41.5575,147.202 43.5575,147.535 45.5,147.5C 45.0133,148.446 44.6799,149.446 44.5,150.5C 45.5186,152.511 46.5186,154.511 47.5,156.5C 47.8039,157.15 48.1373,157.817 48.5,158.5C 32.1803,159.499 15.8469,159.833 -0.5,159.5C -0.5,138.167 -0.5,116.833 -0.5,95.5C 0.833333,95.1667 0.833333,94.8333 -0.5,94.5C -0.5,91.5 -0.5,88.5 -0.5,85.5 Z M 32.5,145.5 C 33.1174,145.611 33.6174,145.944 34,146.5C 34.6667,148.833 34.6667,151.167 34,153.5C 33.7674,151.22 32.934,149.22 31.5,147.5C 31.8627,146.817 32.1961,146.15 32.5,145.5 Z"/></g>
<g><path style="opacity:1" fill="#7b6050" d="M 4.5,91.5 C 5.16667,91.8333 5.83333,92.1667 6.5,92.5C 6.5,93.1667 6.83333,93.5 7.5,93.5C 9.61883,97.5275 10.9522,101.861 11.5,106.5C 7.84775,102.192 5.51442,97.1916 4.5,91.5 Z"/></g>
<g><path style="opacity:1" fill="#a77858" d="M 29.5,105.5 C 28.5655,104.432 28.2322,103.099 28.5,101.5C 26.1432,101.663 23.8098,101.497 21.5,101C 20.244,100.583 19.5774,99.7498 19.5,98.5C 20.8333,98.5 22.1667,98.5 23.5,98.5C 23.62,99.5862 24.2867,100.253 25.5,100.5C 26.1667,100.167 26.8333,99.8333 27.5,99.5C 33.2222,87.0804 34.8889,87.7471 32.5,101.5C 30.7118,102.283 29.7118,103.616 29.5,105.5 Z"/></g>
<g><path style="opacity:1" fill="#641d18" d="M 24.5,36.5 C 25.1667,36.5 25.8333,36.5 26.5,36.5C 20.5273,40.4727 15.5273,45.4727 11.5,51.5C 9.4405,54.2402 7.77383,57.2402 6.5,60.5C 2.93875,66.9308 1.60541,73.9308 2.5,81.5C 2.32526,83.6208 2.65859,85.6208 3.5,87.5C 3.23219,89.099 3.56552,90.4324 4.5,91.5C 5.51442,97.1916 7.84775,102.192 11.5,106.5C 11.5,107.167 11.8333,107.5 12.5,107.5C 13.0955,110.113 13.9288,110.113 15,107.5C 16.2396,110.412 17.9063,113.079 20,115.5C 21.2635,117.607 23.0968,118.607 25.5,118.5C 25.8333,118.5 26.1667,118.5 26.5,118.5C 27.5736,119.885 28.9069,121.051 30.5,122C 36.3572,123.423 42.1905,124.923 48,126.5C 50.5459,126.141 52.7126,125.141 54.5,123.5C 59.9279,122.198 65.2612,120.531 70.5,118.5C 71.9217,118.291 73.255,117.791 74.5,117C 81.5732,111.438 86.9066,104.605 90.5,96.5C 91.6668,94.9586 93.0001,93.6252 94.5,92.5C 88.5535,110.78 76.2202,122.113 57.5,126.5C 58.4293,125.685 59.4293,124.852 60.5,124C 57.4775,123.836 54.8109,124.836 52.5,127C 47.8065,127.564 43.1398,127.397 38.5,126.5C 34.7894,125.656 31.1228,124.656 27.5,123.5C 12.3232,115.149 2.98986,102.483 -0.5,85.5C -0.5,81.1667 -0.5,76.8333 -0.5,72.5C 0.944951,65.4303 3.61162,58.7637 7.5,52.5C 10.1914,48.8151 12.8581,45.1484 15.5,41.5C 16.8333,40.8333 18.1667,40.1667 19.5,39.5C 21.0009,38.2485 22.6675,37.2485 24.5,36.5 Z"/></g>
<g><path style="opacity:1" fill="#d8c8ca" d="M 42.5,108.5 C 43.1667,108.833 43.8333,109.167 44.5,109.5C 47.1741,111.001 47.0075,112.001 44,112.5C 42.0614,112.046 40.228,111.379 38.5,110.5C 39.1834,108.824 40.5168,108.157 42.5,108.5 Z"/></g>
<g><path style="opacity:1" fill="#d3b0a6" d="M 63.5,107.5 C 62.5,108.167 61.5,108.833 60.5,109.5C 60.2089,108.351 59.3756,107.684 58,107.5C 55.941,108.618 53.7743,109.285 51.5,109.5C 51.5,109.167 51.5,108.833 51.5,108.5C 53.0618,108.267 54.3951,107.6 55.5,106.5C 55.8333,106.5 56.1667,106.5 56.5,106.5C 57.9672,106.106 59.4672,105.773 61,105.5C 62.3756,105.684 63.2089,106.351 63.5,107.5 Z"/></g>
<g><path style="opacity:1" fill="#562410" d="M 53.5,104.5 C 53.8333,104.5 54.1667,104.5 54.5,104.5C 55.3382,104.842 55.6716,105.508 55.5,106.5C 54.3951,107.6 53.0618,108.267 51.5,108.5C 48.6035,108.875 45.9368,108.375 43.5,107C 46.6946,106.819 49.6946,106.319 52.5,105.5C 53.1667,105.5 53.5,105.167 53.5,104.5 Z"/></g>
<g><path style="opacity:1" fill="#d3aea7" d="M 41.5,107.5 C 42.1667,107.5 42.5,107.833 42.5,108.5C 40.5168,108.157 39.1834,108.824 38.5,110.5C 37.8333,110.167 37.1667,109.833 36.5,109.5C 35.8333,108.833 35.1667,108.167 34.5,107.5C 33.1405,105.991 33.6405,105.324 36,105.5C 37.9386,105.954 39.772,106.621 41.5,107.5 Z"/></g>
<g><path style="opacity:1" fill="#96725b" d="M 13.5,95.5 C 15.0276,96.8021 16.0276,98.4687 16.5,100.5C 17.2899,101.794 18.2899,102.961 19.5,104C 23.307,105.428 26.9736,106.928 30.5,108.5C 29.5084,108.328 28.8417,108.662 28.5,109.5C 28.1667,109.5 27.8333,109.5 27.5,109.5C 24.5786,108.304 21.5786,107.304 18.5,106.5C 17.1363,104.809 15.803,103.142 14.5,101.5C 13.6586,99.6208 13.3253,97.6208 13.5,95.5 Z"/></g>
<g><path style="opacity:1" fill="#8c5e40" d="M 17.5,96.5 C 18.5,96.8333 19.1667,97.5 19.5,98.5C 19.5774,99.7498 20.244,100.583 21.5,101C 23.8098,101.497 26.1432,101.663 28.5,101.5C 28.2322,103.099 28.5655,104.432 29.5,105.5C 31.1667,106.167 32.8333,106.833 34.5,107.5C 35.1667,108.167 35.8333,108.833 36.5,109.5C 35.5084,109.328 34.8417,109.662 34.5,110.5C 33.1667,109.833 31.8333,109.167 30.5,108.5C 26.9736,106.928 23.307,105.428 19.5,104C 18.2899,102.961 17.2899,101.794 16.5,100.5C 16.2322,98.901 16.5655,97.5676 17.5,96.5 Z"/></g>
<g><path style="opacity:1" fill="#d0a9ac" d="M 41.5,103.5 C 45.4338,104.36 49.4338,104.693 53.5,104.5C 53.5,105.167 53.1667,105.5 52.5,105.5C 49.1501,105.665 45.8168,105.498 42.5,105C 41.944,104.617 41.6107,104.117 41.5,103.5 Z"/></g>
<g><path style="opacity:1" fill="#aa7e62" d="M 62.5,96.5 C 63.5,96.8333 64.1667,97.5 64.5,98.5C 64.5,99.5 64.5,100.5 64.5,101.5C 66.7844,102.029 68.7844,103.029 70.5,104.5C 67.8808,104.925 65.5475,105.925 63.5,107.5C 63.2089,106.351 62.3756,105.684 61,105.5C 59.4672,105.773 57.9672,106.106 56.5,106.5C 57.6633,103.762 59.4967,102.762 62,103.5C 62.4966,101.19 62.6633,98.8568 62.5,96.5 Z"/></g>
<g><path style="opacity:1" fill="#f6d4dd" d="M 56.5,97.5 C 57.404,98.209 57.7373,99.209 57.5,100.5C 56.5,101.833 55.5,103.167 54.5,104.5C 54.1667,104.5 53.8333,104.5 53.5,104.5C 49.4338,104.693 45.4338,104.36 41.5,103.5C 41.1667,102.833 40.8333,102.167 40.5,101.5C 40.3505,100.448 40.5172,99.448 41,98.5C 43.8057,102.388 47.3057,103.388 51.5,101.5C 51.8333,101.5 52.1667,101.5 52.5,101.5C 54.8333,101.167 56.1667,99.8333 56.5,97.5 Z"/></g>
<g><path style="opacity:1" fill="#89543a" d="M 38.5,96.5 C 38.7959,98.403 39.4625,100.07 40.5,101.5C 40.8333,102.167 41.1667,102.833 41.5,103.5C 41.6107,104.117 41.944,104.617 42.5,105C 45.8168,105.498 49.1501,105.665 52.5,105.5C 49.6946,106.319 46.6946,106.819 43.5,107C 45.9368,108.375 48.6035,108.875 51.5,108.5C 51.5,108.833 51.5,109.167 51.5,109.5C 50.8333,109.5 50.1667,109.5 49.5,109.5C 47.8333,109.5 46.1667,109.5 44.5,109.5C 43.8333,109.167 43.1667,108.833 42.5,108.5C 42.5,107.833 42.1667,107.5 41.5,107.5C 40.2073,105.704 38.7073,104.037 37,102.5C 36.8333,101.5 36.6667,100.5 36.5,99.5C 36.6399,97.9704 37.3065,96.9704 38.5,96.5 Z"/></g>
<g><path style="opacity:1" fill="#967158" d="M 84.5,96.5 C 85.0431,96.56 85.3764,96.8933 85.5,97.5C 84.7515,99.3325 83.7515,100.999 82.5,102.5C 82.9569,103.298 83.6236,103.631 84.5,103.5C 83.8333,104.5 83.1667,105.5 82.5,106.5C 78.1965,107.627 73.8631,108.627 69.5,109.5C 68.791,108.596 67.791,108.263 66.5,108.5C 68.933,107.752 71.2663,106.585 73.5,105C 72.552,104.517 71.552,104.351 70.5,104.5C 68.7844,103.029 66.7844,102.029 64.5,101.5C 64.5,100.5 64.5,99.5 64.5,98.5C 66.8056,98.0074 69.139,97.6741 71.5,97.5C 76.1204,99.131 80.4537,98.7976 84.5,96.5 Z"/></g>
<g><path style="opacity:1" fill="#b48e93" d="M 56.5,97.5 C 56.1667,99.8333 54.8333,101.167 52.5,101.5C 53.5,99.8333 54.8333,98.5 56.5,97.5 Z"/></g>
<g><path style="opacity:1" fill="#a26446" d="M 61.5,94.5 C 62.3382,94.8417 62.6716,95.5084 62.5,96.5C 62.6633,98.8568 62.4966,101.19 62,103.5C 59.4967,102.762 57.6633,103.762 56.5,106.5C 56.1667,106.5 55.8333,106.5 55.5,106.5C 55.6716,105.508 55.3382,104.842 54.5,104.5C 55.5,103.167 56.5,101.833 57.5,100.5C 58.404,99.791 58.7373,98.791 58.5,97.5C 59.2719,96.3065 60.2719,95.3065 61.5,94.5 Z"/></g>
<g><path style="opacity:1" fill="#8d5838" d="M 82.5,106.5 C 80.7656,109.2 78.4323,111.2 75.5,112.5C 74.5,112.5 73.5,112.5 72.5,112.5C 72.6309,111.624 72.2975,110.957 71.5,110.5C 68.8333,111.833 66.1667,113.167 63.5,114.5C 62.1667,113.833 62.1667,113.167 63.5,112.5C 65.5266,111.487 67.5266,110.487 69.5,109.5C 73.8631,108.627 78.1965,107.627 82.5,106.5 Z"/></g>
<g><path style="opacity:1" fill="#4d1614" d="M 14.5,101.5 C 15.803,103.142 17.1363,104.809 18.5,106.5C 17.7611,106.369 17.0944,106.536 16.5,107C 19.1466,111.136 22.1466,114.969 25.5,118.5C 23.0968,118.607 21.2635,117.607 20,115.5C 17.9063,113.079 16.2396,110.412 15,107.5C 13.9288,110.113 13.0955,110.113 12.5,107.5C 12.6036,105.297 13.2702,103.297 14.5,101.5 Z"/></g>
<g><path style="opacity:1" fill="#ded1d5" d="M 60.5,109.5 C 59.5,110.167 58.5,110.833 57.5,111.5C 54.3019,112.036 51.6353,111.369 49.5,109.5C 50.1667,109.5 50.8333,109.5 51.5,109.5C 53.7743,109.285 55.941,108.618 58,107.5C 59.3756,107.684 60.2089,108.351 60.5,109.5 Z"/></g>
<g><path style="opacity:1" fill="#bc9984" d="M 28.5,109.5 C 28.8417,108.662 29.5084,108.328 30.5,108.5C 31.8333,109.167 33.1667,109.833 34.5,110.5C 36.8333,112.5 39.1667,114.5 41.5,116.5C 40.7494,117.573 39.7494,117.74 38.5,117C 35.3158,114.248 31.9825,111.748 28.5,109.5 Z"/></g>
<g><path style="opacity:1" fill="#371813" d="M 93.5,86.5 C 94.7152,87.779 94.3818,88.779 92.5,89.5C 91.5,89.5 90.5,89.5 89.5,89.5C 89.1984,92.0593 89.5318,94.3926 90.5,96.5C 86.9066,104.605 81.5732,111.438 74.5,117C 73.255,117.791 71.9217,118.291 70.5,118.5C 72.4953,116.696 74.1619,114.696 75.5,112.5C 78.4323,111.2 80.7656,109.2 82.5,106.5C 83.1667,105.5 83.8333,104.5 84.5,103.5C 87.9933,99.1529 89.3266,94.1529 88.5,88.5C 89.791,88.7373 90.791,88.404 91.5,87.5C 92.1667,87.1667 92.8333,86.8333 93.5,86.5 Z"/></g>
<g><path style="opacity:0.663" fill="#6c4f39" d="M 95.5,65.5 C 96.2323,66.8083 97.0656,68.1416 98,69.5C 99.073,79.3109 98.4063,88.9776 96,98.5C 93.4884,102.19 91.4884,106.19 90,110.5C 82.5533,117.127 74.72,123.127 66.5,128.5C 64.8007,128.527 63.4674,129.194 62.5,130.5C 59.4867,130.893 56.8201,130.226 54.5,128.5C 55.5,127.833 56.5,127.167 57.5,126.5C 76.2202,122.113 88.5535,110.78 94.5,92.5C 94.5,91.8333 94.8333,91.5 95.5,91.5C 97.0074,87.6089 97.6741,83.4422 97.5,79C 97.4978,75.9792 97.1644,73.1459 96.5,70.5C 95.6993,68.9582 95.366,67.2915 95.5,65.5 Z"/></g>
<g><path style="opacity:1" fill="#280f0b" d="M 18.5,106.5 C 21.3235,110.255 24.3235,113.922 27.5,117.5C 27.5,118.167 27.1667,118.5 26.5,118.5C 26.1667,118.5 25.8333,118.5 25.5,118.5C 22.1466,114.969 19.1466,111.136 16.5,107C 17.0944,106.536 17.7611,106.369 18.5,106.5 Z"/></g>
<g><path style="opacity:0.004" fill="#926f50" d="M 104.5,113.5 C 104.5,128.833 104.5,144.167 104.5,159.5C 92.6547,159.828 80.988,159.495 69.5,158.5C 70.4511,157.081 70.7845,155.415 70.5,153.5C 71.8333,153.5 73.1667,153.5 74.5,153.5C 74.2837,151.319 75.117,149.653 77,148.5C 76.5335,142.36 78.3668,137.194 82.5,133C 84.1667,132.667 85.8333,132.333 87.5,132C 90.378,127.144 94.378,123.644 99.5,121.5C 100.31,119.202 101.144,116.868 102,114.5C 102.671,113.748 103.504,113.414 104.5,113.5 Z"/></g>
<g><path style="opacity:1" fill="#a47354" d="M 27.5,109.5 C 27.8333,109.5 28.1667,109.5 28.5,109.5C 31.9825,111.748 35.3158,114.248 38.5,117C 39.7494,117.74 40.7494,117.573 41.5,116.5C 45.6358,118.802 49.9692,119.136 54.5,117.5C 55.209,118.404 56.209,118.737 57.5,118.5C 47.2016,120.912 37.535,119.245 28.5,113.5C 26.8624,112.295 26.5291,110.962 27.5,109.5 Z"/></g>
<g><path style="opacity:1" fill="#865130" d="M 18.5,106.5 C 21.5786,107.304 24.5786,108.304 27.5,109.5C 26.5291,110.962 26.8624,112.295 28.5,113.5C 27.6676,114.329 28.001,115.162 29.5,116C 31.6705,117.586 34.0038,118.92 36.5,120C 35.552,120.483 34.552,120.649 33.5,120.5C 31.5168,119.529 29.5168,118.529 27.5,117.5C 24.3235,113.922 21.3235,110.255 18.5,106.5 Z"/></g>
<g><path style="opacity:1" fill="#804727" d="M 70.5,104.5 C 71.552,104.351 72.552,104.517 73.5,105C 71.2663,106.585 68.933,107.752 66.5,108.5C 62.1038,111.025 58.1038,114.025 54.5,117.5C 49.9692,119.136 45.6358,118.802 41.5,116.5C 39.1667,114.5 36.8333,112.5 34.5,110.5C 34.8417,109.662 35.5084,109.328 36.5,109.5C 37.1667,109.833 37.8333,110.167 38.5,110.5C 41.3115,114.696 44.8115,115.362 49,112.5C 52.245,114.148 55.0783,113.815 57.5,111.5C 58.5,110.833 59.5,110.167 60.5,109.5C 61.5,108.833 62.5,108.167 63.5,107.5C 65.5475,105.925 67.8808,104.925 70.5,104.5 Z"/></g>
<g><path style="opacity:1" fill="#c5aba1" d="M 44.5,109.5 C 46.1667,109.5 47.8333,109.5 49.5,109.5C 51.6353,111.369 54.3019,112.036 57.5,111.5C 55.0783,113.815 52.245,114.148 49,112.5C 44.8115,115.362 41.3115,114.696 38.5,110.5C 40.228,111.379 42.0614,112.046 44,112.5C 47.0075,112.001 47.1741,111.001 44.5,109.5 Z"/></g>
<g><path style="opacity:1" fill="#b48b6f" d="M 66.5,108.5 C 67.791,108.263 68.791,108.596 69.5,109.5C 67.5266,110.487 65.5266,111.487 63.5,112.5C 62.1667,113.167 62.1667,113.833 63.5,114.5C 66.1667,113.167 68.8333,111.833 71.5,110.5C 72.2975,110.957 72.6309,111.624 72.5,112.5C 67.5771,114.798 62.5771,116.798 57.5,118.5C 56.209,118.737 55.209,118.404 54.5,117.5C 58.1038,114.025 62.1038,111.025 66.5,108.5 Z"/></g>
<g><path style="opacity:1" fill="#76401f" d="M 72.5,112.5 C 73.5,112.5 74.5,112.5 75.5,112.5C 74.1619,114.696 72.4953,116.696 70.5,118.5C 65.2612,120.531 59.9279,122.198 54.5,123.5C 49.8215,123.666 45.1548,123.499 40.5,123C 37.8958,122.61 35.5625,121.776 33.5,120.5C 34.552,120.649 35.552,120.483 36.5,120C 34.0038,118.92 31.6705,117.586 29.5,116C 28.001,115.162 27.6676,114.329 28.5,113.5C 37.535,119.245 47.2016,120.912 57.5,118.5C 62.5771,116.798 67.5771,114.798 72.5,112.5 Z"/></g>
<g><path style="opacity:1" fill="#52251f" d="M 27.5,117.5 C 29.5168,118.529 31.5168,119.529 33.5,120.5C 35.5625,121.776 37.8958,122.61 40.5,123C 45.1548,123.499 49.8215,123.666 54.5,123.5C 52.7126,125.141 50.5459,126.141 48,126.5C 42.1905,124.923 36.3572,123.423 30.5,122C 28.9069,121.051 27.5736,119.885 26.5,118.5C 27.1667,118.5 27.5,118.167 27.5,117.5 Z"/></g>
<g><path style="opacity:0.995" fill="#6b3c31" d="M 57.5,126.5 C 56.5,127.167 55.5,127.833 54.5,128.5C 50.1307,129.023 45.7973,129.356 41.5,129.5C 40.9002,128.1 39.9002,127.1 38.5,126.5C 43.1398,127.397 47.8065,127.564 52.5,127C 54.8109,124.836 57.4775,123.836 60.5,124C 59.4293,124.852 58.4293,125.685 57.5,126.5 Z"/></g>
<g><path style="opacity:0.608" fill="#7a543d" d="M 27.5,123.5 C 31.1228,124.656 34.7894,125.656 38.5,126.5C 39.9002,127.1 40.9002,128.1 41.5,129.5C 40.8333,129.5 40.5,129.833 40.5,130.5C 37.5918,130.738 35.2585,129.738 33.5,127.5C 32.5344,129.396 32.2011,131.396 32.5,133.5C 31.7337,131.316 31.0671,128.982 30.5,126.5C 29.0065,125.859 28.0065,124.859 27.5,123.5 Z"/></g>
<g><path style="opacity:0.99" fill="#6c3024" d="M 54.5,128.5 C 56.8201,130.226 59.4867,130.893 62.5,130.5C 60.5,131.167 58.5,131.833 56.5,132.5C 55.3478,131.375 54.3478,131.375 53.5,132.5C 50.8333,132.5 48.1667,132.5 45.5,132.5C 46.0764,130.217 45.0764,129.883 42.5,131.5C 42.1583,130.662 41.4916,130.328 40.5,130.5C 40.5,129.833 40.8333,129.5 41.5,129.5C 45.7973,129.356 50.1307,129.023 54.5,128.5 Z"/></g>
<g><path style="opacity:0.999" fill="#631411" d="M 40.5,130.5 C 41.4916,130.328 42.1583,130.662 42.5,131.5C 41.5318,133.607 41.1984,135.941 41.5,138.5C 39.9699,140.346 37.9699,141.346 35.5,141.5C 34.9348,138.695 33.9348,136.028 32.5,133.5C 32.2011,131.396 32.5344,129.396 33.5,127.5C 35.2585,129.738 37.5918,130.738 40.5,130.5 Z"/></g>
<g><path style="opacity:0.784" fill="#734f39" d="M 45.5,132.5 C 43.7274,133.314 43.2274,134.648 44,136.5C 45.314,138.812 46.9806,140.812 49,142.5C 52.7883,139.966 54.2883,136.633 53.5,132.5C 54.3478,131.375 55.3478,131.375 56.5,132.5C 57.6129,133.946 57.7796,135.613 57,137.5C 54.1576,140.542 51.3243,143.542 48.5,146.5C 46.7806,144.456 45.1139,142.456 43.5,140.5C 43.1667,139.5 42.5,138.833 41.5,138.5C 41.1984,135.941 41.5318,133.607 42.5,131.5C 45.0764,129.883 46.0764,130.217 45.5,132.5 Z"/></g>
<g><path style="opacity:1" fill="#621310" d="M 45.5,132.5 C 48.1667,132.5 50.8333,132.5 53.5,132.5C 54.2883,136.633 52.7883,139.966 49,142.5C 46.9806,140.812 45.314,138.812 44,136.5C 43.2274,134.648 43.7274,133.314 45.5,132.5 Z"/></g>
<g><path style="opacity:0.886" fill="#672f23" d="M 41.5,138.5 C 42.5,138.833 43.1667,139.5 43.5,140.5C 40.6874,141.446 39.354,143.446 39.5,146.5C 38.5655,145.432 38.2322,144.099 38.5,142.5C 37.209,142.737 36.209,142.404 35.5,141.5C 37.9699,141.346 39.9699,140.346 41.5,138.5 Z"/></g>
<g><path style="opacity:1" fill="#631511" d="M 66.5,128.5 C 66.5,129.167 66.5,129.833 66.5,130.5C 64.3899,133.723 63.3899,137.39 63.5,141.5C 61.0509,140.943 58.7175,140.943 56.5,141.5C 58.1045,143.179 58.7711,145.179 58.5,147.5C 56.7376,147.643 55.0709,147.309 53.5,146.5C 53.2448,148.343 53.0781,150.343 53,152.5C 51.2802,153.384 50.1135,154.717 49.5,156.5C 48.8333,156.5 48.1667,156.5 47.5,156.5C 46.5186,154.511 45.5186,152.511 44.5,150.5C 44.6799,149.446 45.0133,148.446 45.5,147.5C 43.5575,147.535 41.5575,147.202 39.5,146.5C 39.354,143.446 40.6874,141.446 43.5,140.5C 45.1139,142.456 46.7806,144.456 48.5,146.5C 51.3243,143.542 54.1576,140.542 57,137.5C 57.7796,135.613 57.6129,133.946 56.5,132.5C 58.5,131.833 60.5,131.167 62.5,130.5C 63.4674,129.194 64.8007,128.527 66.5,128.5 Z"/></g>
<g><path style="opacity:0.4" fill="#6f4d38" d="M 66.5,130.5 C 66.8333,130.5 67.1667,130.5 67.5,130.5C 68.0184,131.577 68.3517,132.744 68.5,134C 65.9736,136.584 64.9736,139.75 65.5,143.5C 63.8333,143.5 62.1667,143.5 60.5,143.5C 61.5749,147.938 59.9083,149.938 55.5,149.5C 55.8151,152.211 55.1484,154.544 53.5,156.5C 52.1667,156.5 50.8333,156.5 49.5,156.5C 50.1135,154.717 51.2802,153.384 53,152.5C 53.0781,150.343 53.2448,148.343 53.5,146.5C 55.0709,147.309 56.7376,147.643 58.5,147.5C 58.7711,145.179 58.1045,143.179 56.5,141.5C 58.7175,140.943 61.0509,140.943 63.5,141.5C 63.3899,137.39 64.3899,133.723 66.5,130.5 Z"/></g>
<g><path style="opacity:0.038" fill="#83674c" d="M 47.5,156.5 C 48.1667,156.5 48.8333,156.5 49.5,156.5C 50.8333,156.5 52.1667,156.5 53.5,156.5C 51.9219,158.318 52.4219,159.318 55,159.5C 56.3756,159.316 57.2089,158.649 57.5,157.5C 61.3998,158.43 65.3998,158.763 69.5,158.5C 80.988,159.495 92.6547,159.828 104.5,159.5C 104.5,159.833 104.5,160.167 104.5,160.5C 69.5,160.5 34.5,160.5 -0.5,160.5C -0.5,160.167 -0.5,159.833 -0.5,159.5C 15.8469,159.833 32.1803,159.499 48.5,158.5C 48.1373,157.817 47.8039,157.15 47.5,156.5 Z"/></g>
</svg>
